<?xml version="1.0" encoding="UTF-8"?>
<svg width="32px" height="32px" viewBox="0 0 32 32" version="1.1" xmlns="http://www.w3.org/2000/svg" xmlns:xlink="http://www.w3.org/1999/xlink">
    <title>Group</title>
    <defs>
        <filter id="filter-1">
            <feColorMatrix in="SourceGraphic" type="matrix" values="0 0 0 0 1.000000 0 0 0 0 0.592550 0 0 0 0 0.592550 0 0 0 1.000000 0"></feColorMatrix>
        </filter>
        <filter id="filter-2">
            <feColorMatrix in="SourceGraphic" type="matrix" values="0 0 0 0 1.000000 0 0 0 0 1.000000 0 0 0 0 1.000000 0 0 0 1.000000 0"></feColorMatrix>
        </filter>
    </defs>
    <g id="Page-1" stroke="none" stroke-width="1" fill="none" fill-rule="evenodd">
        <g id="Taska-Kanban" transform="translate(-77.000000, -770.000000)">
            <g id="Group" transform="translate(77.000000, 770.000000)">
                <g filter="url(#filter-1)" id="Water">
                    <g>
                        <rect id="Rectangle" fill="#D8D8D8" x="0" y="0" width="32" height="32"></rect>
                    </g>
                </g>
                <g filter="url(#filter-2)" id="flower">
                    <g transform="translate(5.000000, 5.000000)">
                        <path d="M21.7761662,8.01660951 C21.0074558,5.65058972 18.45752,4.35121925 16.0921349,5.1198222 C15.7796664,5.22137715 15.4633306,5.3618264 15.1506902,5.53584079 C15.2195691,5.18476064 15.255362,4.84038492 15.255362,4.5117818 C15.255362,1.99989764 13.5199843,0 11.0452008,0 C8.56680795,0 6.7446334,2.00432429 6.7446334,4.5117818 C6.7446334,4.84034194 6.78042634,5.18471766 6.8493052,5.53584079 C6.53666479,5.36186938 6.22032907,5.22137715 5.90786053,5.1198222 C3.54260431,4.35109032 0.992496659,5.65058972 0.22382921,8.01660951 C-0.555709326,10.4163663 0.770649153,13.0888131 3.12004991,13.8523877 C3.43251845,13.9539426 3.7709401,14.0262302 4.12611954,14.0692932 C3.86405331,14.3128876 3.63279566,14.5704495 3.43965126,14.8362631 C1.97764053,16.8489679 2.42533163,19.6760893 4.43755683,21.138343 C6.44883672,22.5999951 9.06120605,22.1594366 10.5279433,20.1401993 C10.7210877,19.8743428 10.8944236,19.5747062 11.0451578,19.250143 C11.1958491,19.5747492 11.3692279,19.8743428 11.5623723,20.1401993 C13.0310862,22.1621871 15.5553696,22.5968578 17.5623527,21.138343 C19.5746208,19.6760463 20.0223119,16.8489249 18.5603012,14.8362631 C18.3672427,14.5704065 18.1358562,14.3128876 17.8738329,14.0692503 C18.2289264,14.0262302 18.5675629,13.9538567 18.8800315,13.8523877 C21.2293892,13.088856 22.5557047,10.4164093 21.7761662,8.01660951 Z M11.0452008,1.28909893 C12.7379106,1.28909893 13.9665152,2.64442562 13.9665152,4.5117818 C13.9665152,5.3522425 13.6376756,6.38846402 13.0869026,7.28367758 C13.0202581,7.39202292 12.9894495,7.51274567 12.9914261,7.63174934 L12.3204265,8.79333513 C12.1197626,8.70647836 11.9001924,8.6391332 11.681009,8.59447997 L11.681009,5.95151557 C11.681009,5.595579 11.4010678,5.30698759 11.0452008,5.30698759 C10.6893339,5.30698759 10.4007989,5.595579 10.4007989,5.95151557 L10.4007989,8.59452294 C10.1764592,8.64025061 9.96084216,8.70995951 9.7559673,8.79973873 L9.00680765,7.57248388 C8.99928813,7.47303481 8.96865143,7.3740155 8.9130499,7.28367758 C8.36227684,6.38846402 8.03343722,5.3522425 8.03343722,4.5117818 C8.03343722,2.67455259 9.32821368,1.28909893 11.0452008,1.28909893 Z M3.51828402,12.6264221 C1.86231248,12.0882196 0.895602194,10.1202539 1.44955494,8.4149645 C1.99860926,6.72493195 3.81979553,5.79675493 5.50962642,6.34578773 C6.20331345,6.57124574 6.9607231,7.07837585 7.59412501,7.73205795 L8.70078442,9.54500509 C8.52487048,9.73182666 8.37099949,9.93949214 8.24329645,10.1640476 L5.72846612,9.34679458 C5.38970072,9.23673016 5.02640018,9.42209051 4.91644323,9.76057836 C4.80640033,10.0991522 4.99172443,10.4627387 5.33014607,10.5727601 L7.84403109,11.3897553 C7.8148983,11.6484776 7.81687486,11.8806401 7.84562094,12.1274147 L6.23601265,12.6890828 C5.27132189,12.891634 4.26817413,12.8701025 3.51828402,12.6264221 Z M10.400713,16.6427636 C10.3173966,17.6841854 9.97601012,18.707041 9.4853503,19.3825125 C8.43665569,20.8261142 6.62926238,21.1376554 5.19513835,20.0954601 C3.75783464,19.050944 3.43810438,17.0316207 4.48237321,15.5939498 C5.3356031,14.419256 6.81763726,13.885523 6.93004343,13.812247 L8.24969879,13.3517471 C8.36855027,13.558725 8.50910096,13.7516923 8.66924538,13.9265662 L7.1148519,16.0664833 C6.9056372,16.3544731 6.96948872,16.7575555 7.25737915,16.9667682 C7.54514067,17.1759379 7.94818727,17.1122458 8.15748791,16.8242131 L9.71145171,14.6848546 C9.929475,14.7844326 10.1600452,14.8611468 10.400713,14.9101837 L10.400713,16.6427636 L10.400713,16.6427636 Z M11.0452008,13.6859802 C9.97923278,13.6859802 9.11195211,12.8185729 9.11195211,11.7523533 C9.11195211,10.6861338 9.97918981,9.81872641 11.0452008,9.81872641 C12.1111688,9.81872641 12.9784495,10.6861338 12.9784495,11.7523533 C12.9784495,12.8185729 12.1111688,13.6859802 11.0452008,13.6859802 Z M16.8048141,20.0954601 C15.3238112,21.1717363 13.6194998,20.7789683 12.6050083,19.3825125 C12.1143485,18.707041 11.7643683,17.6841854 11.680966,16.6428066 L11.680966,14.9102267 C11.9215908,14.8611468 12.1607547,14.7845186 12.378778,14.6848976 L13.9327418,16.824256 C14.1419565,17.1122458 14.5449602,17.1760238 14.8328506,16.9668112 C15.120784,16.7575555 15.1846355,16.354516 14.9753778,16.0665263 L13.4210273,13.9266522 C13.5797968,13.7531965 13.7193592,13.5620772 13.8375661,13.3570333 L15.0387137,13.789856 C15.1867839,13.8996625 16.6518884,14.4021081 17.5175363,15.5939498 C18.561934,17.0316207 18.2421608,19.050944 16.8048141,20.0954601 Z M15.8130101,12.6986237 L14.2439643,12.1332166 C14.2739994,11.8796516 14.2751166,11.645942 14.2462846,11.3897123 L16.7601696,10.5727171 C17.0986342,10.4626957 17.2838724,10.0991092 17.1738724,9.76053538 C17.0638725,9.42196157 16.7003142,9.23668718 16.3618496,9.3467516 L13.8470192,10.1640047 C13.7170818,9.93558122 13.5600741,9.72460651 13.380293,9.53529226 L14.4445852,7.69294877 C15.0700379,7.05830553 15.8106038,6.56669017 16.490326,6.34578773 C18.1798991,5.79675493 20.0013002,6.72488897 20.5503975,8.41487855 C21.1043503,10.120211 20.13764,12.0881766 18.4816684,12.6263792 L18.4817114,12.6263792 C17.7444541,12.8659766 16.7625329,12.8903017 15.8130101,12.6986237 Z" id="Shape" fill="#000000" fill-rule="nonzero"></path>
                    </g>
                </g>
            </g>
        </g>
    </g>
</svg>