<?xml version="1.0" encoding="UTF-8"?>
<svg width="32px" height="32px" viewBox="0 0 32 32" version="1.1" xmlns="http://www.w3.org/2000/svg" xmlns:xlink="http://www.w3.org/1999/xlink">
    <title>Water</title>
    <defs>
        <filter id="filter-1">
            <feColorMatrix in="SourceGraphic" type="matrix" values="0 0 0 0 0.243137 0 0 0 0 0.243137 0 0 0 0 0.243137 0 0 0 1.000000 0"></feColorMatrix>
        </filter>
    </defs>
    <g id="Page-1" stroke="none" stroke-width="1" fill="none" fill-rule="evenodd">
        <g id="Taska-Kanban" transform="translate(-35.000000, -770.000000)">
            <g id="Water" transform="translate(35.000000, 770.000000)">
                <rect id="Rectangle" fill="#D8D8D8" x="0" y="0" width="32" height="32"></rect>
                <g filter="url(#filter-1)" id="drop">
                    <g transform="translate(8.000000, 5.000000)">
                        <path d="M10.0528302,2.42550612 C9.53962264,1.67838803 9.08679245,0.991039394 8.66415094,0.363460201 C8.60377358,0.273806031 8.51320755,0.18415186 8.42264151,0.124382413 C8.06037736,-0.114695375 7.57735849,0.00484351933 7.33584906,0.363460201 C6.94339623,0.991039394 6.49056604,1.64850331 5.94716981,2.42550612 C3.56226415,5.89213404 0,11.1219607 0,14.110433 C0,16.2920178 0.905660377,18.2644096 2.35471698,19.6988763 C3.80377358,21.1034583 5.79622642,22 8,22 C10.2037736,22 12.1962264,21.1034583 13.645283,19.6689916 C15.0943396,18.2345248 16,16.2621331 16,14.0805483 C16,11.0920759 12.4377358,5.89213404 10.0528302,2.42550612 Z M12.5584906,18.5931415 C11.3811321,19.7586457 9.78113208,20.4459944 8,20.4459944 C6.21886792,20.4459944 4.61886792,19.728761 3.44150943,18.5931415 C2.26415094,17.4276373 1.56981132,15.843747 1.56981132,14.0805483 C1.56981132,11.5702315 4.98113208,6.57948268 7.24528302,3.26227838 C7.51698113,2.87377697 7.75849057,2.48527557 8,2.15654361 C8.24150943,2.48527557 8.48301887,2.87377697 8.75471698,3.26227838 C11.0188679,6.60936741 14.4301887,11.5702315 14.4301887,14.0805483 C14.4301887,15.843747 13.7056604,17.4276373 12.5584906,18.5931415 Z" id="Shape" fill="#000000" fill-rule="nonzero"></path>
                        <path d="M12.2553713,14.00177 C11.8221448,13.9737489 11.4508078,14.2819809 11.4198631,14.6742762 C11.3889183,15.2907403 11.1723051,15.8791832 10.8319129,16.3835629 C10.4915206,16.8879426 9.99640462,17.3362801 9.40845438,17.616491 C9.03711738,17.8126386 8.88239364,18.2609761 9.09900688,18.5972293 C9.34656488,18.9895246 9.84168087,19.1016089 10.2130179,18.9054613 C11.0485261,18.4851449 11.7293106,17.8686808 12.1934818,17.1681535 C12.6885978,16.4676262 12.9671006,15.6269934 12.9980453,14.7583395 C13.0289901,14.3660442 12.6885978,14.0297911 12.2553713,14.00177 Z" id="Path" fill="#000000" fill-rule="nonzero"></path>
                    </g>
                </g>
            </g>
        </g>
    </g>
</svg>