<?xml version="1.0" encoding="UTF-8"?>
<svg width="18px" height="22px" viewBox="0 0 18 22" version="1.1" xmlns="http://www.w3.org/2000/svg" xmlns:xlink="http://www.w3.org/1999/xlink">
    <title>bell</title>
    <defs>
        <filter id="filter-1">
            <feColorMatrix in="SourceGraphic" type="matrix" values="0 0 0 0 0.094118 0 0 0 0 0.564706 0 0 0 0 1.000000 0 0 0 1.000000 0"></feColorMatrix>
        </filter>
    </defs>
    <g id="Page-1" stroke="none" stroke-width="1" fill="none" fill-rule="evenodd">
        <g id="Taska-Kanban" transform="translate(-73.000000, -847.000000)">
            <g id="bell" transform="translate(0.000000, 833.000000)" filter="url(#filter-1)">
                <g transform="translate(73.000000, 14.000000)">
                    <path d="M16.832657,17.5077461 C16.768808,17.4657656 16.2882651,17.1248086 15.8070858,16.0933437 C14.9234247,14.1991953 14.7379446,11.5309219 14.7379446,9.62607422 C14.7379446,9.61778125 14.7377749,9.60957422 14.7374779,9.60132422 C14.7278475,7.08382813 13.2394669,4.91364844 11.1095845,3.93993359 L11.1095845,2.45076562 C11.1095845,1.09939844 10.0258917,0 8.69384556,0 L8.49364409,0 C7.16159793,0 6.07790511,1.09939844 6.07790511,2.45076562 L6.07790511,3.93984766 C3.94089545,4.91669922 2.44954508,7.09796484 2.44954508,9.62607422 C2.44954508,11.5309219 2.26406493,14.1991523 1.38040388,16.0933437 C0.899267011,17.1247656 0.418724082,17.4657227 0.354832703,17.5077461 C0.085776178,17.6338594 -0.046885404,17.9251875 0.015012021,18.2204258 C0.0775033898,18.5185859 0.35266905,18.7241484 0.65316217,18.7241484 L5.31761467,18.7241484 C5.34366334,20.5348945 6.80281347,22 8.59376604,22 C10.3847186,22 11.8438687,20.5348945 11.8699174,18.7241484 L16.5343699,18.7241484 C16.8348206,18.7241484 17.1100287,18.5185859 17.1725201,18.2204258 C17.2343326,17.9251875 17.1017135,17.6338164 16.832657,17.5077461 Z M7.35068417,2.45076563 C7.35068417,1.81134766 7.86342733,1.29116797 8.49368652,1.29116797 L8.69388799,1.29116797 C9.32414717,1.29116797 9.83689034,1.81134766 9.83689034,2.45076563 L9.83689034,3.52141797 C9.43521465,3.43732813 9.01941159,3.39307031 8.59359634,3.39307031 C8.16790836,3.39307031 7.75223258,3.43728516 7.35072659,3.52128906 L7.35072659,2.45076563 L7.35068417,2.45076563 Z M8.59376604,20.708832 C7.50460045,20.708832 6.61618786,19.8229453 6.5903513,18.7241914 L10.5971384,18.7241914 C10.5713442,19.8229023 9.68293163,20.708832 8.59376604,20.708832 L8.59376604,20.708832 Z M11.1562091,17.4329375 C11.1560819,17.4329375 2.10344557,17.4329375 2.10344557,17.4329375 C2.21353729,17.2591719 2.32558053,17.062418 2.43694499,16.8400547 C3.28984823,15.1366445 3.72232414,12.7095117 3.72232414,9.62607422 C3.72232414,6.901125 5.90757052,4.68423828 8.59355392,4.68423828 C11.2795373,4.68423828 13.4647837,6.901125 13.4647837,9.62822266 C13.4647837,9.63617188 13.464911,9.64407813 13.4652079,9.65198438 C13.4676261,12.7230469 13.9000596,15.141457 14.7505871,16.8400547 C14.8619515,17.0624609 14.9740372,17.2591719 15.0840865,17.4329375 L11.1562091,17.4329375 Z" id="Shape" fill="#000000" fill-rule="nonzero"></path>
                </g>
            </g>
        </g>
    </g>
</svg>