<?xml version="1.0" encoding="UTF-8"?>
<svg width="18px" height="22px" viewBox="0 0 18 22" version="1.1" xmlns="http://www.w3.org/2000/svg" xmlns:xlink="http://www.w3.org/1999/xlink">
    <title>clipboard</title>
    <defs>
        <filter id="filter-1">
            <feColorMatrix in="SourceGraphic" type="matrix" values="0 0 0 0 0.094118 0 0 0 0 0.564706 0 0 0 0 1.000000 0 0 0 1.000000 0"></feColorMatrix>
        </filter>
    </defs>
    <g id="Page-1" stroke="none" stroke-width="1" fill="none" fill-rule="evenodd">
        <g id="Taska-Kanban" transform="translate(-194.000000, -847.000000)">
            <g id="clipboard" transform="translate(0.000000, 833.000000)" filter="url(#filter-1)">
                <g transform="translate(194.000000, 14.000000)">
                    <path d="M15.3599898,2.88241406 L13.3333333,2.88241406 L13.3333333,1.99201748 C13.3333333,1.70394063 13.0133537,1.57301028 12.7200179,1.57301028 L11.1467126,1.57301028 C10.7733946,0.525467203 9.84004849,0.00169566487 8.77338182,0.00169566487 C7.71845472,-0.0372526062 6.7589243,0.598000212 6.40005104,1.57301028 L4.85338948,1.57301028 C4.56005359,1.57301028 4.26671771,1.70394063 4.26671771,1.99201748 L4.26671771,2.88241406 L2.24001021,2.88241406 C1.03900214,2.8949958 0.0564519731,3.82544343 0,5.00366623 L0,20.0096782 C0,21.1619856 1.06666667,22 2.24001021,22 L15.3599898,22 C16.5333333,22 17.6,21.1619856 17.6,20.0096782 L17.6,5.00371636 C17.543548,3.82544343 16.5609979,2.8949958 15.3599898,2.88241406 Z M5.33333333,2.62055335 L6.80001276,2.62055335 C7.05603726,2.58987595 7.26168373,2.39859332 7.3067024,2.14916398 C7.464625,1.47375986 8.06798737,0.988936591 8.77338182,0.970690554 C9.47224296,0.991493041 10.0665199,1.4778201 10.2133665,2.14916398 C10.2611925,2.40721508 10.480416,2.6009539 10.7466998,2.62055335 L12.2667177,2.62055335 L12.2667177,4.71563951 L5.33333333,4.71563951 L5.33333333,2.62055335 Z M16.5333333,20.0097283 C16.5333333,20.585882 15.9466616,20.9525071 15.3599898,20.9525071 L2.24001021,20.9525071 C1.65333844,20.9525071 1.06666667,20.585882 1.06666667,20.0097283 L1.06666667,5.00371636 C1.12107698,4.40400321 1.62700099,3.94098496 2.24001021,3.92995714 L4.26666667,3.92995714 L4.26666667,5.26562719 C4.29484161,5.55906757 4.55362236,5.77857141 4.85333844,5.76323271 L12.7199668,5.76323271 C13.0251954,5.77962406 13.2920917,5.56312782 13.3332823,5.26562719 L13.3332823,3.92995714 L15.3599388,3.92995714 C15.9728969,3.94098496 16.478872,4.40395308 16.5333333,5.00366623 L16.5333333,20.0097283 L16.5333333,20.0097283 Z" id="Shape" fill="#000000" fill-rule="nonzero"></path>
                    <path d="M6.42973035,11.8934267 C6.22210144,11.6904089 5.87741309,11.6789582 5.65468486,11.867773 L3.88319016,13.4339731 L3.13585325,12.7150318 C2.92822435,12.512014 2.58353599,12.5006124 2.36080777,12.6893781 C2.14639741,12.8977527 2.14639741,13.2255986 2.36080777,13.4339731 L3.49564093,14.5123605 C3.59386598,14.6143854 3.73574662,14.6708038 3.88313718,14.6664299 C4.02915026,14.6645133 4.16843488,14.6091269 4.27063344,14.5123605 L6.42962439,12.612368 C6.64366388,12.4302369 6.6579685,12.1216066 6.46157137,11.9231102 C6.45150516,11.9127406 6.44085617,11.9028625 6.42973035,11.8934267 Z" id="Path" fill="#000000" fill-rule="nonzero"></path>
                    <path d="M14.8567882,13.2 L8.60987847,13.2 C8.30986169,13.2 8.06666667,13.3641561 8.06666667,13.5666667 C8.06666667,13.7691773 8.30986169,13.9333333 8.60987847,13.9333333 L14.8567882,13.9333333 C15.156805,13.9333333 15.4,13.7691773 15.4,13.5666667 C15.4,13.3641561 15.156805,13.2 14.8567882,13.2 Z" id="Path" fill="#000000" fill-rule="nonzero"></path>
                    <path d="M6.42973035,7.49342667 C6.22210144,7.29040893 5.87741309,7.27895816 5.65468486,7.46777302 L3.88319016,9.03397312 L3.13585325,8.31503179 C2.92822435,8.11201404 2.58353599,8.10056327 2.36080777,8.28937813 C2.14639741,8.49775268 2.14639741,8.82559857 2.36080777,9.03397312 L3.49564093,10.1123605 C3.59386598,10.2143854 3.73574662,10.2708038 3.88313718,10.2664299 C4.02915026,10.2645133 4.16843488,10.2091269 4.27063344,10.1123605 L6.42962439,8.21236801 C6.64366388,8.03023686 6.6579685,7.72160663 6.46157137,7.52311022 C6.45150516,7.51274064 6.44085617,7.5028625 6.42973035,7.49342667 Z" id="Path" fill="#000000" fill-rule="nonzero"></path>
                    <path d="M14.8567882,8.8 L8.60987847,8.8 C8.30986169,8.8 8.06666667,8.96415606 8.06666667,9.16666667 C8.06666667,9.36917727 8.30986169,9.53333333 8.60987847,9.53333333 L14.8567882,9.53333333 C15.156805,9.53333333 15.4,9.36917727 15.4,9.16666667 C15.4,8.96415606 15.156805,8.8 14.8567882,8.8 Z" id="Path" fill="#000000" fill-rule="nonzero"></path>
                    <path d="M6.42973035,15.5600751 C6.22210144,15.3570561 5.87741309,15.3456544 5.65468486,15.5344213 L3.88319016,17.1006317 L3.13585325,16.3816856 C2.92822435,16.1786666 2.58353599,16.1672649 2.36080777,16.3560318 C2.14639741,16.5644077 2.14639741,16.8922558 2.36080777,17.1006317 L3.49564093,18.1790262 C3.59386598,18.2810518 3.73574662,18.3374705 3.88313718,18.3330966 C4.02915026,18.3311799 4.16843488,18.2757932 4.27063344,18.1790262 L6.42962439,16.2790212 C6.64366388,16.0968888 6.6579685,15.7882566 6.46157137,15.5897589 C6.45150516,15.5794384 6.44085617,15.5695602 6.42973035,15.5600751 Z" id="Path" fill="#000000" fill-rule="nonzero"></path>
                    <path d="M14.8567882,16.8666667 L8.60987847,16.8666667 C8.30986169,16.8666667 8.06666667,17.0308227 8.06666667,17.2333333 C8.06666667,17.4358439 8.30986169,17.6 8.60987847,17.6 L14.8567882,17.6 C15.156805,17.6 15.4,17.4358439 15.4,17.2333333 C15.4,17.0308227 15.156805,16.8666667 14.8567882,16.8666667 Z" id="Path" fill="#000000" fill-rule="nonzero"></path>
                </g>
            </g>
        </g>
    </g>
</svg>