<?xml version="1.0" encoding="UTF-8"?>
<svg width="20px" height="23px" viewBox="0 0 20 23" version="1.1" xmlns="http://www.w3.org/2000/svg" xmlns:xlink="http://www.w3.org/1999/xlink">
    <title>statistics</title>
    <defs>
        <filter id="filter-1">
            <feColorMatrix in="SourceGraphic" type="matrix" values="0 0 0 0 0.419608 0 0 0 0 0.419608 0 0 0 0 0.419608 0 0 0 1.000000 0"></feColorMatrix>
        </filter>
    </defs>
    <g id="Page-1" stroke="none" stroke-width="1" fill="none" fill-rule="evenodd">
        <g id="Taska-Kanban" transform="translate(-322.000000, -847.000000)">
            <g id="statistics" transform="translate(0.000000, 833.000000)" filter="url(#filter-1)">
                <g transform="translate(322.000000, 14.000000)">
                    <path d="M0,21.38125 C0,21.722965 0.307816667,22 0.6875,22 L3.4375,22 C3.81718333,22 4.125,21.722965 4.125,21.38125 L4.125,18.49375 C4.125,18.152035 3.81718333,17.875 3.4375,17.875 L0.6875,17.875 C0.307816667,17.875 0,18.152035 0,18.49375 L0,21.38125 Z M1.375,19.1125 L2.75,19.1125 L2.75,20.7625 L1.375,20.7625 L1.375,19.1125 Z" id="Shape" fill="#000000" fill-rule="nonzero"></path>
                    <path d="M8.9375,21.3486593 L8.9375,15.0888407 C8.9375,14.729127 8.62968333,14.4375 8.25,14.4375 L5.5,14.4375 C5.12031667,14.4375 4.8125,14.729127 4.8125,15.0888407 L4.8125,21.3486593 C4.8125,21.708373 5.12031667,22 5.5,22 L8.25,22 C8.62968333,22 8.9375,21.708373 8.9375,21.3486593 L8.9375,21.3486593 Z M7.5625,20.6973186 L6.1875,20.6973186 L6.1875,15.7401814 L7.5625,15.7401814 L7.5625,20.6973186 Z" id="Shape" fill="#000000" fill-rule="nonzero"></path>
                    <path d="M14.4375,21.3494922 L14.4375,10.2755078 C14.4375,9.91625402 14.1296833,9.625 13.75,9.625 L11,9.625 C10.6203167,9.625 10.3125,9.91625402 10.3125,10.2755078 L10.3125,21.3494922 C10.3125,21.708746 10.6203167,22 11,22 L13.75,22 C14.1296833,22 14.4375,21.708746 14.4375,21.3494922 L14.4375,21.3494922 Z M13.0625,20.6989844 L11.6875,20.6989844 L11.6875,10.9260156 L13.0625,10.9260156 L13.0625,20.6989844 Z" id="Shape" fill="#000000" fill-rule="nonzero"></path>
                    <path d="M19.9375,21.3488975 L19.9375,5.4636025 C19.9375,5.10402029 19.6296833,4.8125 19.25,4.8125 L16.5,4.8125 C16.1203167,4.8125 15.8125,5.10402029 15.8125,5.4636025 L15.8125,21.3488975 C15.8125,21.7084797 16.1203167,22 16.5,22 L19.25,22 C19.6296833,22 19.9375,21.7084797 19.9375,21.3488975 L19.9375,21.3488975 Z M18.5625,20.697795 L17.1875,20.697795 L17.1875,6.114705 L18.5625,6.114705 L18.5625,20.697795 Z" id="Shape" fill="#000000" fill-rule="nonzero"></path>
                    <path d="M19.6490212,0.11206243 C19.348184,-0.0890467677 18.9386538,-0.0121190442 18.7343057,0.283886396 L17.2588293,2.42054204 L15.0091129,2.42054204 C14.7641147,2.42054204 14.5393538,2.55439887 14.4257442,2.76794781 L12.0686518,7.1981381 L9.87718894,7.1981381 C9.63680011,7.1981381 9.41550718,7.32702767 9.29987822,7.53439993 L6.80955355,12.0009592 L4.60935484,12.0009592 C4.39253957,12.0009592 4.18964016,12.1059627 4.06681182,12.2817173 L2.02420915,15.2041933 L0.658479263,15.2041933 C0.294823115,15.2041933 0,15.4942812 0,15.8520967 C0,16.2099121 0.294823115,16.5 0.658479263,16.5 L2.37052535,16.5 C2.58729672,16.5 2.79024003,16.3949965 2.91306836,16.2192419 L4.95567103,13.2967659 L7.19937327,13.2967659 C7.4397621,13.2967659 7.66105503,13.1678763 7.77668399,12.960504 L10.2670087,8.49394478 L12.4672074,8.49394478 C12.7122056,8.49394478 12.9369665,8.36008795 13.0505761,8.14653901 L15.4076685,3.71634873 L17.607516,3.71634873 C17.8256482,3.71634873 18.0296012,3.61009258 18.1521661,3.43256706 L19.823606,1.01212975 C20.027998,0.716124313 19.9498145,0.313171627 19.6490212,0.11206243 Z" id="Path" fill="#000000" fill-rule="nonzero"></path>
                </g>
            </g>
        </g>
    </g>
</svg>