<?xml version="1.0" encoding="UTF-8"?>
<svg width="266px" height="281px" viewBox="0 0 266 281" version="1.1" xmlns="http://www.w3.org/2000/svg" xmlns:xlink="http://www.w3.org/1999/xlink">
    <title>Cleaning</title>
    <defs>
        <polygon id="path-1" points="0.841629874 0.4573556 253.34889 0.4573556 253.34889 280.798762 0.841629874 280.798762"></polygon>
        <polygon id="path-3" points="0.128475789 0.0572916667 265.569564 0.0572916667 265.569564 271.799478 0.128475789 271.799478"></polygon>
    </defs>
    <g id="Page-1" stroke="none" stroke-width="1" fill="none" fill-rule="evenodd">
        <g id="Cleaning-Overview" transform="translate(-80.000000, -326.000000)">
            <g id="Cleaning" transform="translate(80.000000, 326.000000)">
                <path d="M251,98.3459764 C251,163.226871 235.098177,263 170.0044,263 C104.919798,263 9.66486067,239.698868 9.66486067,174.817973 C9.66486067,109.946227 -27.047883,55.0188589 86.4487256,24.9936044 C149.349466,8.34340532 251,33.4650817 251,98.3459764" id="Path" fill="#EBC23F" fill-rule="nonzero"></path>
                <g id="Clipped" transform="translate(8.000000, 0.000000)">
                    <mask id="mask-2" fill="white">
                        <use xlink:href="#path-1"></use>
                    </mask>
                    <g id="Path"></g>
                    <path d="M87.0172104,30.5697277 C87.3190988,30.6886399 87.7216175,30.679491 88.0235082,30.4782552 C88.3253966,30.2861659 88.5723949,30.0026042 88.6364325,29.6001302 C88.6913226,29.2616868 88.6364325,28.923241 88.5175072,28.6305327 C88.5083596,28.6213861 88.5083596,28.6122396 88.5083596,28.603093 C88.3802843,28.3103847 88.2064689,28.0542649 87.9869132,27.8255848 C87.9594706,27.7981451 87.913728,27.7889986 87.8771378,27.7981451 C87.8131001,27.8164382 87.7765075,27.8804687 87.7948027,27.9444993 C87.8588403,28.2280611 87.9411731,28.502474 87.9960632,28.7585937 C88.0509509,29.0238601 88.0875435,29.2799799 88.0600985,29.5178066 C88.0692484,29.7098958 87.922878,29.9385736 87.7582101,30.0940743 C87.7490625,30.1032232 87.7307674,30.1032232 87.7216175,30.1123698 C87.8131001,29.9843111 87.8954329,29.828808 87.922878,29.6550118 C87.950323,29.4080409 87.913728,29.2433913 87.8679879,29.0604486 C87.8405428,28.978125 87.8039526,28.8958014 87.7673576,28.8226243 C87.7216175,28.7311518 87.6667297,28.6396816 87.584397,28.5573556 C87.575247,28.5390625 87.547802,28.5207694 87.5203593,28.5207694 C87.4563217,28.502474 87.392284,28.548209 87.3739889,28.6122396 L87.3739889,28.6213861 C87.3556914,28.7403006 87.3465439,28.8500639 87.3373963,28.950683 C87.3373963,29.0147135 87.3282464,29.0787441 87.3282464,29.1427723 C87.3282464,29.3074219 87.3465439,29.4903646 87.3556914,29.6001302 C87.3465439,29.7098958 87.3282464,29.8471034 87.2550612,29.9660156 C87.181876,30.0849278 87.0995432,30.2221354 86.9897654,30.331901 L86.9806178,30.3410476 C86.9623204,30.3501965 86.9531728,30.3684896 86.9531728,30.3867827 C86.9531728,30.3959316 86.9440252,30.3959316 86.9440252,30.3959316 C86.9348777,30.4233736 86.9348777,30.4508132 86.9440252,30.4782552 C86.9531728,30.5148437 86.9806178,30.5514323 87.0172104,30.5697277 Z M222.730028,114.238574 L184.774351,0.44820905 L180.319201,1.93919271 L218.274878,115.729557 L222.730028,114.238574 Z M221.961584,224.754265 L205.257059,220.253874 C205.110689,220.208137 204.955171,220.253874 204.845393,220.354491 L200.527466,224.296907 L221.055916,229.830926 L222.272619,225.293946 C222.336657,225.065266 222.199434,224.818293 221.961584,224.754265 Z M227.944473,226.830665 L224.266918,240.459896 L185.561091,230.023015 L200.884244,216.01875 C202.476021,214.564355 204.699022,214.024676 206.784801,214.58265 L223.489325,219.092187 C226.855845,219.997754 228.85014,223.464519 227.944473,226.830665 Z M244.886848,270.069173 L244.658145,271.651626 L252.763408,272.785874 L252.982963,271.203417 L244.886848,270.069173 Z M243.917145,274.825683 L252.022406,275.950781 L252.241961,274.368327 L244.136701,273.234083 L243.917145,274.825683 Z M129.51952,172.551562 L102.742882,172.551562 C99.2391399,172.551562 96.0098433,175.451204 95.5341394,179.018588 L85.8645423,250.613217 C85.3888408,254.189746 87.8313953,257.08024 91.3351376,257.08024 L118.111776,257.08024 C121.615518,257.08024 124.844815,254.189746 125.329666,250.613217 L134.990113,179.018588 C135.474965,175.451204 133.02326,172.551562 129.51952,172.551562 Z M100.355213,33.9633132 C101.379806,34.301759 103.172846,33.8809896 103.172846,33.8809896 L103.008178,33.0394531 C102.01103,27.9810878 102.01103,22.776366 103.026476,17.7180007 C103.026476,17.7180007 103.310066,16.8307292 103.630252,16.4922857 C103.950438,16.1538423 104.53592,15.8794271 104.956734,16.0623698 C105.46903,15.6416027 106.200882,15.4952486 106.841254,15.6964844 C107.472476,15.8977202 108.28666,16.4739903 108.460476,17.1142909 C108.844697,16.3001965 110.116291,16.3367827 110.76581,16.9496413 C111.424477,17.5716465 111.634885,18.5138021 111.836143,19.3919271 C112.037403,20.2700521 112.330144,21.2122076 113.061996,21.7335937 C113.967662,22.3738944 115.303293,22.1818028 116.15407,22.8952805 C116.977405,23.5904628 117.013998,24.8527663 117.553737,25.7949219 C118.130071,26.791959 119.236996,27.3590826 119.932258,28.2829427 C120.755591,29.3714524 120.901961,30.8075521 121.212997,32.1338861 C121.524035,33.4602202 122.182702,34.8963222 123.472591,35.3445312 C126.326814,32.1613281 129.492075,29.2250982 132.593299,26.2797195 C132.053557,25.493067 131.431483,24.7247076 130.882594,23.9380528 C131.660186,24.2673497 132.529261,24.6515305 133.142186,25.2278006 C133.736817,24.2033215 134.221669,23.1422514 134.816298,22.1177723 C131.769964,18.888834 130.873444,14.077442 127.83626,10.8393549 C125.878555,8.7629569 123.207295,7.51894648 120.499442,6.63167259 C118.706405,6.03710937 116.831034,5.57975143 114.937367,5.63463542 C113.043699,5.6895194 111.113438,6.29322917 109.741217,7.60127012 C108.24092,7.12561907 106.374698,7.0067069 104.993326,7.74762428 C103.602807,8.47939512 102.532474,9.79658262 102.093363,11.2967128 C101.699992,12.6413423 101.773177,14.1414702 101.041325,15.330599 C100.446696,16.3001965 99.3672152,16.9587902 98.9738441,18.0198556 C98.6811033,18.8065104 98.8091762,19.6846354 98.7908811,20.5170253 C98.7634361,21.9439784 98.2877322,23.3160476 97.8303259,24.6698236 C97.0435837,26.9566087 96.1470661,29.3897455 94.1985082,30.8258452 C96.3483243,32.1887701 98.2236946,33.1400722 100.647954,33.9175781 C100.647954,33.8626965 100.364363,34.0181972 100.355213,33.9633132 Z M130.15989,259.66888 L129.281667,259.66888 C117.553737,260.50127 116.2547,270.736915 116.10833,273.05114 L64.7963527,273.05114 C64.7963527,272.79502 64.8055003,272.548047 64.8146479,272.301074 L60.4143879,277.496647 C59.3074622,278.795541 60.2314249,280.798762 61.9421297,280.798762 L126.436592,280.798762 C128.257074,278.978484 129.27252,277.963151 131.10215,276.142871 L131.10215,271.880307 C131.157037,271.724804 131.19363,271.560156 131.20278,271.38636 L131.641891,261.223894 C131.678481,260.373209 131.001519,259.66888 130.15989,259.66888 Z M45.5669386,199.197167 C46.1432726,202.599902 36.7298261,207.027115 24.5353393,209.08522 C12.3317073,211.143327 1.98514814,210.054818 1.40881405,206.652083 C0.841629874,203.249349 10.2550765,198.831282 22.4495632,196.773177 C34.6440477,194.715072 44.9997544,195.803582 45.5669386,199.197167" id="Shape" fill="#F6836B" fill-rule="nonzero" mask="url(#mask-2)"></path>
                </g>
                <path d="M132.081106,140.277937 C131.806536,140.085338 131.495355,140.048653 131.193327,140.094509 C131.193327,140.094509 131.193327,140.094509 131.202479,140.094509 C130.680794,140.07674 130.049281,140.222908 129.674034,140.929097 C129.674034,140.929097 123.853125,148.073535 123.230764,149.650998 C122.599251,151.22846 106.701578,260 106.701578,260 L112.339439,260 L127.697122,151.072549 L133.490573,144.285792 C133.490573,144.285792 133.737688,142.937611 132.923127,141.433519 C132.70347,140.919926 132.40144,140.507219 132.081106,140.277937 Z M214.425004,143.836396 C214.434156,143.836396 214.434156,143.836396 214.434156,143.836396 C214.598898,143.827226 214.727032,143.689656 214.727032,143.533744 L214.415852,134.169854 C214.406698,134.00477 214.269414,133.876373 214.113822,133.885544 C213.949081,133.885544 213.820946,134.023114 213.830101,134.188198 L214.132128,143.552088 C214.14128,143.707999 214.269414,143.836396 214.425004,143.836396 Z M250.229086,141.002467 L244.893252,130.455481 C244.820033,130.30874 244.646137,130.253711 244.499699,130.327082 C244.353261,130.400452 244.298348,130.583878 244.371567,130.721448 L249.689095,141.231751 L249.707401,141.268434 C249.753162,141.369319 249.862991,141.424348 249.963665,141.424348 C250.009429,141.424348 250.05519,141.415175 250.100951,141.396834 C250.229086,141.332634 250.283999,141.176723 250.238237,141.039153 C250.238237,141.029982 250.238237,141.01164 250.229086,141.002467 Z M253.64292,134.931072 C253.551395,134.793502 253.377502,134.747646 253.231064,134.830187 C253.093778,134.912729 253.048016,135.096154 253.130387,135.233724 L255.546614,139.269093 L255.583223,139.324122 C255.638138,139.415834 255.738813,139.46169 255.839489,139.46169 C255.885251,139.46169 255.940166,139.452519 255.985927,139.425005 C256.104908,139.351635 256.150671,139.204894 256.114059,139.076497 C256.104908,139.058153 256.095756,139.039812 256.086604,139.021468 L253.64292,134.931072 Z M214.489071,145.276291 C214.324327,145.285462 214.196195,145.423032 214.205347,145.588114 L214.379241,150.944149 C214.388395,151.109234 214.516527,151.237631 214.672116,151.237631 C214.681271,151.237631 214.681271,151.237631 214.681271,151.237631 C214.846012,151.22846 214.974147,151.09089 214.964992,150.925808 L214.791099,145.560602 C214.781947,145.404688 214.653813,145.276291 214.489071,145.276291 Z M246.632204,123.246843 C246.549831,123.109276 246.366783,123.063417 246.229497,123.145958 C246.083059,123.228502 246.046452,123.411928 246.128823,123.549498 L251.885665,133.15184 C251.940578,133.243554 252.032102,133.28941 252.132779,133.28941 C252.187692,133.28941 252.242608,133.280239 252.288369,133.252725 C252.425655,133.170184 252.471416,132.986758 252.389046,132.849188 L246.632204,123.246843 Z M250.814838,121.614354 C250.686703,121.706066 250.650094,121.889492 250.741619,122.027062 L254.228672,127.007075 C254.283585,127.089616 254.37511,127.135472 254.466635,127.135472 C254.521548,127.135472 254.585615,127.11713 254.631376,127.080445 C254.768662,126.988731 254.796118,126.805305 254.704595,126.667735 L251.226694,121.687725 C251.135169,121.559325 250.952124,121.52264 250.814838,121.614354 Z M244.362415,142.983467 L237.434068,126.365083 C237.37,126.209172 237.196107,126.144972 237.049669,126.209172 C236.894079,126.264201 236.830012,126.438453 236.884925,126.594365 L243.813271,143.185236 L243.822425,143.212751 C243.868186,143.322804 243.978015,143.387004 244.096995,143.387004 C244.133604,143.387004 244.170214,143.377833 244.206823,143.368662 C244.353261,143.304463 244.417329,143.148551 244.371567,143.00181 C244.371567,142.99264 244.371567,142.99264 244.362415,142.983467 Z M241.635007,124.677565 C241.488569,124.750935 241.433656,124.925191 241.506875,125.071931 L243.364805,128.731278 C243.410569,128.841333 243.520395,128.89636 243.621072,128.89636 C243.666833,128.89636 243.712596,128.887189 243.758358,128.859675 C243.895644,128.786305 243.959709,128.612052 243.88649,128.465311 L242.02856,124.805964 C241.955341,124.659224 241.781445,124.604195 241.635007,124.677565 Z M232.830424,127.924204 C232.784662,127.76829 232.610767,127.685749 232.464329,127.740778 C232.308739,127.786634 232.226368,127.960889 232.27213,128.10763 L236.16189,139.791857 C236.198497,139.911085 236.317479,139.993626 236.43646,139.993626 C236.473069,139.993626 236.500527,139.984456 236.537136,139.975282 C236.683574,139.920256 236.765945,139.755171 236.720184,139.608431 L232.830424,127.924204 Z M219.779142,139.984456 L219.019494,132.610733 C219.00119,132.445651 218.854753,132.326425 218.69916,132.344766 C218.534419,132.36311 218.415439,132.509851 218.433742,132.665762 L219.19339,140.048653 C219.211693,140.195394 219.339828,140.31462 219.486266,140.31462 C219.495417,140.31462 219.504569,140.31462 219.513723,140.305449 C219.678465,140.296278 219.797445,140.149538 219.779142,139.984456 Z M220.108627,143.148551 C220.090321,142.983467 219.943883,142.86424 219.779142,142.882582 C219.623552,142.900926 219.504569,143.047666 219.522875,143.203578 L220.319132,150.971664 C220.319132,150.990008 220.328284,151.008349 220.337436,151.035864 C220.374045,151.145919 220.483874,151.237631 220.612008,151.237631 C220.62116,151.237631 220.630312,151.237631 220.639466,151.237631 C220.804207,151.219289 220.923188,151.072549 220.904884,150.907464 L220.89573,150.843267 L220.108627,143.148551 Z M223.623138,131.042444 C223.59568,130.886532 223.449242,130.776475 223.284501,130.803989 C223.128911,130.831504 223.01908,130.987415 223.046538,131.143326 L226.194954,149.02735 C226.194954,149.045691 226.204108,149.054864 226.21326,149.073206 C226.24987,149.192432 226.359698,149.274975 226.478678,149.274975 C226.496984,149.274975 226.515288,149.274975 226.533591,149.265802 C226.689183,149.23829 226.799012,149.091549 226.771554,148.926465 L226.762402,148.88978 L223.623138,131.042444 Z M237.315087,141.387663 C237.260174,141.231751 237.09543,141.149208 236.939841,141.204237 C236.784249,141.259264 236.701878,141.424348 236.756793,141.580259 L237.946601,145.147892 C237.98321,145.267121 238.10219,145.349662 238.221173,145.349662 C238.257782,145.349662 238.28524,145.340491 238.321847,145.331318 C238.468285,145.285462 238.55981,145.12038 238.504897,144.964466 L237.315087,141.387663 Z M261.980732,137.113839 C261.971578,137.095498 261.962426,137.067983 261.953274,137.040469 L256.22389,128.841333 C256.132365,128.712934 255.949318,128.676249 255.812032,128.767963 C255.6839,128.868846 255.64729,129.043101 255.738813,129.180671 L261.413284,137.306436 L261.468199,137.379806 C261.523112,137.462349 261.614637,137.499034 261.70616,137.499034 C261.770227,137.499034 261.82514,137.489864 261.880055,137.453176 C261.989884,137.370635 262.026493,137.242238 261.980732,137.113839 Z M232.629073,146.927124 L228.226782,129.483323 C228.190173,129.327411 228.025429,129.235697 227.869839,129.272385 C227.714249,129.309068 227.622724,129.474152 227.659334,129.630064 L232.070779,147.092206 C232.070779,147.101379 232.07993,147.101379 232.07993,147.11055 C232.125692,147.229776 232.226368,147.312317 232.354503,147.312317 C232.381958,147.312317 232.400264,147.312317 232.427722,147.303147 C232.583311,147.266461 232.674834,147.101379 232.638224,146.945465 L232.629073,146.927124 Z M230.130476,113.28682 L225.664118,114.772568 L209.867121,133.28941 L253.853425,118.587826 L230.130476,113.28682 Z M53.178503,199.368579 L9,206.843183 L13.8233009,235.457619 C14.3815974,238.786799 17.5391654,241.033765 20.870629,240.474317 L52.9954555,235.044911 C56.3269192,234.47629 58.5692499,231.321365 58.0018039,227.983014 L53.178503,199.368579 Z M95.1238271,45.9236703 C95.416703,46.1621227 95.9566936,46.3272048 96.6248162,46.4097482 C98.9129082,46.721571 102.756907,46.1070938 103.6996,44.4012344 C104.596533,42.7595723 102.546402,40.6868611 101.438965,39.7422173 C101.365746,39.7880732 101.283373,39.8431021 101.210154,39.888958 C101.173545,39.9164725 101.136935,39.9348139 101.100326,39.9623284 C100.990497,40.026528 100.880669,40.0907253 100.77084,40.1549249 C100.725079,40.1824394 100.68847,40.2099539 100.642708,40.2282953 C100.53288,40.2924949 100.4139,40.3475239 100.304069,40.4025504 C100.249156,40.4300649 100.203394,40.4484063 100.148479,40.4759208 C100.038651,40.5309474 99.9196703,40.5768056 99.8006901,40.6226615 C99.7366229,40.650176 99.6817098,40.6776881 99.6267944,40.6960318 C99.5078141,40.7418877 99.3888339,40.7877459 99.2606995,40.8244288 C99.1966323,40.8519432 99.1325651,40.870287 99.0685003,40.8977991 C98.9403659,40.9344866 98.8122338,40.9711695 98.6840994,40.9986839 C98.6108805,41.0170277 98.5468133,41.0445398 98.4827484,41.0628836 C98.3363105,41.090398 98.1990243,41.1179102 98.0525863,41.1454246 C97.9885191,41.1637684 97.9244543,41.1821098 97.8603871,41.1912805 C97.6498819,41.227968 97.430225,41.2554801 97.210568,41.2829946 C96.8902344,41.3196798 96.5790549,41.3288505 96.2770249,41.3380212 C96.2038059,41.3380212 96.1305869,41.3380212 96.0573679,41.3380212 C95.764492,41.3380212 95.4807702,41.3196798 95.215352,41.2921653 C95.1970461,41.2921653 95.1787402,41.2829946 95.1604366,41.2829946 C94.9773891,41.2646509 94.8034935,41.2371387 94.6296001,41.2096243 C94.4557045,42.2551529 94.1719803,44.5663165 94.8584089,45.6210158 C94.9316279,45.7310713 95.0231504,45.8411269 95.1238271,45.9236703 Z M134.277676,85.5436578 C134.204457,85.3602296 134.122086,85.1768061 134.021412,85.0025509 C133.920735,84.8282958 133.810907,84.6540406 133.67362,84.4889585 C133.655317,84.461444 133.618705,84.4522733 133.582098,84.4522733 C133.518031,84.4522733 133.463115,84.5072999 133.463115,84.5714995 C133.472267,84.7824399 133.508879,84.9842072 133.55464,85.1859768 C133.600401,85.3785734 133.664469,85.5711699 133.737688,85.7637689 C133.810907,85.9471924 133.884126,86.1306206 133.9848,86.3048734 C134.085477,86.4882993 134.186153,86.6625544 134.323439,86.8184658 C134.350895,86.855151 134.387507,86.8734948 134.433268,86.8643241 C134.515639,86.8643241 134.570552,86.8001244 134.570552,86.7267541 C134.5614,86.5158137 134.515639,86.3140441 134.469877,86.1122768 C134.424114,85.9196803 134.350895,85.7362544 134.277676,85.5436578 Z M151.383462,54.2053464 C157.607075,67.4762086 164.132716,98.7961762 164.132716,98.7961762 L149.809254,102.226239 L141.883298,80.7103856 C140.931451,81.3340335 139.869776,81.9668522 138.72573,82.5446443 C138.917929,82.8564671 139.091825,83.1682922 139.247415,83.4984588 C139.485378,83.9753661 139.659273,84.4797854 139.805711,84.9842072 C139.952149,85.4977996 140.061975,86.0205627 140.116891,86.5433282 C140.180958,87.0660913 140.199261,87.5980275 140.1535,88.1299614 C140.1535,88.2033317 140.080281,88.2583607 140.007062,88.2491876 C139.952149,88.2491876 139.897234,88.194161 139.888082,88.1391321 C139.796557,87.6347104 139.714186,87.1211179 139.604358,86.6258693 C139.494529,86.1306206 139.384701,85.6353696 139.238263,85.1492916 C139.110129,84.6540406 138.954539,84.1679626 138.789797,83.6910554 C138.679969,83.3517181 138.551834,83.0215515 138.423702,82.691385 C136.767121,83.4984588 134.954953,84.1771333 133.09702,84.4889585 C132.758383,84.5439851 132.392288,84.5714995 132.017042,84.5898433 C132.337375,85.1217771 132.593639,85.6903985 132.82245,86.2681882 C133.051259,86.8734948 133.234306,87.4879697 133.371593,88.1207907 C133.499725,88.7536093 133.600401,89.386428 133.637011,90.0284197 C133.67362,90.6795821 133.67362,91.3215715 133.600401,91.9543901 C133.59125,92.0277605 133.527182,92.0827894 133.453963,92.0736187 C133.389896,92.0644457 133.344135,92.0185898 133.334983,91.9543901 C133.270916,91.3215715 133.216003,90.7070942 133.124478,90.0834463 C133.032953,89.468969 132.932279,88.8544941 132.794993,88.2400169 C132.676012,87.6347104 132.511268,87.0294062 132.346527,86.424102 C132.181783,85.8279661 131.980432,85.2318327 131.78823,84.6265261 C131.779079,84.6173554 131.78823,84.6081847 131.78823,84.599014 C128.337787,84.6815551 123.7616,83.2141481 119.963367,81.6825415 L119.597273,84.5072999 C119.487442,85.4519437 119.368461,86.3874145 119.286091,87.341229 C119.176262,88.2767021 119.112195,89.2213459 119.029824,90.1751604 L118.828471,93.0182602 C118.819319,93.0916305 118.764406,93.1466595 118.691187,93.1374864 C118.617968,93.1374864 118.572207,93.0824598 118.563053,93.0182602 C118.498988,92.055275 118.489834,91.1014604 118.517291,90.1476459 C118.544749,89.1846607 118.617968,88.2308462 118.700339,87.2770317 C118.819319,86.3232172 118.938302,85.3785734 119.112195,84.4339295 C119.286091,83.4892881 119.487442,82.553815 119.74371,81.6366856 C119.74371,81.6183419 119.762014,81.6091712 119.771166,81.6000005 C119.295242,81.4074039 118.828471,81.2056343 118.380005,81.0130377 C118.343396,81.3890601 118.288483,81.7559119 118.233567,82.1227636 L118.068826,83.2508333 L117.876624,84.3697323 C117.803405,84.736584 117.73934,85.1126064 117.647815,85.4886289 C117.629512,85.5619992 117.556293,85.6078551 117.483074,85.5895137 C117.428158,85.5711699 117.382397,85.5253141 117.382397,85.4702875 C117.336636,85.085092 117.336636,84.6907258 117.354939,84.3055326 C117.373245,83.9203371 117.428158,83.535144 117.483074,83.1499485 C117.556293,82.7647553 117.638664,82.3887329 117.757644,82.0127081 C117.867472,81.6458563 117.995607,81.2790046 118.160348,80.9213259 C115.066848,79.5823159 112.833669,78.3808759 112.833669,78.3808759 C112.833669,78.3808759 109.813384,75.0516981 108.083587,70.4752221 L97.0000629,80.3527046 C92.6160758,84.2596744 85.6328173,83.3242036 84.7816449,77.5096024 L83.7108179,68.475879 C83.8389523,67.2285831 84.2965698,66.2839393 84.937237,65.7703469 L114.526857,42.0717247 C115.350572,40.6685174 116.165132,39.6871907 116.943083,39.3386804 C120.064042,37.9171293 131.348917,37 131.348917,37 C131.348917,37 136.959323,39.6871907 141.810079,42.9429981 C143.16463,43.6583602 144.537487,44.7038865 145.855429,46.0428965 C146.917104,46.996711 147.768274,47.9505255 148.262501,48.8493111 C148.299113,48.90434 148.317416,48.9593666 148.344874,49.0143955 C149.452311,50.5368291 150.477376,52.279376 151.383462,54.2053464" id="Shape" fill="#CBEDDD" fill-rule="nonzero"></path>
                <path d="M104.204506,31.011272 C103.708358,30.8558017 103.377594,31.1210162 103.157084,31.4685406 C102.752817,30.4991326 102.229107,29.5571612 101.530826,28.7889543 C100.501782,27.6457841 98.7193303,27.6823655 97.1573861,28.0207428 C97.2768282,28.3133939 97.3319568,28.6517735 97.2768282,28.9901508 C97.2125123,29.3925461 96.9644408,29.6760524 96.6612407,29.8681042 C96.3580382,30.0693006 95.9537707,30.0784477 95.6505705,29.9595588 C95.6138189,29.9412669 95.5862547,29.9046855 95.5770673,29.8681042 C95.56788,29.8406675 95.56788,29.8132332 95.5770673,29.7857966 C95.5770673,29.7857966 95.5862547,29.7857966 95.5862547,29.7766495 C95.5862547,29.75836 95.595442,29.7400705 95.6138189,29.7309234 L95.6230063,29.7217786 C95.7332611,29.6120344 95.8159516,29.4748536 95.8894548,29.3559647 C95.962958,29.2370758 95.9813349,29.099895 95.9905223,28.9901508 C95.9813349,28.8804066 95.962958,28.6974997 95.962958,28.5328822 C95.962958,28.4688666 95.9721476,28.4048485 95.9721476,28.3408305 C94.8695996,28.6974997 94.0610645,29.099895 94.0610645,29.099895 C91.8008399,30.2613547 91.3965723,32.4196567 91.4884525,34.3493256 C90.7626078,34.0292379 89.4487376,33.6908606 89.2006637,35.4193307 C88.9801541,36.9191677 90.3859045,37.605067 91.4700755,37.8977181 C91.6262692,37.9434466 91.7824653,37.9068652 91.9294717,37.8245554 C91.9294717,37.8611391 91.9294717,37.9068652 91.9294717,37.9434466 C91.9294717,39.4249918 94.3826415,41.3455159 98.2231825,40.915684 C102.063723,40.4858521 104.516893,38.0531908 104.3607,36.5624986 C104.314761,36.1783951 104.250445,35.6296719 104.14019,34.980354 C104.305573,34.8797546 104.553645,34.6785558 104.801719,34.2853076 C105.233551,33.599406 105.297864,31.3587964 104.204506,31.011272 Z M96.3580382,29.5022903 C96.3672279,29.4931455 96.3856025,29.4931455 96.3947898,29.4839984 C96.5601732,29.3285281 96.7071796,29.099895 96.69799,28.9078432 C96.7255542,28.670063 96.6888026,28.4139933 96.6336764,28.1487788 C96.5601732,28.1762154 96.4774804,28.1853602 96.4039772,28.2127968 C96.4407311,28.2859596 96.4774804,28.3682672 96.5050446,28.4505747 C96.5509836,28.6334817 96.5877375,28.7980991 96.5601732,29.0450217 C96.5326089,29.2187839 96.4499184,29.3742566 96.3580382,29.5022903 Z M113.41078,259.013932 L113.603726,259.013932 C113.787486,258.181705 113.989619,257.322044 114.200941,256.425799 L113.769109,256.425799 L113.41078,259.013932 Z M104.820096,259.013932 L107.751034,259.013932 C107.751034,259.013932 107.888853,258.090253 108.12774,256.425799 L104.902786,256.425799 L104.820096,259.013932 Z M80.5180989,32.2458945 C80.2516504,32.5934189 79.8565701,33.9835117 79.8565701,33.9835117 C79.8565701,33.9835117 78.4416347,30.8740912 77.9546742,30.9106749 C77.4769058,30.9564011 77.4125899,31.5599929 77.5779709,31.8892254 C77.7341646,32.227605 77.9546742,32.6025637 77.9546742,32.6025637 L78.3038156,33.2335921 C78.3038156,33.2335921 77.6239122,32.8129072 77.0450739,32.2458945 C76.5305515,31.7428998 75.9149616,31.5417033 75.6760751,31.7886283 C75.3361234,32.1452951 75.7863322,32.575127 76.2181618,32.9043595 C76.6499936,33.2427368 77.8536091,34.3950518 77.8536091,34.3950518 C77.8536091,34.3950518 77.3207097,34.3584704 76.6499936,34.010946 C75.9792775,33.6542769 75.7863322,33.3067548 75.2718098,33.4439356 C74.7572874,33.5811141 75.0237359,34.4499227 75.8322711,34.8157366 C76.4937999,35.1266796 77.4125899,35.5930929 77.4125899,35.5930929 C77.4125899,35.5930929 76.5489261,35.7302714 75.9425259,35.5290749 C75.3361234,35.3370208 75.2718098,35.3004418 75.0513002,35.5473644 C74.821601,35.8034341 75.372875,36.6265166 76.5121745,36.7088241 C77.6514741,36.7819869 77.71579,37.1752374 78.6713316,37.3672892 C79.6360605,37.568488 81.2531309,37.1569456 81.1520657,35.6296719 C81.1520657,35.6296719 81.3266341,33.4347885 81.3633857,32.8311968 C81.4093246,32.227605 80.8029244,31.8892254 80.5180989,32.2458945 Z M165.405106,98.2661591 L153.047382,101.201815 L136.922617,132.661811 C136.922617,132.661811 132.521612,134.820113 131.933587,136.228495 C131.345561,137.63688 130.812664,140.279885 130.812664,140.279885 C130.812664,140.279885 132.227599,138.926373 133.22908,139.630567 C134.230563,140.334758 135.112601,142.977763 133.835482,144.45931 C133.376086,144.989739 133.41284,145.044612 133.026947,145.492734 C132.806438,145.757948 134.414321,147.020007 135.424988,146.526158 C136.398907,146.059744 136.68373,145.895129 136.922617,145.721367 C137.161503,145.547605 139.008271,145.739656 139.182839,144.97145 C139.366599,144.212385 139.302283,143.389303 140.009751,143.032634 C140.717219,142.685112 141.185802,142.15468 141.36956,141.514507 C141.544131,140.865187 142.674243,138.990391 142.315915,136.758926 C144.971217,133.951304 160.204754,117.736603 163.705345,111.536059 C167.545886,104.741065 165.405106,98.2661591 165.405106,98.2661591 Z M142.086218,211.659322 L147.259003,269.649972 L147.378448,270.985192 C147.121184,272.713664 146.643416,274.84453 146.643416,274.84453 C150.879037,272.667936 155.105471,275 155.105471,275 L154.223433,270.985192 C154.223433,270.985192 154.23262,270.454763 154.278559,269.47621 C154.434755,266.083286 154.986027,257.276318 156.814419,246.33848 C159.175709,232.2455 157.632142,207.315283 157.632142,207.315283 C147.360071,198.819256 142.086218,211.659322 142.086218,211.659322 Z M97.203325,74.0126974 L95.4759999,65.9099183 L91.2679429,53.32592 C92.7196299,52.6125841 95.3473704,51.414543 95.3473704,51.2590727 C95.3473704,51.0670186 96.5601732,51.0030029 96.9276892,50.8109512 C97.2952052,50.6280419 98.0394245,49.5397473 98.0394245,49.5397473 C98.0394245,49.5397473 98.9214629,49.3568404 99.1144082,48.6800835 C99.3073559,48.0033289 98.0394245,47.1345203 98.0394245,47.1345203 C98.0394245,47.1345203 98.2231825,46.7504146 98.0394245,46.3388745 C97.8648538,45.9273345 94.2080709,44.5280969 93.1147102,44.3726265 C92.0213495,44.226301 87.5009028,45.3603217 87.5009028,45.3603217 L84.7904717,48.6800835 C84.7904717,48.7166649 84.7996614,48.7532463 84.7996614,48.7898277 C83.9451873,49.7226543 83.4582268,50.9847111 83.5592943,52.3290777 L84.7169685,68.3060005 L85.7460133,77.0398057 C89.6600598,79.8840093 95.2187387,78.4207537 97.203325,74.0126974 Z M121.37669,44.0708283 C121.468568,41.9948338 121.312374,38.7208006 121.165368,36.3612997 C119.300226,36.9648939 117.159444,37.1478008 114.761402,36.5716433 C113.19946,36.1875399 112.225542,34.4773593 111.655893,32.099569 C110.718726,27.1519365 110.737101,22.0579785 111.729396,17.1103437 C111.729396,17.1103437 112.01422,16.2232456 112.335797,15.8848683 C112.657374,15.5464911 113.245399,15.2721295 113.668042,15.4550364 C114.182564,15.0343516 114.917596,14.888026 115.56075,15.0892225 C116.194715,15.290419 117.012437,15.8665765 117.187008,16.506752 C117.572898,15.6928166 118.850017,15.7293957 119.502359,16.3421345 C120.163887,16.9640182 120.37521,17.9059896 120.577342,18.7839429 C120.779477,19.6618963 121.07349,20.6038677 121.808522,21.1251519 C122.718122,21.7653274 124.059557,21.5732733 124.914031,22.2866116 C125.740943,22.981658 125.777695,24.2437148 126.319779,25.1856862 C126.898617,26.1825285 128.010353,26.7495412 128.708635,27.6732207 C129.535545,28.7615177 129.682552,30.1973367 129.994939,31.5234115 C130.270577,32.694016 130.812664,33.9377832 131.823332,34.5230855 C132.641054,37.2484002 133.467966,39.3426842 133.467966,39.3426842 C129.765242,43.1197122 121.37669,44.0708283 121.37669,44.0708283" id="Shape" fill="#F9D291" fill-rule="nonzero"></path>
                <g id="Clipped" transform="translate(0.000000, 9.000000)">
                    <mask id="mask-4" fill="white">
                        <use xlink:href="#path-3"></use>
                    </mask>
                    <g id="Path"></g>
                    <path d="M135.166042,78.5429693 C135.156885,78.3333333 135.111094,78.1328113 135.065304,77.9322917 C135.019511,77.740886 134.946246,77.5585943 134.87298,77.3671887 C134.799715,77.1848947 134.717292,77.0026053 134.616553,76.8294277 C134.515812,76.65625 134.405914,76.4830723 134.268541,76.319011 C134.250225,76.2916667 134.21359,76.2825527 134.17696,76.2825527 C134.112852,76.2825527 134.057902,76.337239 134.057902,76.4010417 C134.067059,76.6106777 134.103694,76.8111973 134.149485,77.0117193 C134.195275,77.203125 134.259383,77.3945307 134.332649,77.5859387 C134.405914,77.768228 134.47918,77.950522 134.579918,78.1236973 C134.680659,78.305989 134.7814,78.4791667 134.918773,78.634114 C134.946246,78.6705723 134.982881,78.6888027 135.028671,78.6796887 C135.111094,78.6796887 135.166042,78.615886 135.166042,78.5429693 Z M148.124887,88.8424473 C148.097414,88.7513027 148.069939,88.6510417 148.042464,88.5598947 L148.408792,88.5598947 L148.628589,89.143228 L148.20731,89.143228 C148.939966,91.8046887 149.690939,94.584636 150.423594,97.3828113 L136.356609,124.817708 C136.356609,124.817708 131.969833,126.96875 131.383709,128.372395 C130.797585,129.776042 130.266411,132.410156 130.266411,132.410156 C130.266411,132.410156 129.066687,133.868489 127.702116,135.609375 L126.905353,128.700522 L126.273438,137.459636 C125.101189,139.009114 124.066314,140.467447 123.819042,141.078125 C123.635878,141.533855 122.179725,150.876303 120.201555,163.9375 L110.960938,163.9375 C107.453349,163.9375 104.220507,166.826822 103.744281,170.381511 L99.2018173,203.868489 C98.3317883,203.585939 97.4800768,203.276042 96.6283631,202.929689 L95.1905272,202.346355 C95.1905272,202.346355 104.568518,132.045572 109.147615,102.186197 C109.147615,102.204428 109.147615,102.213542 109.147615,102.222656 L91.3349282,102.222656 L91.3349282,74.5507807 C91.5272497,74.5598947 91.7287311,74.5598947 91.9302102,74.5507807 L91.9302102,101.639322 L109.230038,101.639322 C110.109224,95.9335943 110.805249,91.7864583 111.208208,90.009114 C111.281473,89.7083333 111.345581,89.4075527 111.418847,89.115886 C111.418847,89.125 111.418847,89.134114 111.409689,89.143228 L104.486094,89.143228 L104.486094,66.0924473 L105.072219,65.5638027 L105.072219,88.5598947 L111.547062,88.5598947 C113.277961,81.587239 115.823937,75.4348947 117.316723,72.1445307 C117.765477,72.3450527 118.25086,72.5638027 118.745402,72.7734387 C118.580555,73.1197917 118.452339,73.493489 118.342441,73.8580723 C118.223385,74.231772 118.140962,74.6054693 118.067696,74.9882807 C118.012746,75.3710943 117.957798,75.7539057 117.939481,76.1367193 C117.921165,76.5195307 117.921165,76.9114583 117.966956,77.294272 C117.966956,77.3489583 118.012746,77.3945307 118.067696,77.412761 C118.140962,77.430989 118.214228,77.3854167 118.232543,77.3125 C118.324126,76.9388027 118.388231,76.5651053 118.461497,76.200522 L118.653821,75.0885417 L118.818667,73.9674473 C118.873618,73.602864 118.928566,73.2382807 118.965198,72.8645833 C119.413949,73.055989 119.881018,73.256511 120.357244,73.4479167 C120.348086,73.4570307 120.329771,73.4661447 120.329771,73.484375 C120.073339,74.3958333 119.87186,75.325522 119.697854,76.2643223 C119.52385,77.203125 119.404792,78.1419277 119.285736,79.0898443 C119.203312,80.037761 119.130047,80.9856777 119.102572,81.9427083 C119.075097,82.890625 119.084257,83.8385417 119.148362,84.7955723 C119.157522,84.859375 119.203312,84.9140613 119.276578,84.9140613 C119.349844,84.9231777 119.404792,84.868489 119.413949,84.7955723 L119.615431,81.9700527 C119.697854,81.022136 119.761962,80.0833333 119.87186,79.1536447 C119.954283,78.205728 120.073339,77.2760417 120.18324,76.337239 L120.549568,73.5208333 C124.350216,75.0520833 128.929313,76.5013027 132.381952,76.428386 C132.381952,76.4375 132.372794,76.446614 132.381952,76.455728 C132.574275,77.0572917 132.775754,77.649739 132.940603,78.2421887 C133.105449,78.84375 133.270298,79.4453113 133.389354,80.046875 C133.526728,80.6575527 133.627466,81.268228 133.719049,81.8789057 C133.810632,82.4986973 133.86558,83.109375 133.929688,83.7382807 C133.938846,83.8020833 133.984636,83.8476557 134.048744,83.856772 C134.12201,83.865886 134.186118,83.8111973 134.195275,83.7382807 C134.268541,83.109375 134.268541,82.4713553 134.231908,81.8242193 C134.195275,81.1861973 134.094534,80.5572917 133.966321,79.928386 C133.828947,79.299478 133.645783,78.6888027 133.416829,78.087239 C133.187873,77.513022 132.931446,76.9479167 132.610908,76.419272 C132.986394,76.4010417 133.352721,76.3736973 133.691574,76.319011 C135.550688,76.009114 137.364009,75.334636 139.021644,74.5325527 C139.149857,74.8606777 139.278073,75.1888027 139.387972,75.5260417 C139.552818,76 139.708507,76.4830723 139.836722,76.975261 C139.983254,77.4583333 140.093152,77.950522 140.20305,78.4427083 C140.312949,78.9348947 140.395372,79.4453113 140.486955,79.946614 C140.496112,80.0013027 140.551063,80.055989 140.606011,80.055989 C140.679276,80.0651053 140.752542,80.0104167 140.752542,79.9375 C140.798332,79.4088553 140.780017,78.8802083 140.715909,78.3606777 C140.660959,77.8411447 140.551063,77.321614 140.404532,76.8111973 C140.258001,76.3098947 140.083994,75.8085943 139.84588,75.334636 C139.690191,75.006511 139.516185,74.696614 139.323864,74.3867193 C140.468637,73.8125 141.530988,73.1835943 142.48344,72.5638027 L146.970956,84.6679693 C147.346441,86.0078113 147.731087,87.4114583 148.124887,88.8424473 Z M191.644624,191.5 L235.887859,191.5 C235.951967,191.290364 236.025232,191.080728 236.098498,190.871094 L192.239906,190.871094 L192.945089,140.658855 C192.816873,136.019531 194.538613,131.626303 197.789773,128.290364 C201.114198,124.890625 205.592554,123.022136 210.400605,123.022136 L212.04908,123.022136 L212.552781,122.438803 L210.400605,122.438803 C205.436865,122.438803 200.802818,124.371094 197.368495,127.889322 C193.998279,131.325522 192.221591,135.873697 192.349807,140.658855 L191.937686,170.162761 C190.976077,166.416667 187.560071,163.645833 183.50299,163.645833 L157.264766,163.645833 C157.264766,146.920572 157.054127,129.283855 156.248206,123.022136 C155.964301,120.852864 155.405652,117.954428 154.672996,114.618489 C149.324611,120.834636 143.307679,127.233072 141.732469,128.901042 C142.089639,131.125 140.963181,132.993489 140.789175,133.640625 C140.606011,134.278645 140.138942,134.807292 139.433762,135.153645 C138.728582,135.509114 138.79269,136.329428 138.609523,137.085939 C138.435519,137.851561 136.594723,137.660156 136.356609,137.833333 C136.118495,138.006511 135.834592,138.170572 134.863823,138.635417 C133.874738,139.118489 132.299528,137.90625 132.464377,137.623697 L128.480562,142.263022 L130.999066,163.9375 L137.766972,163.9375 C141.274558,163.9375 143.728954,166.826822 143.243571,170.381511 L138.517943,205.244792 C145.166792,205.290364 151.659951,203.184895 156.999176,199.220053 C156.999176,199.220053 157.255608,182.339844 157.264766,164.229167 L183.50299,164.229167 C187.990504,164.229167 191.635467,167.856772 191.635467,172.322917 L191.635467,190.871094 L180.7189,190.871094 C174.811865,190.871094 170.003814,195.65625 170.003814,201.535156 L170.003814,250.817708 C170.003814,251.583333 170.086237,252.330728 170.241926,253.050781 C170.443407,253.050781 170.644886,253.050781 170.846365,253.041667 C170.681519,252.330728 170.589938,251.583333 170.589938,250.817708 L170.589938,201.535156 C170.589938,195.975261 175.132402,191.454428 180.7189,191.454428 L191.644624,191.454428 L191.644624,191.5 Z M220.529568,89.143228 L220.337247,88.5598947 L201.159988,88.5598947 L201.159988,31.3476557 L200.573864,29.5976557 L200.573864,88.5598947 L194.10818,88.5598947 L194.10818,22.7981777 C193.906699,22.725261 193.714377,22.643228 193.522056,22.5703113 L193.522056,88.5598947 L164.316574,88.5598947 C164.362367,88.7695307 164.408157,88.9609387 164.44479,89.143228 L220.529568,89.143228 Z M250.605077,89.143228 C250.605077,89.0976557 250.605077,89.0611973 250.605077,89.015625 C250.605077,88.8606777 250.605077,88.7148443 250.605077,88.5598947 L225.291829,88.5598947 L225.493308,89.143228 L250.605077,89.143228 Z M163.822033,102.222656 L224.916342,102.222656 L224.72402,101.639322 L164.069304,101.639322 C163.996039,101.830728 163.904456,102.03125 163.822033,102.222656 Z M250.394438,102.222656 C250.394438,102.03125 250.403595,101.830728 250.412753,101.639322 L229.678602,101.639322 L229.870926,102.222656 L250.394438,102.222656 Z M122.692584,249.313803 L122.692584,248.165364 L122.106459,248.165364 L122.106459,249.213542 C122.298781,249.25 122.491102,249.277344 122.692584,249.313803 Z M130.82506,163.645833 C130.064929,163.645833 129.323116,163.755208 128.617936,163.9375 L130.999066,163.9375 L130.962433,163.645833 L130.82506,163.645833 Z M105.072219,12.34375 C104.87074,12.3710943 104.678416,12.3984387 104.486094,12.4257807 L104.486094,20.2734387 C104.696734,19.899739 104.889055,19.5169277 105.072219,19.125 L105.072219,12.34375 Z M91.9302102,14.5950527 C91.7287311,14.640625 91.5364097,14.6770833 91.3349282,14.7226557 L91.3349282,24.3203113 C91.4723017,23.8919277 91.6646232,23.4726557 91.9302102,23.0898443 L91.9302102,14.5950527 Z M246.080928,262.475261 C246.07177,262.475261 246.07177,262.466145 246.07177,262.466145 C246.01682,262.457031 240.521904,261.427083 228.662045,258.957031 C223.277027,257.835939 218.093488,259.704428 212.607729,261.691406 C205.693295,264.188803 198.540743,266.777344 190.060257,263.805989 C186.717517,262.639322 185.206413,261.007811 185.554426,258.957031 C186.598459,252.868489 203.596066,244.492189 214.878961,244.483072 C214.888121,244.483072 214.888121,244.483072 214.888121,244.483072 C220.648624,244.483072 226.564819,247.591145 231.784988,250.334636 C237.426435,253.296875 242.289437,255.858072 246.181669,254.5 C248.159839,253.807292 249.698415,252.157553 250.879821,249.459636 C252.244392,246.342447 252.198601,243.553386 250.74245,241.165364 C247.161596,235.277344 236.162606,233.5 232.224581,233.044272 L232.618384,231.604167 L193.870066,221.204428 L189.959516,224.759114 L231.455293,235.897136 L232.068893,233.618489 C235.832909,234.065105 246.813583,235.833333 250.238749,241.466145 C251.585002,243.680989 251.621637,246.287761 250.339487,249.222656 C249.222189,251.765625 247.802668,253.315105 245.989347,253.953125 C242.335227,255.220053 237.572967,252.722656 232.059735,249.824219 C226.775455,247.044272 220.795156,243.899739 214.888121,243.899739 C214.888121,243.899739 214.888121,243.899739 214.878961,243.899739 C204.337882,243.899739 186.14055,252.066406 184.977459,258.856772 C184.702714,260.488281 185.316314,262.766928 189.858778,264.352864 C192.642869,265.328125 195.289586,265.720053 197.817248,265.720053 C203.174791,265.720053 208.04695,263.960939 212.809211,262.238281 C218.212546,260.287761 223.322817,258.4375 228.542989,259.522136 C240.412008,262.001303 245.906924,263.03125 245.961872,263.040364 C245.98019,263.049478 246.007662,263.040364 246.02598,263.040364 C246.007662,264.671875 247.179911,266.111978 248.837546,266.394531 L254.323302,267.305989 L255.440603,260.679689 L249.954844,259.768228 C248.132363,259.458333 246.410623,260.670572 246.080928,262.475261 Z M196.470993,218.625 C196.315304,218.579428 196.150455,218.670572 196.113823,218.825522 C196.068032,218.980469 196.159615,219.144531 196.315304,219.180989 L233.296089,229.106772 C233.323565,229.115886 233.34188,229.115886 233.369355,229.115886 C233.497571,229.115886 233.616627,229.033855 233.65326,228.897136 C233.69905,228.742189 233.598312,228.587239 233.442621,228.541667 L196.470993,218.625 Z M255.376495,118.236978 L251.896382,113.287761 C251.804798,113.160156 251.621637,113.123697 251.484263,113.214844 C251.356048,113.305989 251.319415,113.488281 251.410998,113.625 L254.900269,118.574219 C254.955217,118.65625 255.0468,118.701822 255.138383,118.701822 C255.193331,118.701822 255.257439,118.683594 255.30323,118.647136 C255.440603,118.555989 255.468076,118.373697 255.376495,118.236978 Z M253.059473,124.380208 L247.298969,114.837239 C247.216544,114.700522 247.03338,114.654947 246.896007,114.736978 C246.749476,114.819011 246.712845,115.001303 246.795268,115.138022 L252.555772,124.680989 C252.61072,124.772136 252.702303,124.817708 252.803043,124.817708 C252.857991,124.817708 252.912942,124.808594 252.958732,124.78125 C253.096106,124.699219 253.141896,124.516928 253.059473,124.380208 Z M244.551509,120.023439 L242.692397,116.386719 C242.619132,116.240886 242.445126,116.186197 242.298594,116.259114 C242.152063,116.332031 242.097115,116.505208 242.170381,116.651042 L244.029493,120.287761 C244.075285,120.397136 244.185181,120.451822 244.285922,120.451822 C244.331712,120.451822 244.377505,120.442708 244.423295,120.415364 C244.560669,120.342447 244.624775,120.169272 244.551509,120.023439 Z M237.380645,131.097656 L233.488411,119.485678 C233.442621,119.330728 233.268614,119.248697 233.122083,119.303386 C232.966394,119.348958 232.883971,119.522136 232.929762,119.667969 L236.821996,131.279947 C236.858626,131.398439 236.977684,131.480469 237.09674,131.480469 C237.133373,131.480469 237.160848,131.471355 237.197481,131.462239 C237.344012,131.407553 237.426435,131.243489 237.380645,131.097656 Z M220.428828,131.471355 L219.668697,124.143228 C219.650382,123.979167 219.503851,123.860678 219.34816,123.878906 C219.183313,123.897136 219.064257,124.042969 219.082573,124.197917 L219.842703,131.535156 C219.861019,131.680989 219.989234,131.799478 220.135766,131.799478 C220.144923,131.799478 220.154081,131.799478 220.163241,131.790364 C220.328087,131.78125 220.447143,131.635417 220.428828,131.471355 Z M215.611617,142.345053 L215.437613,137.013022 C215.428455,136.858072 215.300239,136.730469 215.135393,136.730469 C214.970544,136.739583 214.842331,136.876303 214.851488,137.040364 L215.025492,142.363281 C215.034652,142.527344 215.162866,142.654947 215.318554,142.654947 C215.327714,142.654947 215.327714,142.654947 215.327714,142.654947 C215.492561,142.645833 215.620777,142.509114 215.611617,142.345053 Z M214.778223,135.016928 C214.78738,135.171875 214.915596,135.299478 215.071285,135.299478 C215.080443,135.299478 215.080443,135.299478 215.080443,135.299478 C215.245289,135.290364 215.373505,135.153645 215.373505,134.998697 L215.062127,125.692708 C215.052967,125.528645 214.915596,125.401042 214.759905,125.410156 C214.595059,125.410156 214.466843,125.546875 214.476003,125.710939 L214.778223,135.016928 Z M263.582237,128.317708 L262.65726,128.618489 C262.6481,128.600261 262.638942,128.572917 262.629785,128.545572 L256.896757,120.397136 C256.805173,120.269531 256.62201,120.233072 256.484636,120.324219 C256.356423,120.424478 256.31979,120.597656 256.411371,120.734375 L262.089451,128.809895 L256.786856,130.569011 C256.777698,130.550781 256.768541,130.532553 256.759383,130.514322 L254.314145,126.449219 C254.222562,126.3125 254.048558,126.266928 253.902027,126.348958 C253.764653,126.430989 253.718863,126.613281 253.801286,126.75 L256.219049,130.760417 L250.907297,132.519531 C250.907297,132.510417 250.907297,132.492189 250.898139,132.483072 L245.558911,122.001303 C245.485646,121.855469 245.31164,121.800781 245.165109,121.873697 C245.018577,121.946614 244.963629,122.128906 245.036895,122.265625 L250.357805,132.710939 L245.036895,134.470053 C245.036895,134.460939 245.036895,134.460939 245.027737,134.451822 L238.094983,117.936197 C238.030875,117.78125 237.856871,117.717447 237.71034,117.78125 C237.554651,117.835939 237.490543,118.009114 237.545491,118.164061 L244.478243,134.652344 L239.166493,136.420572 L237.975927,132.865886 C237.920979,132.710939 237.75613,132.628906 237.600442,132.683594 C237.444751,132.738281 237.362327,132.902344 237.417278,133.057292 L238.607842,136.602864 L233.286932,138.371094 L228.881841,121.035156 C228.845208,120.880208 228.68036,120.789061 228.524671,120.825522 C228.368982,120.861978 228.277399,121.026042 228.314032,121.180989 L232.728283,138.535156 C232.728283,138.544272 232.73744,138.544272 232.73744,138.553386 L227.41653,140.321614 L224.275269,122.584636 C224.247794,122.429689 224.101263,122.320311 223.936417,122.347656 C223.780728,122.375 223.670827,122.529947 223.698302,122.684895 L226.848721,140.458333 C226.848721,140.476561 226.857881,140.485678 226.867039,140.503906 L221.546126,142.263022 L220.758523,134.615886 C220.740205,134.451822 220.593674,134.333333 220.428828,134.351561 C220.273139,134.369792 220.154081,134.515625 220.172398,134.670572 L220.969162,142.390625 C220.969162,142.408855 220.978319,142.427083 220.987477,142.454428 L214.192098,144.705728 C212.296352,145.334636 210.354815,143.921875 210.36394,141.944011 L210.510503,124.817708 L232.517644,117.516928 L254.524784,110.207031 L264.974282,123.824219 C266.183164,125.401042 265.468826,127.688803 263.582237,128.317708 Z M54.5373068,195.264322 L54.4365661,194.690105 L10.2299641,202.118489 L10.0010099,200.760417 L0.989347177,202.273439 C0.430695598,202.373697 0.0460526316,202.902344 0.146793349,203.458333 L0.357430048,204.725261 C0.458170766,205.28125 0.980189569,205.654947 1.54799641,205.563803 L10.5596591,204.050781 L10.3307048,202.692708 L54.5373068,195.264322 Z M13.8932416,223.720053 L13.9939823,224.294272 L58.2005843,216.875 L58.1090012,216.291667 L13.8932416,223.720053 Z M64.4098385,192.657553 C64.3182554,192.101561 63.7870813,191.727864 63.2284321,191.819011 L54.2076095,193.341145 L54.7662611,196.622395 L63.7779237,195.109375 C64.3457306,195.018228 64.7212183,194.489583 64.6204776,193.933594 L64.4098385,192.657553 Z M32.4111106,186.295572 L32.2371044,185.265625 C32.0356229,184.126303 30.9549572,183.360678 29.8193412,183.552083 C28.6745676,183.743489 27.9052769,184.819011 28.0976008,185.958333 L28.2716047,186.988281 C28.3173974,187.225261 28.5371941,187.389322 28.7753059,187.34375 L29.7002853,187.188803 L29.8742892,188.191406 L31.2938098,187.954428 L31.1289611,186.951822 L32.0539405,186.796875 C32.2920523,186.760417 32.4477411,186.532553 32.4111106,186.295572 Z M113.195537,17.2838553 C113.561865,17.2838553 113.864085,16.828125 113.864085,16.263022 C113.864085,15.7070307 113.561865,15.2513027 113.195537,15.2513027 C112.82921,15.2513027 112.526987,15.7070307 112.526987,16.263022 C112.526987,16.828125 112.82921,17.2838553 113.195537,17.2838553 Z M118.956041,16.0169277 C118.589713,16.0169277 118.287493,16.4635417 118.287493,17.0286447 C118.287493,17.584636 118.589713,18.040364 118.956041,18.040364 C119.322368,18.040364 119.624588,17.584636 119.624588,17.0286447 C119.624588,16.4635417 119.322368,16.0169277 118.956041,16.0169277 Z M126.81377,263.660156 L121.721816,268.946614 L70.0054955,268.946614 L70.0054955,269.529947 L121.978243,269.529947 L127.399894,263.897136 L127.399894,263.778645 C127.399894,258.072917 132.070574,253.424478 137.803602,253.424478 L139.855038,253.424478 L139.855038,252.841145 L137.803602,252.841145 C131.78667,252.841145 126.877878,257.680989 126.81377,263.660156 Z M72.9910655,263.341145 C72.9819079,263.578125 72.9727503,263.824219 72.9727503,264.079428 L124.341059,264.079428 C124.48759,261.773439 125.788052,251.574219 137.528858,250.744792 L83.5504647,250.744792 C83.5504647,250.744792 73.4215012,251.947917 72.9910655,263.332031 C72.9910655,263.332031 72.9910655,263.332031 72.9910655,263.341145 Z M153.656436,261.171875 C153.610646,262.147136 153.601488,262.675781 153.601488,262.675781 L154.480675,266.677083 C154.480675,266.677083 150.267906,264.352864 146.045979,266.522136 C146.045979,266.522136 146.522203,264.398439 146.778635,262.675781 L146.659576,261.345053 L144.672249,268.609375 C144.479927,269.229167 144.415819,269.885417 144.498243,270.532553 C144.598983,271.261719 145.22174,271.799478 145.954396,271.799478 L155.167538,271.799478 C155.863563,271.799478 156.468002,271.316406 156.605376,270.632811 L156.605376,270.623697 C156.797697,269.721355 156.696957,268.782553 156.321471,267.944011 L153.656436,261.171875 Z M16.1003657,53.6419277 C15.9080443,53.90625 15.7065652,54.1614583 15.5142413,54.4348947 L15.5142413,56.7773443 L16.1003657,56.7773443 L16.1003657,53.6419277 Z M16.1003657,63.9414057 L15.5142413,63.9414057 L15.5142413,98.9322917 L16.1003657,98.9322917 L16.1003657,63.9414057 Z M16.1003657,105.440105 L15.5142413,105.440105 L15.5142413,159.334636 L16.1003657,159.334636 L16.1003657,105.440105 Z M25.4783562,76.8294277 L25.3226675,43.8710943 C25.130346,44.044272 24.9288645,44.2174473 24.7365431,44.390625 L24.8922318,76.8385417 L25.4783562,76.8294277 Z M24.7640182,150.757811 L25.3501426,150.757811 L25.3501426,86.1354167 L24.7640182,86.1354167 L24.7640182,150.757811 Z M44.0878059,31.4296887 C43.8863268,31.5299473 43.6848454,31.6302083 43.4925239,31.7395833 L43.4925239,56.7773443 L44.0878059,56.7773443 L44.0878059,31.4296887 Z M44.0878059,63.9414057 L43.4925239,63.9414057 L43.4925239,98.9322917 L44.0878059,98.9322917 L44.0878059,63.9414057 Z M91.3349282,32.1679693 C91.5364097,32.231772 91.7287311,32.2955723 91.911895,32.350261 C91.7287311,32.2955723 91.5364097,32.231772 91.3349282,32.1679693 Z M77.2954178,29.4700527 C77.8815422,26.2981777 81.7554564,26.1888027 83.8343669,28.4856777 C85.1256717,29.9075527 88.7614764,31.3020833 91.3349282,32.1679693 L91.3349282,30.3632807 C91.3898786,30.3450527 91.4539842,30.3268223 91.5089345,30.299478 C91.5089345,30.3359387 91.5089345,30.381511 91.5089345,30.4179693 C91.5089345,30.7734387 91.6554656,31.15625 91.9302102,31.5208333 L91.9302102,32.359375 C93.1940422,32.7604167 94.0823864,33.006511 94.0823864,33.006511 L94.0823864,33.024739 C94.091544,33.024739 94.091544,33.015625 94.1007039,33.015625 C94.5860876,33.1888027 95.1264216,33.3164057 95.7308612,33.3802083 C95.5476974,33.361978 95.3736911,33.334636 95.1996872,33.3072917 C95.0256809,34.3463553 94.7417763,36.643228 95.4286414,37.6914057 C94.3754486,37.28125 93.2215173,36.8984387 92.6903409,36.825522 C91.7653639,36.6979167 88.3676734,37.5 87.3785885,37.736978 C86.1422318,37.5 85.0066157,37.2174473 84.310593,36.8802083 C82.0302033,35.768228 76.7092933,32.6510417 77.2954178,29.4700527 Z M104.486094,31.1197917 C104.687574,31.0286447 104.879897,30.928386 105.063061,30.8007807 C104.879897,30.928386 104.687574,31.0286447 104.486094,31.1197917 Z M102.013383,31.8489583 C101.940118,31.8945307 101.857692,31.9492193 101.784427,31.9947917 C101.894325,31.921875 102.013383,31.8489583 102.123279,31.7669277 C102.93836,31.6757807 103.753439,31.484375 104.486094,31.1289057 L104.486094,26.453125 C104.660101,25.90625 104.696734,25.040364 104.486094,24.375 L104.486094,23.9375 C104.678416,24.046875 104.87074,24.147136 105.072219,24.2473947 L105.072219,30.8007807 C105.200432,30.709636 105.319491,30.618489 105.438547,30.518228 C107.160287,29.1054693 109.330778,26.7083333 111.318108,25.1588553 C111.904233,27.227864 112.838367,28.6953113 114.267045,29.0507807 C115.265288,29.287761 116.21774,29.397136 117.124402,29.397136 C116.93208,29.8802083 116.629858,30.3268223 116.2269,30.709636 C114.184622,32.6054693 110.667876,37.1263027 106.766484,38.5208333 C107.325133,40.444011 107.938733,43.1328113 108.387486,45.6484387 C108.387486,45.6484387 113.680921,47.234375 114.303678,51.053386 C114.935593,54.8723947 114.85317,59.5208333 114.85317,59.5208333 C114.85317,59.5208333 117.554838,58.5455723 118.260018,60.1041667 C118.965198,61.662761 115.283606,63.0299473 112.774259,63.102864 C110.264915,63.1848947 111.171577,59.0104167 109.605525,57.1419277 C108.332536,55.6197917 105.887298,54.5351557 105.017271,54.1796887 C104.165557,54.3893223 103.24058,54.571614 102.297286,54.6992193 C100.822817,55.2734387 98.3775787,58.9921887 98.3775787,60.7421887 C98.3775787,62.5013027 100.493122,64.3697917 100.319116,65.837239 C100.145109,67.2955723 99.6047778,73.0286447 97.5533424,72.0351557 C95.4927494,71.0416667 96.90311,69.4648443 96.371936,67.6510417 C95.8499172,65.837239 93.9633304,65.0169277 93.2581478,62.5013027 C92.5529674,59.9856777 92.8277144,49.9414057 92.8277144,49.9414057 C92.4339115,48.4739583 92.1591645,46.8151053 91.9576854,45.2109387 C93.3405733,44.5546887 94.9157826,43.8072917 94.9157826,43.6888027 C94.9157826,43.4973947 96.1246642,43.4335943 96.4909919,43.2421887 C96.7932117,43.087239 97.3701785,42.3125 97.5441848,42.0664057 C97.5167096,42.0481777 97.4983921,42.0208333 97.4892344,41.984375 L97.4892344,41.975261 C97.4709192,41.8020833 97.4068113,41.647136 97.3060706,41.5286447 C97.1961722,41.4101557 97.0496411,41.319011 96.8939524,41.2460943 C96.5734151,41.109375 96.2070873,41.0455723 95.8407596,41.018228 C95.0989465,40.9544277 94.3296582,40.9726557 93.5695275,41.0455723 C92.8093968,41.0911447 92.0401086,41.1914057 91.2799779,41.2916667 C90.5198496,41.3828113 89.7505613,41.5013027 88.9904306,41.6197917 C88.9171651,41.6289057 88.8530571,41.5833333 88.8347419,41.5104167 C88.8255843,41.446614 88.8622147,41.3828113 88.9263227,41.3554693 C89.6681358,41.100261 90.4282665,40.9270833 91.1975547,40.78125 C91.966843,40.6263027 92.7452889,40.5351557 93.5237371,40.462239 C94.3113406,40.4257807 95.1081041,40.3984387 95.9048675,40.5260417 C96.2986704,40.5989583 96.7016286,40.6992193 97.0771163,40.899739 C97.2602802,41.009114 97.4342841,41.1458333 97.5625,41.3463553 C97.6815559,41.5286447 97.7181887,41.7473947 97.7090311,41.9479167 C97.947143,41.875 98.5241098,41.647136 98.6706409,41.118489 C98.8446471,40.5078113 97.8464046,39.7513027 97.6449232,39.6054693 C97.6266079,39.6054693 97.6082904,39.6054693 97.5991328,39.6054693 C96.9855332,39.3867193 96.362776,39.2135417 95.7308612,39.1041667 C95.0989465,38.9947917 94.4670317,38.930989 93.8259569,38.930989 C93.1848822,38.930989 92.5529674,38.9947917 91.9210526,39.0950527 C91.2891378,39.2044277 90.6755383,39.3776053 90.0527811,39.587239 C89.9886732,39.6145833 89.9154076,39.578125 89.8879324,39.5052083 C89.8696172,39.450522 89.8879324,39.3776053 89.9428828,39.350261 C90.5198496,39.0039057 91.160922,38.7578113 91.8111543,38.59375 C92.4705443,38.4205723 93.1482518,38.3476557 93.8259569,38.3476557 C94.5036621,38.356772 95.1905272,38.4388027 95.8407596,38.6210943 C96.481832,38.794272 97.0954315,39.040364 97.6632407,39.3776053 C97.6907159,39.231772 97.6998735,39.013022 97.5991328,38.7851557 C97.5716576,38.712239 97.4159689,38.602864 97.1961722,38.475261 C99.4857195,38.7851557 103.332163,38.174478 104.275455,36.4791667 C105.17296,34.8476557 103.121524,32.787761 102.013383,31.8489583 Z M97.7822967,33.3802083 C97.4617593,33.4166667 97.1503819,33.4257807 96.8481597,33.4348947 C97.1503819,33.4257807 97.4617593,33.4166667 97.7822967,33.3802083 Z M36.0652282,156.910156 L35.7996411,138.744792 L35.2135167,138.753906 L35.4699462,156.919272 L36.0652282,156.910156 Z M36.0652282,130.924478 L35.7996411,76.4375 L35.2135167,76.4375 L35.4699462,130.924478 L36.0652282,130.924478 Z M53.4657964,76.8294277 L53.2276845,27.0911447 C53.0353607,27.1822917 52.8338816,27.2643223 52.6415601,27.3463553 L52.8705144,76.8385417 L53.4657964,76.8294277 Z M164.866066,90.5195307 C164.856908,90.446614 164.783642,90.4010417 164.710377,90.4101557 C163.538128,90.6289057 162.375037,90.884114 161.211948,91.1393223 C160.039699,91.4036447 158.885766,91.6861973 157.722674,91.959636 C156.568743,92.2604167 155.41481,92.5429693 154.260878,92.852864 C153.106945,93.162761 151.962171,93.481772 150.817397,93.837239 C150.762447,93.8554693 150.734974,93.9101557 150.744132,93.9648443 C150.753289,94.0286447 150.817397,94.0651053 150.872345,94.055989 C152.044594,93.837239 153.216843,93.5911447 154.379934,93.3359387 C155.543025,93.080728 156.706114,92.7890613 157.869205,92.524739 C159.023139,92.2330723 160.17707,91.950522 161.331004,91.640625 C162.484935,91.330728 163.638869,91.0208333 164.774485,90.674478 C164.83859,90.647136 164.884383,90.5833333 164.866066,90.5195307 Z M149.342929,90.6289057 C150.560968,90.337239 151.760692,90 152.960414,89.662761 C154.169295,89.325522 155.359862,88.9609387 156.559583,88.6145833 L160.13128,87.484375 C161.321844,87.0924473 162.503253,86.700522 163.675501,86.263022 C163.739607,86.2447917 163.776242,86.171875 163.757925,86.1080723 C163.739607,86.0351557 163.666342,85.9986973 163.593076,86.0169277 C162.384197,86.3085943 161.184473,86.6458333 159.975591,86.9921887 L156.385579,88.049478 C155.195013,88.4322917 154.004449,88.796875 152.82304,89.1979167 C151.632476,89.5898443 150.45107,89.981772 149.278821,90.419272 C149.223871,90.4375 149.196398,90.4921887 149.205555,90.546875 C149.223871,90.6106777 149.287978,90.647136 149.342929,90.6289057 Z M141.292876,40.553386 C141.265401,40.5898443 141.265401,40.6445307 141.292876,40.6901053 C141.329509,40.7356777 141.402774,40.7447917 141.448565,40.7083333 C141.897316,40.3802083 142.355226,40.0885417 142.831452,39.8424473 C143.316836,39.5963553 143.811377,39.3867193 144.324236,39.240886 C144.837095,39.0768223 145.359114,38.9765613 145.899448,38.9036447 C146.430622,38.8398443 146.970956,38.830728 147.520448,38.8489583 C147.584556,38.8489583 147.639504,38.8125 147.657821,38.7486973 C147.676136,38.6757807 147.639504,38.602864 147.566238,38.584636 C147.016746,38.4205723 146.43978,38.365886 145.853655,38.384114 C145.276688,38.4023443 144.699724,38.5117193 144.150232,38.6757807 C143.600741,38.8580723 143.069564,39.0950527 142.584181,39.4140613 C142.098797,39.7330723 141.659204,40.106772 141.292876,40.553386 Z M139.827565,41.8476557 C139.864198,41.8020833 139.864198,41.7382807 139.818407,41.6927083 C139.772615,41.65625 139.699349,41.65625 139.662716,41.7018223 C137.794445,43.6523443 136.558088,46.1953113 136.100179,48.875 C135.605636,51.5729167 136.091022,54.325522 136.787045,56.9049473 C137.5197,59.484375 138.325621,62.0273443 139.213965,64.5520833 C140.10231,67.0768223 141.082237,69.5742193 142.13543,72.0260417 C142.162905,72.0989583 142.23617,72.1263027 142.309436,72.0989583 C142.382702,72.071614 142.410174,71.9986973 142.391859,71.9348947 C141.448565,69.4375 140.551063,66.921875 139.708507,64.388022 C138.865955,61.8632807 138.060034,59.3111973 137.354851,56.75 C136.631353,54.1979167 136.173445,51.5546887 136.585563,48.9570307 C136.988524,46.359375 138.087507,43.852864 139.827565,41.8476557 Z M117.930323,62.3463553 C117.875373,62.3463553 117.829582,62.4010417 117.829582,62.4648443 C117.884533,63.1757807 118.021904,63.8776053 118.214228,64.5703113 C118.397391,65.263022 118.653821,65.928386 118.956041,66.575522 C119.25826,67.231772 119.606273,67.8606777 120.018391,68.444011 C120.421352,69.0364583 120.870103,69.5924473 121.382961,70.09375 C121.428754,70.1393223 121.50202,70.1484387 121.54781,70.111978 C121.611916,70.075522 121.630233,69.984375 121.584443,69.9296887 C121.19064,69.3463553 120.805995,68.772136 120.457984,68.1705723 C120.109974,67.569011 119.780277,66.9583333 119.487215,66.3294277 C119.184995,65.709636 118.928566,65.0625 118.681294,64.415364 C118.443182,63.768228 118.25086,63.102864 118.049379,62.428386 C118.040221,62.3736973 117.985273,62.337239 117.930323,62.3463553 Z M120.283978,61.4166667 C120.815155,62.4648443 121.392119,63.5039057 122.033194,64.4882807 C122.683426,65.481772 123.379449,66.4296887 124.148737,67.3229167 C124.194528,67.368489 124.267793,67.3776053 124.322741,67.3411447 C124.386849,67.3046887 124.405167,67.2226557 124.359376,67.1588553 C123.709144,66.1927083 123.068069,65.2174473 122.472787,64.2148443 C121.886663,63.2213553 121.318853,62.200522 120.815155,61.1614583 C120.283978,60.1223947 119.82607,59.055989 119.395634,57.9804693 C118.956041,56.9049473 118.571398,55.8020833 118.20507,54.6992193 C118.186752,54.6445307 118.131804,54.6171887 118.076854,54.6263027 C118.012746,54.6354167 117.976113,54.6992193 117.985273,54.7539057 C118.214228,55.9114583 118.543923,57.0416667 118.928566,58.1536447 C119.313211,59.265625 119.780277,60.350261 120.283978,61.4166667 Z M90.0344635,44.0898443 C90.6022727,43.8893223 91.1426067,43.634114 91.6920984,43.4427083 C92.23243,43.2421887 92.7910816,43.1145833 93.3497309,43.078125 C93.9083801,43.0507807 94.4761893,43.1419277 94.9798905,43.4335943 C95.0256809,43.4609387 95.0806289,43.4518223 95.1172617,43.415364 C95.1630521,43.3697917 95.1538944,43.296875 95.1172617,43.2513027 C94.6501932,42.8046887 93.9816456,42.6132807 93.3497309,42.5859387 C92.7178161,42.5585943 92.0858989,42.6861973 91.4906169,42.8958333 C90.9136501,43.1054693 90.3641609,43.3606777 89.8329844,43.615886 C89.2926504,43.8710943 88.7614764,44.0898443 88.1936672,44.2447917 C88.1387192,44.263022 88.0929288,44.3177083 88.1020864,44.381511 C88.1020864,44.4544277 88.1661944,44.509114 88.2394599,44.509114 C88.8622147,44.481772 89.4666567,44.299478 90.0344635,44.0898443 Z M90.3824761,47.3802083 C90.1809946,47.5989583 89.8604596,47.790364 89.5399222,47.9361973 C89.2102273,48.0729167 88.8713747,48.1914057 88.5142045,48.236978 C88.4500966,48.2460943 88.4043062,48.2916667 88.3951486,48.3554693 C88.3951486,48.428386 88.440939,48.4921887 88.5142045,48.5013027 C88.9171651,48.537761 89.3201256,48.4648443 89.695611,48.3463553 C90.0710987,48.21875 90.446584,48.0729167 90.776279,47.7539057 C91.1242892,47.4075527 91.2158723,46.9882807 91.3074531,46.6236973 C91.316613,46.578125 91.3257706,46.5416667 91.3349282,46.5052083 L91.3349282,47.1979167 L91.9302102,48.9570307 L91.9302102,45.2291667 C91.8111543,45.2838553 91.701256,45.3385417 91.5913577,45.393228 C91.5730401,45.3476557 91.5547249,45.3020833 91.5089345,45.274739 C91.3990362,45.1835943 91.2341875,45.2018223 91.1426067,45.3111973 C90.7854366,45.7669277 90.3458433,46.1953113 89.8604596,46.5234387 C89.6131878,46.678386 89.3567584,46.8242193 89.0820114,46.924478 C88.8072667,47.015625 88.5233622,47.0703113 88.2303,47.0703113 L88.2211423,47.0703113 C88.1661944,47.0703113 88.1204016,47.106772 88.111244,47.1614583 C88.1020864,47.225261 88.1478768,47.2799473 88.2028248,47.2890613 C88.8622147,47.3984387 89.5216047,47.1888027 90.0802563,46.8697917 C90.3275257,46.7330723 90.5473224,46.569011 90.7579614,46.3958333 C90.7488038,46.4231777 90.7488038,46.459636 90.7396462,46.477864 C90.6572231,46.8333333 90.5564823,47.1796887 90.3824761,47.3802083 Z M96.2986704,29.944011 C96.2986704,29.953125 96.3169856,29.953125 96.3169856,29.9348947 C96.307828,29.9166667 96.3353009,29.944011 96.371936,29.9804693 L96.4635167,30.053386 C96.6008902,30.1536447 96.7382637,30.2356777 96.8847948,30.299478 C97.1870146,30.4361973 97.4983921,30.509114 97.8189294,30.509114 C98.1394668,30.518228 98.487477,30.4635417 98.753064,30.3632807 C99.027811,30.2539057 99.2567653,30.071614 99.4032964,29.825522 C99.4307715,29.7799473 99.4582467,29.734375 99.4857195,29.6888027 C99.1560269,29.825522 98.817172,29.9348947 98.4691618,29.9895833 C97.7456639,30.1080723 97.0038508,30.080728 96.2986704,29.9257807 L96.2986704,29.944011 Z M96.0422387,30.044272 C95.9689731,29.852864 96.1521393,29.643228 96.3353009,29.6888027 L96.3261433,29.7070307 C97.022166,29.7161447 97.7181887,29.6705723 98.3684211,29.506511 C98.6889584,29.415364 99.0094958,29.305989 99.293398,29.1601557 L99.4032964,29.1054693 C99.4674043,29.069011 99.5956202,29.0325527 99.6963586,29.0507807 C99.9069976,29.069011 100.081004,29.2330723 100.126794,29.4427083 C100.154269,29.5429693 100.126794,29.6705723 100.099319,29.725261 C100.081004,29.7708333 100.062686,29.8164057 100.044371,29.861978 C100.007738,29.953125 99.9619479,30.044272 99.9069976,30.1354167 C99.687201,30.481772 99.3391884,30.7643223 98.9453878,30.8919277 C98.5424273,31.0104167 98.1852572,31.0195307 97.7914543,30.9921887 C97.4159689,30.955728 97.0313259,30.837239 96.7107886,30.6367193 C96.5459399,30.5455723 96.3902512,30.4270833 96.2528777,30.299478 L96.1612969,30.1992193 L96.1063466,30.1445307 C96.0880314,30.1263027 96.0513986,30.080728 96.0422387,30.044272 Z M98.1669396,28.412761 C98.3958962,28.3489583 98.5973753,28.2395833 98.753064,28.075522 C98.9179127,27.9205723 99.0369686,27.7200527 99.0644438,27.5013027 C99.0736014,27.4648443 99.0644438,27.419272 99.0369686,27.3919277 C98.9820206,27.337239 98.8904375,27.328125 98.8354895,27.3736973 L98.8263296,27.3828113 C98.2951555,27.8476557 97.7914543,28.0026053 97.0771163,27.856772 L97.0679564,27.856772 C97.0313259,27.8476557 96.9946908,27.856772 96.967218,27.875 C96.9214253,27.9205723 96.9122677,27.993489 96.9489004,28.0481777 C97.2144875,28.3854167 97.7181887,28.522136 98.1669396,28.412761 Z M99.1010766,26.106772 L99.1102342,26.106772 C99.2659229,26.0976557 99.3941388,26.0794277 99.5223546,26.0703113 C99.6505682,26.0703113 99.7787817,26.0520833 99.89784,26.0611973 C100.016896,26.0520833 100.145109,26.0611973 100.273325,26.0611973 L100.676286,26.0885417 L100.685443,26.0885417 C100.712919,26.0885417 100.749551,26.0794277 100.777027,26.0520833 C100.841135,26.006511 100.85945,25.915364 100.804499,25.8515613 C100.694603,25.7148443 100.548072,25.6236973 100.392381,25.5598947 C100.227535,25.4960943 100.053529,25.46875 99.8886824,25.477864 C99.7146761,25.486978 99.5406699,25.5143223 99.3849811,25.5963553 C99.2292924,25.669272 99.0919189,25.7695307 98.9911782,25.915364 C98.9820206,25.9335943 98.9728607,25.9609387 98.9728607,25.9882807 C98.9728607,26.0611973 99.0369686,26.106772 99.1010766,26.106772 Z M94.1922847,27.1640613 C94.1739695,27.1822917 94.1739695,27.209636 94.1831271,27.236978 C94.1922847,27.3007807 94.2563926,27.3463553 94.3296582,27.337239 C94.4761893,27.3098947 94.5952452,27.2643223 94.7234588,27.227864 C94.842517,27.200522 94.9524154,27.1549473 95.0714713,27.118489 C95.1813696,27.0729167 95.2912679,27.0364583 95.4103239,26.981772 C95.5202222,26.9361973 95.6392805,26.890625 95.767494,26.8177083 L95.7766516,26.8085943 C95.7949692,26.799478 95.822442,26.772136 95.831602,26.7447917 C95.8682347,26.671875 95.831602,26.580728 95.7583364,26.553386 C95.6118053,26.4895833 95.4561143,26.4713553 95.3095832,26.4804693 C95.1538944,26.4804693 95.0073633,26.5169277 94.8608322,26.571614 C94.7234588,26.6263027 94.5860876,26.6992193 94.4761893,26.799478 C94.357131,26.899739 94.2563926,27.018228 94.1922847,27.1640613 Z M99.4857195,23.946614 C99.6322506,23.9921887 99.7696241,24.0195307 99.9161552,24.055989 C100.053529,24.0833333 100.190902,24.1197917 100.337433,24.138022 C100.483964,24.165364 100.639653,24.1835943 100.795342,24.1835943 L100.804499,24.1835943 C100.841135,24.1835943 100.868607,24.174478 100.896083,24.147136 C100.96019,24.1015613 100.96019,24.0104167 100.9144,23.946614 C100.795342,23.8098947 100.657968,23.727864 100.511437,23.6458333 C100.355749,23.5729167 100.20006,23.518228 100.035213,23.490886 C99.8795224,23.4544277 99.7146761,23.4361973 99.5406699,23.4544277 C99.3758235,23.4635417 99.2109749,23.490886 99.0552862,23.5638027 C99.027811,23.5729167 99.0003358,23.5911447 98.9911782,23.618489 C98.9637031,23.6822917 98.9911782,23.7552083 99.0552862,23.7825527 C99.2018173,23.8554693 99.3483484,23.9010417 99.4857195,23.946614 Z M92.7269737,26.0520833 C92.9101376,25.924478 93.0749862,25.787761 93.2398325,25.6601557 C93.4046789,25.5416667 93.5695275,25.4140613 93.7435338,25.2955723 C93.9083801,25.1770833 94.0823864,25.0677083 94.247235,24.9492193 C94.4212389,24.830728 94.6044028,24.7213553 94.7875667,24.584636 C94.8150419,24.5572917 94.842517,24.5208333 94.842517,24.4661447 C94.842517,24.393228 94.7784091,24.3294277 94.7051435,24.3385417 C94.4670317,24.3385417 94.2380751,24.4023443 94.0091208,24.484375 C93.7893242,24.5664057 93.5878451,24.6848947 93.3955212,24.821614 C93.2031998,24.9674473 93.0291935,25.1223947 92.89182,25.3138027 C92.7452889,25.4960943 92.6170754,25.705728 92.5438098,25.924478 C92.5346522,25.9609387 92.5346522,25.9973947 92.5621274,26.0338553 C92.5987578,26.0885417 92.6720233,26.0976557 92.7269737,26.0520833 Z M126.92367,22.7981777 C127.216733,22.9075527 127.546425,22.9348947 127.857805,22.8893223 C128.178342,22.834636 128.480562,22.7161447 128.727834,22.524739 C128.975106,22.3333333 129.176585,22.087239 129.286483,21.8046887 C129.295641,21.768228 129.286483,21.7226557 129.259008,21.6861973 C129.222375,21.640625 129.14911,21.640625 129.094162,21.6861973 C128.691201,22.0325527 128.24245,22.2513027 127.775382,22.3151053 C127.546425,22.3515613 127.299156,22.3333333 127.061042,22.296875 C126.82293,22.2604167 126.584816,22.178386 126.346704,22.069011 L126.337546,22.069011 C126.291753,22.0507807 126.236805,22.0507807 126.200173,22.078125 C126.136065,22.1236973 126.126907,22.2148443 126.172697,22.2786447 C126.365019,22.515625 126.630608,22.6888027 126.92367,22.7981777 Z M119.450584,35.0481777 C119.349844,35.3763027 119.294893,35.7226557 119.267418,36.0598947 C119.230788,36.40625 119.230788,36.7526053 119.249103,37.0898443 C119.276578,37.4361973 119.313211,37.7825527 119.395634,38.1197917 C119.4689,38.4570307 119.56964,38.7851557 119.716171,39.1041667 C119.734487,39.149739 119.780277,39.1861973 119.844385,39.1861973 C119.91765,39.1770833 119.972601,39.1223947 119.972601,39.040364 C119.963443,38.703125 119.935968,38.375 119.908493,38.046875 L119.835227,37.053386 L119.761962,36.069011 C119.734487,35.731772 119.716171,35.4036447 119.670381,35.0664057 C119.670381,35.0208333 119.642906,34.984375 119.597115,34.9661447 C119.533007,34.9479167 119.4689,34.984375 119.450584,35.0481777 Z M120.870103,38.8671887 C121.859188,39.0039057 122.85743,39.03125 123.855675,38.9947917 C124.853917,38.9583333 125.85216,38.821614 126.832087,38.6302083 C127.812015,38.4205723 128.773624,38.15625 129.707761,37.8007807 C130.651054,37.4453113 131.557715,37.0169277 132.409427,36.506511 C132.464377,36.4700527 132.491852,36.40625 132.464377,36.3424473 C132.427744,36.2786447 132.354479,36.2421887 132.290371,36.2695307 C131.383709,36.6523443 130.46789,37.0078113 129.542913,37.3085943 C128.608778,37.609375 127.674641,37.8736973 126.713031,38.055989 C125.760579,38.274739 124.78981,38.4023443 123.819042,38.5026053 C122.848272,38.59375 121.868347,38.6393223 120.87926,38.6393223 C120.83347,38.6393223 120.778522,38.6848947 120.769364,38.7395833 C120.769364,38.803386 120.805995,38.8580723 120.870103,38.8671887 Z M108.15853,23.2539057 C107.9021,23.618489 107.673146,24.0742193 107.728096,24.584636 C107.764727,25.0950527 108.112739,25.5325527 108.56149,25.678386 C108.598123,25.696614 108.653073,25.6875 108.680548,25.6419277 C108.717179,25.5963553 108.717179,25.5234387 108.662231,25.486978 C108.369169,25.25 108.20432,24.8945307 108.222638,24.5664057 C108.240955,24.2291667 108.405801,23.9010417 108.634756,23.5911447 C108.845395,23.28125 109.147615,22.9804693 109.394886,22.615886 C109.633001,22.2513027 109.852797,21.8046887 109.797847,21.330728 C109.788689,21.2760417 109.752057,21.2304693 109.687949,21.212239 C109.614683,21.194011 109.550575,21.2395833 109.53226,21.3125 L109.53226,21.321614 C109.440677,21.6953113 109.230038,22.0052083 108.973611,22.305989 C108.717179,22.5976557 108.414959,22.8893223 108.15853,23.2539057 Z M104.751682,24.0195307 C104.760839,24.0833333 104.815789,24.1289057 104.879897,24.1289057 C104.953163,24.1289057 105.017271,24.0742193 105.017271,24.0013027 C105.026429,23.28125 105.292016,22.5794277 105.740766,22.0598947 C106.18036,21.53125 106.84891,21.2486973 107.535772,20.856772 C107.865467,20.65625 108.21348,20.4101557 108.479067,20.0729167 C108.744654,19.7356777 108.909503,19.334636 108.973611,18.9335943 C109.110982,18.1132807 108.955293,17.3476557 108.762972,16.618489 C108.744654,16.5638027 108.698864,16.5273443 108.643913,16.5273443 C108.579808,16.5364583 108.534017,16.5911447 108.543175,16.6458333 C108.588965,17.4023443 108.662231,18.149739 108.488225,18.8333333 C108.396644,19.1614583 108.268428,19.4713553 108.048631,19.7265613 C107.837992,19.981772 107.54493,20.1731777 107.233553,20.3554693 C106.629113,20.7291667 105.841507,21.0481777 105.328648,21.740886 C104.834105,22.397136 104.614308,23.2356777 104.751682,24.0195307 Z M137.895185,11.696614 C138.288988,11.90625 138.655316,12.0976557 138.83848,12.3893223 C139.24144,12.9544277 138.994169,14.0208333 139.552818,14.868489 C140.038204,15.6979167 140.935706,16.263022 141.869843,16.299478 C141.943108,16.299478 141.998056,16.2539057 142.007214,16.1901053 C142.025531,16.1171887 141.979739,16.053386 141.906473,16.0351557 C141.082237,15.8802083 140.367897,15.3242193 140.001569,14.6132807 C139.818407,14.2578113 139.735982,13.893228 139.699349,13.455728 C139.644401,13.0273443 139.626083,12.5260417 139.323864,12.0611973 C139.003326,11.6054693 138.5271,11.4049473 138.151615,11.2135417 C137.785287,11.022136 137.455592,10.7760417 137.16253,10.493489 C136.576406,9.91015567 136.164287,9.13541667 136.017756,8.287761 C136.008599,8.23307233 135.962806,8.196614 135.907858,8.196614 C135.84375,8.196614 135.79796,8.24218867 135.79796,8.305989 C135.807117,9.21744733 136.182603,10.1289057 136.796202,10.830728 C137.098422,11.1861973 137.492225,11.46875 137.895185,11.696614 Z M110.054276,10.9674473 C110.475552,10.4023443 110.860197,9.819011 111.308948,9.299478 C111.757702,8.78906133 112.2614,8.33333333 112.847525,8.03255267 C113.424492,7.731772 114.083882,7.58593867 114.706639,7.70442767 C115.338554,7.83203067 115.942996,8.196614 116.254373,8.78906133 C116.27269,8.834636 116.327638,8.861978 116.382589,8.84375 C116.446697,8.825522 116.47417,8.77083333 116.455854,8.70703067 C116.245215,7.96875 115.56751,7.430989 114.825695,7.23046933 C114.065564,7.00260533 113.241328,7.17578067 112.57278,7.522136 C111.895073,7.868489 111.336423,8.388022 110.905988,8.98046933 C110.466394,9.56380267 110.127542,10.1927083 109.825322,10.8398443 C109.797847,10.8945307 109.816162,10.9583333 109.861955,11.0039057 C109.926063,11.040364 110.008486,11.03125 110.054276,10.9674473 Z M114.825695,4.696614 C115.082124,4.72395833 115.329396,4.74218867 115.576668,4.76953067 C115.81478,4.805989 116.052894,4.83333333 116.291006,4.87890567 C116.52912,4.915364 116.767232,4.97005267 117.014504,5.024739 C117.170192,5.06119733 117.325883,5.106772 117.49073,5.143228 C117.243458,5.544272 117.051136,5.96354167 116.904605,6.40104167 C116.730599,6.94791667 116.620701,7.522136 116.629858,8.087239 C116.629858,8.13281133 116.666493,8.178386 116.721441,8.196614 C116.776389,8.205728 116.840497,8.169272 116.858815,8.11458333 C116.987028,7.57682233 117.151877,7.06640567 117.371674,6.57421933 C117.59147,6.08203067 117.8479,5.61718867 118.159277,5.17968867 C118.461497,4.74218867 118.80951,4.34114467 119.194153,3.95833333 C119.578798,3.584636 120.009234,3.24739467 120.457984,2.946614 C120.512932,2.91015567 120.53125,2.84635533 120.512932,2.78255267 C120.48546,2.71875 120.412194,2.68229167 120.338929,2.709636 C119.798594,2.90104167 119.304053,3.21093867 118.846142,3.575522 C118.397391,3.94010533 118.003589,4.37760533 117.673894,4.85156133 C117.673894,4.85156133 117.664736,4.86067767 117.664736,4.86979167 C117.518205,4.75130267 117.353356,4.64192767 117.179352,4.55989467 C116.93208,4.43229167 116.666493,4.359375 116.400904,4.30468867 C116.135317,4.25 115.851412,4.231772 115.585825,4.25 C115.311078,4.27734433 115.036334,4.32291667 114.779904,4.43229167 C114.743272,4.450522 114.706639,4.49609433 114.706639,4.54166667 C114.697481,4.62369733 114.752429,4.6875 114.825695,4.696614 Z M118.763719,1.13281133 C118.80951,1.22395833 118.86446,1.296875 118.91025,1.37890567 C118.974356,1.45182233 119.029306,1.524739 119.102572,1.59765567 C119.16668,1.67057233 119.239945,1.743489 119.340684,1.81640567 L119.340684,1.825522 C119.359001,1.834636 119.368159,1.84375 119.386476,1.84375 C119.459742,1.861978 119.533007,1.825522 119.551323,1.75260533 C119.578798,1.615886 119.56964,1.49739467 119.542165,1.37890567 C119.51469,1.25130267 119.459742,1.15104167 119.395634,1.04166667 C119.331526,0.950522 119.249103,0.850261 119.148362,0.786458333 C119.047621,0.713541667 118.937725,0.658855333 118.800352,0.640625 C118.782034,0.631511 118.763719,0.631511 118.736244,0.640625 C118.653821,0.667969333 118.608028,0.75 118.635503,0.832030667 L118.635503,0.850261 C118.672136,0.959636 118.717929,1.05078067 118.763719,1.13281133 Z M116.400904,1.76171933 C116.593228,1.88020833 116.776389,1.97135533 116.950396,2.080728 C117.115244,2.19921933 117.289248,2.30859433 117.444939,2.43619733 C117.600628,2.55468867 117.747159,2.69140567 117.902848,2.819011 C118.058539,2.955728 118.19591,3.11067767 118.351601,3.256511 L118.360759,3.265625 C118.388231,3.29296933 118.434024,3.31119733 118.479815,3.30208333 C118.55308,3.28385533 118.608028,3.21093867 118.589713,3.138022 C118.543923,2.90104167 118.434024,2.68229167 118.296651,2.490886 C118.168435,2.28125 117.985273,2.11718867 117.792949,1.97135533 C117.600628,1.825522 117.389989,1.70703067 117.151877,1.634114 C116.92292,1.56119733 116.684809,1.515625 116.446697,1.54296933 C116.410062,1.54296933 116.373431,1.57031133 116.355114,1.59765567 C116.318481,1.65234433 116.336796,1.725261 116.400904,1.76171933 Z M131.78667,7.950522 C132.327004,8.16015567 132.720807,8.615886 132.968076,9.13541667 C133.233665,9.65494733 133.361879,10.2382807 133.490095,10.8398443 C133.618308,11.4322917 133.792315,12.0703113 134.131167,12.6445307 C134.296016,12.9270833 134.506653,13.1914057 134.772242,13.419272 C135.028671,13.647136 135.376682,13.8111973 135.697219,13.893228 C135.999439,13.975261 136.292501,14.0390613 136.475665,14.1666667 C136.649671,14.2851557 136.732094,14.4674473 136.741254,14.731772 C136.750412,14.9960943 136.704619,15.296875 136.686304,15.625 C136.658829,15.962239 136.750412,16.3541667 136.933576,16.6458333 C137.299903,17.2473947 137.849395,17.59375 138.288988,17.9856777 C138.728582,18.368489 139.122382,18.8606777 139.058277,19.4257807 C139.058277,19.4804693 139.094909,19.5351557 139.149857,19.544272 C139.204808,19.5625 139.268913,19.5260417 139.287231,19.462239 C139.360496,19.134114 139.287231,18.7786447 139.1407,18.486978 C138.994169,18.1861973 138.78353,17.930989 138.563733,17.703125 C138.105824,17.256511 137.620441,16.8919277 137.364009,16.4088553 C137.244953,16.162761 137.199163,15.9348947 137.217478,15.6523443 C137.235795,15.3697917 137.299903,15.069011 137.299903,14.7135417 C137.309061,14.3763027 137.144212,13.9205723 136.796202,13.7018223 C136.466507,13.4739583 136.127655,13.419272 135.852908,13.337239 C135.312574,13.209636 134.909615,12.8450527 134.607393,12.352864 C134.305173,11.8697917 134.1678,11.3046887 133.993794,10.712239 C133.838105,10.1289057 133.673259,9.5 133.352721,8.93489467 C133.023026,8.388022 132.528483,7.868489 131.869093,7.70442767 C131.804987,7.68619733 131.731722,7.72265567 131.713404,7.78645833 C131.685931,7.850261 131.722562,7.93229167 131.78667,7.950522 Z M128.425612,10.256511 C128.810257,10.7578113 128.874365,11.4049473 128.89268,12.0520833 C128.929313,12.6992193 128.89268,13.4010417 129.20406,14.084636 C129.359749,14.421875 129.634496,14.731772 129.945873,14.9140613 C130.257251,15.1145833 130.577788,15.2330723 130.88001,15.3697917 C131.173072,15.4973947 131.438659,15.634114 131.630981,15.834636 C131.814145,16.0169277 131.914885,16.263022 131.951518,16.5546887 C132.043099,17.1289057 131.88741,17.7851557 131.969833,18.5143223 C132.006466,18.8697917 132.134682,19.2708333 132.400269,19.5625 C132.656699,19.8723947 133.004711,20.0364583 133.316089,20.1731777 C133.957163,20.4375 134.543288,20.6106777 134.973721,21.0664057 C135.413314,21.4947917 135.706377,22.078125 135.788802,22.6979167 C135.79796,22.7708333 135.852908,22.8164057 135.917016,22.8164057 C135.990281,22.8164057 136.054389,22.7526053 136.054389,22.6796887 C136.045229,21.986978 135.752167,21.303386 135.285101,20.774739 C135.046987,20.5104167 134.753924,20.2916667 134.442547,20.118489 C134.131167,19.9635417 133.81979,19.8450527 133.526728,19.6992193 C133.242823,19.5625 132.986394,19.4166667 132.812387,19.2070307 C132.647541,19.006511 132.555958,18.7421887 132.528483,18.450522 C132.455217,17.8580723 132.629223,17.2018223 132.537643,16.4635417 C132.482692,16.0989583 132.317846,15.7070307 132.024784,15.4335943 C131.750037,15.1510417 131.402027,14.9960943 131.099807,14.868489 C130.788427,14.731772 130.486207,14.6223947 130.229778,14.4674473 C129.982506,14.3125 129.790184,14.1210943 129.643653,13.865886 C129.378064,13.3463553 129.350591,12.680989 129.286483,12.024739 C129.213218,11.3776053 129.103319,10.6302083 128.590461,10.1106777 C128.553828,10.0742193 128.48972,10.0651053 128.443929,10.1015613 C128.398139,10.138022 128.388981,10.2109387 128.425612,10.256511 Z M117.371674,25.2864583 C116.968713,25.569011 116.446697,25.6054693 115.970468,25.4140613 C115.485085,25.231772 115.063809,24.8580723 114.706639,24.4388027 C114.660848,24.393228 114.587583,24.384114 114.532632,24.4114583 C114.468527,24.4570307 114.450209,24.5390613 114.496,24.602864 C114.807379,25.0859387 115.219498,25.5507807 115.787307,25.8242193 C116.345956,26.0976557 117.096927,26.0976557 117.664736,25.7513027 C118.214228,25.4140613 118.589713,24.8671887 118.80951,24.3020833 C119.038464,23.727864 119.130047,23.1445307 119.203312,22.5794277 C119.21247,22.515625 119.203312,22.4609387 119.16668,22.40625 C119.093414,22.2695307 118.919408,22.2148443 118.791194,22.296875 C118.095169,22.6796887 117.335041,22.9257807 116.556593,23.0625 C115.768989,23.1992193 114.953911,23.1992193 114.157147,23.071614 C114.102199,23.0625 114.047249,23.0989583 114.028934,23.1536447 C114.010616,23.2174473 114.047249,23.272136 114.102199,23.290364 C114.90812,23.5364583 115.768989,23.609375 116.611543,23.518228 C117.280091,23.4635417 117.930323,23.290364 118.543923,23.0260417 C118.479815,23.390625 118.397391,23.7552083 118.278336,24.0924473 C118.095169,24.584636 117.792949,25.022136 117.371674,25.2864583 Z M113.461124,20.8111973 C113.690079,20.8476557 113.89156,20.8385417 114.083882,20.8111973 L114.093039,20.8111973 C114.14799,20.8020833 114.19378,20.765625 114.202938,20.7109387 C114.221255,20.638022 114.175465,20.5651053 114.102199,20.546875 C113.726711,20.4739583 113.378701,20.3645833 113.277961,20.1458333 C113.17722,19.9726557 113.277961,19.671875 113.470282,19.352864 C113.644288,19.0338553 113.845767,18.7330723 114.065564,18.4322917 C114.285361,18.140625 114.532632,17.8671887 114.789062,17.584636 C114.816537,17.5572917 114.834855,17.5026053 114.807379,17.4570307 C114.779904,17.4023443 114.715796,17.384114 114.660848,17.4114583 C114.294521,17.584636 113.973983,17.830728 113.690079,18.1132807 C113.397016,18.3867193 113.158905,18.7148443 112.957423,19.0703113 C112.865842,19.243489 112.755944,19.4348947 112.700994,19.662761 C112.655203,19.890625 112.664361,20.209636 112.838367,20.428386 C113.012373,20.647136 113.241328,20.756511 113.461124,20.8111973 Z M113.900718,12.0976557 C113.946508,12.0794277 113.992298,12.0429693 114.001458,11.9882807 C114.019774,11.915364 113.964826,11.8515613 113.89156,11.8333333 C113.598498,11.7695307 113.277961,11.787761 112.984898,11.8606777 C112.673519,11.924478 112.389616,12.0520833 112.133187,12.2161447 C111.867598,12.3893223 111.638643,12.5989583 111.455479,12.8450527 C111.272316,13.0911447 111.125784,13.3645833 111.061676,13.665364 C111.052519,13.7018223 111.061676,13.7473947 111.098312,13.774739 C111.144102,13.8111973 111.217368,13.8111973 111.263158,13.756511 C111.446322,13.546875 111.620328,13.3463553 111.821807,13.1731777 C112.023289,13.009114 112.224768,12.8450527 112.444564,12.7083333 C112.664361,12.571614 112.893315,12.453125 113.140587,12.352864 C113.378701,12.243489 113.635131,12.1705723 113.900718,12.0976557 Z M119.761962,12.890625 C119.496375,12.6901053 119.203312,12.5351557 118.882775,12.462239 C118.571398,12.3893223 118.223385,12.3802083 117.912008,12.5169277 C117.884533,12.5351557 117.857057,12.571614 117.8479,12.6171887 C117.8479,12.680989 117.89369,12.7356777 117.957798,12.7356777 L117.966956,12.7356777 C118.50729,12.772136 118.983516,13.0273443 119.395634,13.3463553 C119.606273,13.5104167 119.798594,13.7018223 119.990916,13.9023443 C120.17408,14.102864 120.357244,14.321614 120.567883,14.540364 C120.604516,14.5768223 120.659464,14.5859387 120.705256,14.5768223 C120.778522,14.549478 120.815155,14.4765613 120.796837,14.4036447 C120.705256,14.111978 120.567883,13.8385417 120.393877,13.5833333 C120.22903,13.319011 120.009234,13.0820307 119.761962,12.890625 Z M52.7422985,150.757811 L53.3375828,150.757811 L53.3375828,86.1354167 L52.7422985,86.1354167 L52.7422985,150.757811 Z M9.68047249,160.829428 C9.67131488,160.628906 9.67131488,160.4375 9.66215493,160.246094 C10.9900948,160.182292 11.8692814,160.109375 12.8492087,160.018228 C14.4885236,159.872395 16.5308014,159.690105 21.6044396,159.507811 C24.8281238,159.398439 27.4107356,159.690105 29.910922,159.972656 C34.0137928,160.4375 37.9060269,160.884114 43.9870676,159.334636 L43.4925239,159.334636 L43.4925239,105.440105 L44.0878059,105.440105 L44.0878059,159.307292 C44.3991857,159.225261 44.7197231,159.143228 45.0402581,159.052083 C51.9180622,157.119792 53.9878128,157.967447 56.3872608,158.942708 C57.6785655,159.471355 59.1530365,160.072917 61.6257476,160.291667 C67.7983714,160.838542 72.1393541,158.805989 72.9727503,158.377605 L72.9727503,19.799478 C73.1742294,19.7356777 73.3665532,19.671875 73.5588747,19.6171887 L73.5588747,158.723958 L73.4123436,158.805989 C73.2200221,158.915364 68.6226077,161.494792 61.5707996,160.875 C59.015663,160.647136 57.4954016,160.027344 56.1583065,159.480469 C53.7680162,158.514322 51.890587,157.739583 45.2051067,159.617189 C41.4502461,160.665364 38.5104665,161.002605 35.8820643,161.002605 C33.7390481,161.002605 31.8158263,160.783855 29.8376564,160.555989 C27.3649453,160.273439 24.800651,159.981772 21.6227572,160.100261 C16.5674342,160.273439 14.5343164,160.455728 12.9041567,160.601561 C11.9150718,160.683594 11.01757,160.765625 9.68047249,160.829428" id="Shape" fill="#363E8D" fill-rule="nonzero" mask="url(#mask-4)"></path>
                </g>
            </g>
        </g>
    </g>
</svg>