<?xml version="1.0" encoding="UTF-8"?>
<svg width="120px" height="120px" viewBox="0 0 120 120" version="1.1" xmlns="http://www.w3.org/2000/svg" xmlns:xlink="http://www.w3.org/1999/xlink">
    <title>crying</title>
    <defs>
        <polygon id="path-1" points="0.887019692 0.274038462 119.963943 0.274038462 119.963943 119.350962 0.887019692 119.350962"></polygon>
        <polygon id="path-3" points="0.887019692 0 119.963943 0 119.963943 13.1971154 0.887019692 13.1971154"></polygon>
    </defs>
    <g id="Page-1" stroke="none" stroke-width="1" fill="none" fill-rule="evenodd">
        <g id="Emotion-Estimation" transform="translate(-247.000000, -487.000000)">
            <g id="crying" transform="translate(247.000000, 487.000000)">
                <g id="Clipped">
                    <mask id="mask-2" fill="white">
                        <use xlink:href="#path-1"></use>
                    </mask>
                    <g id="Path"></g>
                    <path d="M120.201923,59.9314902 C120.201923,92.8774043 93.4903846,119.588943 60.5444714,119.588943 C27.5949517,119.588943 0.887019692,92.8774043 0.887019692,59.9314902 C0.887019692,26.9819714 27.5949517,0.274038462 60.5444714,0.274038462 C93.4903846,0.274038462 120.201923,26.9819714 120.201923,59.9314902" id="Path" fill="#FFCC4D" fill-rule="nonzero" mask="url(#mask-2)"></path>
                </g>
                <path d="M73.7992791,89.7584132 C73.7992791,98.9170671 67.8641825,99.7031252 60.5444714,99.7031252 C53.2175483,99.7031252 47.2860572,98.9170671 47.2860572,89.7584132 C47.2860572,80.6069714 53.2175483,69.8725957 60.5444714,69.8725957 C67.8641825,69.8725957 73.7992791,80.6069714 73.7992791,89.7584132 Z M100.316106,49.9867791 C99.9050483,49.9867791 99.4867791,49.9110572 99.0865385,49.7487978 C81.7536055,42.8185098 74.6538462,32.3798077 74.3581735,31.9362978 C73.3413462,30.4146637 73.7524043,28.3557692 75.2740385,27.3389428 C76.7956726,26.3257209 78.8437495,26.7295671 79.8641825,28.2475957 C79.9290868,28.3377406 86.2608175,37.4783649 101.545673,43.590144 C103.24399,44.2716351 104.073318,46.2007209 103.395433,47.8990385 C102.872596,49.1971154 101.628606,49.9867791 100.316106,49.9867791 Z M20.7728363,49.9867791 C19.4567308,49.9867791 18.2127406,49.1971154 17.6935098,47.902644 C17.0120197,46.2007209 17.8377406,44.2716351 19.5396637,43.5937495 C34.8245188,37.4819714 41.1562505,28.3413462 41.2211538,28.2512022 C42.2415868,26.7403846 44.3004812,26.340144 45.8185098,27.3569714 C47.3329329,28.3774043 47.7439902,30.4218748 46.7307692,31.9399034 C46.4350966,32.3798077 39.3317308,42.8221154 22.0060098,49.7524043 C21.5985582,49.9110572 21.1838945,49.9867791 20.7728363,49.9867791 Z" id="Shape" fill="#664500" fill-rule="nonzero"></path>
                <path d="M80.430288,53.3004812 L93.6850966,53.3004812 L93.6850966,116.275241 L80.430288,116.120192 L80.430288,53.3004812 Z M27.4002406,116.275241 L40.6586538,116.120192 L40.6586538,53.3004812 L27.4002406,53.3004812 L27.4002406,116.275241 Z" id="Shape" fill="#5DADEC" fill-rule="nonzero"></path>
                <path d="M50.5961538,59.9314902 C50.0985582,59.9314902 49.5937495,59.8161055 49.1177889,59.5817308 C37.4783649,53.7620197 25.6875,59.5240385 25.5721154,59.5817308 C23.9314902,60.4074517 21.9411055,59.7331735 21.1225957,58.0997594 C20.3040868,56.4627406 20.9675483,54.472356 22.6045671,53.6538462 C23.2067308,53.3545671 37.5108175,46.3701923 52.0853363,53.6538462 C53.722356,54.472356 54.3858175,56.4627406 53.5673077,58.0997594 C52.9831735,59.2608175 51.8149034,59.9314902 50.5961538,59.9314902 Z M96.9987978,59.9314902 C96.5012022,59.9314902 95.9927889,59.8161055 95.5204329,59.5817308 C83.8774043,53.7620197 72.0865385,59.5240385 71.9711538,59.5817308 C70.3341342,60.4038462 68.3437495,59.7367791 67.5216351,58.0997594 C66.7031252,56.4627406 67.3665868,54.472356 69.0036055,53.6538462 C69.6093748,53.3545671 83.9242791,46.3737978 98.4843748,53.6538462 C100.121394,54.472356 100.784856,56.4627406 99.9663462,58.0997594 C99.3822111,59.2608175 98.2139428,59.9314902 96.9987978,59.9314902 Z" id="Shape" fill="#664500" fill-rule="nonzero"></path>
                <g id="Clipped" transform="translate(0.000000, 106.153846)">
                    <mask id="mask-4" fill="white">
                        <use xlink:href="#path-3"></use>
                    </mask>
                    <g id="Path"></g>
                    <path d="M120.201923,6.80408677 C120.201923,7.02403846 120.104567,7.24038462 119.913462,7.45673077 C119.722356,7.66947138 119.4375,7.88581754 119.055288,8.09855815 C118.673077,8.31129785 118.200721,8.52043292 117.63101,8.72956708 C117.064903,8.93870215 116.408654,9.14062523 115.658654,9.34254831 C114.912259,9.54086585 114.079327,9.73918246 113.15625,9.930288 C112.236779,10.1213945 111.230769,10.3088945 110.145433,10.4891825 C109.060097,10.6694714 107.899038,10.8425483 106.658654,11.0120197 C105.418269,11.1778846 104.109375,11.340144 102.728365,11.4915868 C101.347356,11.6466351 99.9014418,11.7908658 98.3906252,11.9278846 C96.8798077,12.0685098 95.3112978,12.194712 93.6887022,12.3173077 C92.0625,12.4362978 90.3894231,12.5480769 88.6658658,12.652644 C86.9423077,12.7536055 85.1790868,12.847356 83.3725957,12.930288 C81.569712,13.0132209 79.7307692,13.0853363 77.8593748,13.1502406 C75.9915868,13.2115385 74.0985582,13.2656252 72.180288,13.305288 C70.2656252,13.3485582 68.3365385,13.3810098 66.3894231,13.402644 C64.4459132,13.4242791 62.4987978,13.4350966 60.5444714,13.4350966 C58.590144,13.4350966 56.6394231,13.4242791 54.6959132,13.402644 C52.7524043,13.3810098 50.819712,13.3485582 48.9050483,13.305288 C46.9867791,13.2656252 45.0937495,13.2115385 43.2259615,13.1502406 C41.3545671,13.0853363 39.5192308,13.0132209 37.7127406,12.930288 C35.909856,12.847356 34.1430286,12.7536055 32.4194714,12.652644 C30.6995188,12.5480769 29.0228363,12.4362978 27.4002406,12.3173077 C25.7740385,12.194712 24.2055286,12.0685098 22.6983175,11.9278846 C21.1875,11.7908658 19.7415868,11.6466351 18.3605769,11.4915868 C16.9759615,11.340144 15.6670671,11.1778846 14.4266825,11.0120197 C13.1862978,10.8425483 12.0252406,10.6694714 10.9399034,10.4891825 C9.85456708,10.3088945 8.85216369,10.1213945 7.92908677,9.930288 C7.00961538,9.73918246 6.17307692,9.54086585 5.42668246,9.34254831 C4.680288,9.14062523 4.02043292,8.93870215 3.45432738,8.72956708 C2.88822092,8.52043292 2.41225938,8.31129785 2.03365385,8.09855815 C1.65144185,7.88581754 1.36298031,7.66947138 1.17187477,7.45673077 C0.980769231,7.24038462 0.887019692,7.02403846 0.887019692,6.80408677 C0.887019692,6.58774062 0.980769231,6.37139446 1.17187477,6.15504831 C1.36298031,5.93870215 1.65144185,5.72596154 2.03365385,5.51322092 C2.41225938,5.30048123 2.88822092,5.08774062 3.45432738,4.88221108 C4.02043292,4.67307692 4.680288,4.46754831 5.42668246,4.26923077 C6.17307692,4.06730769 7.00961538,3.87259569 7.92908677,3.68149015 C8.85216369,3.49038462 9.85456708,3.30288462 10.9399034,3.12259569 C12.0252406,2.94230769 13.1862978,2.76923077 14.4266825,2.59975938 C15.6670671,2.43389446 16.9759615,2.27163508 18.3605769,2.11658677 C19.7415868,1.965144 21.1875,1.82091323 22.6983175,1.680288 C24.2055286,1.54326923 25.7740385,1.41346154 27.4002406,1.29447138 C29.0228363,1.17187477 30.6995188,1.06009662 32.4194714,0.959134154 C34.1430286,0.858173538 35.909856,0.764423077 37.7127406,0.681490154 C39.5192308,0.598558154 41.3545671,0.526441846 43.2259615,0.461538462 C45.0937495,0.400240615 46.9867791,0.346153846 48.9050483,0.302884615 C50.819712,0.263220923 52.7524043,0.230769231 54.6959132,0.209134154 C56.6394231,0.1875 58.590144,0.176682462 60.5444714,0.176682462 C62.4987978,0.176682462 64.4459132,0.1875 66.3894231,0.209134154 C68.3365385,0.230769231 70.2656252,0.263220923 72.180288,0.302884615 C74.0985582,0.346153846 75.9915868,0.400240615 77.8593748,0.461538462 C79.7307692,0.526441846 81.569712,0.598558154 83.3725957,0.681490154 C85.1790868,0.764423077 86.9423077,0.858173538 88.6658658,0.959134154 C90.3894231,1.06009662 92.0625,1.17187477 93.6887022,1.29447138 C95.3112978,1.41346154 96.8798077,1.54326923 98.3906252,1.680288 C99.9014418,1.82091323 101.347356,1.965144 102.728365,2.11658677 C104.109375,2.27163508 105.418269,2.43389446 106.658654,2.59975938 C107.899038,2.76923077 109.060097,2.94230769 110.145433,3.12259569 C111.230769,3.30288462 112.236779,3.49038462 113.15625,3.68149015 C114.079327,3.87259569 114.912259,4.06730769 115.658654,4.26923077 C116.408654,4.46754831 117.064903,4.67307692 117.63101,4.88221108 C118.200721,5.08774062 118.673077,5.30048123 119.055288,5.51322092 C119.4375,5.72596154 119.722356,5.93870215 119.913462,6.15504831 C120.104567,6.37139446 120.201923,6.58774062 120.201923,6.80408677 Z" id="Path" fill="#5DADEC" fill-rule="nonzero" mask="url(#mask-4)"></path>
                </g>
                <path d="M70.4855769,89.7584132 C70.4855769,90.194712 70.4242791,90.6237978 70.2944714,91.0528846 C70.1682692,91.4783649 69.9807692,91.8930286 69.7283649,92.2968748 C69.4795671,92.6971154 69.1730769,93.0793274 68.8088945,93.4399034 C68.4483175,93.8040868 68.0372594,94.1394231 67.5757209,94.4459132 C67.1141825,94.7524043 66.6093748,95.0300483 66.0685098,95.2716351 C65.5240385,95.5132209 64.9507209,95.715144 64.3485582,95.8846154 C63.7463945,96.0504812 63.1225957,96.1766825 62.4843748,96.2596154 C61.8425483,96.3461538 61.1971154,96.3894231 60.5444714,96.3894231 C59.8918265,96.3894231 59.2427889,96.3461538 58.6045671,96.2596154 C57.9627406,96.1766825 57.3425483,96.0504812 56.7367791,95.8846154 C56.1346154,95.715144 55.5612978,95.5132209 55.0204329,95.2716351 C54.4759615,95.0300483 53.9747594,94.7524043 53.5132209,94.4459132 C53.0516825,94.1394231 52.6370197,93.8040868 52.2764418,93.4399034 C51.9122594,93.0793274 51.6057692,92.6971154 51.3569714,92.2968748 C51.1081735,91.8930286 50.9170671,91.4783649 50.7908658,91.0528846 C50.6646637,90.6237978 50.5997594,90.194712 50.5997594,89.7584132 C50.5997594,89.3221154 50.6646637,88.8930286 50.7908658,88.4675483 C50.9170671,88.0384615 51.1081735,87.6237978 51.3569714,87.2235582 C51.6057692,86.819712 51.9122594,86.4375 52.2764418,86.0769231 C52.6370197,85.7127406 53.0516825,85.3810098 53.5132209,85.0709132 C53.9747594,84.7644231 54.4759615,84.4903846 55.0204329,84.2487978 C55.5612978,84.0072111 56.1346154,83.8016825 56.7367791,83.6358175 C57.3425483,83.4699517 57.9627406,83.3437495 58.6045671,83.2572111 C59.2427889,83.1742791 59.8918265,83.1310098 60.5444714,83.1310098 C61.1971154,83.1310098 61.8425483,83.1742791 62.4843748,83.2572111 C63.1225957,83.3437495 63.7463945,83.4699517 64.3485582,83.6358175 C64.9507209,83.8016825 65.5240385,84.0072111 66.0685098,84.2487978 C66.6093748,84.4903846 67.1141825,84.7644231 67.5757209,85.0709132 C68.0372594,85.3810098 68.4483175,85.7127406 68.8088945,86.0769231 C69.1730769,86.4375 69.4795671,86.819712 69.7283649,87.2235582 C69.9807692,87.6237978 70.1682692,88.0384615 70.2944714,88.4675483 C70.4242791,88.8930286 70.4855769,89.3221154 70.4855769,89.7584132 Z" id="Path" fill="#E75A70" fill-rule="nonzero"></path>
            </g>
        </g>
    </g>
</svg>