<?xml version="1.0" encoding="UTF-8"?>
<svg width="120px" height="120px" viewBox="0 0 120 120" version="1.1" xmlns="http://www.w3.org/2000/svg" xmlns:xlink="http://www.w3.org/1999/xlink">
    <title>exhausted</title>
    <defs>
        <polygon id="path-1" points="0.57291619 0.40874976 119.144345 0.40874976 119.144345 119.92875 0.57291619 119.92875"></polygon>
    </defs>
    <g id="Page-1" stroke="none" stroke-width="1" fill="none" fill-rule="evenodd">
        <g id="Emotion-Estimation" transform="translate(-47.000000, -487.000000)">
            <g id="exhausted" transform="translate(47.000000, 487.000000)">
                <g id="Clipped">
                    <mask id="mask-2" fill="white">
                        <use xlink:href="#path-1"></use>
                    </mask>
                    <g id="Path"></g>
                    <path d="M119.166667,60.18 C119.166667,93.1912502 92.6153276,119.95125 59.8697914,119.95125 C27.1242562,119.95125 0.57291619,93.1912502 0.57291619,60.18 C0.57291619,27.1725005 27.1242562,0.40874976 59.8697914,0.40874976 C92.6153276,0.40874976 119.166667,27.1725005 119.166667,60.18" id="Path" fill="#FFCC4D" fill-rule="nonzero" mask="url(#mask-2)"></path>
                </g>
                <path d="M82.9278276,86.745 L36.8080362,86.745 C34.988839,86.745 33.5156248,85.26 33.5156248,83.4262502 C33.5156248,81.5887498 34.988839,80.1037498 36.8080362,80.1037498 L82.9278276,80.1037498 C84.7507438,80.1037498 86.2239581,81.5887498 86.2239581,83.4262502 C86.2239581,85.26 84.7507438,86.745 82.9278276,86.745 Z M49.985119,60.18 L26.9270838,60.18 C25.1078867,60.18 23.6309524,58.695 23.6309524,56.8612502 C23.6309524,55.0274995 25.1078867,53.5387498 26.9270838,53.5387498 L49.985119,53.5387498 C51.8043152,53.5387498 53.2812495,55.0274995 53.2812495,56.8612502 C53.2812495,58.695 51.8043152,60.18 49.985119,60.18 Z M92.8125,60.18 L69.7507438,60.18 C67.9315476,60.18 66.4583333,58.695 66.4583333,56.8612502 C66.4583333,55.0274995 67.9315476,53.5387498 69.7507438,53.5387498 L92.8125,53.5387498 C94.6316962,53.5387498 96.1049105,55.0274995 96.1049105,56.8612502 C96.1049105,58.695 94.6316962,60.18 92.8125,60.18 Z" id="Shape" fill="#664500" fill-rule="nonzero"></path>
            </g>
        </g>
    </g>
</svg>