<?xml version="1.0" encoding="UTF-8"?>
<svg width="147px" height="162px" viewBox="0 0 147 162" version="1.1" xmlns="http://www.w3.org/2000/svg" xmlns:xlink="http://www.w3.org/1999/xlink">
    <title>Flowers</title>
    <defs>
        <polygon id="path-1" points="0 0 147 0 147 161.5 0 161.5"></polygon>
        <polygon id="path-3" points="0.246094 0.6875 146.507812 0.6875 146.507812 140.402344 0.246094 140.402344"></polygon>
        <polygon id="path-5" points="0.246094 0.6875 143.570312 0.6875 143.570312 161.484375 0.246094 161.484375"></polygon>
    </defs>
    <g id="Page-1" stroke="none" stroke-width="1" fill="none" fill-rule="evenodd">
        <g id="Artboard" transform="translate(-636.000000, -307.000000)">
            <g id="Flowers" transform="translate(636.000000, 307.000000)">
                <g id="Clipped">
                    <mask id="mask-2" fill="white">
                        <use xlink:href="#path-1"></use>
                    </mask>
                    <g id="Path"></g>
                    <path d="M45.382812,67.410156 C45.367188,67.804688 45.417969,68.289062 45.527344,68.871094 C44.726562,68.988281 43.933594,69.0625 43.152344,69.09375 C42.289062,66.925781 41.398438,64.835938 40.476562,62.820312 C41.894531,61.871094 42.695312,60.089844 42.882812,57.476562 C43.816406,60.734375 44.632812,64.054688 45.382812,67.410156 Z M49.835938,94.480469 C48.457031,89.035156 46.753906,83.476562 44.777344,77.851562 C44.660156,78.46875 44.519531,79.085938 44.355469,79.699219 C43.707031,82.144531 42.675781,84.011719 41.753906,85.890625 C42.871094,87.09375 43.433594,88.808594 44.652344,90.160156 C46.925781,92.683594 48.636719,92.953125 49.753906,94.527344 C49.78125,94.511719 49.808594,94.496094 49.835938,94.480469 Z M45.203125,74.527344 C46.792969,78.964844 48.273438,83.6875 49.652344,88.6875 C49.214844,86.367188 48.777344,84.09375 48.339844,81.871094 C47.660156,78.421875 46.992188,74.976562 46.277344,71.558594 C46.105469,71.484375 45.929688,71.410156 45.753906,71.34375 C45.460938,72.027344 45.277344,73.089844 45.203125,74.527344 Z M47.730469,70.515625 C54.050781,73.683594 58.519531,81.054688 61.363281,92.863281 C61.191406,91.296875 61.019531,89.742188 60.839844,88.183594 C60.363281,84.054688 59.949219,80.175781 59.535156,76.402344 C56.613281,75.835938 54.1875,74 52.085938,70.730469 C51.910156,70.457031 51.757812,70.199219 51.621094,69.953125 C50.785156,70.257812 49.480469,70.410156 47.707031,70.417969 C47.714844,70.453125 47.722656,70.484375 47.730469,70.515625 Z M60.257812,96.894531 C57.914062,84.332031 53.902344,76.238281 48.230469,72.605469 C48.757812,74.84375 49.289062,77.191406 49.816406,79.652344 C50.761719,84.050781 51.710938,88.796875 52.660156,93.902344 C53.867188,94.019531 55.160156,94.398438 56.019531,94.6875 C57.550781,95.207031 58.960938,95.941406 60.257812,96.894531 Z M58.625,122.910156 C60.675781,131.714844 62.558594,141.828125 64.273438,153.25 C63.515625,138.390625 62.984375,127.921875 62.675781,121.84375 C61.46875,122.710938 60.070312,123.386719 58.625,122.910156 Z M65.550781,119.480469 C65.914062,125.371094 66.214844,131.421875 66.441406,137.597656 C66.316406,132.449219 66.167969,126.273438 65.992188,119.066406 C65.851562,119.203125 65.703125,119.339844 65.550781,119.480469 Z M70.261719,129.25 C69.476562,137.449219 69.535156,147.4375 70.546875,160.777344 C70.394531,149.523438 70.296875,139.015625 70.261719,129.25 Z M71.980469,118.507812 C72.117188,127.746094 72.378906,137.414062 72.71875,147.441406 C73.496094,131.679688 74.898438,117.277344 76.925781,104.242188 C76.183594,105.816406 75.507812,107.390625 74.894531,108.992188 C73.734375,112.035156 72.761719,115.144531 71.980469,118.507812 Z M79.617188,99.039062 C77.90625,109.480469 76.660156,120.84375 75.878906,133.128906 C76.332031,131.292969 76.832031,129.4375 77.371094,127.554688 C78.183594,120.972656 79.082031,114.644531 80.070312,108.5625 C80.523438,105.769531 81.210938,101.40625 82.050781,96.515625 C81.761719,96.46875 81.472656,96.40625 81.183594,96.320312 C80.640625,97.238281 80.117188,98.144531 79.617188,99.039062 Z M83.859375,96.550781 C82.71875,103.203125 81.636719,110.34375 80.65625,117.390625 C83.269531,110.023438 88.777344,95.71875 94.175781,90.644531 C94.050781,90.566406 93.925781,90.492188 93.796875,90.417969 C90.851562,93.4375 87.324219,96.183594 83.859375,96.550781 Z M73.703125,108.382812 C74.894531,105.089844 76.230469,102.125 77.730469,99.3125 C77.929688,98.167969 78.132812,97.03125 78.339844,95.90625 C75.734375,95.738281 73.621094,94.796875 71.996094,93.082031 C71.867188,99.695312 71.851562,106.625 71.921875,113.828125 C72.464844,111.984375 73.058594,110.167969 73.703125,108.382812 Z M70.253906,120.34375 C70.269531,109.683594 70.375,99.992188 70.597656,91.261719 C68.382812,87.753906 68.09375,83.519531 70.652344,80.171875 C70.761719,80.03125 70.867188,79.902344 70.976562,79.785156 C71.042969,78.214844 71.117188,76.679688 71.191406,75.183594 C69.957031,75.761719 68.476562,76.03125 66.757812,75.996094 C67.113281,88.167969 67.433594,98.867188 67.707031,108.09375 C68.457031,110.71875 68.648438,113.40625 67.929688,115.765625 C68.113281,121.871094 68.269531,127.195312 68.40625,131.738281 C68.828125,127.828125 69.445312,124.03125 70.253906,120.34375 Z M65.613281,103.152344 C65.417969,95.074219 65.199219,86.082031 64.960938,76.179688 C63.78125,76.449219 62.667969,76.589844 61.613281,76.59375 C61.648438,76.867188 61.679688,77.140625 61.714844,77.417969 C62.605469,84.769531 63.4375,92.625 64.164062,100.898438 C64.675781,101.601562 65.160156,102.359375 65.613281,103.152344 Z M70.015625,45.765625 C71.613281,45.765625 72.976562,46.027344 74.101562,46.546875 C74.449219,44.730469 74.824219,43.078125 75.226562,41.59375 C74.972656,41.71875 74.722656,41.882812 74.476562,42.085938 C73.484375,42.808594 72.550781,42.835938 71.671875,42.15625 C71.242188,43.605469 70.691406,44.804688 70.015625,45.765625 Z M88.554688,68.421875 C87.941406,68.539062 87.335938,68.546875 86.765625,68.457031 C86.648438,68.828125 86.53125,69.199219 86.414062,69.570312 C86.929688,69.488281 87.484375,69.453125 88.078125,69.46875 C88.09375,69.46875 88.109375,69.46875 88.125,69.46875 C88.269531,69.09375 88.414062,68.742188 88.554688,68.421875 Z M98.164062,85.355469 C102.664062,85.757812 106.433594,87.476562 109.472656,90.511719 C110,91 110.605469,91.53125 111.292969,92.109375 C113.113281,93.648438 114.441406,94.480469 115.683594,96.640625 C116.292969,97.695312 116.773438,98.894531 117.125,100.230469 C117.496094,101.648438 117.726562,103.226562 117.808594,104.960938 C117.710938,114.996094 116.363281,120.589844 113.769531,121.746094 C112.800781,122.175781 112.421875,121.75 111.773438,121.9375 C111.375,122.050781 111.09375,122.230469 110.769531,122.308594 C110.488281,122.375 110.167969,122.363281 109.710938,122.15625 C108.078125,121.421875 108.582031,118.210938 108.191406,116.597656 C107.710938,114.613281 106.640625,112.695312 106,110.683594 C104.390625,105.660156 104.691406,103.457031 101.527344,98.28125 C99.824219,95.484375 97.832031,93.25 95.554688,91.570312 C91.015625,94.910156 83.808594,110.976562 79.015625,129.71875 C77.292969,143.332031 76.0625,155.125 75.652344,160.242188 C75.367188,160.277344 75.121094,160.308594 74.921875,160.332031 C73.117188,160.742188 72.214844,160.945312 72.214844,160.945312 C72.214844,160.890625 72.214844,160.835938 72.214844,160.78125 C71.183594,160.878906 70.628906,160.890625 70.546875,160.816406 C70.566406,161.039062 70.582031,161.261719 70.597656,161.484375 C69.265625,160.875 68.601562,160.566406 68.601562,160.566406 C68.59375,160.5 68.585938,160.429688 68.578125,160.359375 C68.195312,160.488281 67.714844,160.652344 67.140625,160.847656 C66.65625,160.808594 66.238281,160.777344 65.894531,160.75 C65.0625,160.683594 64.648438,160.648438 64.648438,160.648438 C64.636719,160.40625 64.625,160.160156 64.609375,159.917969 C63.375,160.515625 62.757812,160.8125 62.757812,160.8125 C62.097656,149.78125 60.472656,137.96875 57.882812,125.367188 C59.503906,136.175781 61.128906,147.992188 62.757812,160.8125 C62.757812,160.8125 62.242188,160.523438 61.214844,159.945312 C61.214844,159.945312 60.234375,160.144531 58.261719,160.535156 C57.109375,147.140625 55.902344,130.542969 47.335938,119.246094 C44.691406,115.757812 41.71875,113.644531 38.527344,112.941406 C36.503906,113.675781 35.144531,113.882812 32.714844,115.613281 C28.855469,118.367188 25.882812,122.476562 23.796875,127.9375 C22.503906,131.316406 22.121094,135.308594 20.875,138.214844 C20.453125,139.207031 19.957031,139.792969 19.398438,139.972656 C19.253906,140.066406 19.019531,140.085938 18.71875,140.046875 C16.652344,139.761719 11.382812,136.667969 10.5,135.304688 C9.792969,134.214844 10.359375,132.644531 10.0625,131.160156 C9.734375,129.519531 8.511719,129.109375 8.34375,127.386719 C8.171875,125.617188 9.609375,124.375 10.148438,122.703125 C10.652344,121.121094 9.503906,120.945312 10.3125,119.613281 C11.203125,118.148438 13.003906,117.648438 13.984375,116.238281 C14.746094,115.078125 15.820312,114.113281 17.199219,113.34375 C18.972656,112.355469 21.257812,111.6875 24.054688,111.34375 C28.492188,110.792969 31.34375,111.277344 35.570312,111.617188 C36.582031,111.699219 37.652344,111.730469 38.78125,111.703125 C38.914062,111.699219 39.15625,111.683594 39.421875,111.675781 C39.867188,111.671875 40.363281,111.707031 40.445312,111.9375 C40.480469,112.03125 40.378906,112.15625 40.042969,112.324219 C48.917969,116.121094 55.121094,126.15625 58.648438,142.421875 C57.59375,135.398438 56.539062,128.648438 55.492188,122.167969 C54.242188,121.40625 53.03125,120.164062 52.441406,119.476562 C50.773438,117.527344 49.355469,114.855469 48.1875,111.460938 C43.972656,110.796875 40.511719,102.992188 36.078125,98.378906 C36.054688,98.410156 36.027344,98.441406 36,98.472656 C35.609375,98.949219 35.21875,99.453125 34.828125,99.992188 C34.375,100.644531 33.785156,101.117188 33.058594,101.410156 C32.378906,101.691406 31.722656,101.789062 31.074219,101.789062 C29.566406,101.789062 28.097656,101.253906 26.488281,101.183594 C25.035156,101.117188 23.886719,101.457031 22.496094,101.476562 C20.726562,101.496094 19.21875,101.015625 17.636719,100.144531 C13.996094,98.132812 14.3125,96.082031 13.191406,92.804688 C12.992188,92.214844 12.769531,91.648438 12.523438,91.101562 C10.78125,86.949219 10.628906,83.515625 12.070312,80.804688 C12.984375,79.414062 13.691406,78.179688 14.199219,77.097656 C15.011719,75.355469 15.335938,73.429688 15.933594,71.601562 C16.5,69.875 17.023438,68.769531 17.511719,68.285156 C18.671875,67.589844 19.644531,66.816406 20.425781,65.964844 C21.097656,65.425781 22.171875,65.164062 23.648438,65.175781 C26.410156,65.199219 30.574219,66.179688 36.144531,68.121094 C37.882812,68.691406 39.671875,69.015625 41.511719,69.089844 C40.785156,67.238281 40.03125,65.386719 39.253906,63.527344 C38.152344,64.125 37.117188,63.027344 36.15625,60.230469 C33.867188,54.546875 31.703125,50.625 29.660156,48.460938 C28.074219,46.261719 25.757812,44.683594 22.707031,43.726562 C16.050781,41.636719 10.769531,43.078125 4.320312,43.59375 C2.9375,43.703125 1.683594,43.757812 0.5625,43.753906 C0.191406,43.664062 0.167969,43.441406 0.382812,43.128906 C1.402344,41.65625 7.746094,38.25 8.644531,37.890625 C11.363281,36.804688 12.96875,37.308594 15.753906,37.160156 C17.09375,37.089844 18.441406,36.933594 19.796875,36.691406 C21.773438,36.140625 23.632812,36.027344 25.367188,36.355469 C27.410156,36.742188 28.535156,37.640625 30.335938,38.410156 C31.386719,38.855469 32.398438,39.152344 33.375,39.308594 C34.683594,39.53125 36.070312,40.753906 37.542969,42.988281 C32.808594,33.003906 25.871094,24.183594 14.796875,17.503906 C14.796875,17.503906 11.015625,15.128906 3.453125,10.375 C3.074219,9.203125 4.378906,8.601562 6.019531,8.269531 C6.019531,8.269531 6.023438,8.269531 6.023438,8.269531 C10.007812,7.308594 13.042969,5.109375 17.429688,6.148438 C18.625,6.429688 19.695312,6.953125 20.632812,7.71875 C24.226562,8.367188 27.449219,9.550781 30.34375,12.011719 C30.347656,12.011719 30.347656,12.011719 30.347656,12.011719 C30.914062,11.984375 31.644531,12.191406 32.550781,12.632812 C33.34375,13.019531 34.265625,13.585938 35.316406,14.332031 C37.398438,15.667969 38.898438,16.375 39.816406,16.457031 C42.707031,15.4375 45.296875,15.648438 48.054688,15.0625 C48.527344,14.960938 49.023438,14.820312 49.546875,14.640625 C53.078125,13.421875 54.941406,12.164062 59.058594,11.660156 C60.664062,11.464844 62.136719,11.46875 63.472656,11.675781 C63.859375,9.53125 64.640625,7.660156 65.820312,6.070312 C70.207031,0.160156 76.550781,1.40625 83.273438,2.921875 C85.835938,3.5 88.585938,4.292969 91.519531,5.308594 C92.882812,5.746094 93.90625,5.679688 94.589844,5.113281 C97.007812,3.273438 99.113281,2.007812 100.90625,1.316406 C102.15625,0.839844 103.039062,0.687959828 103.792969,0.710938 C105.273438,0.761719 106.257812,1.492188 108.496094,1.78125 C109.707031,1.9375 110.777344,1.871094 111.710938,1.582031 C112.890625,1.296875 113.785156,1.554688 114.390625,2.363281 C116.371094,4.996094 114.777344,7.355469 112.105469,8.289062 C110.671875,8.789062 108.75,9.125 106.335938,9.296875 C98.175781,9.359375 93.21875,10.1875 91.457031,11.78125 C91.433594,12.757812 90.730469,14.566406 89.339844,17.207031 C87.976562,19.800781 86.722656,22.050781 85.648438,24.34375 C83.390625,29.160156 83.183594,34.472656 81.257812,38.179688 C80.296875,40.027344 78.964844,41.078125 77.257812,41.332031 C77.101562,41.296875 76.945312,41.273438 76.785156,41.257812 C76.269531,43.195312 75.816406,45.242188 75.417969,47.394531 C77.667969,49.332031 78.550781,52.964844 79.039062,55.675781 C80.03125,61.195312 78.953125,62.609375 76.695312,66.875 C75.328125,69.457031 74.882812,72.351562 72.722656,74.207031 C72.65625,75.394531 72.589844,76.59375 72.527344,77.800781 C72.507812,78.128906 72.492188,78.457031 72.476562,78.789062 C74.519531,77.664062 74.421875,76.609375 76.230469,74.988281 C78.132812,73.285156 79.433594,73.433594 81.488281,72.335938 C82.707031,71.6875 83.480469,70.777344 84.574219,70.175781 C84.804688,69.429688 85.039062,68.695312 85.277344,67.964844 C85.089844,67.863281 84.910156,67.746094 84.746094,67.617188 C83.71875,66.832031 83.101562,65.5625 83.246094,63.941406 C83.289062,63.054688 83.296875,62.210938 83.273438,61.410156 C83.214844,59.535156 82.792969,57.660156 82.90625,55.8125 C82.972656,54.703125 83.226562,54.058594 83.605469,53.546875 C83.070312,51.433594 82.910156,49.589844 83.125,48.019531 C83.40625,45.96875 84.375,45.042969 84.960938,43.210938 C85.585938,41.257812 85.382812,39.085938 86.339844,37.476562 C86.675781,36.917969 87.136719,36.328125 87.730469,35.71875 C91.453125,31.871094 95.820312,30.113281 100.683594,30.074219 C100.707031,28.558594 100.917969,26.898438 101.320312,25.085938 C101.839844,22.699219 102.300781,20.042969 102.695312,17.109375 C103.644531,14.089844 106.785156,11.433594 112.117188,9.132812 C114.414062,8.574219 117.472656,7.113281 121.289062,4.753906 C128.183594,0.285156 133.710938,-0.5 137.871094,2.398438 C140.566406,4.5625 142.609375,6.046875 144.003906,6.84375 C146.050781,8.480469 146.84375,9.722656 146.378906,10.570312 C136.796875,12.28125 128.421875,14.941406 121.261719,18.546875 C116.109375,21.636719 111.386719,25.582031 107.09375,30.375 C107.027344,30.542969 106.960938,30.707031 106.894531,30.867188 C107.113281,30.917969 107.328125,30.976562 107.546875,31.035156 C108.480469,31.308594 109.339844,31.394531 110.125,31.292969 C110.746094,30.648438 111.347656,29.992188 112.089844,29.402344 C113.113281,28.59375 114.511719,28.667969 116.285156,29.625 C116.917969,29.964844 119.339844,31.351562 119.160156,32.144531 C119.09375,32.429688 118.816406,32.714844 118.320312,32.996094 C113.660156,35.738281 108.941406,40.019531 104.15625,45.835938 C105.988281,46.019531 107.496094,46.742188 108.683594,48.003906 C117.445312,43.363281 126.589844,52.507812 122.554688,55.960938 C122.359375,56.003906 122.160156,56.042969 121.964844,56.078125 C122.164062,56.058594 122.359375,56.03125 122.554688,55.996094 C118.550781,57.3125 112.8125,56.867188 108.222656,57.695312 C104.140625,58.429688 101.789062,59.226562 100.171875,61.792969 C99.539062,62.800781 99.019531,64.074219 98.558594,65.722656 C97.949219,67.453125 97.25,68.613281 96.457031,69.199219 C95.152344,70.160156 94.679688,69.296875 93.46875,69.257812 C92.285156,69.214844 91.230469,69.628906 90.207031,69.175781 C90.152344,69.324219 90.09375,69.472656 90.035156,69.628906 C91.914062,69.871094 93.671875,70.285156 95.953125,70.191406 C98.609375,70.085938 105.488281,67.792969 106.21875,70.175781 C106.996094,72.726562 103.414062,78.472656 99.402344,83.746094 C99.042969,84.222656 98.628906,84.765625 98.164062,85.355469 Z M50.007812,52.425781 C50.230469,51.683594 50.121094,50.894531 49.6875,50.0625 C49.152344,48.941406 49.226562,48.09375 49.914062,47.511719 C50.246094,47.230469 50.722656,47.015625 51.347656,46.859375 C50.464844,46.226562 49.621094,45.273438 48.542969,43.457031 C47.355469,41.464844 46.453125,38.933594 45.261719,36.71875 C43.78125,33.972656 43.628906,33.101562 42.695312,30.257812 C41.925781,27.910156 40.714844,26.695312 39.78125,24.535156 C38.976562,22.671875 39.070312,20.765625 38.152344,18.988281 C37.75,18.214844 37.277344,17.792969 36.730469,17.730469 C36.230469,17.703125 35.609375,17.585938 34.867188,17.378906 C35.230469,17.960938 35.585938,18.570312 35.925781,19.203125 C36.238281,20.195312 36.785156,21.402344 37.570312,22.816406 C38.113281,23.800781 38.769531,24.882812 39.539062,26.066406 C41.015625,28.089844 41.105469,31.089844 40.78125,34.277344 C40.746094,34.640625 40.703125,35.011719 40.65625,35.382812 C41.238281,38.71875 41.234375,42.71875 40.648438,47.382812 C41.105469,48.574219 41.53125,49.796875 41.929688,51.042969 C43.457031,55.015625 44.988281,59.917969 46.523438,65.753906 C46.53125,65.746094 46.539062,65.742188 46.546875,65.734375 C47.003906,64.53125 47.859375,64.085938 49.105469,64.394531 C49.628906,64.628906 50.09375,64.882812 50.5,65.15625 C50.484375,64.539062 50.46875,63.863281 50.398438,63.074219 C50.171875,60.511719 49.421875,58.796875 49.039062,56.453125 C48.550781,53.484375 49.445312,54.308594 50.007812,52.425781" id="Shape" fill="#181C3F" mask="url(#mask-2)"></path>
                </g>
                <g id="Clipped">
                    <mask id="mask-4" fill="white">
                        <use xlink:href="#path-3"></use>
                    </mask>
                    <g id="Path"></g>
                    <path d="M45.746094,101.1875 C46.328125,104.835938 47.066406,108.039062 47.960938,110.789062 C48.035156,111.015625 48.109375,111.238281 48.1875,111.460938 C49.355469,114.855469 50.773438,117.527344 52.441406,119.476562 C53.03125,120.164062 54.242188,121.40625 55.492188,122.167969 C56.128906,122.5625 56.777344,122.828125 57.351562,122.828125 C56.207031,117.476562 54.894531,111.988281 53.40625,106.359375 C52.902344,104.449219 52.378906,102.523438 51.832031,100.578125 C51.671875,100 51.507812,99.414062 51.339844,98.832031 C51.449219,99.101562 51.558594,99.375 51.667969,99.652344 C52.289062,101.230469 52.902344,102.894531 53.503906,104.644531 C54.285156,106.933594 55.050781,109.371094 55.796875,111.960938 C56.773438,115.351562 57.714844,119 58.625,122.910156 C60.070312,123.386719 61.46875,122.710938 62.675781,121.84375 C63.113281,121.53125 63.523438,121.1875 63.90625,120.871094 C63.960938,120.824219 64.015625,120.777344 64.066406,120.734375 C64.335938,120.507812 64.59375,120.292969 64.835938,120.089844 C65.085938,119.882812 65.324219,119.683594 65.550781,119.480469 C65.703125,119.339844 65.851562,119.203125 65.992188,119.066406 C66.78125,118.285156 67.386719,117.417969 67.863281,115.980469 C67.886719,115.910156 67.910156,115.839844 67.929688,115.765625 C68.648438,113.40625 68.457031,110.71875 67.707031,108.09375 C67.699219,108.070312 67.691406,108.050781 67.6875,108.03125 C67.195312,106.339844 66.472656,104.679688 65.613281,103.152344 C65.160156,102.359375 64.675781,101.601562 64.164062,100.898438 C63.703125,100.265625 63.226562,99.675781 62.738281,99.140625 C62.703125,99.101562 62.667969,99.0625 62.628906,99.023438 C62.402344,98.777344 62.171875,98.539062 61.933594,98.3125 C61.398438,97.796875 60.839844,97.324219 60.257812,96.894531 C58.960938,95.941406 57.550781,95.207031 56.019531,94.6875 C55.160156,94.398438 53.867188,94.019531 52.660156,93.902344 C52.082031,93.84375 51.519531,93.84375 51.039062,93.945312 C50.902344,93.972656 50.773438,94.007812 50.65625,94.054688 C50.589844,94.078125 50.527344,94.105469 50.46875,94.132812 C50.246094,94.242188 50.046875,94.363281 49.835938,94.480469 C49.808594,94.496094 49.78125,94.511719 49.753906,94.527344 C49.496094,94.667969 49.214844,94.800781 48.835938,94.890625 C48.550781,94.960938 48.234375,95.015625 47.886719,95.058594 C44.957031,95.410156 45.511719,98.800781 45.746094,101.1875 Z M47.707031,70.417969 C49.480469,70.410156 50.785156,70.257812 51.621094,69.953125 C52.109375,69.773438 52.4375,69.546875 52.609375,69.265625 C52.792969,67.597656 52.089844,66.230469 50.5,65.15625 C50.09375,64.882812 49.628906,64.628906 49.105469,64.394531 C47.859375,64.085938 47.003906,64.53125 46.546875,65.734375 C46.539062,65.742188 46.53125,65.746094 46.523438,65.753906 C46.917969,67.246094 47.3125,68.804688 47.707031,70.417969 Z M44.777344,77.851562 C44.992188,76.75 45.132812,75.640625 45.203125,74.527344 C45.277344,73.089844 45.460938,72.027344 45.753906,71.34375 C45.859375,71.097656 45.976562,70.902344 46.109375,70.753906 C46.035156,70.414062 45.964844,70.074219 45.890625,69.734375 C45.722656,68.957031 45.554688,68.183594 45.382812,67.410156 C45.367188,67.804688 45.417969,68.289062 45.527344,68.871094 C45.636719,69.144531 45.648438,69.449219 45.566406,69.785156 C45.46875,70.164062 45.253906,70.585938 44.910156,71.046875 C44.800781,71.195312 44.675781,71.347656 44.539062,71.503906 C44.4375,71.632812 44.339844,71.773438 44.25,71.929688 C43.894531,72.53125 43.652344,73.34375 43.523438,74.363281 C43.386719,75.40625 43.371094,76.664062 43.46875,78.140625 C43.464844,80.234375 42.699219,82.640625 41.175781,85.355469 C41.167969,85.367188 41.15625,85.382812 41.148438,85.398438 C40.683594,86.238281 40.242188,87.339844 39.820312,88.710938 C39.199219,90.734375 38.957031,92.867188 37.980469,94.730469 C37.714844,95.226562 37.425781,95.652344 37.125,96.054688 C36.640625,96.691406 36.125,97.261719 35.648438,97.945312 C35.585938,98.027344 35.527344,98.113281 35.472656,98.199219 C34.21875,100.089844 33.742188,101.417969 31.074219,101.789062 C31.722656,101.789062 32.378906,101.691406 33.058594,101.410156 C33.785156,101.117188 34.375,100.644531 34.828125,99.992188 C35.21875,99.453125 35.609375,98.949219 36,98.472656 C36.027344,98.441406 36.054688,98.410156 36.078125,98.378906 C36.453125,97.929688 36.824219,97.507812 37.195312,97.117188 C37.339844,96.949219 37.476562,96.773438 37.613281,96.589844 C37.882812,96.222656 38.132812,95.828125 38.367188,95.394531 C39.535156,93.238281 39.710938,91.347656 40.40625,89.128906 C40.765625,87.980469 41.242188,86.929688 41.753906,85.890625 C42.675781,84.011719 43.707031,82.144531 44.355469,79.699219 C44.519531,79.085938 44.660156,78.46875 44.777344,77.851562 Z M36.15625,60.230469 C35.246094,55.019531 34.730469,50.828125 32.175781,46.027344 C31.78125,45.285156 31.382812,44.636719 30.976562,44.074219 C29.765625,42.402344 28.542969,41.964844 27.238281,40.0625 C26.394531,38.832031 25.523438,37.585938 23.503906,37.089844 C22.132812,36.753906 20.539062,36.925781 18.722656,37.609375 C17.765625,38.0625 16.835938,38.386719 15.933594,38.582031 C13.765625,39.054688 12.386719,38.371094 10.589844,38.742188 C8.691406,39.132812 6,40.421875 2.507812,42.609375 C0.992188,43.523438 0.285156,43.695312 0.382812,43.128906 C0.167969,43.441406 0.191406,43.664062 0.5625,43.753906 C1.683594,43.757812 2.9375,43.703125 4.320312,43.59375 C10.769531,43.078125 16.050781,41.636719 22.707031,43.726562 C25.757812,44.683594 28.074219,46.261719 29.660156,48.460938 C31.703125,50.625 33.867188,54.546875 36.15625,60.230469 Z M76.230469,74.988281 C78.132812,73.285156 79.433594,73.433594 81.488281,72.335938 C82.707031,71.6875 83.480469,70.777344 84.574219,70.175781 C84.84375,70.027344 85.136719,69.894531 85.457031,69.792969 C85.761719,69.699219 86.082031,69.625 86.414062,69.570312 C86.929688,69.488281 87.484375,69.453125 88.078125,69.46875 C88.09375,69.46875 88.109375,69.46875 88.125,69.46875 C88.792969,69.488281 89.417969,69.546875 90.035156,69.628906 C91.914062,69.871094 93.671875,70.285156 95.953125,70.191406 C98.609375,70.085938 105.488281,67.792969 106.21875,70.175781 C106.996094,72.726562 103.414062,78.472656 99.402344,83.746094 C99.042969,84.222656 98.628906,84.765625 98.164062,85.355469 C97.292969,86.46875 96.253906,87.746094 95.097656,89.027344 C94.679688,89.492188 94.246094,89.960938 93.796875,90.417969 C90.851562,93.4375 87.324219,96.183594 83.859375,96.550781 C83.253906,96.617188 82.648438,96.605469 82.050781,96.515625 C81.761719,96.46875 81.472656,96.40625 81.183594,96.320312 C81.59375,95.636719 82.011719,94.945312 82.445312,94.246094 C83.246094,92.949219 84.089844,91.621094 84.984375,90.253906 C88.011719,85.601562 91.566406,80.464844 95.703125,74.394531 C91.84375,79.265625 88.480469,83.40625 85.542969,87.328125 C84.683594,88.476562 83.863281,89.601562 83.078125,90.722656 C82.113281,92.09375 81.203125,93.453125 80.339844,94.828125 C80.109375,95.195312 79.886719,95.5625 79.660156,95.929688 C79.207031,95.941406 78.765625,95.933594 78.339844,95.90625 C75.734375,95.738281 73.621094,94.796875 71.996094,93.082031 C71.800781,92.878906 71.609375,92.664062 71.429688,92.433594 C71.128906,92.054688 70.851562,91.664062 70.597656,91.261719 C68.382812,87.753906 68.09375,83.519531 70.652344,80.171875 C70.761719,80.03125 70.867188,79.902344 70.976562,79.785156 C71.273438,79.472656 71.589844,79.234375 71.921875,79.070312 C72.125,78.976562 72.304688,78.882812 72.476562,78.789062 C74.519531,77.664062 74.421875,76.609375 76.230469,74.988281 Z M93.441406,51.410156 C94.003906,50.234375 94.574219,49.082031 95.160156,47.957031 C96.535156,47.320312 97.828125,46.820312 99.035156,46.464844 C99.777344,46.246094 100.484375,46.082031 101.164062,45.96875 C102.242188,45.789062 103.238281,45.746094 104.15625,45.835938 C105.988281,46.019531 107.496094,46.742188 108.683594,48.003906 C108.878906,48.210938 109.066406,48.4375 109.242188,48.675781 C113.453125,54.058594 117.695312,56.527344 121.964844,56.078125 C122.164062,56.058594 122.359375,56.03125 122.554688,55.996094 C118.550781,57.3125 112.8125,56.867188 108.222656,57.695312 C104.140625,58.429688 101.789062,59.226562 100.171875,61.792969 C99.539062,62.800781 99.019531,64.074219 98.558594,65.722656 C97.949219,67.453125 97.25,68.613281 96.457031,69.199219 C95.152344,70.160156 94.679688,69.296875 93.46875,69.257812 C92.285156,69.214844 91.230469,69.628906 90.207031,69.175781 C90.753906,67.796875 91.292969,66.71875 91.832031,65.992188 C95.691406,60.757812 102.886719,57.609375 113.421875,56.550781 C100.402344,56.671875 92.136719,60.578125 88.625,68.269531 C88.601562,68.320312 88.578125,68.371094 88.554688,68.421875 C87.941406,68.539062 87.335938,68.546875 86.765625,68.457031 C88.746094,62.285156 90.96875,56.601562 93.441406,51.410156 Z M101.472656,34.980469 C100.921875,33.570312 100.660156,31.933594 100.683594,30.074219 C100.707031,28.558594 100.917969,26.898438 101.320312,25.085938 C101.839844,22.699219 102.300781,20.042969 102.695312,17.109375 C103.644531,14.089844 106.785156,11.433594 112.117188,9.132812 C114.414062,8.574219 117.472656,7.113281 121.289062,4.753906 C128.183594,0.285156 133.710938,-0.5 137.871094,2.398438 C140.566406,4.5625 142.609375,6.046875 144.003906,6.84375 C146.050781,8.480469 146.84375,9.722656 146.378906,10.570312 C136.796875,12.28125 128.421875,14.941406 121.261719,18.546875 C127.898438,14.5625 135.25,11.992188 143.316406,10.832031 C128.164062,12.113281 115.421875,18.660156 105.101562,30.476562 C103.855469,31.902344 102.648438,33.402344 101.472656,34.980469 Z M106.699219,30.816406 C105.234375,32.480469 103.824219,34.242188 102.460938,36.101562 C103.800781,36.597656 105.28125,34.851562 106.894531,30.867188 C106.960938,30.707031 107.027344,30.542969 107.089844,30.375 C106.960938,30.523438 106.828125,30.667969 106.699219,30.816406 Z M91.328125,52.367188 C91.90625,51.109375 92.5,49.875 93.105469,48.671875 C92.550781,48.820312 92.054688,48.910156 91.625,48.933594 C90.078125,49.027344 89.960938,48.320312 88.136719,49.296875 C87.394531,49.695312 86.636719,50.304688 85.863281,51.125 C84.992188,52.335938 84.167969,52.792969 83.605469,53.546875 C83.226562,54.058594 82.972656,54.703125 82.90625,55.8125 C82.792969,57.660156 83.214844,59.535156 83.273438,61.410156 C83.296875,62.210938 83.289062,63.054688 83.246094,63.941406 C83.101562,65.5625 83.71875,66.832031 84.746094,67.617188 C84.910156,67.746094 85.089844,67.863281 85.277344,67.964844 C87.105469,62.355469 89.121094,57.15625 91.328125,52.367188 Z M91.457031,11.78125 C93.21875,10.1875 98.175781,9.359375 106.335938,9.296875 C108.75,9.125 110.671875,8.789062 112.105469,8.289062 C114.777344,7.355469 116.371094,4.996094 114.390625,2.363281 C113.785156,1.554688 112.890625,1.296875 111.710938,1.582031 C110.777344,1.871094 109.707031,1.9375 108.496094,1.78125 C106.257812,1.492188 105.273438,0.761719 103.792969,0.710938 C99.949219,1.136719 99.191406,3.105469 96.445312,4.855469 C95.464844,5.480469 94.011719,5.839844 93.332031,6.542969 C92.410156,7.488281 91.789062,9.234375 91.457031,11.78125 Z M37.570312,22.816406 C38.113281,23.800781 38.769531,24.882812 39.539062,26.066406 C41.015625,28.089844 41.105469,31.089844 40.78125,34.277344 C40.746094,34.640625 40.703125,35.011719 40.65625,35.382812 C40.253906,38.617188 39.546875,41.957031 39.519531,44.605469 C38.96875,43.328125 38.378906,42.085938 37.757812,40.875 C32.53125,30.71875 24.878906,22.929688 14.796875,17.503906 C14.796875,17.503906 11.015625,15.128906 3.453125,10.375 C3.074219,9.203125 4.378906,8.601562 6.019531,8.269531 C6.019531,8.269531 6.023438,8.269531 6.023438,8.269531 C7.8125,7.90625 10,7.871094 10.835938,7.777344 C11.671875,7.683594 12.550781,7.527344 13.464844,7.304688 C14.65625,7.113281 16.121094,7.117188 17.867188,7.320312 C18.8125,7.425781 19.734375,7.554688 20.632812,7.71875 C24.226562,8.367188 27.449219,9.550781 30.34375,12.011719 C29.582031,12.074219 28.933594,12.070312 28.394531,11.996094 C27.75,11.90625 26.664062,11.285156 26.445312,11.320312 C25.953125,11.398438 26.476562,12.742188 26.613281,12.992188 C27.132812,13.914062 27.679688,14.636719 28.246094,15.160156 C29.460938,16.273438 31.085938,16.199219 32.578125,16.644531 C33.277344,16.820312 33.960938,16.941406 34.632812,17.011719 C36.445312,17.203125 38.171875,17.015625 39.816406,16.457031 C42.707031,15.4375 45.296875,15.648438 48.054688,15.0625 C48.527344,14.960938 49.023438,14.820312 49.546875,14.640625 C53.078125,13.421875 54.941406,12.164062 59.058594,11.660156 C60.664062,11.464844 62.136719,11.46875 63.472656,11.675781 C64.660156,11.855469 65.738281,12.195312 66.707031,12.699219 C70.203125,15.257812 72.214844,20.769531 72.746094,29.238281 C72.96875,34.703125 72.609375,39.007812 71.671875,42.15625 C71.242188,43.605469 70.691406,44.804688 70.015625,45.765625 C69.578125,46.386719 69.09375,46.90625 68.554688,47.320312 C66.101562,49.21875 62.953125,48.476562 60.023438,48.464844 C58.851562,48.457031 57.839844,48.539062 57.402344,48.855469 C57.257812,48.09375 57.113281,47.34375 56.964844,46.59375 C55.859375,41.023438 54.644531,35.773438 53.285156,30.773438 C51.527344,23.574219 47.238281,19.433594 40.417969,18.351562 C43.914062,19.25 46.695312,21.15625 48.761719,24.0625 C51.710938,28.210938 53.925781,38.179688 55.417969,46.601562 C55.5625,47.425781 55.703125,48.234375 55.835938,49.023438 C55.828125,49.035156 55.832031,49.042969 55.839844,49.054688 C54.636719,48.425781 53.695312,48.074219 52.878906,47.707031 C52.328125,47.460938 51.832031,47.210938 51.347656,46.859375 C50.464844,46.226562 49.621094,45.273438 48.542969,43.457031 C47.355469,41.464844 46.453125,38.933594 45.261719,36.71875 C43.78125,33.972656 43.628906,33.101562 42.695312,30.257812 C41.925781,27.910156 40.714844,26.695312 39.78125,24.535156 C38.976562,22.671875 39.070312,20.765625 38.152344,18.988281 C37.75,18.214844 37.277344,17.792969 36.730469,17.730469 C36.230469,17.703125 35.609375,17.585938 34.867188,17.378906 C35.230469,17.960938 35.585938,18.570312 35.925781,19.203125 C36.238281,20.195312 36.785156,21.402344 37.570312,22.816406 Z M23.796875,127.9375 C25.882812,122.476562 28.855469,118.367188 32.714844,115.613281 C35.144531,113.882812 36.503906,113.675781 38.527344,112.941406 C38.929688,112.796875 39.363281,112.628906 39.832031,112.421875 C39.910156,112.390625 39.980469,112.355469 40.042969,112.324219 C40.378906,112.15625 40.480469,112.03125 40.445312,111.9375 C40.363281,111.707031 39.867188,111.671875 39.421875,111.675505 C39.652344,111.75 39.578125,111.867188 39.292969,112.019531 C38.925781,112.214844 38.21875,112.464844 37.347656,112.746094 C35.066406,113.488281 31.667969,114.46875 30.402344,115.3125 C29.492188,115.917969 28.773438,116.597656 28.25,117.351562 C27.503906,118.425781 27.503906,119.199219 27.03125,120.269531 C26.074219,122.441406 24.324219,121.765625 23.101562,123.796875 C22.179688,125.328125 22.742188,128.296875 22.421875,130.34375 C22.089844,132.4375 21.152344,133.046875 20.785156,134.734375 C20.6875,135.179688 20.621094,135.683594 20.585938,136.246094 C20.339844,138.757812 19.714844,140.023438 18.71875,140.046875 C19.019531,140.085938 19.253906,140.066406 19.398438,139.972656 C19.957031,139.792969 20.453125,139.207031 20.875,138.214844 C22.121094,135.308594 22.503906,131.316406 23.796875,127.9375" id="Shape" fill="#F47185" mask="url(#mask-4)"></path>
                </g>
                <g id="Clipped">
                    <mask id="mask-6" fill="white">
                        <use xlink:href="#path-5"></use>
                    </mask>
                    <g id="Path"></g>
                    <path d="M49.039062,56.453125 C48.550781,53.484375 49.445312,54.308594 50.007812,52.425781 C50.230469,51.683594 50.121094,50.894531 49.6875,50.0625 C49.152344,48.941406 49.226562,48.09375 49.914062,47.511719 C50.246094,47.230469 50.722656,47.015625 51.347656,46.859375 C51.832031,47.210938 52.328125,47.460938 52.878906,47.707031 C53.695312,48.074219 54.636719,48.425781 55.839844,49.054688 C56.359375,52.136719 56.769531,54.882812 57.074219,56.878906 C58.101562,63.585938 58.816406,69.835938 59.535156,76.402344 C56.613281,75.835938 54.1875,74 52.085938,70.730469 C51.910156,70.457031 51.757812,70.199219 51.621094,69.953125 C52.109375,69.773438 52.4375,69.546875 52.609375,69.265625 C52.792969,67.597656 52.089844,66.230469 50.5,65.15625 C50.484375,64.539062 50.46875,63.863281 50.398438,63.074219 C50.171875,60.511719 49.421875,58.796875 49.039062,56.453125 Z M57.402344,48.855469 C57.839844,48.539062 58.851562,48.457031 60.023438,48.464844 C62.953125,48.476562 66.101562,49.21875 68.554688,47.320312 C69.09375,46.90625 69.578125,46.386719 70.015625,45.765625 C71.613281,45.765625 72.976562,46.027344 74.101562,46.546875 C72.746094,53.613281 71.804688,63.148438 71.191406,75.183594 C69.957031,75.761719 68.476562,76.03125 66.757812,75.996094 C66.460938,75.992188 66.15625,75.976562 65.847656,75.953125 C65.546875,76.035156 65.253906,76.113281 64.960938,76.179688 C63.78125,76.449219 62.667969,76.589844 61.613281,76.59375 C60.371094,66.46875 59.007812,57.296875 57.402344,48.855469 Z M75.417969,47.394531 C73.984375,55.199219 73.28125,64.347656 72.722656,74.207031 C74.882812,72.351562 75.328125,69.457031 76.695312,66.875 C78.953125,62.609375 80.03125,61.195312 79.039062,55.675781 C78.550781,52.964844 77.667969,49.332031 75.417969,47.394531 Z M74.476562,42.085938 C74.722656,41.882812 74.972656,41.71875 75.226562,41.59375 C75.738281,41.332031 76.257812,41.222656 76.785156,41.257812 C76.945312,41.273438 77.101562,41.296875 77.257812,41.332031 C78.964844,41.078125 80.296875,40.027344 81.257812,38.179688 C83.183594,34.472656 83.390625,29.160156 85.648438,24.34375 C86.722656,22.050781 87.976562,19.800781 89.339844,17.207031 C90.730469,14.566406 91.433594,12.757812 91.457031,11.78125 C91.789062,9.234375 92.410156,7.488281 93.332031,6.542969 C94.011719,5.839844 95.464844,5.480469 96.445312,4.855469 C99.191406,3.105469 99.949219,1.136719 103.792969,0.710938 C103.039062,0.6875 102.15625,0.839844 100.90625,1.316406 C99.113281,2.007812 97.007812,3.273438 94.589844,5.113281 C93.90625,5.679688 92.882812,5.746094 91.519531,5.308594 C88.585938,4.292969 85.835938,3.5 83.273438,2.921875 C76.550781,1.40625 70.207031,0.160156 65.820312,6.070312 C64.640625,7.660156 63.859375,9.53125 63.472656,11.675781 C64.660156,11.855469 65.738281,12.195312 66.707031,12.699219 C70.203125,15.257812 72.214844,20.769531 72.746094,29.238281 C72.96875,34.703125 72.609375,39.007812 71.671875,42.15625 C72.550781,42.835938 73.484375,42.808594 74.476562,42.085938 Z M41.511719,69.089844 C42.054688,69.113281 42.601562,69.113281 43.152344,69.09375 C43.933594,69.0625 44.726562,68.988281 45.527344,68.871094 C45.636719,69.144531 45.648438,69.449219 45.566406,69.785156 C45.46875,70.164062 45.253906,70.585938 44.910156,71.046875 C44.800781,71.195312 44.675781,71.347656 44.539062,71.503906 C44.4375,71.632812 44.339844,71.773438 44.25,71.929688 C43.894531,72.53125 43.652344,73.34375 43.523438,74.363281 C43.386719,75.40625 43.371094,76.664062 43.46875,78.140625 C43.464844,80.234375 42.699219,82.640625 41.175781,85.355469 C41.167969,85.367188 41.15625,85.382812 41.148438,85.398438 C40.683594,86.238281 40.242188,87.339844 39.820312,88.710938 C39.199219,90.734375 38.957031,92.867188 37.980469,94.730469 C37.714844,95.226562 37.425781,95.652344 37.125,96.054688 C36.640625,96.691406 36.125,97.261719 35.648438,97.945312 C35.585938,98.027344 35.527344,98.113281 35.472656,98.199219 C34.21875,100.089844 33.742188,101.417969 31.074219,101.789062 C29.566406,101.789062 28.097656,101.253906 26.488281,101.183594 C25.035156,101.117188 23.886719,101.457031 22.496094,101.476562 C20.726562,101.496094 19.21875,101.015625 17.636719,100.144531 C13.996094,98.132812 14.3125,96.082031 13.191406,92.804688 C12.992188,92.214844 12.769531,91.648438 12.523438,91.101562 C10.78125,86.949219 10.628906,83.515625 12.070312,80.804688 C12.984375,79.414062 13.691406,78.179688 14.199219,77.097656 C15.011719,75.355469 15.335938,73.429688 15.933594,71.601562 C16.5,69.875 17.023438,68.769531 17.511719,68.285156 C18.671875,67.589844 19.644531,66.816406 20.425781,65.964844 C21.097656,65.425781 22.171875,65.164062 23.648438,65.175781 C26.410156,65.199219 30.574219,66.179688 36.144531,68.121094 C37.882812,68.691406 39.671875,69.015625 41.511719,69.089844 Z M47.960938,110.789062 C48.035156,111.015625 48.109375,111.238281 48.1875,111.460938 C43.972656,110.796875 40.511719,102.992188 36.078125,98.378906 C36.453125,97.929688 36.824219,97.507812 37.195312,97.117188 C37.339844,96.949219 37.476562,96.773438 37.613281,96.589844 C41.460938,100.980469 43.941406,108.75 47.960938,110.789062 Z M35.570312,111.617188 C31.34375,111.277344 28.492188,110.792969 24.054688,111.34375 C21.257812,111.6875 18.972656,112.355469 17.199219,113.34375 C15.820312,114.113281 14.746094,115.078125 13.984375,116.238281 C13.003906,117.648438 11.203125,118.148438 10.3125,119.613281 C9.503906,120.945312 10.652344,121.121094 10.148438,122.703125 C9.609375,124.375 8.171875,125.617188 8.34375,127.386719 C8.511719,129.109375 9.734375,129.519531 10.0625,131.160156 C10.359375,132.644531 9.792969,134.214844 10.5,135.304688 C11.382812,136.667969 16.652344,139.761719 18.71875,140.046875 C19.714844,140.023438 20.339844,138.757812 20.585938,136.246094 C20.621094,135.683594 20.6875,135.179688 20.785156,134.734375 C21.152344,133.046875 22.089844,132.4375 22.421875,130.34375 C22.742188,128.296875 22.179688,125.328125 23.101562,123.796875 C24.324219,121.765625 26.074219,122.441406 27.03125,120.269531 C27.503906,119.199219 27.503906,118.425781 28.25,117.351562 C28.773438,116.597656 29.492188,115.917969 30.402344,115.3125 C31.667969,114.46875 35.066406,113.488281 37.347656,112.746094 C38.21875,112.464844 38.925781,112.214844 39.292969,112.019531 C39.578125,111.867188 39.652344,111.75 39.421875,111.675781 C39.15625,111.683594 38.914062,111.699219 38.78125,111.703125 C37.652344,111.730469 36.582031,111.699219 35.570312,111.617188 Z M62.757812,160.8125 C62.757812,160.8125 62.242188,160.523438 61.214844,159.945312 C60.359375,153.925781 59.503906,148.085938 58.648438,142.421875 C57.59375,135.398438 56.539062,128.648438 55.492188,122.167969 C56.128906,122.5625 56.777344,122.828125 57.351562,122.828125 C57.535156,123.675781 57.710938,124.523438 57.882812,125.367188 C59.503906,136.175781 61.128906,147.992188 62.757812,160.8125 Z M67.140625,160.847656 C67.140625,160.847656 67.0625,159.527344 66.90625,156.890625 C66.753906,154.402344 66.535156,150.742188 66.242188,145.90625 C66.011719,155.800781 65.894531,160.75 65.894531,160.75 C65.527344,147.222656 64.863281,133.929688 63.90625,120.871094 C63.523438,121.1875 63.113281,121.53125 62.675781,121.84375 C62.984375,127.921875 63.515625,138.390625 64.273438,153.25 C64.585938,155.335938 64.890625,157.464844 65.195312,159.636719 C64.988281,159.734375 64.792969,159.832031 64.609375,159.917969 C64.625,160.160156 64.636719,160.40625 64.648438,160.648438 C64.648438,160.648438 65.0625,160.683594 65.894531,160.75 C66.238281,160.777344 66.65625,160.808594 67.140625,160.847656 Z M79.890625,119.582031 C80.109375,118.953125 80.363281,118.214844 80.65625,117.390625 C81.636719,110.34375 82.71875,103.203125 83.859375,96.550781 C83.253906,96.617188 82.648438,96.605469 82.050781,96.515625 C81.210938,101.40625 80.523438,105.769531 80.070312,108.5625 C79.082031,114.644531 78.183594,120.972656 77.371094,127.554688 C78.125,124.941406 78.964844,122.285156 79.890625,119.582031 Z M79.660156,95.929688 C79.886719,95.5625 80.109375,95.195312 80.339844,94.828125 C81.203125,93.453125 82.113281,92.09375 83.078125,90.722656 C83.863281,89.601562 84.683594,88.476562 85.542969,87.328125 C88.480469,83.40625 91.84375,79.265625 95.703125,74.394531 C91.566406,80.464844 88.011719,85.601562 84.984375,90.253906 C84.089844,91.621094 83.246094,92.949219 82.445312,94.246094 C82.011719,94.945312 81.59375,95.636719 81.183594,96.320312 C80.640625,97.238281 80.117188,98.144531 79.617188,99.039062 C77.90625,109.480469 76.660156,120.84375 75.878906,133.128906 C75.566406,138.082031 75.324219,143.183594 75.160156,148.4375 C75.148438,148.863281 75.132812,149.292969 75.121094,149.722656 C75.992188,143.011719 77.359375,136.203125 79.015625,129.71875 C77.292969,143.332031 76.0625,155.125 75.652344,160.242188 C75.367188,160.277344 75.121094,160.308594 74.921875,160.332031 C73.117188,160.742188 72.214844,160.945312 72.214844,160.945312 C72.214844,160.890625 72.21875,160.835938 72.21875,160.78125 C72.507812,160.757812 72.835938,160.722656 73.199219,160.683594 C73.0625,157.144531 72.9375,153.644531 72.8125,150.1875 C72.78125,149.269531 72.75,148.355469 72.71875,147.441406 C73.496094,131.679688 74.898438,117.277344 76.925781,104.242188 C76.183594,105.816406 75.507812,107.390625 74.894531,108.992188 C73.734375,112.035156 72.761719,115.144531 71.980469,118.507812 C71.21875,121.789062 70.644531,125.3125 70.261719,129.25 C69.476562,137.449219 69.535156,147.4375 70.546875,160.777344 C70.546875,160.789062 70.546875,160.804688 70.546875,160.816406 C70.566406,161.039062 70.582031,161.261719 70.597656,161.484375 C69.265625,160.875 68.601562,160.566406 68.601562,160.566406 C68.59375,160.5 68.585938,160.429688 68.578125,160.359375 C67.492188,150.246094 67.433594,140.707031 68.40625,131.738281 C68.828125,127.828125 69.445312,124.03125 70.253906,120.34375 C70.742188,118.132812 71.296875,115.960938 71.921875,113.828125 C72.464844,111.984375 73.058594,110.167969 73.703125,108.382812 C74.894531,105.089844 76.230469,102.125 77.730469,99.3125 C77.929688,98.167969 78.132812,97.03125 78.339844,95.90625 C78.765625,95.933594 79.207031,95.941406 79.660156,95.929688 Z M94.175781,90.644531 C94.648438,90.929688 95.105469,91.238281 95.554688,91.570312 C97.832031,93.25 99.824219,95.484375 101.527344,98.28125 C104.691406,103.457031 104.390625,105.660156 106,110.683594 C106.640625,112.695312 107.710938,114.613281 108.191406,116.597656 C108.582031,118.210938 108.078125,121.421875 109.710938,122.15625 C110.167969,122.363281 110.488281,122.375 110.769531,122.308594 C108.742188,122.277344 109.679688,118.835938 109.539062,117.757812 C109.480469,117.285156 109.320312,116.878906 109.058594,116.550781 C107.859375,114.59375 107.464844,113.597656 107.296875,112.597656 C107.128906,111.585938 107.191406,110.578125 106.894531,108.578125 C106.539062,106.214844 105.664062,105.914062 104.746094,103.921875 C103.996094,102.285156 104.230469,100.847656 103.363281,99.152344 C102.445312,97.359375 101.023438,96.886719 99.921875,95.257812 C98.910156,93.773438 98.449219,92.253906 97.683594,91.046875 C97.605469,90.925781 97.523438,90.804688 97.4375,90.6875 C97.039062,90.152344 96.558594,89.695312 95.898438,89.355469 C95.65625,89.230469 95.390625,89.121094 95.097656,89.027344 C94.679688,89.492188 94.246094,89.960938 93.796875,90.417969 C93.925781,90.492188 94.050781,90.566406 94.175781,90.644531 Z M95.160156,47.957031 C94.574219,49.082031 94.003906,50.234375 93.441406,51.410156 C90.96875,56.601562 88.746094,62.285156 86.765625,68.457031 C86.648438,68.828125 86.53125,69.199219 86.414062,69.570312 C86.082031,69.625 85.761719,69.699219 85.457031,69.792969 C85.136719,69.894531 84.84375,70.027344 84.574219,70.175781 C84.804688,69.429688 85.039062,68.695312 85.277344,67.964844 C87.105469,62.355469 89.121094,57.15625 91.328125,52.367188 C91.90625,51.109375 92.5,49.875 93.105469,48.671875 C95.664062,43.601562 98.453125,39.035156 101.472656,34.980469 C102.648438,33.402344 103.855469,31.902344 105.101562,30.476562 C115.421875,18.660156 128.164062,12.113281 143.316406,10.832031 C135.25,11.992188 127.898438,14.5625 121.261719,18.546875 C116.109375,21.636719 111.386719,25.582031 107.089844,30.375 C106.960938,30.523438 106.828125,30.667969 106.699219,30.816406 C105.234375,32.480469 103.824219,34.242188 102.460938,36.101562 C99.84375,39.683594 97.40625,43.636719 95.160156,47.957031 Z M100.363281,43.328125 C100.742188,42.960938 101.039062,42.609375 101.246094,42.28125 C101.867188,41.308594 101.46875,40.328125 102.019531,39.53125 C102.226562,39.230469 102.570312,38.957031 103.148438,38.71875 C103.707031,38.582031 104.132812,38.367188 104.429688,38.0625 C104.878906,37.609375 105.390625,35.875 105.898438,35.058594 C106.691406,33.78125 107.386719,33.652344 108.523438,32.777344 C109.121094,32.316406 109.628906,31.808594 110.125,31.292969 C110.746094,30.648438 111.347656,29.992188 112.089844,29.402344 C113.113281,28.59375 114.511719,28.667969 116.285156,29.625 C116.917969,29.964844 119.339844,31.351562 119.160156,32.144531 C119.09375,32.429688 118.816406,32.714844 118.320312,32.996094 C113.660156,35.738281 108.941406,40.019531 104.15625,45.835938 C103.238281,45.746094 102.242188,45.789062 101.164062,45.96875 C100.484375,46.082031 99.777344,46.246094 99.035156,46.464844 C99.234375,45.195312 99.675781,44.148438 100.363281,43.328125 Z M109.242188,48.675781 C113.453125,54.058594 117.695312,56.527344 121.964844,56.078125 C122.160156,56.042969 122.359375,56.003906 122.554688,55.960938 C126.589844,52.507812 117.445312,43.363281 108.683594,48.003906 C108.878906,48.210938 109.066406,48.4375 109.242188,48.675781 Z M91.832031,65.992188 C95.691406,60.757812 102.886719,57.609375 113.421875,56.550781 C100.402344,56.671875 92.136719,60.578125 88.625,68.269531 C88.601562,68.320312 88.578125,68.371094 88.554688,68.421875 C88.414062,68.742188 88.269531,69.09375 88.125,69.46875 C88.792969,69.488281 89.417969,69.546875 90.035156,69.628906 C90.09375,69.472656 90.152344,69.324219 90.207031,69.175781 C90.753906,67.796875 91.292969,66.71875 91.832031,65.992188 Z M39.613281,63.269531 C39.925781,63.148438 40.210938,63 40.476562,62.820312 C41.894531,61.871094 42.695312,60.089844 42.882812,57.476562 C43.816406,60.734375 44.632812,64.054688 45.382812,67.410156 C45.554688,68.183594 45.722656,68.957031 45.890625,69.734375 C45.964844,70.074219 46.035156,70.414062 46.109375,70.753906 C46.164062,71.023438 46.21875,71.289062 46.277344,71.558594 C46.992188,74.976562 47.660156,78.421875 48.339844,81.871094 C48.777344,84.09375 49.214844,86.367188 49.652344,88.6875 C49.988281,90.449219 50.320312,92.238281 50.65625,94.054688 C50.773438,94.007812 50.902344,93.972656 51.039062,93.945312 C51.519531,93.84375 52.082031,93.84375 52.660156,93.902344 C51.710938,88.796875 50.761719,84.050781 49.816406,79.652344 C49.289062,77.191406 48.757812,74.84375 48.230469,72.605469 C53.902344,76.238281 57.914062,84.332031 60.257812,96.894531 C60.839844,97.324219 61.398438,97.796875 61.933594,98.3125 C61.75,96.492188 61.558594,94.675781 61.363281,92.863281 C58.519531,81.054688 54.050781,73.683594 47.730469,70.515625 C47.722656,70.484375 47.714844,70.453125 47.707031,70.417969 C47.3125,68.804688 46.917969,67.246094 46.523438,65.753906 C44.988281,59.917969 43.457031,55.015625 41.929688,51.042969 C41.53125,49.796875 41.105469,48.574219 40.648438,47.382812 C40.289062,46.4375 39.914062,45.511719 39.519531,44.605469 C38.96875,43.328125 38.378906,42.085938 37.757812,40.875 C32.53125,30.71875 24.878906,22.929688 14.796875,17.503906 C25.871094,24.183594 32.808594,33.003906 37.542969,42.988281 C36.070312,40.753906 34.683594,39.53125 33.375,39.308594 C32.398438,39.152344 31.386719,38.855469 30.335938,38.410156 C28.535156,37.640625 27.410156,36.742188 25.367188,36.355469 C23.632812,36.027344 21.773438,36.140625 19.796875,36.691406 C18.441406,36.933594 17.09375,37.089844 15.753906,37.160156 C12.96875,37.308594 11.363281,36.804688 8.644531,37.890625 C7.746094,38.25 1.402344,41.65625 0.382812,43.128906 C0.285156,43.695312 0.992188,43.523438 2.507812,42.609375 C6,40.421875 8.691406,39.132812 10.589844,38.742188 C12.386719,38.371094 13.765625,39.054688 15.933594,38.582031 C16.835938,38.386719 17.765625,38.0625 18.722656,37.609375 C20.539062,36.925781 22.132812,36.753906 23.503906,37.089844 C25.523438,37.585938 26.394531,38.832031 27.238281,40.0625 C28.542969,41.964844 29.765625,42.402344 30.976562,44.074219 C31.382812,44.636719 31.78125,45.285156 32.175781,46.027344 C34.730469,50.828125 35.246094,55.019531 36.15625,60.230469 C37.117188,63.027344 38.152344,64.125 39.253906,63.527344 C39.371094,63.460938 39.492188,63.375 39.613281,63.269531" id="Shape" fill="#274393" mask="url(#mask-6)"></path>
                </g>
            </g>
        </g>
    </g>
</svg>