<?xml version="1.0" encoding="UTF-8"?>
<svg width="120px" height="120px" viewBox="0 0 120 120" version="1.1" xmlns="http://www.w3.org/2000/svg" xmlns:xlink="http://www.w3.org/1999/xlink">
    <title>happy</title>
    <defs>
        <polygon id="path-1" points="0.496324034 0.842962689 119.23582 0.842962689 119.23582 119.582458 0.496324034 119.582458"></polygon>
    </defs>
    <g id="Page-1" stroke="none" stroke-width="1" fill="none" fill-rule="evenodd">
        <g id="Emotion-Estimation" transform="translate(-47.000000, -299.000000)">
            <g id="happy" transform="translate(47.000000, 299.000000)">
                <g id="Clipped">
                    <mask id="mask-2" fill="white">
                        <use xlink:href="#path-1"></use>
                    </mask>
                    <g id="Path"></g>
                    <path d="M119.330358,60.2599785 C119.330358,93.0764178 92.7297792,119.676996 59.9133398,119.676996 C27.1008403,119.676996 0.496324034,93.0764178 0.496324034,60.2599785 C0.496324034,27.447479 27.1008403,0.842962689 59.9133398,0.842962689 C92.7297792,0.842962689 119.330358,27.447479 119.330358,60.2599785" id="Path" fill="#FFCC4D" fill-rule="nonzero" mask="url(#mask-2)"></path>
                </g>
                <path d="M40.1076686,60.2599785 C40.1076686,60.8035714 40.0800948,61.3392857 40.0288861,61.8789388 C39.9776783,62.4185929 39.894958,62.9503674 39.7925425,63.4821429 C39.6861872,64.0099785 39.556197,64.5338763 39.3986339,65.0538343 C39.2410709,65.5698534 39.0598739,66.0779939 38.8511032,66.5782568 C38.6462713,67.0785187 38.4138655,67.5630252 38.1578259,68.0396531 C37.905725,68.5202208 37.6260504,68.9810924 37.3266807,69.4301466 C37.0273109,69.8792017 36.7043072,70.3124995 36.3616074,70.730042 C36.0189076,71.1515234 35.6565126,71.5493697 35.2744225,71.9314598 C34.8923314,72.3135509 34.4905462,72.6759449 34.0730037,73.0186447 C33.6554622,73.3613445 33.2221634,73.6843482 32.7731092,73.983719 C32.3240551,74.2830877 31.8592437,74.5627624 31.3826158,74.818802 C30.9059879,75.0709029 30.4175415,75.3033086 29.9212185,75.5081405 C29.4209556,75.7169123 28.9128151,75.8981092 28.3928571,76.0556723 C27.876838,76.2132353 27.3529412,76.3432245 26.8251045,76.4495798 C26.2933301,76.5559351 25.7576158,76.6347166 25.2219015,76.6859244 C24.6822474,76.7410709 24.1425943,76.7647059 23.6029412,76.7647059 C23.0632881,76.7647059 22.523635,76.7410709 21.9839808,76.6859244 C21.4482666,76.6347166 20.9125523,76.5559351 20.3847166,76.4495798 C19.8529412,76.3432245 19.3290444,76.2132353 18.8130252,76.0556723 C18.2970061,75.8981092 17.7888655,75.7169123 17.2886027,75.5081405 C16.7883408,75.3033086 16.2998945,75.0709029 15.8232666,74.818802 C15.3466387,74.5627624 14.8818272,74.2830877 14.4327731,73.983719 C13.983719,73.6843482 13.5504202,73.3613445 13.1328787,73.0186447 C12.7153361,72.6759449 12.3135509,72.3135509 11.9314598,71.9314598 C11.5493697,71.5493697 11.1869748,71.1515234 10.844275,70.730042 C10.5015751,70.3124995 10.1825103,69.8792017 9.87920168,69.4301466 C9.57983193,68.9810924 9.30409613,68.5202208 9.04805647,68.0396531 C8.79201681,67.5630252 8.56355092,67.0785187 8.35477916,66.5782568 C8.14994723,66.0779939 7.96481143,65.5698534 7.81118723,65.0538343 C7.6536242,64.5338763 7.51969513,64.0099785 7.41727966,63.4821429 C7.31092437,62.9503674 7.23214286,62.4185929 7.1769963,61.8789388 C7.12578756,61.3392857 7.09821378,60.8035714 7.09821378,60.2599785 C7.09821378,59.7203254 7.12578756,59.1806723 7.1769963,58.644958 C7.23214286,58.1053049 7.31092437,57.5735294 7.41727966,57.0417539 C7.51969513,56.5099785 7.6536242,55.9860817 7.81118723,55.4700625 C7.96481143,54.9540444 8.14994723,54.4459039 8.35477916,53.945641 C8.56355092,53.4453782 8.79201681,52.9569328 9.04805647,52.4803049 C9.30409613,52.003676 9.57983193,51.5428044 9.87920168,51.0898104 C10.1825103,50.6407563 10.5015751,50.2074575 10.844275,49.789916 C11.1869748,49.3723745 11.5493697,48.9745271 11.9314598,48.592437 C12.3135509,48.2103469 12.7153361,47.8440121 13.1328787,47.5013133 C13.5504202,47.1586134 13.983719,46.8395486 14.4327731,46.53624 C14.8818272,46.2368692 15.3466387,45.9611345 15.8232666,45.7050948 C16.2998945,45.4490541 16.7883408,45.2205882 17.2886027,45.0118175 C17.7888655,44.8069855 18.2970061,44.6257876 18.8130252,44.4682245 C19.3290444,44.3106615 19.8529412,44.1806723 20.3847166,44.074317 C20.9125523,43.9679617 21.4482666,43.8891812 21.9839808,43.8379724 C22.523635,43.7828259 23.0632881,43.7552521 23.6029412,43.7552521 C24.1425943,43.7552521 24.6822474,43.7828259 25.2219015,43.8379724 C25.7576158,43.8891812 26.2933301,43.9679617 26.8251045,44.074317 C27.3529412,44.1806723 27.876838,44.3106615 28.3928571,44.4682245 C28.9128151,44.6257876 29.4209556,44.8069855 29.9212185,45.0118175 C30.4175415,45.2205882 30.9059879,45.4490541 31.3826158,45.7050948 C31.8592437,45.9611345 32.3240551,46.2368692 32.7731092,46.53624 C33.2221634,46.8395486 33.6554622,47.1586134 34.0730037,47.5013133 C34.4905462,47.8440121 34.8923314,48.2103469 35.2744225,48.592437 C35.6565126,48.9745271 36.0189076,49.3723745 36.3616074,49.789916 C36.7043072,50.2074575 37.0273109,50.6407563 37.3266807,51.0898104 C37.6260504,51.5428044 37.905725,52.003676 38.1578259,52.4803049 C38.4138655,52.9569328 38.6462713,53.4453782 38.8511032,53.945641 C39.0598739,54.4459039 39.2410709,54.9540444 39.3986339,55.4700625 C39.556197,55.9860817 39.6861872,56.5099785 39.7925425,57.0417539 C39.894958,57.5735294 39.9776783,58.1053049 40.0288861,58.644958 C40.0800948,59.1806723 40.1076686,59.7203254 40.1076686,60.2599785 Z" id="Path" fill="#FF7892" fill-rule="nonzero"></path>
                <path d="M112.728466,60.2599785 C112.728466,60.8035714 112.700893,61.3392857 112.649685,61.8789388 C112.598477,62.4185929 112.515756,62.9503674 112.41334,63.4821429 C112.306986,64.0099785 112.176996,64.5338763 112.019433,65.0538343 C111.86187,65.5698534 111.680672,66.0779939 111.471902,66.5782568 C111.26707,67.0785187 111.034664,67.5630252 110.778624,68.0396531 C110.526523,68.5202208 110.246849,68.9810924 109.947479,69.4301466 C109.648109,69.8792017 109.325105,70.3124995 108.982406,70.730042 C108.639706,71.1515234 108.277311,71.5493697 107.895221,71.9314598 C107.513131,72.3135509 107.111345,72.6759449 106.693803,73.0186447 C106.276261,73.3613445 105.842963,73.6843482 105.393908,73.983719 C104.944852,74.2830877 104.480042,74.5627624 104.003414,74.818802 C103.526785,75.0709029 103.038341,75.3033086 102.542017,75.5081405 C102.041754,75.7169123 101.533613,75.8981092 101.013655,76.0556723 C100.497636,76.2132353 99.9737395,76.3432245 99.4459039,76.4495798 C98.9141284,76.5559351 98.3784141,76.6347166 97.8426998,76.6859244 C97.3030467,76.7410709 96.7633926,76.7647059 96.2237395,76.7647059 C95.6840864,76.7647059 95.1444323,76.7410709 94.6047792,76.6859244 C94.0690649,76.6347166 93.5333506,76.5559351 93.005515,76.4495798 C92.4737395,76.3432245 91.9498427,76.2132353 91.4338235,76.0556723 C90.9178044,75.8981092 90.4096639,75.7169123 89.909401,75.5081405 C89.4091382,75.3033086 88.9206938,75.0709029 88.4440649,74.818802 C87.967437,74.5627624 87.5026266,74.2830877 87.0535714,73.983719 C86.6045163,73.6843482 86.1712185,73.3613445 85.753676,73.0186447 C85.3361345,72.6759449 84.9343482,72.3135509 84.5522582,71.9314598 C84.1701681,71.5493697 83.8077731,71.1515234 83.4650733,70.730042 C83.1223745,70.3124995 82.8033086,69.8792017 82.5,69.4301466 C82.2006303,68.9810924 81.9248955,68.5202208 81.6688548,68.0396531 C81.4128151,67.5630252 81.1843482,67.0785187 80.9755775,66.5782568 C80.7707455,66.0779939 80.5856087,65.5698534 80.4319855,65.0538343 C80.2744225,64.5338763 80.1404934,64.0099785 80.038078,63.4821429 C79.9317227,62.9503674 79.8529412,62.4185929 79.7977936,61.8789388 C79.7465859,61.3392857 79.7190131,60.8035714 79.7190131,60.2599785 C79.7190131,59.7203254 79.7465859,59.1806723 79.7977936,58.644958 C79.8529412,58.1053049 79.9317227,57.5735294 80.038078,57.0417539 C80.1404934,56.5099785 80.2744225,55.9860817 80.4319855,55.4700625 C80.5856087,54.9540444 80.7707455,54.4459039 80.9755775,53.945641 C81.1843482,53.4453782 81.4128151,52.9569328 81.6688548,52.4803049 C81.9248955,52.003676 82.2006303,51.5428044 82.5,51.0898104 C82.8033086,50.6407563 83.1223745,50.2074575 83.4650733,49.789916 C83.8077731,49.3723745 84.1701681,48.9745271 84.5522582,48.592437 C84.9343482,48.2103469 85.3361345,47.8440121 85.753676,47.5013133 C86.1712185,47.1586134 86.6045163,46.8395486 87.0535714,46.53624 C87.5026266,46.2368692 87.967437,45.9611345 88.4440649,45.7050948 C88.9206938,45.4490541 89.4091382,45.2205882 89.909401,45.0118175 C90.4096639,44.8069855 90.9178044,44.6257876 91.4338235,44.4682245 C91.9498427,44.3106615 92.4737395,44.1806723 93.005515,44.074317 C93.5333506,43.9679617 94.0690649,43.8891812 94.6047792,43.8379724 C95.1444323,43.7828259 95.6840864,43.7552521 96.2237395,43.7552521 C96.7633926,43.7552521 97.3030467,43.7828259 97.8426998,43.8379724 C98.3784141,43.8891812 98.9141284,43.9679617 99.4459039,44.074317 C99.9737395,44.1806723 100.497636,44.3106615 101.013655,44.4682245 C101.533613,44.6257876 102.041754,44.8069855 102.542017,45.0118175 C103.038341,45.2205882 103.526785,45.4490541 104.003414,45.7050948 C104.480042,45.9611345 104.944852,46.2368692 105.393908,46.53624 C105.842963,46.8395486 106.276261,47.1586134 106.693803,47.5013133 C107.111345,47.8440121 107.513131,48.2103469 107.895221,48.592437 C108.277311,48.9745271 108.639706,49.3723745 108.982406,49.789916 C109.325105,50.2074575 109.648109,50.6407563 109.947479,51.0898104 C110.246849,51.5428044 110.526523,52.003676 110.778624,52.4803049 C111.034664,52.9569328 111.26707,53.4453782 111.471902,53.945641 C111.680672,54.4459039 111.86187,54.9540444 112.019433,55.4700625 C112.176996,55.9860817 112.306986,56.5099785 112.41334,57.0417539 C112.515756,57.5735294 112.598477,58.1053049 112.649685,58.644958 C112.700893,59.1806723 112.728466,59.7203254 112.728466,60.2599785 Z" id="Path" fill="#FF7892" fill-rule="nonzero"></path>
                <path d="M90.7287287,72.2387082 C90.1418067,71.7108716 89.2633926,71.6754202 88.6331405,72.1441704 C88.5031513,72.2387082 75.6853997,81.7161237 59.9133398,81.7161237 C44.1806723,81.7161237 31.3195906,72.2387082 31.197479,72.1441704 C30.5672269,71.6754202 29.6888128,71.7148114 29.0979519,72.2387082 C28.5149687,72.7704827 28.3849795,73.6410192 28.7907035,74.3146003 C29.2161237,75.023635 39.4104514,91.6189603 59.9133398,91.6189603 C80.4201681,91.6189603 90.6144958,75.023635 91.039916,74.3146003 C91.445641,73.6370803 91.3156518,72.7704827 90.7287287,72.2387082 Z M26.8999472,50.3571429 C26.407563,50.3571429 25.8994225,50.2468487 25.4306723,50.0105042 C23.7998945,49.1951153 23.1381297,47.2098212 23.9535187,45.5790444 C24.126838,45.2363445 28.3022582,37.1533613 40.1076686,37.1533613 C51.9170168,37.1533613 56.092437,45.2402834 56.2618175,45.5829832 C57.0772054,47.21376 56.4193805,49.1951153 54.7886027,50.0105042 C53.1617647,50.8219543 51.2079832,50.1720061 50.376838,48.5727418 C50.2350313,48.3088235 47.6391812,43.7552521 40.1076686,43.7552521 C32.461922,43.7552521 29.8778884,48.4860817 29.8542545,48.5333506 C29.2791489,49.6914393 28.1131825,50.3571429 26.8999472,50.3571429 Z M92.9267334,50.3571429 C91.7134982,50.3571429 90.5514706,49.6914393 89.9684874,48.5333506 C89.8857671,48.3797264 87.3096111,43.7552521 79.7190131,43.7552521 C72.1323529,43.7552521 69.5522582,48.3797264 69.4459039,48.5766807 C68.5871849,50.1641284 66.6097694,50.7865018 65.0065654,49.9632353 C63.4073002,49.1320901 62.7573529,47.1940649 63.5609244,45.5790444 C63.7342437,45.2402834 67.9136027,37.1533613 79.7190131,37.1533613 C91.5283613,37.1533613 95.7077203,45.2402834 95.8771008,45.5829832 C96.6924897,47.21376 96.0346639,49.1951153 94.4038871,50.0105042 C93.9272582,50.2468487 93.4230565,50.3571429 92.9267334,50.3571429 Z" id="Shape" fill="#664500" fill-rule="nonzero"></path>
            </g>
        </g>
    </g>
</svg>