<?xml version="1.0" encoding="UTF-8"?>
<svg width="318px" height="308px" viewBox="0 0 318 308" version="1.1" xmlns="http://www.w3.org/2000/svg" xmlns:xlink="http://www.w3.org/1999/xlink">
    <title>Online</title>
    <defs>
        <polygon id="path-1" points="0.0678256234 0.394055668 296.935423 0.394055668 296.935423 303.413304 0.0678256234 303.413304"></polygon>
        <polygon id="path-3" points="0.100926945 0.198158093 274.80732 0.198158093 274.80732 281.941604 0.100926945 281.941604"></polygon>
        <polygon id="path-5" points="0 0.0885594296 314 0.0885594296 314 284.151786 0 284.151786"></polygon>
    </defs>
    <g id="Page-1" stroke="none" stroke-width="1" fill="none" fill-rule="evenodd">
        <g id="Onboarding-MW-3" transform="translate(-48.000000, -328.000000)">
            <g id="Online" transform="translate(48.000000, 328.000000)">
                <g id="Clipped" transform="translate(0.000000, 4.000000)">
                    <mask id="mask-2" fill="white">
                        <use xlink:href="#path-1"></use>
                    </mask>
                    <g id="Path"></g>
                    <path d="M242.714786,240.69185 L265.796554,244.771219 L156.229118,303.981667 L0.0678256234,246.3938 L58.9396062,220.395839 C36.8649788,193.701177 23.0580352,159.856159 23.0580352,125.653623 C23.0580352,50.7123927 90.4813324,-10.8265028 163.654471,2.43832466 C248.629432,17.8574242 296.880489,43.5987054 296.880489,118.539936 C296.880489,163.477173 275.703127,210.357839 242.714786,240.69185" id="Path" fill="#5EC9CC" fill-rule="nonzero" mask="url(#mask-2)"></path>
                </g>
                <g id="Clipped" transform="translate(43.000000, 12.000000)">
                    <mask id="mask-4" fill="white">
                        <use xlink:href="#path-3"></use>
                    </mask>
                    <g id="Path"></g>
                    <path d="M269.953623,63.4988759 C267.522188,60.7681129 263.347458,60.5306541 260.622415,62.9691616 L255.68614,67.3803938 C252.961097,69.8097666 252.722542,74.0018072 255.153978,76.7234378 L258.457061,80.4405632 C259.879219,82.0388337 259.741593,84.4864736 258.145102,85.9112193 L243.501434,99.0079205 C241.904945,100.441799 239.455158,100.295671 238.023822,98.6973979 L234.720739,94.9894073 C232.298479,92.2586442 228.114574,92.0211855 225.398705,94.459693 L220.46243,98.8709252 C217.737388,101.300298 217.498833,105.483206 219.930268,108.213969 C226.958496,116.114 239.051448,116.808107 246.932971,109.757443 L268.412185,90.5599079 C276.293708,83.5183784 276.981849,71.3989071 269.953623,63.4988759 Z M225.12345,59.754351 C241.381955,59.754351 254.548411,46.5571886 254.548411,30.2639438 C254.548411,13.9798315 241.381955,0.782669116 225.12345,0.782669116 C208.874116,0.782669116 195.698486,13.9798315 195.698486,30.2639438 C195.698486,46.5571886 208.874116,59.754351 225.12345,59.754351 Z M60.675798,83.3631183 L60.675798,67.5995855 C60.675798,65.4898654 58.969204,63.781999 56.8680769,63.781999 L4.3123582,63.781999 C2.20205643,63.781999 0.495462432,65.4898654 0.495462432,67.5995855 L0.495462432,88.6145827 C0.495462432,90.7243028 2.20205643,92.4321715 4.3123582,92.4321715 L70.0712337,92.4321715 L60.675798,83.3631183 Z M38.9763791,46.1005406 C41.7564721,46.1005406 44.0227546,43.8355603 44.0227546,41.0499982 C44.0227546,38.2553061 41.7564721,35.9903259 38.9763791,35.9903259 C36.1871091,35.9903259 33.9208267,38.2553061 33.9208267,41.0499982 C33.9208267,43.8355603 36.1871091,46.1005406 38.9763791,46.1005406 Z M23.3509615,46.1005406 C26.1310568,46.1005406 28.3973369,43.8355603 28.3973369,41.0499982 C28.3973369,38.2553061 26.1310568,35.9903259 23.3509615,35.9903259 C20.5616915,35.9903259 18.295409,38.2553061 18.295409,41.0499982 C18.295409,43.8355603 20.5616915,46.1005406 23.3509615,46.1005406 Z M7.72554384,46.1005406 C10.5056392,46.1005406 12.7719216,43.8355603 12.7719216,41.0499982 C12.7719216,38.2553061 10.5056392,35.9903259 7.72554384,35.9903259 C4.93627386,35.9903259 2.67916605,38.2553061 2.67916605,41.0499982 C2.67916605,43.8355603 4.93627386,46.1005406 7.72554384,46.1005406 Z M223.114074,184.775781 C222.013046,169.167508 219.985321,144.80984 217.480481,134.845753 C213.672762,119.630199 201.644035,104.834764 201.644035,104.834764 C201.543107,104.843898 201.442179,104.853031 201.341253,104.862163 C201.121047,103.574413 200.744861,102.533251 200.148472,101.839145 C195.331477,96.1584293 181.385127,88.2766629 171.760311,83.2443877 C166.218469,80.3492321 160.291272,78.3856398 154.226445,77.3810127 L151.253671,60.1288051 L131.811357,71.0792521 C131.811357,71.0792521 130.875485,74.5132543 129.930436,78.6504958 C129.618477,78.7418268 129.30652,78.8331578 128.994561,78.9244865 C121.103863,74.202734 110.800079,76.750835 105.349993,85.6280985 C100.239391,93.9573806 94.1653871,104.515109 88.2473642,116.360592 C79.5033704,133.850258 73.5302949,149.148006 70.1721619,158.500182 C68.2178361,163.952576 70.6951494,169.99861 75.9066802,172.519314 L78.1362593,173.597007 C83.1459362,176.017248 89.1557126,174.428107 92.3303411,169.861615 L97.5877474,162.272106 C97.6519746,162.628291 97.7070271,162.984478 97.7712543,163.33153 L107.607101,216.585965 L191.257674,231.290071 L184.68821,190.995343 C182.917391,180.108825 183.981715,168.948316 187.807788,158.609778 C188.596856,156.50006 189.413451,154.23508 190.248398,151.887901 L201.277026,193.835702 C202.965268,200.237923 209.754939,203.827186 215.984918,201.617002 C221.15975,201.973189 225.444581,198.502655 225.105098,193.442983 C224.994995,191.808178 223.2517,186.739371 223.114074,184.775781 Z M29.8653738,187.92666 C27.2045582,187.92666 24.8465222,189.022618 23.2041578,191.02274 C21.2314827,193.433848 20.5158136,196.904385 21.2406574,200.539311 C22.5618905,207.206391 28.3789876,212.622251 34.2144341,212.622251 C36.8752496,212.622251 39.2332832,211.526293 40.8664754,209.526168 C42.8483251,207.11506 43.5639919,203.644526 42.8391505,200.009597 C41.5179173,193.342519 35.6916455,187.92666 29.8653738,187.92666 Z M116.846556,272.251507 L116.727279,272.242375 C115.057386,272.242375 113.525124,274.2151 113.148938,276.827132 C112.919558,278.507601 113.231517,280.06021 113.993061,281.000908 C114.433472,281.53062 114.983984,281.832008 115.598725,281.859407 L115.718002,281.86854 C117.387895,281.86854 118.929334,279.895815 119.296343,277.283783 C119.534898,275.603313 119.213767,274.050705 118.452222,273.110009 C118.020986,272.580295 117.461297,272.278907 116.846556,272.251507 Z M115.947385,237.728825 L167.842487,248.441816 L119.892733,266.917844 L115.947385,237.728825 Z" id="Shape" fill="#F6836B" fill-rule="nonzero" mask="url(#mask-4)"></path>
                </g>
                <path d="M194.930187,75.427124 C196.164438,75.2445792 197.380271,74.9068718 198.476359,74.2953459 C200.300105,73.2822213 201.755417,71.4385193 201.912,69.3575079 C202.059374,67.2764964 200.650116,65.0677047 198.596099,64.6843593 C198.421095,64.6478503 198.255299,64.629597 198.080292,64.629597 C200.244839,57.7476544 202.418597,51.0938947 200.650116,47.8172138 C198.623732,44.0476629 183.711387,23.4018375 166.293696,33.9894396 C158.814497,38.534808 154.522245,46.8588538 154.688042,55.5753717 C154.641988,55.5388604 154.595932,55.4932248 154.540668,55.4567158 C153.582741,54.8269366 152.13664,54.671774 151.427404,55.5662427 C151.022127,56.0773683 150.985284,56.7710388 151.003707,57.4190737 C151.132658,60.604481 152.449808,63.6073458 153.739325,66.5189346 C154.245922,67.6507128 155.010422,68.9650358 156.253883,68.9559092 C156.318359,68.9559092 156.373623,68.9376558 156.428889,68.9285268 C158.86055,79.516129 163.825192,89.9942043 171.783355,91.5458368 C181.823166,93.5081924 191.660339,84.0797507 194.930187,75.427124 Z M260.373182,212.299264 L220.637633,238.083726 L211.89655,249.218965 C211.89655,249.218965 205.375275,253.125422 202.704133,254.339348 C200.032992,255.544144 197.242108,257.123156 195.906537,257.123156 C194.570964,257.123156 193.723567,255.0604 195.17888,253.855602 C196.634191,252.641679 202.34491,249.218965 202.34491,249.218965 L204.64762,247.064933 C204.64762,247.064933 198.734262,248.497912 197.481588,249.218965 C196.228914,249.940015 192.387996,256.274323 190.564249,257.123156 C188.740505,257.971989 186.308844,258.574388 186.428584,257.123156 C186.557537,255.671924 191.780082,246.2161 191.780082,246.2161 L200.521166,238.220635 L189.154992,246.334753 C189.154992,246.334753 182.75346,255.708433 180.644179,256.51163 C178.534898,257.323957 173.164979,257.415228 178.792801,249.218965 C178.792801,249.218965 182.873202,243.00331 186.723331,237.864672 L182.219232,238.056346 L176.001917,248.516165 C175.541376,249.291983 174.666346,249.720961 173.772896,249.620561 C172.197842,249.456272 171.258335,247.785986 171.939938,246.353009 L173.505782,243.076328 C169.112211,244.007308 166.966087,240.821901 167.721374,239.471067 C168.587194,237.93769 176.47167,236.851549 176.47167,236.851549 L178.22173,233.17327 L195.142037,230.818442 C199.775086,229.823571 209.308303,226.957618 209.308303,226.957618 L241.721238,197.467494 C254.229553,194.519394 259.710002,203.190276 261.717965,207.927314 C262.390356,209.515455 261.828495,211.359157 260.373182,212.299264" id="Shape" fill="#8E5B6D" fill-rule="nonzero"></path>
                <path d="M159.849322,285.6301 C158.51736,285.556676 157.185398,287.355566 156.863889,289.640888 C156.542381,291.935387 157.350744,293.844411 158.682706,293.927012 C160.005483,294.000436 161.337447,292.201551 161.658956,289.916227 C161.980462,287.621728 161.172099,285.703524 159.849322,285.6301 Z M84.4602391,212.619105 C83.2476962,206.524912 78.0300772,201.577969 72.8032706,201.577969 C67.5672809,201.577969 64.2970831,206.524912 65.5004406,212.619105 C66.7038005,218.713297 71.9306072,223.660238 77.1574115,223.660238 C82.3934012,223.660238 85.663599,218.713297 84.4602391,212.619105 Z M202.306779,255.966801 L217.481967,259.14239 L217.481967,267.274098 L160.069785,294.376736 C158.554104,295.092619 156.827146,295.193578 155.237977,294.670432 L28.076886,252.726967 C26.1662087,252.093686 24.7240153,250.505892 24.2922751,248.532622 L2.08064951,148.51077 C1.72239927,146.904619 2.58587728,145.270934 4.11074598,144.674364 L10.6878854,142.07699 C11.3217153,141.829185 12.010662,141.783294 12.6720503,141.939319 L145.289594,173.842052 C147.971891,174.484511 149.974429,176.705588 150.360238,179.440631 L159.812578,247.045787 L172.149308,249.633982 C172.461632,250.340687 173.12302,250.891367 173.977313,250.973969 C174.638701,251.047393 175.281716,250.827121 175.759386,250.395756 L178.689704,251.010683 C177.486344,252.846283 176.843329,254.259694 176.604493,255.315165 L160.593383,251.992727 L164.0473,277.681952 L206.109761,261.418535 L191.072363,258.307192 C192.000143,257.637198 193.295361,255.957624 194.507909,254.323941 L196.078705,254.654349 C195.766383,254.874621 195.509177,255.067358 195.325458,255.232561 C193.874077,256.444059 194.719184,258.518286 196.051148,258.518286 C197.29125,258.518286 199.808201,257.141585 202.306779,255.966801 Z M188.968781,253.167511 L185.845559,252.506695 C184.724872,253.984353 183.521512,255.480368 182.511059,256.535838 L186.938687,257.453638 C187.36124,256.38899 188.142045,254.782839 188.968781,253.167511 Z M306.649973,74.1414288 C306.245789,73.6825276 304.00442,75.0408717 301.634444,77.1609905 C299.273656,79.2902867 297.675299,81.3828709 298.070296,81.8325923 C298.474477,82.2823161 300.725034,80.9239697 303.085823,78.8038532 C305.455799,76.6745571 307.054152,74.5911503 306.649973,74.1414288 Z M315,77.2435919 C311.720617,83.2460056 306.49381,87.9359646 300.19225,90.5333371 L298.355061,88.4591101 C295.920785,85.7240647 296.159618,81.5113617 298.887844,79.0700147 L303.829886,74.6370397 C306.558112,72.1865129 310.73772,72.4251421 313.171996,75.1693649 L315,77.2435919 Z M268.289451,64.5504162 C280.773153,64.5504162 290.932814,54.3353019 290.932814,41.7706194 C290.932814,29.2151143 280.773153,19 268.289451,19 C255.805745,19 245.646085,29.2151143 245.646085,41.7706194 C245.646085,54.3353019 255.805745,64.5504162 268.289451,64.5504162 Z M53.7607991,89.8449888 C53.7607991,91.900861 55.4142699,93.5620785 57.4535517,93.5620785 C59.4928312,93.5620785 61.146302,91.900861 61.146302,89.8449888 C61.146302,87.798294 59.4928312,86.1370741 57.4535517,86.1370741 C55.4142699,86.1370741 53.7607991,87.798294 53.7607991,89.8449888 Z M69.4044706,89.8449888 C69.4044706,91.900861 71.0579414,93.5620785 73.0972209,93.5620785 C75.1365027,93.5620785 76.7899735,91.900861 76.7899735,89.8449888 C76.7899735,87.798294 75.1365027,86.1370741 73.0972209,86.1370741 C71.0579414,86.1370741 69.4044706,87.798294 69.4044706,89.8449888 Z M92.4336451,89.8449888 C92.4336451,87.798294 90.7801719,86.1370741 88.7408925,86.1370741 C86.701613,86.1370741 85.0481398,87.798294 85.0481398,89.8449888 C85.0481398,91.900861 86.701613,93.5620785 88.7408925,93.5620785 C90.7801719,93.5620785 92.4336451,91.900861 92.4336451,89.8449888 Z M46.9448262,52.6098378 C46.9448262,54.6565325 48.5982947,56.3177501 50.6375765,56.3177501 C52.6768583,56.3177501 54.3211414,54.6565325 54.3211414,52.6098378 C54.3211414,50.5539656 52.6768583,48.892748 50.6375765,48.892748 C48.5982947,48.892748 46.9448262,50.5539656 46.9448262,52.6098378 Z M62.5884954,52.6098378 C62.5884954,54.6565325 64.2419662,56.3177501 66.281248,56.3177501 C68.3205275,56.3177501 69.9648129,54.6565325 69.9648129,52.6098378 C69.9648129,50.5539656 68.3205275,48.892748 66.281248,48.892748 C64.2419662,48.892748 62.5884954,50.5539656 62.5884954,52.6098378 Z M78.2321669,52.6098378 C78.2321669,54.6565325 79.8856377,56.3177501 81.9249196,56.3177501 C83.964199,56.3177501 85.6176698,54.6565325 85.6176698,52.6098378 C85.6176698,50.5539656 83.964199,48.892748 81.9249196,48.892748 C79.8856377,48.892748 78.2321669,50.5539656 78.2321669,52.6098378 Z M35.7195955,67.000943 L26.3131838,67.000943 L35.7195955,57.8871888 L35.7195955,42.0459606 C35.7195955,39.9258418 37.4281808,38.2095551 39.5409502,38.2095551 L83.578388,38.2095551 C78.0760064,36.6492938 72.6746684,35.1073896 67.411118,33.6205547 C67.6223954,33.4369947 67.8244874,33.2534347 68.0357648,33.0790521 C73.8963991,34.7494494 79.9315669,36.4565564 86.0953392,38.2095551 L92.1580654,38.2095551 C93.8942092,38.2095551 95.3547757,39.3751618 95.8140743,40.9721328 C113.772603,46.0751012 132.603799,51.4166988 151.333947,56.7307619 C151.297206,56.9602113 151.269647,57.1896608 151.269647,57.4282876 C132.612984,52.1325817 113.855276,46.8093413 95.9610495,41.72473 C95.9610495,41.834866 95.9702348,41.9358222 95.9702348,42.0459606 L95.9702348,63.1645399 C95.9702348,63.3022081 95.9610495,63.4307013 95.9518617,63.5591945 C113.625627,68.5795592 132.135315,73.8293756 150.571515,79.0700147 C150.360238,73.1502047 155.577857,66.413551 155.807505,66.119855 C155.81669,66.1106775 155.835063,66.1015001 155.844248,66.0923204 C155.835063,66.083143 155.835063,66.083143 155.825878,66.0739655 C155.045073,65.4039721 154.282638,63.6142613 154.135663,62.0631798 C153.988688,60.5396305 154.484728,59.832925 155.247162,60.457029 C155.440067,62.1457812 155.697273,64.1098722 156.009597,66.0005415 C156.009597,66.0005415 156.018782,66.0005415 156.018782,66.0005415 C156.064711,66.2575256 156.11064,66.523687 156.165757,66.780671 C155.228789,68.0564137 150.957324,74.1506062 151.269647,79.2627521 C154.576589,80.1989094 157.874343,81.1350643 161.162913,82.0712215 C161.309889,82.3557401 161.466049,82.631079 161.613024,82.9155976 C158.195851,81.9427283 154.769493,80.9698614 151.333947,79.9969922 C152.179057,85.5863964 157.65388,86.5776182 157.892716,86.6143325 C158.076435,86.6510422 158.195851,86.8254248 158.168293,87.0089848 C158.140737,87.1833674 157.993762,87.2935034 157.837601,87.2935034 C157.819228,87.2935034 157.79167,87.2935034 157.773299,87.2935034 C157.718182,87.284326 151.480922,86.1737885 150.635817,79.9602802 C150.635817,79.9052133 150.626629,79.8501442 150.617444,79.7950773 C132.12613,74.5452609 113.55214,69.2770872 95.8140743,64.2383654 C95.3547757,65.8353387 93.8942092,67.000943 92.1580654,67.000943 L35.7195955,67.000943 Z M191.678634,74.5085489 C192.027702,74.7104637 192.431883,74.8205997 192.900367,74.8205997 C193.653614,74.8205997 194.572209,74.5360811 195.637779,73.9762236 C196.712537,73.6733502 197.778105,72.7922621 198.310891,71.6725449 C199.009023,70.1948873 198.485424,68.8824326 197.153462,68.7355846 C195.821498,68.5887366 194.1864,69.6717419 193.488268,71.140222 C192.909553,72.3792527 193.185132,73.4989676 194.076169,73.9119794 C193.203503,74.1964957 192.514556,74.2056754 192.036887,73.9211568 C191.12748,73.3704768 191.182594,71.8836395 191.182594,71.8193929 C191.200967,71.7184366 191.595962,68.8640778 194.563024,66.8816296 C194.755928,66.5879336 194.976391,66.3125924 195.233597,66.0739655 C195.316273,66.0005415 195.408131,65.9271175 195.499989,65.8628709 C195.398946,65.7435575 195.224412,65.6976681 195.077437,65.7710921 C190.971317,67.9187431 190.521206,71.5899434 190.512021,71.7459689 C190.512021,71.7551486 190.512021,71.7551486 190.512021,71.7551486 C190.512021,71.764326 190.502833,71.764326 190.502833,71.764326 C190.502833,71.8469275 190.401789,73.728417 191.678634,74.5085489 Z M49.3974728,105.576081 C49.0208495,105.557726 48.5982947,105.07129 48.1389984,104.245271 L47.3673787,104.245271 C48.0563254,105.548546 48.6901553,106.236897 49.360729,106.264432 C50.012932,106.291966 50.5549035,105.759641 51.0509436,104.621569 C51.1152458,104.493076 51.1795481,104.373762 51.2438479,104.245271 L50.4814159,104.245271 C50.4630429,104.281983 50.4446721,104.309518 50.4262991,104.346228 C50.0772342,105.153892 49.7097962,105.612793 49.3974728,105.576081 Z M29.1883853,108.283592 C29.877332,108.191811 30.2998845,107.283188 30.6122079,105.227316 C31.7696363,97.6462883 36.1972648,87.7524023 39.5225795,87.4587062 C40.6616348,87.3485726 41.6353466,88.4591101 42.4161516,90.7444317 C42.7560335,91.7356558 43.0867253,92.708525 43.3990488,93.6538574 L43.3990488,91.5245612 C43.2888174,91.1849757 43.178586,90.8545677 43.0591692,90.5241597 C42.1589451,87.8992503 40.9463998,86.6418648 39.4582773,86.7703579 C35.5083181,87.1283006 31.025575,97.9766963 29.9416342,105.117182 C29.5833816,107.475928 29.1608292,107.595241 29.1057123,107.604419 C28.4626947,107.659488 26.9837575,104.181025 25.9090021,101.620362 C25.8814437,101.546938 25.8446999,101.464337 25.8171414,101.381735 C25.7252831,101.758033 25.6334248,102.13433 25.5415641,102.510628 C27.1858496,106.392922 28.1411883,108.402905 29.1883853,108.283592 Z M131.611716,115.056955 C130.086848,115.102847 129.71941,116.754885 129.425459,118.085697 C129.22337,118.975962 129.021278,119.884585 128.571167,120.04061 C128.323146,120.123212 127.808732,120.04061 126.75235,119.150345 C125.356086,117.984738 124.336445,116.525435 123.436221,115.240515 C121.543917,112.533007 119.918004,110.201793 115.940487,112.009859 C114.91166,112.477938 113.827719,113.01944 112.78052,113.542586 C108.242663,115.809552 103.548642,118.149941 101.573662,115.387363 C100.609138,114.038197 100.37949,111.73452 100.140654,109.30235 C99.9753085,107.613598 99.8007749,105.823888 99.3414786,104.245271 L98.6341588,104.245271 C99.1026428,105.777998 99.2863618,107.586064 99.4608954,109.366595 C99.718102,111.899723 99.9477501,114.286003 101.022506,115.782018 C103.337365,119.021852 108.297777,116.543793 113.083658,114.157512 C114.12167,113.634367 115.196425,113.092864 116.216066,112.633963 C119.679168,111.064527 121.020318,112.982728 122.875879,115.625992 C123.803659,116.956802 124.850858,118.452817 126.311425,119.682668 C127.38618,120.582113 128.166985,120.894164 128.79163,120.692249 C129.599993,120.416908 129.838829,119.361439 130.086848,118.241722 C130.417542,116.745707 130.711492,115.77284 131.630087,115.745306 C133.081468,115.690239 133.430533,116.415299 134.082736,117.700219 C134.431801,118.38857 134.835985,119.177877 135.488186,120.031433 C135.607602,119.811161 135.727022,119.590889 135.846438,119.361439 C135.332025,118.654732 134.98296,117.975561 134.68901,117.388169 C134.018434,116.057359 133.476462,115.020243 131.611716,115.056955 Z M87.2619553,108.999475 C86.5087063,109.192212 85.5992991,108.843449 84.4602391,107.925649 C82.8618852,106.631552 81.8789881,105.374164 81.2175997,104.245271 L80.4367947,104.245271 C81.1165561,105.511834 82.1821238,106.96196 84.0376866,108.457972 C85.3512779,109.522623 86.4627771,109.917275 87.4364889,109.660291 C89.0256575,109.238104 89.8432063,107.209764 90.7066843,105.062113 C90.8169181,104.786772 90.9363348,104.52061 91.0465662,104.245271 L90.3116903,104.245271 C90.2290173,104.438009 90.1555298,104.621569 90.0820422,104.805129 C89.282864,106.796755 88.529615,108.659889 87.2619553,108.999475 Z M284.980319,153.962501 C283.795332,154.118527 282.794062,155.274956 281.829538,156.385493 C280.883385,157.477676 279.872931,158.606568 278.917593,158.560679 C278.311319,158.542324 277.695862,158.10178 277.043659,157.211512 C275.619837,155.302488 274.976821,153.338397 274.45322,151.759781 C273.755088,149.639662 273.194746,147.969267 271.164652,148.363922 C269.621413,148.666795 269.272345,151.172389 268.941651,153.586204 C268.730376,155.146463 268.463982,157.073844 267.85771,157.257404 C267.664804,157.312471 267.187137,157.22987 266.176681,156.018373 C264.706929,154.256197 263.632174,151.961698 262.686021,149.933358 C261.89603,148.235429 261.17034,146.684347 260.306859,145.628877 C260.426278,146.032709 260.536507,146.454898 260.637553,146.867907 C260.701856,147.134069 260.775343,147.418587 260.839645,147.712283 C261.243827,148.464878 261.648009,149.327611 262.070561,150.227054 C263.035085,152.292104 264.128214,154.632495 265.653083,156.458917 C266.635977,157.642879 267.398412,158.10178 268.050615,157.909043 C269.079441,157.615347 269.327462,155.788924 269.621413,153.677983 C269.906178,151.603756 270.227684,149.24501 271.293254,149.043093 C272.680333,148.767752 273.066144,149.740621 273.80102,151.970876 C274.342989,153.595381 275.013563,155.623719 276.492502,157.624524 C277.282493,158.689172 278.0633,159.221495 278.890034,159.24903 C280.19444,159.294919 281.287566,158.046711 282.343951,156.835215 C283.225802,155.816456 284.135212,154.770165 285.072177,154.641672 C287.570755,154.292909 288.360748,158.367942 288.369934,158.413831 C288.434236,158.69835 289.325272,162.865161 290.840953,166.527184 C290.941999,166.178421 291.052231,165.820478 291.153277,165.462536 C289.839685,162.011607 289.049693,158.340407 289.040507,158.28534 C289.003763,158.083423 288.112727,153.531135 284.980319,153.962501 Z M118.705457,156.146867 C82.4117743,145.839971 47.927721,136.047044 22.4642707,128.805602 C22.4550853,129.044228 22.4550853,129.282858 22.4550853,129.512307 C47.9369063,136.753749 82.3015429,146.519142 118.439065,156.780148 C118.530925,156.569053 118.613598,156.357959 118.705457,156.146867 Z M227.265002,186.920703 C227.237443,187.15933 227.219072,187.388779 227.200699,187.618231 C231.766118,188.912328 236.230488,190.178891 240.55707,191.399567 L240.354978,190.628615 C236.111071,189.426296 231.729372,188.187266 227.265002,186.920703 Z M266.571677,198.751145 C270.053153,199.733192 273.378465,200.669347 276.529246,201.559612 C276.639477,201.357697 276.749709,201.146603 276.85994,200.944688 C273.562184,200.008531 270.071523,199.026486 266.415515,197.989371 C266.461446,198.228 266.516561,198.484984 266.571677,198.751145 Z M294.974631,97.3617697 C275.426932,91.8825038 240.933694,82.1262884 201.755622,71.030086 C201.682135,71.250358 201.590274,71.4614526 201.48923,71.6633674 C240.89695,82.8329938 275.573907,92.635101 295.103234,98.1051872 C295.057304,97.8573829 295.020561,97.6095763 294.974631,97.3617697 Z M262.814623,113.478339 C263.209619,113.928063 265.460176,112.569716 267.820967,110.4496 C270.19094,108.320304 271.789296,106.236897 271.385115,105.787176 C270.980933,105.328274 268.739561,106.686619 266.369585,108.815915 C263.999612,110.936033 262.410443,113.01944 262.814623,113.478339 Z M262.82381,111.569315 C251.791484,108.457972 239.35371,104.9428 225.99734,101.161463 C225.188976,100.684207 224.380612,100.216129 223.572249,99.7572297 C238.040119,103.859794 251.497534,107.659488 263.329036,111.00028 C263.329036,111.009457 263.329036,111.009457 263.329036,111.009457 C263.430082,110.908499 263.521942,110.80754 263.622986,110.715761 L268.565028,106.282786 C271.284069,103.83226 275.472861,104.070889 277.897952,106.815112 L279.735142,108.880161 C276.777265,115.139557 271.440229,119.930474 264.927392,122.169906 L263.090202,120.104857 C260.922318,117.663507 260.885575,114.056554 262.832996,111.569315 C262.832996,111.569315 262.82381,111.569315 262.82381,111.569315 Z M292.760818,119.297193 L292.154545,119.829516 C293.927432,120.325129 295.599276,120.802385 297.151701,121.233749 C297.151701,120.995122 297.151701,120.756496 297.151701,120.517866 C295.77381,120.132389 294.304058,119.728559 292.760818,119.297193 Z M265.607151,188.022063 C271.192208,189.600679 276.400642,191.069159 281.140591,192.399969 C281.241637,192.188874 281.333496,191.977782 281.434542,191.766687 C276.593548,190.408343 271.265696,188.903151 265.552037,187.297 C265.57041,187.535627 265.58878,187.774256 265.607151,188.022063 Z M228.835799,177.623386 C231.802859,178.467765 234.723992,179.293783 237.599194,180.101448 L237.397104,179.330495 C234.641319,178.559543 231.839605,177.761057 229.001145,176.96257 C228.946031,177.182842 228.890914,177.403114 228.835799,177.623386 Z M122.35228,147.436942 C85.0113984,136.836353 49.2872414,126.685483 22.9235693,119.196234 C22.9511254,118.957605 22.9786838,118.728156 22.9970569,118.498706 C49.3331706,125.987955 85.1675589,136.166357 122.627857,146.794483 C122.535999,147.014755 122.444138,147.21667 122.35228,147.436942" id="Shape" fill="#F9D291" fill-rule="nonzero"></path>
                <g id="Clipped" transform="translate(3.000000, 0.000000)">
                    <mask id="mask-6" fill="white">
                        <use xlink:href="#path-5"></use>
                    </mask>
                    <g id="Path"></g>
                    <path d="M280.095616,113.70837 C279.683711,113.562247 279.280959,113.416124 278.88736,113.251736 C278.493761,113.078215 278.100164,112.913825 277.724871,112.712907 C277.00175,112.338467 276.315241,111.918362 275.784339,111.297339 L275.903336,111.096421 L276.49831,109.954835 L276.763759,109.379475 L276.901062,109.087229 L276.965134,108.941106 L276.992595,108.858912 L277.010903,108.831514 L277.029209,108.794983 C276.974289,108.767584 277.148205,108.849778 276.910215,108.731054 C276.681379,108.621461 276.84614,108.703655 276.79122,108.685391 L276.782067,108.694523 L276.754606,108.749318 L276.717993,108.813247 L276.635612,108.950238 L276.480002,109.233352 L276.177938,109.781314 L275.509737,110.85897 L274.814075,111.90923 L274.063491,112.922959 C273.029151,114.247199 271.894123,115.480113 270.630948,116.5943 C269.395231,117.717622 268.040521,118.703952 266.612582,119.580691 L265.523321,120.210846 L264.406601,120.786206 L263.271571,121.325035 L262.68575,121.571619 L262.392839,121.690343 L262.246384,121.75427 L262.173156,121.781669 L262.118237,121.809067 L262.109084,121.809067 C262.12739,121.882129 262.054162,121.672076 262.154851,121.95519 C262.255539,122.256569 262.182312,122.037384 262.209773,122.110446 L262.209773,122.101314 L262.218925,122.101314 L262.237231,122.092181 L262.273845,122.083049 L262.511836,122.009988 L263.418026,121.708607 L264.607976,121.242839 L265.779618,120.69488 L266.914646,120.101254 C268.406659,119.251914 269.797983,118.238185 271.088619,117.096599 C272.351795,115.936746 273.523436,114.65817 274.521164,113.260868 L275.244288,112.201476 L275.592118,111.607852 C275.756881,111.954893 276.004022,112.256271 276.278627,112.521121 C276.617304,112.849898 277.010903,113.105613 277.413655,113.324798 C277.82556,113.53485 278.24662,113.70837 278.695138,113.817962 C279.134504,113.936686 279.592175,114.018882 280.049849,114.009748 C280.113921,114.009748 280.168843,113.964085 280.196304,113.900158 C280.223765,113.817962 280.177996,113.726636 280.095616,113.70837 Z M301.551306,90.9040405 C301.212629,90.6117943 300.855644,90.3652111 300.471198,90.155161 C300.425431,90.1277623 300.370511,90.1277623 300.324742,90.1642931 C300.269823,90.2099559 300.269823,90.2921496 300.306437,90.3469469 C300.581041,90.693988 300.883105,90.9953662 301.148554,91.315011 C301.414004,91.6255237 301.6703,91.936034 301.862522,92.2830774 C302.063899,92.6118543 302.201202,92.9771619 302.274429,93.3516017 C302.347657,93.7260415 302.338504,94.1096157 302.22866,94.4931875 L302.22866,94.5023196 C302.210354,94.5571169 302.22866,94.6301785 302.283582,94.6667092 C302.35681,94.7215042 302.448343,94.7123721 302.503265,94.6393106 C302.796175,94.2648708 302.896864,93.7534401 302.869403,93.2785402 C302.851097,92.8036402 302.686334,92.3378724 302.448343,91.9269019 C302.201202,91.5341956 301.899138,91.1871545 301.551306,90.9040405 Z M312.050315,77.2506666 C311.821477,77.1228101 311.986241,77.2141358 311.931321,77.1867372 L311.931321,77.1958716 L311.913013,77.2141358 L311.894705,77.2506666 L311.766558,77.451587 L311.601795,77.7164344 L311.263117,78.2461317 L310.558302,79.2781252 L309.816873,80.2918545 L309.038828,81.2781828 C307.97703,82.565894 306.832847,83.7805414 305.578825,84.8764643 C304.343108,85.9997859 303.006705,86.9952486 301.615381,87.9085178 L300.55358,88.5752036 L299.473472,89.1962266 L298.365905,89.7807189 L297.798392,90.0547008 L297.377332,90.2556188 L297.249183,90.3195482 L297.24003,90.3286803 C297.267491,90.3926098 297.175955,90.1825573 297.294952,90.4748034 C297.413946,90.7579174 297.331565,90.5478649 297.359026,90.6117943 L297.368179,90.6026622 L297.386485,90.6026622 L297.423099,90.5843957 L297.496326,90.556997 L297.944847,90.3926098 L298.539821,90.155161 L299.693155,89.6345958 L300.828183,89.0501036 L301.93575,88.4199485 C303.391149,87.5432101 304.755015,86.5112166 306.027343,85.387895 C307.281365,84.2371771 308.462162,82.9951311 309.487349,81.6343583 L310.237931,80.6023648 L310.933593,79.5338405 L311.574336,78.4379176 L311.876399,77.8716896 L312.022854,77.5885779 L312.096082,77.451587 L312.132696,77.3785254 L312.160157,77.314596 C312.114388,77.2871973 312.279151,77.3693933 312.050315,77.2506666 Z M265.505015,25.7879536 C265.321944,25.7879536 265.166336,25.9432087 265.166336,26.1258626 L265.166336,42.6377682 C265.166336,42.7382284 265.212105,42.8386862 265.285332,42.9026157 L272.598938,49.1767751 C272.663013,49.2315701 272.745394,49.2589687 272.818621,49.2589687 C272.91931,49.2589687 273.010843,49.2133058 273.084071,49.1402443 C273.203067,48.9941213 273.184759,48.7749367 273.047459,48.6562123 L265.843692,42.4825107 L265.843692,26.1258626 C265.843692,25.9432087 265.697237,25.7879536 265.505015,25.7879536 Z M277.853021,22.5093168 C275.454815,21.1942093 272.818621,20.3083389 270.118355,19.9247647 C264.717817,19.1302199 259.006063,20.2992044 254.429338,23.3495244 C249.843459,26.3541792 246.392608,31.0392492 244.900595,36.327078 C243.35366,41.6057723 243.893714,47.4232984 246.218692,52.3732158 C248.543668,57.3231356 252.671875,61.4237134 257.687966,63.5790285 C260.196011,64.6658193 262.887127,65.2868423 265.596549,65.4238309 C268.30597,65.6156192 271.042853,65.2137808 273.63328,64.4009695 C273.697352,64.3827053 273.733966,64.3096438 273.715661,64.2365822 C273.697352,64.1726528 273.624125,64.1269899 273.550897,64.1543886 C270.987931,64.9306668 268.287664,65.2777079 265.614854,65.0585233 C262.951202,64.894136 260.315008,64.2548465 257.880188,63.1589235 C252.973938,61.0218749 248.955575,56.9852266 246.703825,52.135767 C244.452074,47.3045716 243.948636,41.6240389 245.477261,36.4914653 C246.950968,31.358894 250.337744,26.810815 254.795476,23.9157501 C259.225746,20.9476261 264.772739,19.7877737 270.026819,20.5366556 C272.663013,20.9019632 275.225979,21.7513029 277.56011,23.0298797 C279.903394,24.3084564 281.999534,26.0345345 283.738691,28.052861 C287.235308,32.0986414 289.184992,37.423001 289.184992,42.7930234 C289.2033,48.1539137 287.198694,53.4965374 283.647155,57.5423202 C283.592235,57.6062473 283.601388,57.6975754 283.665463,57.7615048 C283.729535,57.8162998 283.821071,57.8071677 283.885146,57.7432382 C287.519065,53.6883233 289.642666,48.2817702 289.679562,42.7930234 C289.706739,37.3134087 287.729593,31.8429261 284.159748,27.6875533 C282.383977,25.6144318 280.242071,23.8335565 277.853021,22.5093168 Z M79.1041266,76.5383178 L57.9871158,76.5017871 L47.4148787,76.5017871 C46.4903807,76.4743884 45.501808,76.7666345 44.7512238,77.3602589 C44.0006419,77.9447511 43.4331267,78.7849587 43.231752,79.7256265 C43.1219106,80.2005264 43.1219106,80.6936906 43.1310634,81.1229276 L43.1310634,82.4471673 L43.1402163,85.0956489 L43.1676772,101.01393 L43.1676772,101.671484 C43.1768301,101.908933 43.1859853,102.146384 43.231752,102.383833 C43.3141325,102.849601 43.4788958,103.306236 43.7168843,103.717207 C44.1837109,104.539148 44.9526009,105.178437 45.8496379,105.507214 C46.2890036,105.671602 46.7558302,105.76293 47.2318097,105.76293 L48.5499067,105.76293 L51.1952536,105.753795 L56.4767945,105.753795 L67.0307259,105.735531 L109.283058,105.616807 C109.356286,105.616807 109.411205,105.562009 109.411205,105.488948 C109.411205,105.415886 109.356286,105.351959 109.283058,105.351959 L67.0307259,105.233232 L56.4767945,105.2241 L51.1952536,105.214968 L48.5499067,105.214968 L47.2318097,105.205836 C46.8290578,105.205836 46.4171531,105.12364 46.032707,104.986651 C45.2729699,104.703537 44.6047685,104.146442 44.2020167,103.434093 C44.0006419,103.077917 43.8633396,102.685211 43.7992648,102.283375 C43.7534981,102.082454 43.7443453,101.881534 43.7351901,101.671484 L43.7351901,101.01393 L43.762651,85.0956489 L43.7718062,82.4471673 L43.7718062,81.1229276 C43.7718062,80.6662942 43.7718062,80.2735879 43.8633396,79.8717495 C44.2111719,78.273528 45.7672575,77.0680128 47.4148787,77.1684729 L57.9871158,77.1684729 L79.1041266,77.1410743 L94.9487517,77.1136756 L97.5849458,77.1045435 L98.912198,77.1045435 C99.3515637,77.1136756 99.8000822,77.0862793 100.184526,77.1410743 C101.832147,77.3419947 103.196011,78.8488881 103.223472,80.5201712 L103.24178,85.8079976 L103.278394,96.4201859 C103.278394,96.4749809 103.2967,96.5297782 103.342466,96.5754411 L110.408933,103.3245 C110.463853,103.379298 110.564541,103.379298 110.619461,103.3245 C110.683535,103.260571 110.674383,103.160113 110.619461,103.105316 L103.699451,96.3288579 L103.74522,85.8079976 L103.74522,80.4927725 C103.708604,78.5840407 102.161672,76.8396961 100.266906,76.6113794 C99.7817741,76.5474499 99.3424085,76.5657165 98.912198,76.5657165 L97.5849458,76.5657165 L94.9487517,76.556582 L89.6672108,76.5474499 L79.1041266,76.5383178 Z M23.030084,68.7481328 L47.6437144,68.7481328 L72.2665001,68.7115997 L84.5687389,68.7024676 L87.6442986,68.6933355 C88.1660448,68.6842034 88.6603323,68.7207342 89.2278451,68.6385382 C89.7678994,68.5654767 90.2896455,68.3736908 90.7564721,68.0814446 C91.690123,67.5060868 92.3857853,66.5380204 92.6054682,65.460364 C92.66039,65.1955142 92.687851,64.9124002 92.687851,64.6384206 L92.6970039,63.8712746 L92.687851,62.3187183 L92.642082,49.9621853 L92.6146234,43.779354 C92.6512348,42.7108297 92.2576382,41.6149068 91.507054,40.8477607 C90.765625,40.0623481 89.7038246,39.6057147 88.6328714,39.6239789 C88.5504886,39.6239789 88.477261,39.6879084 88.477261,39.7792341 C88.477261,39.8614301 88.5504886,39.9344916 88.6328714,39.9344916 C89.6214441,39.9253572 90.5917088,40.3545942 91.2599102,41.0760774 C91.9464197,41.7975606 92.294252,42.7747568 92.2576382,43.779354 L92.2301772,49.9621853 L92.1844106,62.3187183 L92.1844106,63.8712746 L92.1752577,64.6384206 C92.1752577,64.8758718 92.1477968,65.1133206 92.1020301,65.3507694 C91.900653,66.2914372 91.3056792,67.1407792 90.4818674,67.6339434 C90.0791156,67.8896587 89.6214441,68.054046 89.1454647,68.1179754 C88.6877909,68.1819048 88.1568919,68.1545062 87.6442986,68.1545062 L84.5687389,68.1545062 L72.2665001,68.136242 L47.6437144,68.0997112 L23.8172796,68.0997112 L32.604593,59.5697765 C32.6595149,59.5149815 32.6961287,59.44192 32.6961287,59.359724 L32.6686678,43.7336911 C32.6229011,42.5007772 33.236183,41.3135262 34.2522167,40.6377082 C34.7556547,40.3089314 35.3414756,40.0897468 35.9456046,40.053216 C36.5497312,40.0258174 37.2270878,40.0440839 37.8678282,40.0349518 L45.639108,40.0166852 L76.7516902,39.9070929 C76.8157649,39.9070929 76.8798397,39.8431635 76.8798397,39.7792341 C76.8798397,39.7061726 76.8157649,39.6422455 76.7516902,39.6422455 L45.639108,39.5235211 L37.8678282,39.5143866 C37.2087797,39.5235211 36.586345,39.4961224 35.8998356,39.5235211 C35.2133285,39.569184 34.5359719,39.8157672 33.9593062,40.190207 C32.7968173,40.9482186 32.073694,42.3546542 32.1286159,43.7336911 L32.101155,59.2318675 L22.8104011,68.1910369 C22.7463264,68.2549664 22.7097126,68.33716 22.7097126,68.4284881 C22.7097126,68.6020098 22.8561678,68.7481328 23.030084,68.7481328 Z M144.066174,41.5053145 C144.954058,43.3866477 146.601679,44.4825706 148.633747,44.738286 C147.370569,46.3273754 147.031892,48.6288136 147.791627,50.4553518 C148.203534,51.4508146 149.118879,52.3823503 150.180679,53.0490361 C149.539936,53.7796514 149.137185,54.7933807 149.137185,55.9167 C149.137185,58.1359445 150.702425,59.9350841 152.624649,59.9350841 C152.679571,59.9350841 152.734493,59.925952 152.789412,59.9168199 C152.679571,58.6747739 152.59719,57.4783908 152.560577,56.3276728 C152.551421,56.0810896 152.551421,55.8345064 152.551421,55.5879231 C152.633804,55.5970576 152.707032,55.6153218 152.789412,55.6153218 C154.034282,55.6153218 155.205924,54.6289911 155.800897,53.2408221 C155.956508,52.9120452 156.075502,52.5467375 156.14873,52.1631657 C156.240263,52.1722978 156.322646,52.190562 156.414179,52.190562 C158.226564,52.190562 159.691116,50.7110672 159.691116,48.8936611 C159.691116,48.6744765 159.672808,48.464424 159.627041,48.2543715 C161.6408,48.3091688 164.020698,47.2954395 164.670594,45.3775755 C165.521864,46.2999768 166.858267,46.7292138 168.103136,46.4826306 C169.348005,46.2360473 170.803405,45.6058922 171.343459,44.4095091 C172.972772,46.2817102 176.872144,47.9347291 179.059817,46.6287537 C177.888175,50.0717776 179.023205,53.4417401 182.428287,54.1723554 C183.471782,56.6747139 185.705224,58.2911997 188.295651,58.9030906 C186.849405,60.9944763 189.183535,65.2777079 191.316289,66.4284281 C191.581739,66.5745512 191.856343,66.6841435 192.149254,66.7846037 C192.314015,66.5471525 192.506239,66.3371024 192.707614,66.136182 C193.632112,65.2777079 194.959364,64.8393387 196.195078,65.0767898 C196.826668,65.1955142 197.394181,65.4877603 197.879313,65.8987332 C198.968575,65.2229129 199.88392,64.3005117 200.38736,63.1863222 C203.627683,62.693158 206.785623,58.5925803 207.170067,55.240882 C209.22044,55.9075679 211.691873,55.0764924 213.037429,53.2682207 C214.373834,51.4508146 214.60267,48.6744765 213.403567,46.8479382 C214.620978,45.5967601 215.151877,43.6880283 214.739972,42.0258773 C214.328067,40.3545942 212.817746,39.6970405 211.188433,39.2860699 C212.652985,36.2448844 211.52711,31.4867529 209.128907,29.3314354 C210.318854,27.5505624 210.611765,25.2034613 209.90695,23.2399321 C209.192982,21.276403 207.545358,19.8608352 205.549907,19.413334 C205.943506,17.6872559 205.513293,15.8150525 204.414879,14.4999449 C203.325617,13.1939718 201.540694,12.8195298 199.829,12.9747873 C200.524662,10.7555427 197.861007,8.04313403 195.627565,7.99746882 C194.538304,4.19826929 189.540521,2.57265143 185.93406,4.18000508 C185.201783,2.92882697 184.414588,1.62285155 183.15141,0.947033569 C181.897388,0.271213253 179.169661,1.07489008 178.483151,2.39912971 C177.485426,0.937899124 175.673041,0.115958088 173.915578,0.326008231 C172.148963,0.545192819 170.327425,0.947033569 169.576844,2.6183143 C167.31594,1.55892212 164.121384,1.97902709 162.190008,3.72337169 C159.224289,4.21653584 156.963386,7.63216117 157.631588,10.6094197 C154.665869,10.4358979 152.633804,12.9291244 151.215019,15.687196 C149.539936,15.5958679 148.029618,17.0844971 147.48041,18.7466481 C146.92205,20.3996646 147.489563,22.3357951 147.663479,24.0527411 C145.393424,24.0710053 143.535272,26.3176485 143.086754,28.6282188 C142.638235,30.938789 143.672575,33.1580336 144.267548,35.3955423 C143.251515,37.2677458 143.169134,39.633111 144.066174,41.5053145 Z M155.059468,282.206523 L138.638175,277.000888 L122.198579,271.859185 L89.3285337,261.584905 L39.9548152,246.351576 L23.4694496,241.337729 C23.4053749,241.319465 23.3321473,241.355994 23.3138415,241.419923 C23.2955335,241.492985 23.3321473,241.566046 23.396222,241.584313 L39.8175152,246.789946 L56.2479588,251.940783 L89.1271566,262.233327 L122.033815,272.398012 L138.49172,277.475788 L154.967933,282.498769 C155.050315,282.517033 155.132696,282.471371 155.160157,282.398309 C155.178463,282.316115 155.141849,282.224787 155.059468,282.206523 Z M214.8132,258.114483 L157.622435,281.969072 L143.306437,182.176155 C143.288131,182.048298 143.196595,181.929574 143.059293,181.902175 L1.73000175,144.439877 C1.65677413,144.421611 1.58354652,144.467274 1.56524079,144.531203 C1.54693272,144.604265 1.59270173,144.677326 1.65677413,144.69559 L142.684002,182.486668 L157.146455,282.389177 C157.146455,282.407441 157.146455,282.43484 157.155608,282.453106 C157.219683,282.590095 157.375291,282.654024 157.512593,282.599229 L214.932194,258.397597 C215.014574,258.370198 215.051191,258.278872 215.014574,258.196679 C214.987116,258.114483 214.89558,258.077952 214.8132,258.114483 Z M181.61363,175.390567 C181.686859,175.344904 181.705166,175.244444 181.668552,175.171383 C180.432836,173.098261 179.297808,170.970345 178.272621,168.787631 C177.247435,166.614049 176.322937,164.394807 175.526586,162.120767 C174.711929,159.85586 174.034573,157.536155 173.457907,155.198186 C172.890392,152.860217 172.43272,150.485718 172.084888,148.092954 C172.075735,148.029024 172.020813,147.974227 171.947586,147.983359 C171.874358,147.992494 171.828591,148.056421 171.828591,148.12035 C172.029966,150.540513 172.386951,152.951543 172.908698,155.326045 C173.412138,157.709677 174.098647,160.047646 174.885843,162.339952 C175.709655,164.632256 176.643306,166.878899 177.732567,169.052478 C178.812675,171.235192 180.048392,173.33571 181.403101,175.33577 C181.44887,175.408832 181.540403,175.427098 181.61363,175.390567 Z M203.874825,245.310451 C203.664295,245.429175 203.481228,245.58443 203.307312,245.74882 C203.133396,245.913207 202.977787,246.095861 202.831332,246.278515 C202.69403,246.470301 202.556727,246.671221 202.456041,246.881274 C202.346198,247.091326 202.245511,247.310511 202.181437,247.557092 C202.172284,247.593622 202.181437,247.639285 202.208898,247.666684 C202.254664,247.730613 202.337045,247.74888 202.401119,247.694083 C202.593341,247.547959 202.758105,247.383572 202.922866,247.219183 C203.087629,247.054793 203.224929,246.872142 203.371384,246.69862 C203.508686,246.515966 203.645989,246.333312 203.764983,246.132392 C203.893133,245.940606 204.012127,245.739685 204.10366,245.511369 C204.121968,245.465706 204.121968,245.420043 204.094507,245.374378 C204.048741,245.292184 203.957205,245.264788 203.874825,245.310451 Z M171.361765,243.885751 C171.682136,243.365188 171.965894,242.817224 172.249649,242.269265 C172.533407,241.721301 172.789703,241.164208 173.046,240.607114 C173.293144,240.040886 173.531135,239.483793 173.750817,238.908435 C173.9705,238.333075 174.190183,237.748582 174.364097,237.154958 C174.382405,237.100161 174.364097,237.045363 174.309177,237.008835 C174.245103,236.972302 174.171875,236.990568 174.126108,237.054498 C173.805737,237.575061 173.512826,238.123022 173.229069,238.670984 C172.945314,239.209813 172.679862,239.766907 172.423565,240.324 C172.176421,240.881096 171.92928,241.447322 171.700444,242.022682 C171.480761,242.588908 171.261079,243.164268 171.078007,243.757892 C171.059701,243.821821 171.087162,243.904015 171.142082,243.940546 C171.21531,243.986209 171.315998,243.958812 171.361765,243.885751 Z M180.085003,236.360413 C180.011776,236.342147 179.938548,236.38781 179.920243,236.470006 L179.91109,236.470006 C179.874476,236.661792 179.847015,236.826179 179.819554,236.990568 L179.654793,237.958635 C179.636485,238.123022 179.599871,238.287409 179.581565,238.479198 L179.581565,238.48833 C179.581565,238.524861 179.590718,238.570523 179.618179,238.607054 C179.673099,238.680116 179.773787,238.68925 179.847015,238.634453 C180.020931,238.506594 180.130773,238.342207 180.222306,238.159553 C180.322994,237.976899 180.377914,237.785113 180.405375,237.584193 C180.432836,237.383275 180.441989,237.173222 180.396222,236.972302 C180.350455,236.780516 180.286381,236.579598 180.167386,236.415208 C180.149078,236.38781 180.12162,236.369545 180.085003,236.360413 Z M184.771571,238.442667 C185.339086,237.766847 185.87914,237.072762 186.455806,236.442607 C187.041627,235.803317 187.664064,235.218825 188.387185,234.798723 C189.082847,234.351221 189.897503,234.095506 190.730468,233.912852 C191.563433,233.73933 192.433011,233.648005 193.30259,233.511014 C193.375817,233.501882 193.430737,233.437952 193.430737,233.364891 C193.43989,233.282697 193.366662,233.209636 193.284282,233.200501 C192.40555,233.173102 191.517666,233.191369 190.620627,233.32836 C189.732743,233.456216 188.835705,233.73933 188.030202,234.223362 C187.252157,234.716529 186.583955,235.355816 186.025595,236.068167 C185.467235,236.771384 184.991253,237.520266 184.561043,238.296544 C184.524429,238.351339 184.533582,238.415268 184.588504,238.460931 C184.643424,238.506594 184.725804,238.497462 184.771571,238.442667 Z M200.65281,237.84904 C200.350746,237.995163 200.076142,238.186952 199.819847,238.38787 C199.563548,238.607054 199.32556,238.835373 199.133338,239.100221 C198.922808,239.365068 198.748892,239.648182 198.629897,239.958693 C198.611589,240.004358 198.620745,240.059153 198.648205,240.095683 C198.703125,240.150481 198.785505,240.159613 198.840427,240.113948 L199.545243,239.502059 C199.783231,239.310271 200.002914,239.109353 200.250058,238.917567 C200.478896,238.734913 200.726037,238.552259 200.964028,238.369605 C201.202017,238.186952 201.458313,238.01343 201.71461,237.812512 C201.751224,237.785113 201.778685,237.721184 201.769532,237.666389 C201.760377,237.584193 201.677996,237.520266 201.586463,237.53853 C201.266091,237.584193 200.954873,237.712052 200.65281,237.84904 Z M148.121153,126.39368 C148.331681,126.658527 148.560519,126.90511 148.844274,127.087762 C148.890041,127.124295 148.954116,127.133427 149.009037,127.096896 C149.082265,127.060365 149.109724,126.959905 149.073112,126.886844 L148.624591,126.0649 C148.478136,125.790921 148.340836,125.526073 148.212687,125.242959 C148.084537,124.968977 147.965543,124.694998 147.846549,124.411884 L147.498716,123.526013 C147.48041,123.489483 147.443797,123.452952 147.388877,123.44382 C147.315649,123.434685 147.251575,123.489483 147.242422,123.562544 C147.205806,123.900453 147.233267,124.238362 147.297341,124.567141 C147.352261,124.90505 147.462105,125.224695 147.599405,125.526073 C147.736707,125.836584 147.910623,126.12883 148.121153,126.39368 Z M186.675489,108.036969 C186.721258,107.97304 186.712105,107.890846 186.64803,107.836051 C186.583955,107.781254 186.492422,107.790386 186.4375,107.854315 C185.613691,108.794983 184.698343,109.644323 183.682312,110.347539 C182.675431,111.05989 181.586172,111.653515 180.423683,112.091884 C179.288655,112.548517 178.080399,112.840763 176.853836,113.005153 C175.627274,113.160408 174.382405,113.151276 173.137536,113.005153 C173.073461,112.996021 173.009386,113.041684 173.000233,113.105613 C172.981925,113.169543 173.018541,113.242604 173.091769,113.260868 C174.327483,113.580513 175.627274,113.671839 176.908758,113.571379 C178.190241,113.480053 179.462571,113.169543 180.670824,112.722039 C181.869927,112.247139 183.014108,111.626116 184.039295,110.840706 C185.064481,110.046161 185.970673,109.105493 186.675489,108.036969 Z M243.811334,191.464104 C244.159164,191.290582 244.488691,191.135327 244.836521,191.007468 C245.175198,190.888743 245.52303,190.779151 245.880015,190.696958 C246.227845,190.614764 246.58483,190.559967 246.950968,190.523436 C247.317106,190.486905 247.683245,190.486905 248.058535,190.486905 C248.12261,190.486905 248.186683,190.450374 248.204991,190.386445 C248.241604,190.304251 248.204991,190.212923 248.12261,190.176395 C247.756472,190.021137 247.35372,189.938944 246.941813,189.920677 C246.529908,189.893281 246.118004,189.938944 245.724405,190.030272 C245.321653,190.139862 244.937209,190.276853 244.589377,190.486905 C244.232392,190.696958 243.912023,190.943538 243.646571,191.254051 C243.619112,191.299714 243.609959,191.354511 243.628265,191.400174 C243.664879,191.464104 243.747259,191.491502 243.811334,191.464104 Z M246.859433,191.710687 C245.779327,191.85681 244.735832,192.23125 243.793026,192.760945 C242.850222,193.299774 241.980644,193.948196 241.202601,194.697075 C240.82731,195.053251 240.479478,195.436825 240.159106,195.838661 C240.259795,195.318098 240.415403,194.806667 240.635086,194.313503 C241.074451,193.327173 241.779269,192.441302 242.749534,191.939004 C242.813608,191.902473 242.850222,191.811145 242.822761,191.738083 C242.7953,191.665022 242.703767,191.619359 242.621384,191.65589 C241.52297,192.094259 240.653394,193.025794 240.1408,194.076052 C239.655668,195.053251 239.408524,196.130907 239.353602,197.208566 C239.34445,197.272495 239.335297,197.363821 239.34445,197.455149 C239.34445,197.464281 239.335297,197.473413 239.335297,197.49168 L239.34445,197.49168 C239.34445,197.519076 239.34445,197.546475 239.34445,197.573873 C239.371911,197.729129 239.500058,197.847855 239.655668,197.847855 C239.838735,197.847855 239.98519,197.710864 239.98519,197.528211 L239.98519,197.500812 C239.98519,197.455149 239.994345,197.409486 239.994345,197.363821 C240.003498,197.32729 240.012651,197.272495 240.030959,197.235964 C240.076726,197.135504 240.1408,197.035044 240.19572,196.925452 C240.32387,196.715399 240.479478,196.514481 240.635086,196.313563 C240.946304,195.920857 241.303287,195.546415 241.660272,195.181107 C242.401701,194.459626 243.21636,193.820337 244.095092,193.299774 C244.982976,192.788343 245.925782,192.377373 246.93266,192.203851 C247.930388,192.021197 248.973881,192.075994 249.9533,192.413903 C250.00822,192.441302 250.081448,192.404769 250.108909,192.349974 C250.13637,192.276913 250.108909,192.203851 250.044834,192.176452 C249.065414,191.719819 247.939541,191.573696 246.859433,191.710687 Z M230.749358,164.020367 C230.59375,163.445007 230.419834,162.860515 230.227612,162.294287 C230.026235,161.728061 229.815707,161.170968 229.559411,160.623004 C229.53195,160.568209 229.47703,160.54081 229.422108,160.549942 C229.348881,160.559077 229.293959,160.623004 229.312267,160.696065 C229.376342,161.298824 229.504489,161.883316 229.641791,162.467809 C229.74248,162.906178 229.870627,163.335415 229.989623,163.773784 C229.74248,163.773784 229.513642,163.773784 229.284806,163.764649 C228.927821,163.737253 228.589144,163.65506 228.277927,163.454139 C228.223005,163.417608 228.149778,163.417608 228.094858,163.463271 C228.030784,163.518069 228.021631,163.609394 228.07655,163.682456 C228.342,164.020367 228.781365,164.248684 229.202425,164.321745 C229.632638,164.413071 230.03539,164.413071 230.410681,164.449602 C230.447295,164.449602 230.483909,164.449602 230.529675,164.44047 C230.703591,164.385675 230.80428,164.203019 230.758511,164.029499 L230.749358,164.020367 Z M240.470325,113.726636 C240.479478,113.653575 240.433711,113.580513 240.369636,113.571379 C239.362758,113.343062 238.291802,113.470921 237.312385,113.80883 C236.332965,114.146739 235.445078,114.712967 234.667035,115.388785 C233.907298,116.092004 233.257405,116.895681 232.717351,117.754153 C232.168144,118.621759 231.719625,119.525896 231.344332,120.457429 C231.30772,120.530491 231.335179,120.603552 231.399254,120.649215 C231.472481,120.69488 231.57317,120.667482 231.618937,120.59442 C232.13153,119.74508 232.644123,118.895738 233.211638,118.092062 C233.779151,117.297517 234.392433,116.530373 235.115556,115.900216 C235.820371,115.242662 236.635028,114.712967 237.522912,114.347659 C238.401644,113.97322 239.362758,113.781431 240.333022,113.827096 C240.397097,113.827096 240.452017,113.790563 240.470325,113.726636 Z M228.653218,157.782739 C228.717293,157.746208 228.744754,157.673146 228.708138,157.609217 C227.179513,154.842011 226.007871,151.892153 225.220673,148.850965 C224.442631,145.800648 224.021571,142.659002 224.049032,139.517356 C224.049032,136.37571 224.497552,133.243197 225.312209,130.211143 C226.126866,127.169958 227.316813,124.22923 228.872901,121.489423 C228.909515,121.416361 228.891208,121.325035 228.817982,121.279372 C228.744754,121.233707 228.653218,121.251974 228.607452,121.325035 C226.914064,124.028312 225.60512,126.969037 224.726388,130.046756 C223.847657,133.11534 223.399138,136.320913 223.371677,139.517356 C223.38083,142.722929 223.801888,145.919372 224.671466,148.997088 C225.522739,152.074805 226.813375,155.033799 228.488455,157.737076 C228.525071,157.801357 228.598299,157.819269 228.653218,157.782739 Z M149.896922,162.714392 C149.530784,161.289692 149.164646,159.864992 148.752741,158.449424 C148.734433,158.385495 148.670358,158.348964 148.606286,158.358096 C148.533058,158.376363 148.487291,158.440292 148.496444,158.513354 C148.743586,159.956318 149.036496,161.408416 149.338562,162.842248 C149.631472,164.285215 149.960996,165.719047 150.281365,167.152878 L151.306552,171.445245 C151.663537,172.869944 152.029675,174.294644 152.441582,175.710212 C152.459888,175.783273 152.533116,175.828936 152.615496,175.819802 C152.697877,175.801538 152.752799,175.728476 152.743646,175.63715 C152.487349,174.194184 152.194439,172.751218 151.892373,171.308254 L150.940414,166.997623 C150.592584,165.572924 150.26306,164.139092 149.896922,162.714392 Z M153.71391,113.781431 C153.640683,113.763167 153.567455,113.790563 153.549149,113.863625 C152.478194,116.977874 151.416396,120.110388 150.482743,123.27943 C150.244754,124.101373 150.006763,124.932449 149.78708,125.763522 C149.640625,125.00551 149.49417,124.256629 149.375175,123.498615 C149.247026,122.676674 149.128032,121.85473 149.036496,121.023655 C148.944963,120.192582 148.890041,119.361506 148.835121,118.521299 C148.798507,117.690223 148.780202,116.850016 148.761894,116.009808 C148.761894,115.945881 148.716127,115.891084 148.652052,115.881951 C148.587977,115.863685 148.51475,115.918482 148.505597,115.991544 C148.359142,116.831751 148.285914,117.681091 148.267608,118.530431 C148.240148,119.388905 148.285914,120.247377 148.368295,121.096716 C148.45983,121.946058 148.587977,122.786266 148.780202,123.617341 C148.981576,124.457547 149.219567,125.270358 149.530784,126.0649 C149.558245,126.12883 149.613164,126.156228 149.677239,126.156228 C149.082265,128.393737 148.560519,130.64038 148.121153,132.91442 C147.535332,136.17479 147.132578,139.480825 147.077659,142.795991 C147.013584,146.111158 147.297341,149.44459 148.002157,152.677564 C148.020465,152.759757 148.102845,152.814555 148.185226,152.796288 C148.267608,152.787156 148.322528,152.704962 148.30422,152.622769 C147.74586,149.380663 147.571944,146.083759 147.681788,142.814257 C147.791627,139.53562 148.185226,136.266118 148.789355,133.042279 C149.366023,129.800173 150.171526,126.612864 151.041102,123.434685 C151.910681,120.265643 152.86264,117.105731 153.796291,113.945821 C153.814599,113.881891 153.777985,113.80883 153.71391,113.781431 Z M191.380364,79.9448111 C191.792269,80.0726699 192.103487,80.3831802 192.314015,80.7484879 C192.515392,81.1137955 192.625233,81.5430326 192.698461,81.999666 C192.780841,82.4563017 192.826608,82.9403338 192.973063,83.4335003 C193.128674,83.9175323 193.375817,84.428963 193.806028,84.7486078 C193.851795,84.7851362 193.925022,84.7851362 193.979944,84.7486078 C194.053172,84.7029426 194.071477,84.6024847 194.025711,84.5294232 C193.769414,84.1549811 193.641267,83.7348785 193.558884,83.2965093 L193.366662,81.8809416 C193.275129,81.3969095 193.128674,80.8580802 192.789997,80.4288431 C192.469625,79.9996084 191.957032,79.6525649 191.398672,79.6890957 C191.34375,79.6890957 191.297983,79.7256265 191.279675,79.7804238 C191.26137,79.8534853 191.307136,79.9174124 191.371211,79.9448111 L191.380364,79.9448111 Z M189.787664,82.0453312 C189.732743,82.0635954 189.696129,82.1183927 189.696129,82.1731877 C189.696129,82.2462492 189.760203,82.3101787 189.833431,82.3010442 C190.419252,82.2736479 190.950151,82.5932903 191.307136,83.0225274 C191.664121,83.4517645 191.874649,84.0179925 192.011951,84.6116168 C192.158407,85.2052412 192.277403,85.8445307 192.442164,86.4564193 C192.597772,87.0774423 192.762536,87.6984653 192.973063,88.3103562 C192.991371,88.3742856 193.055446,88.4199485 193.128674,88.4108164 C193.211054,88.4108164 193.275129,88.3377548 193.275129,88.2464268 C193.220207,87.6071395 193.128674,86.9769821 193.027985,86.3376949 C192.936452,85.7075398 192.826608,85.0865168 192.671,84.4472272 C192.506239,83.80794 192.249942,83.1321197 191.728194,82.6298234 C191.233909,82.1366569 190.474172,81.8261466 189.787664,82.0453312 Z M188.579406,85.0591181 C188.53364,85.0865168 188.506179,85.1230475 188.506179,85.1778425 C188.497026,85.250904 188.561101,85.3148335 188.625175,85.3148335 L188.634328,85.3148335 C189.265916,85.3513642 189.741895,85.7897334 190.025653,86.292032 C190.172108,86.5568795 190.263642,86.8582577 190.346024,87.1779025 C190.437558,87.4975472 190.501632,87.8354562 190.602321,88.1824997 C190.620627,88.2372946 190.666396,88.2738254 190.730468,88.2920896 C190.812851,88.3012241 190.895231,88.2464268 190.913537,88.155101 C190.968459,87.8080576 190.977612,87.4427499 190.940998,87.0774423 C190.913537,86.7030025 190.812851,86.3194283 190.620627,85.9723872 C190.419252,85.6162117 190.126342,85.3148335 189.760203,85.1321796 C189.394065,84.9495258 188.945545,84.8947308 188.579406,85.0591181 Z M186.803638,86.8125948 C186.748716,86.8217269 186.693797,86.8582577 186.675489,86.913055 C186.657183,86.9769821 186.693797,87.0500436 186.767024,87.0774423 C187.618295,87.3605563 188.176657,88.1094381 188.451259,88.913115 C188.597715,89.3240855 188.661789,89.7715868 188.725862,90.219088 L188.872317,91.6346558 C188.881472,91.6985852 188.927239,91.7533802 188.991314,91.7716467 C189.082847,91.7899109 189.165227,91.7351159 189.174383,91.65292 L189.183535,91.6437879 C189.275071,91.1688879 189.329991,90.6848559 189.329991,90.1916894 C189.329991,89.6893931 189.256763,89.1779624 189.092,88.6939304 C188.908933,88.1916318 188.625175,87.734996 188.231576,87.3879549 C187.837977,87.0409115 187.316231,86.8034627 186.803638,86.8125948 Z M184.890567,88.5204087 C184.835645,88.5295408 184.789879,88.5843357 184.780726,88.6391331 C184.780726,88.7121946 184.826493,88.776124 184.89972,88.7852561 L184.908873,88.7852561 C185.476388,88.830919 185.924907,89.2418895 186.181203,89.735056 C186.446653,90.2373546 186.620569,90.840111 186.812791,91.4337354 L187.361998,93.2146107 C187.55422,93.8082374 187.718983,94.4109939 187.911205,95.0137503 C187.938666,95.0776797 188.002741,95.123345 188.066813,95.1142105 C188.158349,95.1142105 188.222424,95.041149 188.213268,94.9589553 C188.176657,94.3196681 188.075968,93.6895107 187.947819,93.0593556 C187.828825,92.4383326 187.645756,91.8264417 187.453534,91.2236852 C187.243004,90.6300586 187.069088,90.0090379 186.675489,89.4336778 C186.300198,88.8583176 185.604535,88.3834177 184.890567,88.5204087 Z M195.114972,92.4565968 C195.142433,91.2784802 195.060052,90.1003636 194.803753,88.9587778 C194.794601,88.8948484 194.730526,88.8491855 194.666453,88.8583176 C194.593226,88.8674498 194.538304,88.9222471 194.547459,88.9953086 C194.62984,90.1460265 194.638993,91.2876123 194.538304,92.4200684 C194.446771,93.5525197 194.272854,94.6849758 193.970791,95.7808987 C193.705339,96.8859538 193.311743,97.9544781 192.844916,98.9864716 C192.387242,100.0276 191.828882,101.023062 191.206448,101.981994 C191.160681,102.045924 191.169834,102.137252 191.233909,102.182915 C191.297983,102.246842 191.389517,102.23771 191.444439,102.17378 C192.213328,101.28791 192.854069,100.301579 193.394123,99.251319 C193.925022,98.2010613 194.318621,97.0868718 194.62984,95.945286 C194.904442,94.8037002 195.087511,93.6347157 195.114972,92.4565968 Z M168.634037,93.6438478 C169.000175,93.4794582 169.402927,93.3607338 169.805679,93.2602736 C169.869754,93.2328773 169.906365,93.1689479 169.897213,93.1050185 C169.88806,93.041089 169.823985,92.9862941 169.750757,92.9954262 C169.3297,93.0684877 168.90864,93.1506837 168.496735,93.3059388 C168.08483,93.461194 167.645465,93.7169093 167.425782,94.1826772 C167.206099,94.6484427 167.261019,95.1507413 167.343399,95.5799783 C167.425782,96.0092154 167.553929,96.4201859 167.636309,96.8220243 C168.011603,98.4111138 167.8743,100.073262 167.517315,101.698883 C167.187791,103.333633 166.693506,104.995784 166.647739,106.740128 C166.629431,107.607732 166.693506,108.48447 166.904033,109.324678 C167.123716,110.164886 167.453243,110.977697 167.920067,111.699178 C167.965836,111.772239 168.048217,111.799638 168.121444,111.763107 C168.194672,111.717444 168.22213,111.626116 168.185519,111.553055 C167.425782,110.07356 167.132871,108.411409 167.251866,106.767524 C167.343399,105.114508 167.819381,103.516286 168.176364,101.845006 C168.505888,100.173723 168.670651,98.3745807 168.194672,96.6759013 C168.08483,96.2557963 167.938375,95.8630924 167.846839,95.4703861 C167.755306,95.0776797 167.709537,94.6849758 167.837687,94.3744631 C167.965836,94.0548183 168.277052,93.8082374 168.634037,93.6438478 Z M169.842293,81.8535429 C170.071129,81.9266045 170.30912,81.9540031 170.565414,81.9814018 C170.812558,82.0179325 171.059701,82.0087981 171.306845,82.0179325 C172.295418,82.0179325 173.247377,81.6708891 174.043728,81.0772648 C174.711929,80.5841006 175.251981,79.9265468 175.828649,79.2598586 C175.270289,79.378583 174.711929,79.4699111 174.144414,79.5338405 C173.12838,79.661697 172.103194,79.6982278 171.078007,79.6982278 C170.052821,79.661697 169.027634,79.5977676 168.020756,79.4333804 C167.599698,79.3694509 167.178638,79.2872573 166.766733,79.1959316 C167.032183,80.0909341 167.709537,80.7758865 168.487582,81.2599186 C168.917795,81.5065018 169.375466,81.7256864 169.842293,81.8535429 Z M170.492186,82.6298234 C170.217584,82.5932903 169.933826,82.5567619 169.668377,82.4654338 C169.128323,82.3010442 168.634037,82.0544633 168.176364,81.7348185 C167.727845,81.4151738 167.31594,81.0316019 166.995569,80.5658341 C166.711811,80.136597 166.510437,79.6434328 166.455515,79.1411342 C165.979535,79.0315419 165.503556,78.9036854 165.027576,78.7575624 C164.963504,78.7301637 164.926888,78.6571022 164.945196,78.5931728 C164.963504,78.5292433 165.027576,78.4927126 165.091651,78.5018447 C166.089377,78.6479677 167.087105,78.7758266 168.08483,78.8671523 C169.082556,78.9493483 170.089437,79.0224098 171.087162,79.0132754 C172.094041,79.040674 173.091769,79.0041433 174.089495,78.9402139 C175.096373,78.8762868 176.094101,78.7666945 177.091827,78.6479677 C177.18336,78.6388356 177.256588,78.693633 177.265743,78.7849587 C177.274896,78.8580202 177.229127,78.9310818 177.155899,78.9493483 C176.89045,79.0224098 176.625,79.0772048 176.35955,79.1320021 C176.094101,79.5429726 175.828649,79.9539432 175.526586,80.3557816 C175.206214,80.7850186 174.840076,81.1959892 174.409866,81.5612968 C173.558593,82.2736479 172.43272,82.6846184 171.315998,82.6937505 C171.041396,82.6754863 170.757638,82.6754863 170.492186,82.6298234 Z M165.769008,69.9445136 L166.052763,66.9672575 C166.061918,66.9033281 166.016149,66.8393986 165.952074,66.8211344 C165.888002,66.812 165.814774,66.8485331 165.796466,66.9215946 C165.549325,67.8987908 165.366253,68.8851215 165.201493,69.8714521 C165.036732,70.8669172 164.936043,71.86238 164.826202,72.8669748 C164.789588,73.3601413 164.71636,73.8533055 164.77128,74.4286656 C164.817049,74.9948913 165.183187,75.6067822 165.704933,75.8716296 C166.199218,76.1547436 166.775886,76.2369373 167.306788,76.1912744 C167.837687,76.1273473 168.322819,75.9812243 168.798798,75.8168346 C168.862873,75.789436 168.917795,75.7163745 168.899487,75.6341808 C168.881179,75.5519872 168.798798,75.4971899 168.716418,75.5154564 C167.755306,75.6981102 166.739272,75.8533654 166.016149,75.3601989 C165.668319,75.113618 165.457789,74.7848411 165.421175,74.346472 C165.384562,73.926367 165.457789,73.4149363 165.494403,72.9217721 C165.567631,71.926307 165.677472,70.9399787 165.769008,69.9445136 Z M155.279151,59.8163597 C155.544601,59.3231956 155.846664,58.8574277 156.194496,58.4464572 C156.551481,58.0354843 156.935925,57.6519125 157.366138,57.3231356 C157.787198,56.9852266 158.244869,56.7112447 158.739157,56.4737959 C159.224289,56.2363448 159.736883,56.0628231 160.276937,55.9258321 C160.341009,55.9075679 160.395931,55.8436385 160.395931,55.779709 C160.395931,55.6883833 160.331856,55.6153218 160.249476,55.6153218 C159.6545,55.5970576 159.059526,55.715782 158.501166,55.9167 C157.942806,56.1084883 157.42106,56.4189986 156.945078,56.7843062 C156.478254,57.158746 156.066347,57.5971152 155.736825,58.0994138 C155.407298,58.6017124 155.160157,59.1496738 155.032007,59.7250316 C155.022854,59.7798289 155.050315,59.8437584 155.105235,59.8711547 C155.16931,59.9076878 155.242537,59.8802891 155.279151,59.8163597 Z M176.487698,56.0445588 C177.33897,56.2728755 178.171933,56.6016524 178.913362,57.0674203 C179.673099,57.4966573 180.350455,58.0720151 180.954582,58.7113047 C181.567864,59.359724 182.080457,60.0903393 182.51067,60.8757519 C182.547284,60.9396813 182.620511,60.9762121 182.693739,60.9488134 C182.776119,60.9214148 182.821886,60.8392211 182.794425,60.7570275 C182.492362,59.8620226 182.007229,59.0400815 181.403101,58.3094663 C180.798974,57.5879831 180.066698,56.9760922 179.261194,56.4737959 C178.437385,56.0080281 177.540345,55.6609846 176.615847,55.4874629 C175.691347,55.3139435 174.739388,55.2865449 173.824045,55.4509345 C173.769123,55.4600666 173.714201,55.5148616 173.714201,55.578791 C173.714201,55.6518525 173.778276,55.7066475 173.851504,55.7066475 C174.748543,55.715782 175.636427,55.8162421 176.487698,56.0445588 Z M161.649953,66.9124602 C162.006939,66.8667973 162.345616,66.7937358 162.693448,66.7389385 C163.041278,66.6567448 163.379955,66.5745512 163.718635,66.474091 C163.773554,66.4558268 163.819321,66.4101639 163.819321,66.3462345 C163.810168,66.273173 163.755246,66.2183756 163.672866,66.2183756 C162.977203,66.2549064 162.290694,66.3188358 161.604187,66.3371024 C160.917677,66.3553666 160.231168,66.3644987 159.544661,66.3371024 C158.867304,66.3188358 158.189948,66.2640408 157.512593,66.1909793 C156.835239,66.1087833 156.14873,65.9900589 155.498834,65.8256717 L155.480526,65.8256717 C155.416453,65.8074051 155.343226,65.8348038 155.315765,65.9078653 C155.269998,65.9809268 155.297459,66.0722526 155.37984,66.1179178 C156.029735,66.4466923 156.716242,66.6384806 157.411905,66.7846037 C158.107567,66.9307267 158.821537,66.9946561 159.526353,67.0220525 C160.240321,67.0311846 160.954291,67.0129204 161.649953,66.9124602 Z M172.075735,65.1224527 C172.020813,65.0859219 171.938433,65.1041885 171.892666,65.1589835 C171.837744,65.2229129 171.846899,65.3233731 171.910972,65.378168 C172.579176,65.9169974 173.348063,66.273173 174.153567,66.5380204 C174.959071,66.812 175.792035,66.9489909 176.634153,67.0129204 C177.47627,67.0311846 178.327541,67.0129204 179.1422,66.8393986 C179.563257,66.7846037 179.956856,66.6476127 180.368761,66.556287 C180.76236,66.4284281 181.155959,66.2823051 181.540403,66.136182 C181.595325,66.1087833 181.631939,66.0539884 181.622783,65.9900589 C181.604478,65.9169974 181.540403,65.8713345 181.467175,65.8804666 L181.458022,65.8804666 C180.652519,66.0357218 179.865321,66.2001114 179.068972,66.273173 C178.272621,66.3553666 177.467118,66.3644987 176.670767,66.3279679 C175.883571,66.2823051 175.096373,66.1544462 174.327483,65.9626603 C173.558593,65.7708744 172.789703,65.4968925 172.094041,65.1315848 L172.075735,65.1224527 Z M155.443914,90.4382726 C153.50338,90.4382726 151.928989,88.8583176 151.928989,86.913055 C151.928989,84.9677924 153.50338,83.387835 155.443914,83.387835 C157.375291,83.387835 158.949685,84.9677924 158.949685,86.913055 C158.949685,88.8583176 157.375291,90.4382726 155.443914,90.4382726" id="Shape" fill="#393A3F" fill-rule="nonzero" mask="url(#mask-6)"></path>
                </g>
            </g>
        </g>
    </g>
</svg>