<?xml version="1.0" encoding="UTF-8"?>
<svg width="367px" height="347px" viewBox="0 0 367 347" version="1.1" xmlns="http://www.w3.org/2000/svg" xmlns:xlink="http://www.w3.org/1999/xlink">
    <title>CEO</title>
    <defs>
        <polygon id="path-1" points="0.131481987 0.272411754 327.779697 0.272411754 327.779697 332.756981 0.131481987 332.756981"></polygon>
        <polygon id="path-3" points="0.139120034 0.788084032 356.958624 0.788084032 356.958624 319.850712 0.139120034 319.850712"></polygon>
        <polygon id="path-5" points="0 0 354 0 354 340.757478 0 340.757478"></polygon>
        <polygon id="path-7" points="0.364164001 0 346 0 346 340.757478 0.364164001 340.757478"></polygon>
        <polygon id="path-9" points="4.43185022e-05 0.910524523 351 0.910524523 351 341.762176 4.43185022e-05 341.762176"></polygon>
    </defs>
    <g id="Page-1" stroke="none" stroke-width="1" fill="none" fill-rule="evenodd">
        <g id="Onboarding-MW-1" transform="translate(-17.000000, -274.000000)">
            <g id="CEO" transform="translate(17.000000, 274.000000)">
                <g id="Clipped" transform="translate(26.000000, 14.000000)">
                    <mask id="mask-2" fill="white">
                        <use xlink:href="#path-1"></use>
                    </mask>
                    <g id="Path"></g>
                    <path d="M303.693316,250.863072 L327.192224,250.863072 L327.192224,260.225315 L299.257899,260.225315 C295.409951,267.838569 291.150775,275.05499 286.46568,281.7864 C286.069135,282.3449 285.687279,282.903403 285.290734,283.461906 C284.967626,283.902826 284.644514,284.343746 284.321402,284.78467 C283.910175,285.357869 283.498941,285.916369 283.073024,286.474872 C282.779287,286.857002 282.485551,287.253833 282.191815,287.635963 C281.516223,288.532508 280.825942,289.414351 280.120974,290.281499 C270.324866,302.450942 258.898524,312.577453 245.783193,319.896756 C245.739135,319.926152 245.695074,319.955545 245.636326,319.984942 C244.402634,320.675717 243.139569,321.351799 241.876501,321.983788 C241.861815,321.983788 241.861815,321.998485 241.861815,321.998485 C228.114954,328.906261 212.576299,332.786374 195.172421,332.786374 C144.062295,332.786374 89.8532503,302.671404 51.6675243,260.225315 L4.62565008,260.225315 L4.62565008,250.863072 L43.6632096,250.863072 C17.4325551,218.514097 0.55739876,180.227373 0.55739876,142.969465 C0.55739876,51.2282962 67.8964569,0.522270365 160.159047,0.522270365 C252.406948,0.522270365 327.192224,40.2787346 327.192224,132.0346 C327.192224,171.835157 319.701949,214.883839 303.693316,250.863072" id="Path" fill="#CBEDDD" fill-rule="nonzero" mask="url(#mask-2)"></path>
                </g>
                <g id="Clipped" transform="translate(10.000000, 0.000000)">
                    <mask id="mask-4" fill="white">
                        <use xlink:href="#path-3"></use>
                    </mask>
                    <g id="Path"></g>
                    <path d="M272.191055,81.2523447 L272.191055,142.773453 L277.432138,142.773453 L277.432138,154.421724 L278.224906,154.392311 L278.224906,142.773453 L357.296286,142.773453 L357.296286,81.2523447 L272.191055,81.2523447 Z M109.688065,46.013378 C109.688065,46.3516494 109.952323,46.6163847 110.289981,46.6163847 C110.612963,46.6163847 110.891901,46.3516494 110.891901,46.013378 C110.891901,45.6898167 110.612963,45.4250814 110.289981,45.4250814 C109.952323,45.4250814 109.688065,45.6898167 109.688065,46.013378 Z M101.202501,58.5146814 L101.202501,52.6611327 C101.202501,51.7345647 101.951224,50.9844856 102.876123,50.9844856 L108.043803,50.9844856 L109.042105,49.1019367 C109.115508,48.9842774 109.203596,48.8666181 109.291683,48.7783755 C108.16125,48.3665641 107.339119,47.2929239 107.339119,46.013378 C107.339119,44.3955643 108.660403,43.0866055 110.289981,43.0866055 C111.919563,43.0866055 113.240847,44.3955643 113.240847,46.013378 C113.240847,47.2929239 112.418716,48.3665641 111.273603,48.7783755 C111.37637,48.8666181 111.464454,48.9842774 111.523181,49.1019367 L112.536163,50.9844856 L117.689159,50.9844856 C118.614058,50.9844856 119.377465,51.7345647 119.377465,52.6611327 L119.377465,58.5146814 C119.377465,59.4412494 118.614058,60.1913284 117.689159,60.1913284 L102.876123,60.1913284 C101.951224,60.1913284 101.202501,59.4412494 101.202501,58.5146814 Z M132.854542,73.5162432 L55.1044451,73.5162432 L55.1044451,16.5691379 L52.7554996,16.5691379 L52.7554996,75.8547229 L132.854542,75.8547229 L132.854542,73.5162432 Z M87.1969114,131.198717 L80.1941185,131.198717 L80.1941185,133.537197 L87.1969114,133.537197 L87.1969114,131.198717 Z M80.1941185,130.522178 L95.8586499,130.522178 L95.8586499,128.183699 L80.1941185,128.183699 L80.1941185,130.522178 Z M80.1941185,127.507159 L91.1607588,127.507159 L91.1607588,125.16868 L80.1941185,125.16868 L80.1941185,127.507159 Z M80.1941185,119.462203 L80.1941185,121.800683 L87.1969114,121.800683 L87.1969114,119.462203 L80.1941185,119.462203 Z M95.8586499,116.447184 L80.1941185,116.447184 L80.1941185,118.785664 L95.8586499,118.785664 L95.8586499,116.447184 Z M80.1941185,113.432162 L80.1941185,115.770641 L91.1607588,115.770641 L91.1607588,113.432162 L80.1941185,113.432162 Z M29.4715753,124.66863 L0.476778134,124.66863 L0.476778134,132.948901 L29.4715753,132.948901 L29.4715753,124.66863 Z M40.2914046,112.66738 L0.476778134,112.66738 L0.476778134,120.932945 L40.2914046,120.932945 L40.2914046,112.66738 Z M125.484723,265.595065 L141.281382,265.595065 L133.339011,248.593294 L125.484723,265.595065 Z M258.758021,165.231674 C254.632683,156.289567 246.132439,149.700646 235.797079,148.376976 C235.562184,148.347564 235.32729,148.332857 235.092395,148.288734 L234.813457,141.920425 C234.813457,141.920425 235.063032,139.743728 233.550901,138.964232 C233.550901,138.964232 227.017893,140.993857 220.793188,141.920425 C214.583162,142.861699 211.500173,139.993753 211.500173,139.993753 C211.500173,139.993753 208.740162,140.214365 208.578671,141.567447 C208.417184,142.920529 210.090806,144.008876 209.547613,145.200175 C209.386122,145.553153 209.077824,146.259109 208.710798,147.068018 C198.551613,147.626901 189.317318,149.759475 183.635809,154.68646 L173.520659,162.510804 L177.895572,177.718267 L190.271576,220.766868 L179.422387,220.766868 C180.038983,223.002395 180.684943,225.120262 181.301543,227.046935 C183.430274,233.532903 182.769634,240.592461 179.49579,246.57838 L169.14575,265.595065 L251.212032,265.595065 C250.096283,247.0196 251.182672,228.385306 254.441832,210.059871 C255.425454,210.986439 256.438436,211.88359 257.524825,212.721912 L272.528713,230.767909 C277.211924,236.415556 285.477277,237.489196 291.467088,233.238755 C297.853281,228.708871 299.262648,219.85501 294.608801,213.574944 L258.758021,165.231674 Z M131.914964,194.631795 C126.791327,198.396893 124.970891,205.206423 127.540051,211.001145 C130.226658,217.104723 136.891793,220.252108 143.219262,218.722537 L135.467742,191.896214 L131.914964,194.631795 Z M164.036793,274.963686 L160.806993,280.920191 C188.157525,280.920191 213.438053,295.465822 227.076617,319.07122 L227.252788,319.380075 L253.296723,288.788655 L251.960759,274.963686 L164.036793,274.963686 Z M32.774779,222.561174 L59.6555252,248.593294 L60.785958,248.593294 L31.8498845,220.590379 C32.1581827,221.237505 32.4518009,221.899338 32.774779,222.561174 Z M58.5250961,210.662874 L55.7650851,218.251899 L57.2184961,206.074161 L49.2173976,193.23459 L44.3139757,203.603315 L46.6482413,189.410662 L26.1536916,166.467097 L26.1977315,163.702103 L25.4049643,163.702103 L25.3756006,166.761245 L45.8261103,189.645981 L42.6403502,209.000937 L49.3201649,194.867114 L56.4110451,206.25065 L54.1795469,224.91436 L58.4663725,213.119013 L68.7430091,246.240108 L69.6679073,248.593294 L70.5047182,248.593294 L69.4917364,245.975377 L58.5250961,210.662874 Z M102.920166,99.7395626 L102.920166,100.636714 L103.63953,101.033815 L115.031916,94.4301872 L112.242545,131.93409 L102.920166,141.155639 L102.920166,141.949838 L110.847857,137.728813 L110.040407,195.4407 L90.1918169,206.530092 L109.834876,202.500258 L108.381465,221.090429 L92.746297,223.914253 L87.1675514,248.593294 L87.9749986,248.593294 L93.3922571,224.590796 L109.115508,221.752266 L110.70105,201.529571 L94.9777953,204.750496 L110.818498,195.911337 L111.655308,136.41985 L105.518686,139.670188 L113.005952,132.272361 L115.91277,93.0182755 L103.62485,100.13666 L102.920166,99.7395626 Z M78.9609221,201.853136 L65.9976781,169.585069 L68.1998164,163.702103 L67.3630055,163.702103 L65.1608672,169.585069 L76.8909148,198.793994 L65.2929944,187.719309 L63.5166053,204.412224 L77.2726166,232.253357 L77.9773002,248.593294 L78.7700712,248.593294 L78.0507076,232.135698 L78.0507076,232.047455 L64.3240563,204.265148 L65.9095945,189.381249 L78.9609221,201.853136 Z M69.0219473,163.702103 L78.9609221,179.600816 L74.5566493,163.702103 L73.7491983,163.702103 L76.7587876,174.615002 L69.9468456,163.702103 L69.0219473,163.702103 Z M277.432138,258.447263 C277.696393,258.447263 277.960651,258.447263 278.224906,258.447263 L278.224906,239.548234 L277.432138,239.533528 L277.432138,258.447263 Z M278.224906,36.5123907 C277.960651,36.3800249 277.696393,36.2476553 277.432138,36.1152896 L277.432138,81.2523447 L278.224906,81.2523447 L278.224906,36.5123907 Z M270.341258,258.491383 C270.590833,258.491383 270.855091,258.476676 271.119345,258.476676 L271.119345,239.327622 L270.341258,239.298209 L270.341258,258.491383 Z M270.341258,154.657043 L271.119345,154.62763 L271.119345,62.2944857 L274.217018,62.2944857 L274.217018,0.788084032 L186.777521,0.788084032 L186.777521,62.2944857 L270.341258,62.2944857 L270.341258,154.657043 Z M163.009128,15.4660809 C162.744873,15.4807911 162.480615,15.4954976 162.216361,15.5249106 L162.216361,150.362478 L163.009128,150.333065 L163.009128,15.4660809 Z M163.009128,221.428701 L162.216361,221.428701 L162.216361,257.358913 C162.480615,257.358913 162.744873,257.358913 163.009128,257.358913 L163.009128,221.428701 Z M155.110801,150.612503 L155.903568,150.58309 L155.903568,15.9808413 C155.639313,15.9955478 155.375055,16.0249645 155.110801,16.039671 L155.110801,150.612503 Z M155.110801,221.458117 L155.110801,257.329496 C155.375055,257.329496 155.639313,257.329496 155.903568,257.344206 L155.903568,221.458117 L155.448462,221.458117 C155.345695,221.458117 155.228248,221.458117 155.110801,221.458117 Z M331.04682,235.474282 C331.120223,235.224256 331.193627,234.974228 331.267034,234.724203 L327.993191,234.282982 L331.501929,233.915294 C331.590012,233.650562 331.663416,233.37112 331.736823,233.106389 L321.386779,234.209446 L331.04682,235.474282 Z M333.777467,192.60217 L332.030438,180.277359 L318.245067,194.558259 L318.245067,209.54511 L314.134412,198.617501 L309.172263,203.441533 L312.387383,225.47324 L304.914801,215.325123 L299.189244,225.943878 L304.562459,247.828509 L301.435426,258.873777 C301.699681,258.947314 301.934575,259.02085 302.18415,259.123803 L305.369906,247.828509 L300.026059,226.04683 L305.017564,216.781158 L313.620579,228.458846 L310.009077,203.720975 L313.82611,200.014706 L319.037834,213.839675 L319.037834,194.867114 L331.487245,181.983419 L333.557252,196.705539 L334.335343,196.676126 L335.304282,178.644835 L342.512609,172.232403 C342.541973,171.864719 342.571333,171.482324 342.600693,171.11464 L334.540874,178.277151 L333.777467,192.60217 Z M307.30779,263.771345 C307.439917,264.050787 307.557365,264.315519 307.674812,264.59496 L320.740819,247.034311 L327.009569,247.975585 C327.097652,247.725556 327.18574,247.475531 327.273827,247.225506 L320.388478,246.195985 L307.30779,263.771345 Z M35.1237245,211.824761 C33.4941464,210.030454 29.9120045,208.603836 26.4766698,207.589025 C26.594117,207.89788 26.6968843,208.206739 26.8143316,208.515593 C29.4128517,209.309792 32.0113755,210.324606 33.6409536,211.545319 L27.6805062,210.795243 C27.7979535,211.074681 27.9007208,211.339417 28.0181681,211.618859 L35.8430919,212.604252 L35.1237245,211.824761 Z M27.401568,190.646085 L21.4558006,191.513823 C21.3823932,191.263798 21.3236734,191.013769 21.264946,190.763744 L22.542186,190.572549 C22.1164406,190.528426 21.6613315,190.469596 21.1915424,190.425473 C21.1181387,190.160741 21.0594151,189.896006 20.9860115,189.616568 C22.7917605,189.793053 24.3332589,189.984252 25.287517,190.190154 L27.401568,190.646085" id="Shape" fill="#5EC9CC" fill-rule="nonzero" mask="url(#mask-4)"></path>
                </g>
                <g id="Clipped" transform="translate(4.000000, 6.000000)">
                    <mask id="mask-6" fill="white">
                        <use xlink:href="#path-5"></use>
                    </mask>
                    <g id="Path"></g>
                    <path d="M287.433761,107.587537 L281.990774,107.587537 L281.990774,108.365458 L287.433761,108.365458 L287.433761,107.587537 Z M296.127824,104.57861 L281.990774,104.57861 L281.990774,105.356527 L296.127824,105.356527 L296.127824,104.57861 Z M291.405667,101.569682 L281.990774,101.569682 L281.990774,102.3476 L291.405667,102.3476 L291.405667,101.569682 Z M342.113697,84.1472519 L342.113697,85.5709916 L334.773021,85.5709916 L330.786405,89.5192919 C327.329373,87.1121491 323.136804,85.6737327 318.635306,85.6737327 C318.282247,85.6737327 317.943899,85.6884132 317.59084,85.7030899 C317.414311,85.7030899 317.237782,85.7324435 317.061252,85.7324435 C316.899437,85.7471202 316.737617,85.7618007 316.575798,85.7764775 C316.340426,85.7911543 316.119763,85.8351883 315.884391,85.8645418 C315.781414,85.8645418 315.693152,85.8792223 315.590175,85.8938991 C315.325383,85.9379331 315.045878,85.9819634 314.781086,86.0259974 C314.736952,86.040678 314.692819,86.040678 314.648686,86.0553547 L314.663399,86.0553547 L318.635306,106.692199 L339.833526,106.692199 C339.833526,99.9111033 336.523604,93.8345337 331.418965,89.9889783 L335.09666,86.3489087 L342.113697,86.3489087 L342.113697,87.7726447 L351.52859,87.7726447 L351.52859,84.1472519 L342.113697,84.1472519 Z M137.531,68.0604929 L59.622755,68.0604929 L59.622755,11.2284394 L58.8430851,11.2284394 L58.8430851,68.8384101 L137.531,68.8384101 L137.531,68.0604929 Z M108.285986,45.5742569 C107.800532,45.5742569 107.38863,45.9705557 107.38863,46.4695994 L107.38863,52.311322 C107.38863,52.8103657 107.800532,53.2066607 108.285986,53.2066607 L123.129154,53.2066607 C123.629322,53.2066607 124.026514,52.8103657 124.026514,52.311322 L124.026514,46.4695994 C124.026514,45.9705557 123.629322,45.5742569 123.129154,45.5742569 L117.494931,45.5742569 L116.259226,43.2845357 C116.023854,42.8442066 115.39129,42.8442066 115.170627,43.2845357 L113.934923,45.5742569 L108.285986,45.5742569 Z M113.537735,39.8352753 C113.537735,41.0241718 114.508644,41.9928981 115.714925,41.9928981 C116.9065,41.9928981 117.877409,41.0241718 117.877409,39.8352753 C117.877409,38.6610593 116.9065,37.692333 115.714925,37.692333 C114.508644,37.692333 113.537735,38.6610593 113.537735,39.8352753 Z M142.444399,75.2232104 L50.3696809,75.2232104 L50.3696809,4.68218717 L142.444399,4.68218717 L142.444399,75.2232104 Z M115.714925,41.214981 C116.479889,41.214981 117.097739,40.5985195 117.097739,39.8352753 C117.097739,39.0867154 116.479889,38.4702502 115.714925,38.4702502 C114.949969,38.4702502 114.317405,39.0867154 114.317405,39.8352753 C114.317405,40.5985195 114.949969,41.214981 115.714925,41.214981 Z M243.978141,7.26546233 L238.535157,7.26546233 L238.535157,8.04337948 L243.978141,8.04337948 L243.978141,7.26546233 Z M252.672207,4.25653106 L238.535157,4.25653106 L238.535157,5.03445196 L252.672207,5.03445196 L252.672207,4.25653106 Z M247.950051,1.24760354 L238.535157,1.24760354 L238.535157,2.02552069 L247.950051,2.02552069 L247.950051,1.24760354 Z M210.055104,7.26546233 L204.612117,7.26546233 L204.612117,8.04337948 L210.055104,8.04337948 L210.055104,7.26546233 Z M218.749171,4.25653106 L204.612117,4.25653106 L204.612117,5.03445196 L218.749171,5.03445196 L218.749171,4.25653106 Z M214.041724,1.24760354 L204.612117,1.24760354 L204.612117,2.02552069 L214.041724,2.02552069 L214.041724,1.24760354 Z M249.83303,13.6796162 L238.535157,13.6796162 L238.535157,48.8180313 L249.83303,48.8180313 L249.83303,13.6796162 Z M204.612117,48.8180313 L215.924703,48.8180313 L215.924703,31.08737 L204.612117,31.08737 L204.612117,48.8180313 Z M2.78033483,150.563842 L5.13405823,150.563842 L5.13405823,94.3629309 L2.78033483,94.3629309 L2.78033483,150.563842 Z M5.67835583,150.563842 L52.4733221,150.563842 L52.4733221,142.314977 L5.67835583,142.314977 L5.67835583,150.563842 Z M25.9350907,94.3629309 L5.67835583,94.3629309 L5.67835583,102.6118 L25.9350907,102.6118 L25.9350907,94.3629309 Z M85.5578457,150.622557 L92.5748827,150.622557 L92.5748827,148.288802 L85.5578457,148.288802 L85.5578457,150.622557 Z M85.5578457,147.613626 L101.25424,147.613626 L101.25424,145.279871 L85.5578457,145.279871 L85.5578457,147.613626 Z M85.5578457,144.604698 L96.5467928,144.604698 L96.5467928,142.270943 L85.5578457,142.270943 L85.5578457,144.604698 Z M85.5578457,103.756659 L92.5748827,103.756659 L92.5748827,101.422907 L85.5578457,101.422907 L85.5578457,103.756659 Z M85.5578457,100.747731 L101.25424,100.747731 L101.25424,98.4139761 L85.5578457,98.4139761 L85.5578457,100.747731 Z M96.5467928,97.7388037 L96.5467928,95.4050485 L85.5578457,95.4050485 L85.5578457,97.7388037 L96.5467928,97.7388037 Z M134.059258,161.674864 L130.028508,166.180915 L127.615942,168.96968 C126.748005,170.041151 126.45379,171.538278 127.027511,172.903303 L133.000082,204.489713 L134.44174,205.678606 C138.134144,208.687534 143.400598,208.335269 146.681101,205.2236 L139.561088,180.667806 L143.253489,180.873295 C144.180268,180.917329 145.092338,180.697163 145.872008,180.227476 L149.637965,177.967109 C150.12342,177.673555 150.299949,177.07177 150.049867,176.57273 C149.829205,176.132397 149.32904,175.882877 148.843586,176.000299 L145.445397,176.734182 L148.681766,174.150907 C148.990691,173.916064 149.167221,173.549122 149.152511,173.152823 L149.108378,171.993288 C149.093668,171.45021 148.711186,170.980524 148.181598,170.848425 L146.445729,170.393416 L148.490527,168.778871 C149.152511,168.250473 149.476146,167.399165 149.32904,166.577214 C149.108378,165.300257 147.887383,164.448948 146.607548,164.669115 L135.500915,166.635925 L134.059258,161.674864 Z M290.743684,202.655002 L256.482298,180.858615 L246.640793,168.221116 C245.68459,166.973513 244.213513,166.210272 242.639463,166.122208 L235.740109,165.725909 C235.298788,165.696552 234.842753,165.843331 234.504404,166.122208 L232.253657,167.912885 L224.765875,169.233877 C224.192154,169.336621 223.750829,169.806308 223.69199,170.364062 C223.54488,171.582309 224.515793,172.639103 225.751494,172.609749 L227.237285,172.565715 L222.632814,178.510183 C222.01496,179.317457 222.206199,180.476996 223.074136,181.034751 C223.53017,181.328301 224.103888,181.387016 224.618766,181.21088 L232.797955,173.505088 C233.430519,172.91798 234.313165,172.697817 235.136968,172.932661 L236.166724,173.211534 L229.22324,179.581658 L229.06142,179.816501 C227.899269,181.445723 228.370013,183.70609 230.091173,184.748208 L230.561917,185.041762 C231.606383,185.687581 232.886221,185.849036 234.063083,185.496772 L239.153008,183.984968 C239.756148,183.808835 240.388712,183.852869 240.962434,184.087712 L249.406414,187.654391 L274.650102,220.062752 C279.328125,226.080611 288.40467,226.300773 293.391622,220.547115 C298.172622,215.0283 296.922207,206.573945 290.743684,202.655002 Z M226.442901,135.548558 C232.680268,134.623862 239.226564,132.598338 239.226564,132.598338 C239.255984,132.613018 239.285404,132.642372 239.329537,132.657052 L238.60871,120.797471 C243.595663,115.836407 251.18642,105.54734 245.316822,93.9372786 C240.697638,84.7783939 236.534492,82.3418939 230.429521,80.7273488 C222.382728,78.61376 213.673952,80.1842748 207.171793,85.3361484 C204.612117,87.3763458 202.655585,89.7981691 202.405503,92.5135426 C202.18484,95.1261713 200.978559,99.7643244 202.052444,104.960232 C202.832114,108.703046 203.008644,115.733662 204.156086,119.461799 C206.612782,127.446468 212.261718,131.115891 214.586022,130.983793 C215.100899,130.954436 215.615774,130.895728 216.130652,130.837014 C216.101228,130.939759 216.071809,131.027827 216.027675,131.130572 C216.027675,131.130572 216.866192,131.923166 217.307513,133.772554 C218.043054,134.344985 221.073471,136.355829 226.442901,135.548558 Z M191.401846,338.350335 C160.862285,332.714099 130.352143,317.625423 103.813912,296.724379 L108.815574,294.654824 L127.895447,288.915842 C201.669962,290.706524 201.169798,314.587138 191.401846,338.350335" id="Shape" fill="#F9D291" fill-rule="nonzero" mask="url(#mask-6)"></path>
                </g>
                <g id="Clipped" transform="translate(0.000000, 6.000000)">
                    <mask id="mask-8" fill="white">
                        <use xlink:href="#path-7"></use>
                    </mask>
                    <g id="Path"></g>
                    <path d="M322.027632,106.692199 L318.071313,86.0553547 C314.34944,86.7598843 310.993896,88.4331402 308.239125,90.7815722 L304.868924,87.4350566 L299.374034,87.4350566 L299.374034,84.3087075 L285.776016,84.3087075 L285.776016,91.3686802 L299.374034,91.3686802 L299.374034,88.2129738 L304.546559,88.2129738 L307.667655,91.3099694 C303.520845,95.1555286 300.912606,100.615633 300.912606,106.692199 C300.912606,118.30226 310.363814,127.710665 322.027632,127.710665 C333.691449,127.710665 343.142657,118.30226 343.142657,106.692199 L322.027632,106.692199 Z M322.027632,85.6737327 C333.603529,85.6737327 343.142657,95.1702053 343.142657,106.692199 C343.142657,95.082141 333.691449,85.6737327 322.027632,85.6737327 Z M69.8049071,41.8754765 L75.4316733,41.8754765 L76.6478726,44.1651977 C76.8823212,44.5908538 77.5124027,44.5908538 77.7468513,44.1651977 L78.9777064,41.8754765 L84.5898205,41.8754765 C85.0880219,41.8754765 85.4983107,41.4645009 85.4983107,40.9801378 L85.4983107,35.1384114 C85.4983107,34.6393715 85.0880219,34.2430726 84.5898205,34.2430726 L69.8049071,34.2430726 C69.306702,34.2430726 68.9110691,34.6393715 68.9110691,35.1384114 L68.9110691,40.9801378 C68.9110691,41.4645009 69.306702,41.8754765 69.8049071,41.8754765 Z M137.882915,23.7925504 C137.882915,23.9833596 137.926875,24.1594957 138.000139,24.3356244 C138.102711,24.5704675 138.278548,24.790634 138.498344,24.9374129 C138.718141,25.084188 138.981894,25.1722561 139.274954,25.1722561 C140.036912,25.1722561 140.652338,24.5557908 140.652338,23.7925504 C140.652338,23.02931 140.036912,22.4128485 139.274954,22.4128485 C138.512997,22.4128485 137.882915,23.02931 137.882915,23.7925504 Z M121.207761,38.1326659 L137.384714,24.834668 C137.208877,24.5264373 137.106305,24.1741725 137.106305,23.7925504 C137.106305,22.6036577 138.073404,21.6349276 139.274954,21.6349276 C140.46185,21.6349276 141.428952,22.6036577 141.428952,23.7925504 C141.428952,24.9814469 140.46185,25.9501732 139.274954,25.9501732 C138.747445,25.9501732 138.263896,25.7446835 137.882915,25.4364528 L121.73527,38.7050934 C121.588738,38.4849307 121.412901,38.2941178 121.207761,38.1326659 Z M118.218541,38.5142842 L112.826224,35.4172886 C112.723651,35.6521318 112.577123,35.8722983 112.401283,36.0631074 L117.852216,39.204137 C117.925481,38.9399366 118.057357,38.7197739 118.218541,38.5142842 Z M76.0031427,48.7593168 C76.1496712,48.99416 76.3401597,49.1849729 76.5746083,49.3023945 C76.7650969,49.4051393 76.9702413,49.4638464 77.2046899,49.4638464 C77.8347714,49.4638464 78.3622807,49.0235173 78.5234613,48.451086 C78.5674214,48.3336644 78.5820772,48.2162428 78.5820772,48.0841445 C78.5820772,47.9373656 78.5527693,47.8052672 78.5088092,47.6731689 C78.3329728,47.1154144 77.8201155,46.7044426 77.2046899,46.7044426 C76.4427319,46.7044426 75.8126504,47.3209041 75.8126504,48.0841445 C75.8126504,48.3336644 75.9005705,48.5685076 76.0031427,48.7593168 Z M76.0177948,49.8895025 L64.0316087,62.4976438 L64.0316087,61.3674618 L75.4609775,49.3464248 C75.1972247,48.99416 75.0360404,48.5538309 75.0360404,48.0841445 C75.0360404,46.8952517 76.0031427,45.9265217 77.2046899,45.9265217 C78.2450564,45.9265217 79.1242386,46.6750853 79.3147272,47.6584921 L93.9238041,47.4236489 C93.8944999,47.5263938 93.8798441,47.6291348 93.8798441,47.7318797 C93.8798441,47.8933353 93.909152,48.0401104 93.93846,48.2015661 L79.3293793,48.4364093 C79.1535428,49.4638464 78.2743606,50.2417673 77.2046899,50.2417673 C76.7650969,50.2417673 76.3694677,50.1096689 76.0177948,49.8895025 Z M97.9094302,46.645728 L109.543943,36.3126274 C109.338799,36.1511755 109.14831,35.9750431 109.016434,35.7401999 L97.3965729,46.05862 C97.6017173,46.2200757 97.7629017,46.4255653 97.9094302,46.645728 Z M230.768517,7.26546233 L225.346895,7.26546233 L225.346895,8.04337948 L230.768517,8.04337948 L230.768517,7.26546233 Z M234.10941,4.25653106 L225.346895,4.25653106 L225.346895,5.03445196 L234.10941,5.03445196 L234.10941,4.25653106 Z M235.984998,1.24760354 L225.346895,1.24760354 L225.346895,2.02552069 L235.984998,2.02552069 L235.984998,1.24760354 Z M264.748911,7.26546233 L259.327285,7.26546233 L259.327285,8.04337948 L264.748911,8.04337948 L264.748911,7.26546233 Z M259.327285,5.03445196 L273.408857,5.03445196 L273.408857,4.25653106 L259.327285,4.25653106 L259.327285,5.03445196 Z M268.705229,1.24760354 L259.327285,1.24760354 L259.327285,2.02552069 L268.705229,2.02552069 L268.705229,1.24760354 Z M270.390329,17.4224306 L259.136797,17.4224306 L259.136797,48.8180313 L270.390329,48.8180313 L270.390329,17.4224306 Z M225.346895,48.8180313 L236.600428,48.8180313 L236.600428,22.3834912 L225.346895,22.3834912 L225.346895,48.8180313 Z M104.723095,99.191897 L90.6415238,99.191897 L90.6415238,99.9698141 L104.723095,99.9698141 L104.723095,99.191897 Z M104.723095,110.9047 L90.6415238,110.9047 L90.6415238,111.682617 L104.723095,111.682617 L104.723095,110.9047 Z M104.723095,122.617502 L90.6415238,122.617502 L90.6415238,123.395423 L104.723095,123.395423 L104.723095,122.617502 Z M104.723095,146.057791 L90.6415238,146.057791 L90.6415238,146.835709 L104.723095,146.835709 L104.723095,146.057791 Z M96.0631494,149.066719 L90.6415238,149.066719 L90.6415238,149.844636 L96.0631494,149.844636 L96.0631494,149.066719 Z M56.1336208,143.092894 L11.0901871,143.092894 L11.0901871,149.785925 L56.1336208,149.785925 L56.1336208,143.092894 Z M8.98014974,95.1408481 L8.18888387,95.1408481 L8.18888387,149.785925 L8.98014974,149.785925 L8.98014974,95.1408481 Z M11.0901871,125.817242 L38.4620601,125.817242 L38.4620601,119.124211 L11.0901871,119.124211 L11.0901871,125.817242 Z M11.0901871,113.825563 L49.2466953,113.825563 L49.2466953,107.132532 L11.0901871,107.132532 L11.0901871,113.825563 Z M11.0901871,101.833879 L29.6995459,101.833879 L29.6995459,95.1408481 L11.0901871,95.1408481 L11.0901871,101.833879 Z M90.6415238,143.826781 L100.034123,143.826781 L100.034123,143.04886 L90.6415238,143.04886 L90.6415238,143.826781 Z M90.6415238,126.40435 L96.0631494,126.40435 L96.0631494,125.626433 L90.6415238,125.626433 L90.6415238,126.40435 Z M90.6415238,120.386492 L100.034123,120.386492 L100.034123,119.608575 L90.6415238,119.608575 L90.6415238,120.386492 Z M90.6415238,114.691548 L96.0631494,114.691548 L96.0631494,113.913627 L90.6415238,113.913627 L90.6415238,114.691548 Z M90.6415238,108.673689 L100.034123,108.673689 L100.034123,107.895772 L90.6415238,107.895772 L90.6415238,108.673689 Z M90.6415238,102.978742 L96.0631494,102.978742 L96.0631494,102.200824 L90.6415238,102.200824 L90.6415238,102.978742 Z M90.6415238,96.9608866 L100.034123,96.9608866 L100.034123,96.1829657 L90.6415238,96.1829657 L90.6415238,96.9608866 Z M112.547815,157.286231 L0.583960493,157.286231 L0.583960493,87.5378015 L112.547815,87.5378015 L112.547815,157.286231 Z M110.935983,245.264365 C107.741619,245.264365 105.118724,247.656827 104.386074,250.841887 C103.668077,253.865495 105.0015,256.257961 108.210516,256.257961 C111.36092,256.257961 114.013119,254.144373 114.819037,250.651078 C115.493075,247.715538 114.247567,245.264365 110.935983,245.264365 Z M101.997628,245.440494 L95.3158436,245.440494 L92.8541333,256.081829 L99.7557147,256.081829 L100.209956,254.100339 L95.7554328,254.100339 L96.3415543,251.575774 L100.32718,251.575774 L100.781425,249.623641 L96.8104514,249.623641 L97.3233087,247.407307 L101.528731,247.407307 L101.997628,245.440494 Z M91.5353581,245.734052 C91.1543811,245.528562 90.2458909,245.264365 88.9710795,245.264365 C85.7034513,245.264365 82.6116596,247.289886 81.7617853,250.915279 C81.0584395,253.953563 82.450479,256.228604 86.1870006,256.228604 C87.5057758,256.228604 88.5754465,256.008438 89.0736479,255.773594 L89.1322638,253.894849 C88.6194066,254.085662 87.7548765,254.247114 87.0222265,254.247114 C84.8389212,254.247114 83.8718226,252.911446 84.370024,250.78318 C84.9121892,248.405391 86.6852057,247.260532 88.6340587,247.260532 C89.4985888,247.260532 90.1433224,247.451341 90.5975638,247.656827 L91.5353581,245.734052 Z M135.069532,258.973335 L60.2804312,258.973335 L65.6434446,242.005914 L142.908908,242.005914 L135.069532,258.973335 Z M110.423126,247.172464 C108.76733,247.172464 107.448558,248.728299 106.979661,250.797857 C106.496112,252.882089 107.140845,254.349858 108.781985,254.349858 C110.437778,254.349858 111.741897,252.794024 112.210794,250.724466 C112.665039,248.816367 112.108226,247.172464 110.423126,247.172464 Z M265.496213,180.198119 C263.532708,180.198119 262.77075,182.619939 263.796464,185.614193 C264.822175,188.623121 267.254577,191.04494 269.218086,191.04494 C271.181595,191.04494 271.943549,188.623121 270.917839,185.614193 C269.892128,182.619939 267.459722,180.198119 265.496213,180.198119 Z M263.957645,274.2675 L265.159196,292.864143 C262.902626,302.301905 259.151449,313.23679 253.070438,320.296766 C243.194293,331.760049 212.965076,337.322898 200.304852,339.186963 C198.429264,338.908086 196.553675,338.599855 194.678086,338.232914 C194.795311,317.816232 179.175175,300.540581 158.558351,298.705869 L112.562467,294.61079 C112.562467,294.61079 142.733071,282.986052 170.324741,274.2675 L263.957645,274.2675" id="Shape" fill="#868ACD" fill-rule="nonzero" mask="url(#mask-8)"></path>
                </g>
                <g id="Clipped" transform="translate(11.000000, 5.000000)">
                    <mask id="mask-10" fill="white">
                        <use xlink:href="#path-9"></use>
                    </mask>
                    <g id="Path"></g>
                    <path d="M336.858973,117.237555 L336.858973,120.35189 L333.246625,120.35189 L330.764971,118.085592 C332.248089,115.234439 333.09978,112.003133 333.09978,108.596368 C333.09978,108.508643 333.09978,108.420913 333.09978,108.333187 L311.939636,108.596368 L302.717866,127.457842 C305.595998,128.832242 308.753134,129.534064 311.939636,129.534064 C319.810446,129.534064 326.741458,125.17692 330.383176,118.787415 L332.938251,121.126822 L336.858973,121.126822 L336.858973,124.255777 L350.500734,124.255777 L350.500734,117.237555 L336.858973,117.237555 Z M280.794136,132.823859 L275.360926,132.823859 L275.360926,133.613407 L280.794136,133.613407 L280.794136,132.823859 Z M289.472583,129.82649 L275.360926,129.82649 L275.360926,130.601422 L289.472583,130.601422 L289.472583,129.82649 Z M284.758908,126.829126 L275.360926,126.829126 L275.360926,127.604053 L284.758908,127.604053 L284.758908,126.829126 Z M280.794136,121.156063 L275.360926,121.156063 L275.360926,121.93099 L280.794136,121.93099 L280.794136,121.156063 Z M289.472583,118.158698 L275.360926,118.158698 L275.360926,118.933626 L289.472583,118.933626 L289.472583,118.158698 Z M284.758908,115.161333 L275.360926,115.161333 L275.360926,115.936261 L284.758908,115.936261 L284.758908,115.161333 Z M93.7889718,63.1095195 L93.7889718,57.2902418 C93.7889718,56.7931196 93.3778101,56.3983437 92.8785441,56.3983437 L87.2544382,56.3983437 L86.020953,54.1174215 C85.7860034,53.6934011 85.169259,53.6934011 84.9343094,54.1174215 L83.7008242,56.3983437 L78.076722,56.3983437 C77.5774523,56.3983437 77.1662906,56.7931196 77.1662906,57.2902418 L77.1662906,63.1095195 C77.1662906,63.6066417 77.5774523,64.0014176 78.076722,64.0014176 L92.8785441,64.0014176 C93.3778101,64.0014176 93.7889718,63.6066417 93.7889718,63.1095195 Z M92.8785441,30.2847072 L98.5173335,30.2847072 L99.7361315,32.5656294 C99.9710811,32.989646 100.602509,32.989646 100.837459,32.5656294 L102.070944,30.2847072 L107.69505,30.2847072 C108.194316,30.2847072 108.590794,29.8753109 108.590794,29.3928091 L108.590794,23.5735352 C108.590794,23.0764092 108.194316,22.6816333 107.69505,22.6816333 L92.8785441,22.6816333 C92.3792744,22.6816333 91.9827961,23.0764092 91.9827961,23.5735352 L91.9827961,29.3928091 C91.9827961,29.8753109 92.3792744,30.2847072 92.8785441,30.2847072 Z M101.674465,36.7765626 C101.674465,36.0162552 101.057725,35.4021627 100.294139,35.4021627 C99.5305525,35.4021627 98.8991247,36.0162552 98.8991247,36.7765626 C98.8991247,36.995883 98.9725455,37.2005793 99.0606534,37.3906589 C99.1928116,37.6245997 99.3837072,37.8292959 99.6039733,37.9608904 C99.8095561,38.0632367 100.044506,38.1363422 100.294139,38.1363422 C100.617192,38.1363422 100.910879,38.0193719 101.145829,37.8292959 C101.351412,37.6684607 101.512937,37.4491441 101.601045,37.2005793 C101.645099,37.0543682 101.674465,36.9227775 101.674465,36.7765626 Z M102.452735,36.7765626 C102.452735,37.0543682 102.394001,37.3321737 102.29121,37.5953552 C102.188418,37.8292959 102.041577,38.0486163 101.865361,38.2386922 C101.468886,38.6480885 100.910879,38.9112737 100.294139,38.9112737 C99.8095561,38.9112737 99.3690238,38.7504385 99.001916,38.4872533 C98.7963333,38.3264219 98.6054377,38.1509663 98.4732795,37.9170256 C98.2530134,37.5953552 98.1208552,37.2005793 98.1208552,36.7765626 C98.1208552,35.5922386 99.0900202,34.6272312 100.294139,34.6272312 C101.48357,34.6272312 102.452735,35.5922386 102.452735,36.7765626 Z M84.0973025,49.8626235 C84.0973025,50.0234587 84.1266694,50.1696697 84.1707233,50.3158846 C84.3616189,50.8422512 84.875572,51.2370234 85.4776331,51.2370234 C86.2412154,51.2370234 86.8579598,50.6229309 86.8579598,49.8626235 C86.8579598,49.6725476 86.8139059,49.4824679 86.7404851,49.3070161 C86.6230103,49.0730754 86.4467981,48.853755 86.226532,48.7221643 C86.020953,48.5759494 85.7566329,48.4882235 85.4776331,48.4882235 C84.831518,48.4882235 84.2881981,48.9414809 84.1413565,49.5409568 C84.1119859,49.6433031 84.0973025,49.7456531 84.0973025,49.8626235 Z M83.3630871,50.3305049 C83.3337165,50.1696697 83.3043459,50.0234587 83.3043459,49.8626235 C83.3043459,49.7602735 83.3190331,49.6579272 83.3483999,49.5555772 C83.4952452,48.5174642 84.3909895,47.713292 85.4776331,47.713292 C85.9915824,47.713292 86.4467981,47.9033717 86.8285893,48.1957939 C87.034172,48.356629 87.1957008,48.5613291 87.3425424,48.7806457 C87.5334379,49.1023161 87.6509127,49.4678475 87.6509127,49.8626235 C87.6509127,51.0469475 86.6670643,52.0119549 85.4776331,52.0119549 C84.4350435,52.0119549 83.568666,51.2808882 83.3630871,50.3305049 Z M191.689517,51.3393734 L203.378257,51.3393734 L203.378257,52.5383216 L204.156526,52.5383216 L204.156526,51.3393734 L211.836441,51.3393734 L211.836441,52.5383216 L212.614711,52.5383216 L212.614711,51.3393734 L220.309309,51.3393734 L220.309309,52.5383216 L221.087578,52.5383216 L221.087578,51.3393734 L228.767493,51.3393734 L228.767493,52.5383216 L229.545762,52.5383216 L229.545762,51.3393734 L237.225677,51.3393734 L237.225677,52.5383216 L238.01863,52.5383216 L238.01863,51.3393734 L245.698544,51.3393734 L245.698544,52.5383216 L246.476814,52.5383216 L246.476814,51.3393734 L254.156728,51.3393734 L254.156728,52.5383216 L254.934998,52.5383216 L254.934998,51.3393734 L267.29922,51.3393734 L267.29922,50.5644457 L254.934998,50.5644457 L254.934998,49.3654975 L254.156728,49.3654975 L254.156728,50.5644457 L246.476814,50.5644457 L246.476814,49.3654975 L245.698544,49.3654975 L245.698544,50.5644457 L238.01863,50.5644457 L238.01863,49.3654975 L237.225677,49.3654975 L237.225677,50.5644457 L229.545762,50.5644457 L229.545762,49.3654975 L228.767493,49.3654975 L228.767493,50.5644457 L221.087578,50.5644457 L221.087578,49.3654975 L220.309309,49.3654975 L220.309309,50.5644457 L212.614711,50.5644457 L212.614711,49.3654975 L211.836441,49.3654975 L211.836441,50.5644457 L204.156526,50.5644457 L204.156526,49.3654975 L203.378257,49.3654975 L203.378257,50.5644457 L192.467786,50.5644457 L192.467786,46.0172217 L193.686588,46.0172217 L193.686588,45.2422939 L192.467786,45.2422939 L192.467786,39.11597 L193.686588,39.11597 L193.686588,38.3410422 L192.467786,38.3410422 L192.467786,32.2293424 L193.686588,32.2293424 L193.686588,31.4544109 L192.467786,31.4544109 L192.467786,25.3280907 L193.686588,25.3280907 L193.686588,24.5531592 L192.467786,24.5531592 L192.467786,18.4414593 L193.686588,18.4414593 L193.686588,17.6665278 L192.467786,17.6665278 L192.467786,11.5402076 L193.686588,11.5402076 L193.686588,10.7652761 L192.467786,10.7652761 L192.467786,4.65357629 L193.686588,4.65357629 L193.686588,3.87864854 L192.467786,3.87864854 L192.467786,1.26143563 L191.689517,1.26143563 L191.689517,3.87864854 L190.485398,3.87864854 L190.485398,4.65357629 L191.689517,4.65357629 L191.689517,10.7652761 L190.485398,10.7652761 L190.485398,11.5402076 L191.689517,11.5402076 L191.689517,17.6665278 L190.485398,17.6665278 L190.485398,18.4414593 L191.689517,18.4414593 L191.689517,24.5531592 L190.485398,24.5531592 L190.485398,25.3280907 L191.689517,25.3280907 L191.689517,31.4544109 L190.485398,31.4544109 L190.485398,32.2293424 L191.689517,32.2293424 L191.689517,38.3410422 L190.485398,38.3410422 L190.485398,39.11597 L191.689517,39.11597 L191.689517,45.2422939 L190.485398,45.2422939 L190.485398,46.0172217 L191.689517,46.0172217 L191.689517,51.3393734 Z M0.337785247,139.593516 L65.2279171,139.593516 L65.2279171,132.911585 L0.337785247,132.911585 L0.337785247,139.593516 Z M85.4923165,139.140259 L80.0591061,139.140259 L80.0591061,139.915186 L85.4923165,139.915186 L85.4923165,139.140259 Z M80.0591061,136.917822 L94.1707667,136.917822 L94.1707667,136.14289 L80.0591061,136.14289 L80.0591061,136.917822 Z M80.0591061,133.130905 L80.0591061,133.905833 L89.4717756,133.905833 L89.4717756,133.130905 L80.0591061,133.130905 Z M234.127278,145.749081 C234.215386,145.792945 234.347545,145.763705 234.406282,145.661355 C234.494386,145.50052 234.523757,145.354308 234.553127,145.193473 C234.597178,145.032638 234.582494,144.886427 234.582494,144.725592 C234.567811,144.579377 234.553127,144.418546 234.509073,144.25771 C234.465019,144.111495 234.406282,143.950664 234.318178,143.804449 C234.303491,143.775208 234.274124,143.760584 234.259437,143.745964 C234.171332,143.702103 234.053858,143.731344 234.009804,143.819073 C233.9217,143.979905 233.877646,144.12612 233.848279,144.286955 C233.804225,144.447786 233.804225,144.594001 233.804225,144.754836 C233.804225,144.915668 233.818908,145.061883 233.862962,145.208094 C233.907012,145.368929 233.951066,145.529764 234.053858,145.675975 C234.068541,145.70522 234.097912,145.73446 234.127278,145.749081 Z M206.476655,147.737577 C206.579443,147.766821 206.682234,147.708336 206.711605,147.620607 C206.814392,147.28432 206.887813,146.962649 206.961238,146.640983 C207.034659,146.319312 207.093396,145.997645 207.152133,145.675975 C207.196187,145.354308 207.269608,145.032638 207.313662,144.710971 C207.357712,144.389301 207.401766,144.053014 207.416453,143.716723 C207.416453,143.658238 207.401766,143.599753 207.357712,143.570508 C207.284292,143.526644 207.181504,143.555888 207.13745,143.614373 C206.931867,143.906799 206.799709,144.228466 206.667551,144.550136 C206.535389,144.871807 206.447285,145.208094 206.388547,145.544384 C206.315126,145.880675 206.271073,146.216962 206.271073,146.567873 C206.256389,146.918784 206.271073,147.255075 206.35918,147.605986 C206.373864,147.664471 206.417914,147.708336 206.476655,147.737577 Z M210.221161,143.555888 C210.221161,143.628994 210.250532,143.702103 210.323952,143.731344 C210.412057,143.775208 210.514848,143.731344 210.558902,143.643614 C210.808535,143.146492 210.808535,142.54702 210.676377,142.020653 C210.558902,141.479666 210.309269,140.99716 210.015582,140.558523 C209.736578,140.134503 209.428208,139.739731 209.119834,139.359575 C208.826151,138.964799 208.547147,138.570027 208.326881,138.146007 C208.297511,138.087525 208.238777,138.058281 208.165352,138.058281 C208.091932,138.072901 208.033194,138.146007 208.033194,138.233736 C208.091932,138.760103 208.312198,139.257229 208.561831,139.710486 C208.811464,140.163747 209.105151,140.573144 209.369471,140.98254 C209.619104,141.377316 209.854053,141.801333 210.015582,142.225349 C210.177107,142.64937 210.265215,143.088007 210.221161,143.555888 Z M127.841974,163.133804 C127.430813,161.496219 126.975597,159.873254 126.549752,158.25029 L125.154738,153.396019 C124.670155,151.773058 124.185569,150.164714 123.642249,148.570994 C123.612882,148.483264 123.524774,148.439399 123.43667,148.454023 C123.348562,148.468644 123.289825,148.570994 123.304512,148.658719 C123.67162,150.310925 124.082781,151.94851 124.493943,153.571475 L125.800849,158.45499 C126.270748,160.077954 126.71128,161.700915 127.210546,163.30926 C127.695129,164.917601 128.194399,166.525945 128.723035,168.119665 C128.737718,168.134286 128.752402,168.14891 128.752402,168.14891 C128.209082,168.236636 127.680445,168.309741 127.137126,168.426712 C126.593806,168.529062 126.035799,168.646032 125.477791,168.821488 C125.419058,168.836108 125.375004,168.894593 125.375004,168.953078 C125.375004,169.040808 125.433741,169.113913 125.521845,169.113913 C126.094536,169.128534 126.667226,169.099293 127.239913,169.070049 C127.79792,169.040808 128.355927,168.982323 128.928614,168.909213 C129.486621,168.836108 130.044624,168.763002 130.602632,168.646032 C131.160635,168.543682 131.718642,168.426712 132.276645,168.26588 C132.335383,168.236636 132.39412,168.178151 132.39412,168.090421 C132.408803,168.002695 132.320699,167.914969 132.232595,167.914969 C131.645221,167.900345 131.087214,167.929589 130.514524,167.973451 C130.015258,168.002695 129.501305,168.06118 129.002035,168.119665 C129.016722,168.090421 129.016722,168.075801 129.016722,168.04656 C128.664298,166.408975 128.253136,164.77139 127.841974,163.133804 Z M189.193176,215.858196 L178.547025,215.75585 C178.532341,215.741225 178.532341,215.741225 178.532341,215.726605 L173.613084,215.726605 L173.613084,215.741225 L166.109382,215.711985 L154.552803,215.66812 C150.79361,215.638879 147.034417,215.6535 143.275224,215.68274 L138.693708,200.242652 L136.344212,192.391017 L133.965346,184.554002 C133.935976,184.480896 133.847871,184.437032 133.774451,184.451652 C133.701026,184.480896 133.642292,184.554002 133.671659,184.641732 L135.874313,192.522607 L138.135701,200.403487 L142.65848,216.136001 C142.702534,216.282212 142.849375,216.399183 143.010904,216.399183 C146.858201,216.413807 150.705502,216.428427 154.552803,216.413807 L166.109382,216.369942 L173.613084,216.340701 L173.613084,222.847177 C173.613084,227.350536 176.623374,231.093588 180.367884,231.210558 L181.572002,231.25442 C181.792265,228.140084 181.410473,224.996509 180.411938,221.969899 C179.839247,220.229964 179.266557,218.329198 178.693866,216.326077 L189.193176,216.209107 C189.295967,216.209107 189.369388,216.136001 189.369388,216.033651 C189.369388,215.945925 189.295967,215.858196 189.193176,215.858196 Z M190.04487,214.644627 L184.978771,197.391502 L179.839247,180.167613 L178.649816,176.190621 C178.693866,175.898195 178.723237,175.620389 178.781974,175.342584 C178.870082,174.947812 178.943503,174.567656 179.060978,174.17288 C179.266557,173.397952 179.501506,172.637645 179.765826,171.862717 C180.294463,170.342102 180.852466,168.821488 181.483894,167.330117 C182.673325,164.303508 183.994919,161.335384 185.257771,158.338019 C185.287141,158.279534 185.257771,158.191804 185.199033,158.162564 C185.125612,158.118699 185.022821,158.14794 184.993454,158.206429 C184.185814,159.639314 183.436911,161.086823 182.732063,162.563573 C182.027214,164.040323 181.381103,165.531697 180.749679,167.037688 C180.162305,168.558302 179.574931,170.093541 179.105032,171.658021 C178.781974,172.78386 178.473604,173.938939 178.341442,175.123267 L174.699724,162.929104 C173.011027,157.182936 171.234222,151.466008 169.501467,145.73446 C169.457413,145.573629 169.310571,145.471279 169.149042,145.471279 L146.212094,146.246207 C138.561546,146.494768 130.911002,146.801814 123.275141,147.094244 C123.187037,147.094244 123.128296,147.167349 123.128296,147.240455 C123.128296,147.31356 123.20172,147.386666 123.275141,147.386666 C130.925685,147.211214 138.576233,147.050379 146.226777,146.816438 L168.899409,146.187721 C170.588107,151.83154 172.247441,157.504606 173.980192,163.148425 L179.193136,180.357689 L184.420764,197.566954 L189.707129,214.746977 C189.736496,214.834707 189.824603,214.893192 189.927395,214.863948 C190.015499,214.834707 190.074236,214.732357 190.04487,214.644627 Z M130.132732,182.25846 C131.028477,182.37543 131.924221,182.433915 132.819969,182.477776 C133.715713,182.536265 134.611457,182.550885 135.507202,182.580126 L136.843478,182.580126 C137.313377,182.580126 137.79796,182.536265 138.253176,182.419295 C139.17829,182.199974 140.000614,181.805198 140.793567,181.366561 C140.852304,181.322697 140.896358,181.234967 140.866988,181.147241 C140.837621,181.059511 140.734829,181.001026 140.646725,181.044891 C139.795031,181.308072 138.958024,181.615122 138.121017,181.746713 C137.695168,181.805198 137.284011,181.849063 136.858162,181.834443 L135.507202,181.805198 C134.611457,181.805198 133.715713,181.790578 132.819969,181.819819 C131.924221,181.849063 131.028477,181.892924 130.132732,181.966034 C130.059308,181.980654 130.000574,182.024519 130.000574,182.097624 C129.985887,182.185354 130.044624,182.25846 130.132732,182.25846 Z M133.583551,179.261095 C134.728932,179.21723 135.844943,179.187985 137.005007,179.041774 C137.592381,178.968665 138.179755,178.837074 138.737758,178.603134 C139.281082,178.354573 139.795031,177.959797 140.088718,177.43343 C140.132772,177.374945 140.118089,177.287219 140.059351,177.243354 C140.000614,177.199489 139.897822,177.199489 139.839085,177.272599 C139.14892,178.091391 138.018226,178.325332 136.94627,178.398437 C135.844943,178.456923 134.684878,178.486163 133.568868,178.486163 C132.438174,178.515408 131.30748,178.515408 130.176783,178.515408 C129.046089,178.530028 127.900712,178.544648 126.770014,178.603134 C126.68191,178.603134 126.608489,178.676243 126.593806,178.763969 C126.593806,178.851695 126.652539,178.939424 126.755331,178.954045 C127.886028,179.085635 129.016722,179.158745 130.162099,179.202606 C131.292797,179.261095 132.438174,179.261095 133.583551,179.261095 Z M141.718682,170.152026 C141.674628,170.078917 141.586523,170.049676 141.513103,170.093541 C140.45583,170.736878 139.41324,171.42408 138.37065,172.111278 C137.357431,172.78386 136.314842,173.558787 135.33099,174.17288 C134.347141,174.757732 133.113652,174.860082 131.894854,174.918567 C130.676052,174.977052 129.398513,174.947812 128.150345,175.254858 C128.062237,175.269478 128.003503,175.342584 128.018186,175.430313 C128.03287,175.532663 128.106291,175.605769 128.209082,175.591149 C129.427884,175.488799 130.661369,175.605769 131.909538,175.605769 C133.157706,175.605769 134.523349,175.518043 135.712784,174.845462 C136.314842,174.47993 136.740687,174.114399 137.269323,173.748863 C137.768593,173.383332 138.282542,173.0178 138.767129,172.637645 C139.750981,171.891962 140.734829,171.13165 141.689311,170.342102 C141.748052,170.283617 141.762736,170.210512 141.718682,170.152026 Z M257.76908,187.624472 C257.519443,187.025 257.255127,186.440148 256.976123,185.855296 C256.814594,185.53363 256.638386,185.211959 256.46217,184.890293 C256.300645,184.583243 256.095062,184.261576 255.904167,183.96915 C255.860113,183.910665 255.801375,183.881421 255.727954,183.896045 C255.654534,183.925285 255.61048,183.998391 255.625163,184.086121 C255.713271,184.437032 255.816062,184.787943 255.933537,185.124234 C256.051012,185.460524 256.168487,185.811435 256.300645,186.147722 C256.564961,186.820304 256.858648,187.478261 257.167019,188.121598 L257.196389,188.150843 C257.240443,188.267813 257.372601,188.355539 257.519443,188.340919 C258.180241,188.311674 258.855719,188.267813 259.531201,188.150843 C259.589939,188.136219 259.663359,188.077733 259.678043,188.004628 C259.69273,187.902278 259.619305,187.814552 259.531201,187.799932 C258.943827,187.697582 258.356453,187.653717 257.76908,187.624472 Z M138.37065,299.652844 C138.341284,299.550494 138.253176,299.506633 138.150384,299.521253 C135.727468,300.16459 133.304551,300.807927 130.881631,301.495129 L123.656936,303.600596 L116.461604,305.793788 C114.068055,306.524855 111.674509,307.299783 109.295643,308.103951 C109.222222,308.118575 109.178168,308.191681 109.192851,308.279411 C109.222222,308.352516 109.295643,308.396381 109.383747,308.381757 C111.806667,307.75304 114.229583,307.095083 116.6525,306.422505 L123.877199,304.331659 L131.087214,302.153087 C133.480764,301.42202 135.874313,300.647092 138.253176,299.857544 C138.341284,299.8283 138.400017,299.740574 138.37065,299.652844 Z M125.184108,259.385797 C125.830216,258.216093 126.41759,257.031765 127.019651,255.847441 C127.607025,254.663117 128.165028,253.449549 128.737718,252.250604 C129.266355,251.051656 129.839045,249.838088 130.352999,248.624523 C130.881631,247.410954 131.395584,246.182766 131.880171,244.939953 C131.894854,244.881471 131.865484,244.793741 131.806746,244.764501 C131.733325,244.720636 131.645221,244.749877 131.601167,244.822982 C130.955056,245.978066 130.352999,247.16239 129.765625,248.346717 C129.163564,249.531041 128.60556,250.74461 128.018186,251.928934 C127.474863,253.142502 126.916859,254.341447 126.388223,255.555015 C125.859586,256.783204 125.33095,257.996773 124.861051,259.239582 C124.831684,259.312687 124.861051,259.415037 124.934472,259.458902 C125.02258,259.502767 125.140054,259.473523 125.184108,259.385797 Z M226.271152,168.982323 C225.727832,169.362475 225.213879,169.786495 224.699929,170.210512 C224.185976,170.634528 223.701394,171.087789 223.216807,171.526426 C222.732225,171.979687 222.262326,172.432949 221.80711,172.91545 C221.351898,173.397952 220.896682,173.880458 220.485521,174.3922 C220.426783,174.450686 220.426783,174.538415 220.470837,174.611521 C220.529575,174.684626 220.64705,174.713871 220.72047,174.655386 C221.26379,174.26061 221.777743,173.836593 222.291696,173.412576 C222.790962,172.988556 223.275549,172.535295 223.760131,172.082038 C224.23003,171.628776 224.714613,171.175515 225.155145,170.693013 C225.610357,170.210512 226.065573,169.713386 226.476734,169.201643 C226.520788,169.143154 226.520788,169.070049 226.476734,169.026184 C226.43268,168.953078 226.329893,168.938458 226.271152,168.982323 Z M238.840953,183.676724 C238.914378,183.632859 238.943744,183.559754 238.929061,183.486648 C238.899694,183.384298 238.811586,183.325813 238.708795,183.355058 C238.150792,183.472028 237.592784,183.632859 237.034781,183.793695 C236.491457,183.95453 235.948138,184.129985 235.404818,184.305441 C234.861498,184.495517 234.318178,184.670972 233.774854,184.875672 C233.231534,185.080369 232.702898,185.285065 232.174261,185.53363 C232.115524,185.562871 232.07147,185.621356 232.086157,185.679841 C232.086157,185.767571 232.159578,185.826056 232.247682,185.826056 C232.835056,185.752946 233.407746,185.635976 233.965753,185.504385 C234.479703,185.402035 234.978973,185.241204 235.492926,185.094989 C235.492926,185.109613 235.478238,185.138854 235.492926,185.153474 C235.654451,185.402035 235.874717,185.577495 236.12435,185.723706 C236.359299,185.869917 236.638303,185.972267 236.917306,186.030752 C237.196306,186.089237 237.47531,186.103858 237.754313,186.059996 C238.048,186.016132 238.31232,185.928406 238.561953,185.767571 C238.606003,185.738326 238.635374,185.694465 238.635374,185.635976 C238.650057,185.53363 238.576637,185.4459 238.473845,185.43128 L238.459162,185.43128 C238.209529,185.402035 237.974579,185.402035 237.73963,185.372795 C237.50468,185.343554 237.284414,185.314309 237.064148,185.270445 C236.829198,185.241204 236.608932,185.182719 236.38867,185.124234 C236.212458,185.080369 236.036246,185.021884 235.84535,184.963398 C236.329932,184.802563 236.814515,184.641732 237.269731,184.437032 C237.813051,184.203091 238.341687,183.96915 238.840953,183.676724 Z M223.319599,185.709085 L226.447368,183.720589 C227.504641,183.077252 228.547226,182.419295 229.619187,181.805198 C230.67646,181.161861 231.748416,180.562389 232.835056,179.977537 L236.0803,178.193737 C236.168404,178.149873 236.197774,178.062147 236.168404,177.974421 C236.139033,177.886691 236.036246,177.842826 235.933454,177.872071 C234.77339,178.310708 233.628013,178.822454 232.512002,179.363441 C231.381308,179.904428 230.294665,180.518524 229.208021,181.147241 C228.150748,181.790578 227.093475,182.463156 226.080256,183.179598 C225.067037,183.896045 224.083185,184.656352 223.143387,185.475145 C223.084649,185.519006 223.069966,185.606735 223.11402,185.665221 C223.158074,185.738326 223.246178,185.752946 223.319599,185.709085 Z M288.620892,224.528627 C287.167141,226.019997 285.287545,227.101975 283.27579,227.701447 C281.264035,228.31554 279.090752,228.43251 277.005573,228.023114 C276.917469,227.993873 276.829361,228.052359 276.799994,228.140084 C276.770623,228.227814 276.829361,228.33016 276.917469,228.359405 C279.032015,228.973501 281.337456,228.944257 283.481369,228.359405 C285.610602,227.789173 287.607673,226.648714 289.1789,225.069614 C290.720755,223.46127 291.807395,221.458153 292.306665,219.308822 C292.820618,217.174114 292.776564,214.907812 292.086398,212.846211 C292.071715,212.773101 291.983607,212.72924 291.910186,212.743861 C291.836765,212.773101 291.778028,212.846211 291.807395,212.919316 C292.291977,214.980918 292.233244,217.14487 291.675237,219.14799 C291.11723,221.165727 290.089327,223.051873 288.620892,224.528627 Z M244.215426,155.706186 C244.450376,155.443001 244.700009,155.20906 244.949642,154.945879 C245.213962,154.726558 245.478282,154.477997 245.757282,154.273297 C246.300605,153.820036 246.902663,153.439884 247.50472,153.103593 L247.519403,153.088973 C247.592828,153.059732 247.622195,152.972003 247.592828,152.913518 C247.563457,152.825792 247.475353,152.796547 247.401928,152.825792 C246.021602,153.366779 244.773433,154.200192 243.730844,155.252925 C242.688254,156.305658 241.86593,157.577712 241.366665,158.981356 C241.205136,159.332267 241.175765,159.697799 241.072974,160.06333 L240.940816,160.604317 L240.882078,161.145308 C240.838024,161.52546 240.779291,161.890991 240.764603,162.256527 C240.779291,162.622058 240.793974,162.98759 240.808657,163.353125 C240.808657,163.718656 240.882078,164.084188 240.940816,164.449719 L241.131715,165.517073 C241.337294,166.218895 241.572244,166.906097 241.79251,167.593299 C241.821877,167.681028 241.909984,167.724889 241.998089,167.710269 C242.10088,167.695649 242.159617,167.607919 242.144934,167.505569 L242.130247,167.490949 C241.998089,166.789126 241.821877,166.101925 241.704402,165.414727 L241.572244,164.361993 C241.52819,164.025702 241.484139,163.674791 241.498823,163.32388 C241.425398,161.934856 241.675035,160.545836 242.10088,159.244538 C242.526725,157.928623 243.290311,156.744295 244.215426,155.706186 Z M208.047878,151.451388 C208.53246,151.860784 209.134521,152.094725 209.736578,152.25556 C210.940697,152.518742 212.130128,152.606471 213.334243,152.650332 C215.742476,152.738062 218.150709,152.445636 220.500204,151.992375 C222.8497,151.495253 225.155145,150.808051 227.401849,149.989258 C229.63387,149.185086 231.821837,148.249323 234.009804,147.29894 C234.083228,147.255075 234.127278,147.167349 234.097912,147.064999 C234.068541,146.977273 233.965753,146.933408 233.877646,146.962649 C231.630941,147.766821 229.413604,148.600234 227.1669,149.345921 C224.920196,150.091608 222.658804,150.778806 220.338679,151.232068 C218.047917,151.729194 215.698422,151.992375 213.348926,151.992375 C212.174178,151.992375 210.984747,151.94851 209.854053,151.743814 C209.29605,151.641464 208.752726,151.451388 208.312198,151.129718 C207.856982,150.808051 207.504558,150.340169 207.416453,149.799182 C207.401766,149.726073 207.328346,149.667592 207.254925,149.667592 C207.166817,149.682212 207.108079,149.755318 207.122763,149.843044 C207.181504,150.47176 207.563295,151.041992 208.047878,151.451388 Z M206.285756,125.659422 C206.476655,125.732527 206.682234,125.761772 206.87313,125.791013 C207.078713,125.805637 207.284292,125.820257 207.489874,125.776392 C207.68077,125.747148 207.886353,125.703287 208.077248,125.600937 C208.121302,125.586316 208.150669,125.557072 208.165352,125.513207 C208.209406,125.410861 208.165352,125.29389 208.062561,125.250026 C207.871665,125.162296 207.68077,125.133055 207.504558,125.08919 C207.313662,125.045326 207.122763,125.045326 206.946554,125.016085 C206.755655,125.016085 206.564759,125.001464 206.388547,125.016085 C206.197652,125.030705 206.006756,125.045326 205.78649,125.08919 C205.757119,125.103814 205.727753,125.118435 205.698382,125.147676 C205.639645,125.220785 205.654332,125.323131 205.727753,125.381616 C205.903965,125.513207 206.09486,125.600937 206.285756,125.659422 Z M214.083145,122.03334 C214.156566,121.989476 214.185937,121.90175 214.141883,121.828644 C214.112516,121.726294 214.009724,121.682429 213.921617,121.726294 C213.069926,122.062585 212.218232,122.355007 211.351855,122.559707 C210.485481,122.764407 209.60442,122.925239 208.708676,122.983724 C207.827611,123.056829 206.931867,123.056829 206.036123,122.983724 C205.140379,122.925239 204.259318,122.764407 203.36357,122.574327 C203.304836,122.545087 203.231412,122.588948 203.202045,122.647437 C203.157991,122.720542 203.202045,122.808268 203.275466,122.852133 C204.112473,123.232289 205.037587,123.48085 205.962702,123.641681 C206.887813,123.802516 207.842299,123.81714 208.782097,123.758651 C209.721895,123.685546 210.647006,123.51009 211.542754,123.217664 C212.438498,122.939859 213.304876,122.545087 214.083145,122.03334 Z M199.619064,105.087257 C198.987636,105.087257 198.473683,105.876809 198.473683,106.841813 C198.473683,107.80682 198.987636,108.596368 199.619064,108.596368 C200.250492,108.596368 200.764441,107.80682 200.764441,106.841813 C200.764441,105.876809 200.250492,105.087257 199.619064,105.087257 Z M211.249067,105.087257 C210.617639,105.087257 210.103686,105.876809 210.103686,106.841813 C210.103686,107.80682 210.617639,108.596368 211.249067,108.596368 C211.880495,108.596368 212.394444,107.80682 212.394444,106.841813 C212.394444,105.876809 211.880495,105.087257 211.249067,105.087257 Z M250.573748,200.681292 C250.77933,200.959094 251.175805,201.017583 251.454808,200.798263 C252.600189,199.950226 255.404897,197.552333 257.020177,193.677691 C257.26981,193.736176 257.519443,193.780041 257.754392,193.780041 C258.253662,193.780041 258.664824,193.619206 259.002565,193.3414 L260.177313,192.259426 C259.854255,192.493367 259.472464,192.624957 259.017248,192.624957 C257.049544,192.624957 254.611944,190.212445 253.584042,187.21508 C252.820452,184.992643 253.055401,183.077252 254.039253,182.25846 L254.039253,182.243835 L252.761718,183.398919 L252.776402,183.398919 C251.792549,184.232332 251.5576,186.147722 252.321186,188.370159 C252.482715,188.82342 252.67361,189.276682 252.893876,189.700698 C252.247765,190.958132 250.573748,193.780041 247.739669,196.031718 C247.460666,196.251039 247.401928,196.631191 247.622195,196.908996 L250.573748,200.681292 Z M238.209529,155.10671 C237.269731,154.580347 236.050929,154.887393 235.507609,155.823156 L228.738122,167.432464 C228.884967,167.417843 229.031813,167.388599 229.193338,167.403223 L233.18748,167.637164 L238.943744,157.782408 C239.487068,156.846645 239.164011,155.647701 238.209529,155.10671 Z M222.658804,181.249591 C222.717542,181.293452 222.80565,181.308072 222.864383,181.249591 C223.65734,180.48928 224.435609,179.728976 225.243249,178.983289 C226.050889,178.266843 226.843842,177.53578 227.695536,176.863198 C228.121381,176.512287 228.532543,176.161376 228.973072,175.825089 C229.354867,175.503419 229.795395,175.313343 230.294665,175.137887 C231.2932,174.830841 232.423894,174.772356 233.495854,174.36296 C233.569275,174.333715 233.628013,174.245989 233.613329,174.15826 C233.583959,174.070534 233.495854,174.012049 233.393063,174.026669 C232.350473,174.231369 231.249146,174.216745 230.103769,174.47993 C229.707291,174.58228 229.281446,174.743112 228.914338,174.962432 L229.06118,174.69925 L228.59128,174.58228 C227.768957,174.348339 226.887896,174.567656 226.256468,175.152508 L221.777743,179.363441 L215.199156,190.651082 L214.406199,195.095956 C214.347465,195.344517 214.641149,195.519976 214.846731,195.373761 L218.620608,192.595717 L222.702858,185.606735 C221.719006,184.451652 221.586848,182.740961 222.526646,181.439667 L222.658804,181.249591 Z M195.140335,101.622011 L199.442852,102.060652 C199.384115,102.031408 199.325377,102.002163 199.281323,101.972922 C198.444316,101.622011 197.519201,101.446556 196.594087,101.680496 C196.520666,101.709741 196.432558,101.651252 196.417874,101.578146 C196.403191,101.519661 196.417874,101.461176 196.476612,101.417311 C196.902457,101.095645 197.460464,100.964054 198.003784,100.94943 C198.547104,100.934809 199.090428,101.0664 199.589694,101.2711 C200.074276,101.4758 200.529492,101.753602 200.92597,102.089893 C201.102182,102.236104 201.263711,102.382319 201.42524,102.543154 C202.056664,102.937926 202.467826,103.581267 202.467826,104.31233 L202.467826,105.496654 C203.569153,105.072637 204.787954,105.174987 205.801173,105.78908 L205.801173,105.072637 C205.801173,104.487785 206.050806,103.946798 206.520705,103.537402 C207.049342,103.054896 207.783561,102.83558 208.53246,102.908685 L214.376832,103.508157 C214.185937,103.391187 213.980354,103.259596 213.774775,103.142626 C212.585344,102.513909 211.160959,102.236104 209.854053,102.73323 C209.780632,102.762474 209.692524,102.73323 209.663158,102.645504 C209.633787,102.587015 209.663158,102.513909 209.707208,102.470045 C210.338636,102.031408 211.146276,101.841332 211.909862,101.870572 C212.688131,101.885193 213.451717,102.104513 214.141883,102.455424 C214.817365,102.820956 215.419422,103.274217 215.948058,103.800583 C216.476695,104.31233 216.946594,104.867941 217.372439,105.452793 C217.431176,105.540519 217.416493,105.642869 217.343069,105.701354 C217.269648,105.745215 217.181544,105.745215 217.122806,105.701354 C216.961277,105.569763 216.799749,105.438169 216.652907,105.291957 C216.682274,105.423548 216.696961,105.555139 216.696961,105.686733 L216.696961,107.163483 L219.795355,106.344691 C218.855557,103.668993 218.150709,101.987543 218.150709,101.987543 L215.845267,96.1975095 L215.845267,101.987543 C215.845267,101.987543 215.845267,101.987543 209.986211,99.092528 C204.141843,96.1975095 202.056664,89.9834596 202.056664,89.9834596 L202.056664,99.092528 C199.398798,98.3907058 197.328306,96.870091 195.815817,95.3640966 C195.610234,96.9724372 195.21376,99.1363928 195.140335,101.622011 Z M215.904004,105.686733 C215.904004,104.984911 215.287264,104.385435 214.450253,104.297709 L208.444356,103.683613 C207.915719,103.625128 207.401766,103.785963 207.034659,104.10763 C206.740972,104.370815 206.579443,104.721726 206.579443,105.072637 L206.579443,109.005765 C206.579443,109.722207 207.210871,110.321683 208.047878,110.409409 L214.039091,111.023505 C214.567728,111.081991 215.081681,110.921155 215.463472,110.599489 C215.757163,110.336304 215.904004,109.985393 215.904004,109.634481 L215.904004,105.686733 Z M201.23434,109.210465 C201.528027,108.94728 201.689556,108.610993 201.689556,108.245457 L201.689556,104.31233 C201.689556,103.595887 201.058128,103.011035 200.221121,102.923306 L195.140335,102.396939 C195.140335,103.815208 195.243127,105.321198 195.566184,106.871057 C195.713026,107.558259 195.845184,108.362428 195.947975,109.239706 L199.824643,109.634481 C200.35328,109.692967 200.867233,109.532131 201.23434,109.210465 Z M188.708593,134.432199 C188.708593,134.432199 188.312115,126.215029 188.708593,107.631365 C188.928859,97.411078 191.439884,88.9599708 193.657217,83.4038746 C194.185854,81.6200783 194.905386,80.026358 195.815817,78.5934691 C196.579403,77.058234 197.10804,76.2248211 197.10804,76.2248211 L197.592622,76.2248211 C206.227019,66.4724157 224.538401,66.5893861 237.78368,73.8561692 C261.190532,86.6790449 250.324115,126.595185 250.324115,126.595185 C242.174301,132.589918 223.583919,136.099029 223.583919,136.099029 C223.583919,136.099029 224.362188,133.18939 224.20066,127.794133 C223.789498,128.188905 223.348969,128.569061 222.893754,128.919972 C221.836481,129.6949 220.691103,130.308992 219.516356,130.835362 C218.312237,131.347105 217.093436,131.771125 215.85995,132.092792 C214.611782,132.429083 213.363613,132.706888 212.100757,132.940829 C212.027337,132.955449 211.939229,132.896964 211.924545,132.823859 C211.909862,132.736129 211.953916,132.677644 212.027337,132.648399 L215.654371,131.464075 C216.858486,131.069303 218.047917,130.659903 219.193298,130.13354 C220.353363,129.636414 221.454686,129.036942 222.482592,128.34974 C223.084649,127.954964 223.642656,127.516327 224.171293,127.048446 C224.097872,125.279266 223.921656,123.261529 223.583919,121.009852 C222.790962,115.790046 221.278477,110.672594 220.044988,107.075754 L216.696961,107.967652 L216.696961,109.634481 C216.696961,110.219333 216.432641,110.76032 215.977425,111.169717 C215.507526,111.579113 214.905469,111.813054 214.244674,111.813054 C214.156566,111.813054 214.053775,111.813054 213.965671,111.798433 L207.959773,111.169717 C206.726288,111.052746 205.801173,110.116983 205.801173,109.005765 L205.801173,106.724843 L205.683699,106.637117 C204.7439,105.920674 203.510415,105.818324 202.467826,106.344691 L202.467826,108.245457 C202.467826,108.420913 202.438459,108.596368 202.394405,108.757204 C202.658721,108.464778 202.923041,108.172352 203.202045,107.894546 C203.275466,107.836061 203.39294,107.836061 203.451678,107.894546 C203.510415,107.967652 203.525099,108.055381 203.481045,108.128487 L203.466361,108.128487 C202.834937,108.976524 202.218193,109.839178 201.689556,110.73108 C201.19029,111.622978 200.66165,112.587985 200.676337,113.494504 C200.691021,113.6992 200.735074,113.9039 200.837866,114.050111 C200.881916,114.137841 200.940653,114.210946 201.014074,114.284052 L201.293078,114.503372 C201.70424,114.781178 202.159455,114.971254 202.644038,115.132089 C203.598519,115.424515 204.67048,115.483 205.713065,115.38065 L205.727753,115.38065 C205.801173,115.38065 205.874594,115.439135 205.889281,115.512244 C205.889281,115.58535 205.845227,115.658455 205.771807,115.673076 C204.714534,115.965502 203.583836,116.009366 202.467826,115.760805 C201.909822,115.643835 201.366499,115.409894 200.881916,115.102844 L200.529492,114.839663 C200.397334,114.722692 200.279859,114.605722 200.191751,114.459511 C200.000855,114.167081 199.912751,113.830794 199.898068,113.523748 C199.88338,112.880407 200.088963,112.3248 200.294542,111.813054 C200.529492,111.301311 200.793812,110.818805 201.102182,110.380168 C201.175603,110.277818 201.249024,110.190089 201.322448,110.087743 C200.92597,110.307059 200.485442,110.42403 200.030226,110.42403 C199.927434,110.42403 199.839326,110.42403 199.736539,110.409409 L196.050767,110.029257 C196.491299,113.772309 196.799669,118.494985 197.666047,121.316898 C199.207902,126.346624 202.04198,129.665659 204.494267,131.376349 C193.730638,132.399838 188.708593,134.432199 188.708593,134.432199 Z M302.145175,278.656663 L305.478523,269.60608 L301.587172,269.60608 L302.145175,278.656663 Z M261.293323,269.60608 L264.905671,326.848455 C275.654613,320.298114 285.214124,311.832383 293.628254,301.889901 L295.419746,296.991766 L293.642941,269.60608 L261.293323,269.60608 Z M264.905671,326.863075 L264.905671,326.848455 C264.758829,326.93618 264.611984,327.02391 264.479825,327.11164 C264.611984,327.02391 264.758829,326.950805 264.905671,326.863075 Z M219.457615,269.60608 C208.870201,290.616885 203.113937,326.789969 201.483973,338.209201 C197.005248,339.101099 192.996422,339.744439 189.986132,340.197697 C193.686588,340.753308 197.372356,341.162704 201.058128,341.425886 C201.175603,341.440506 201.293078,341.45513 201.42524,341.45513 C203.701311,341.615965 205.977386,341.718312 208.25346,341.762176 C209.0611,341.776797 209.868737,341.791417 210.676377,341.791417 C228.077327,341.791417 243.613369,337.931395 257.357918,331.044767 L253.363775,269.60608 L219.457615,269.60608 Z M298.033558,253.244849 C281.014399,253.127878 251.895341,253.084017 235.595713,254.107506 C231.865891,254.341447 228.459122,256.622369 225.360724,260.292315 L307.137854,260.292315 C306.109951,256.373808 302.556337,253.288714 298.033558,253.244849 Z M159.912589,275.527708 L163.143145,269.60608 L93.3924935,269.60608 C90.0444623,274.869746 87.0194886,280.8791 84.3616189,286.800724 C88.6200815,290.646126 93.0107023,294.345313 97.5187941,297.883668 L102.496789,295.836687 L102.02689,295.792822 C102.02689,295.792822 132.261962,284.212755 159.912589,275.527708 Z M136.975636,252.206739 C136.902216,252.031284 136.828795,251.855828 136.740687,251.680373 C136.079892,250.276728 135.448464,248.858464 134.772986,247.454819 L132.746544,243.243886 C132.687807,243.126916 132.570332,243.053806 132.438174,243.053806 L99.4864986,243.243886 C99.4130778,243.243886 99.339657,243.302367 99.339657,243.390097 C99.339657,243.463203 99.3983906,243.536308 99.4864986,243.536308 L132.217908,243.726388 L134.068138,247.776486 C134.714249,249.194751 135.404414,250.583775 136.065209,252.002039 C136.726003,253.405684 137.416169,254.809328 138.106334,256.198352 C138.796495,257.601997 139.516031,258.976397 140.22088,260.365421 C140.26493,260.45315 140.367722,260.482391 140.45583,260.45315 C140.514563,260.423906 140.543934,260.365421 140.543934,260.292315 L168.253298,260.292315 L172.45302,252.630756 C171.601329,252.33833 170.720269,252.162875 169.824524,252.148254 C161.028599,252.075145 148.693747,252.031284 136.975636,252.206739 Z M175.49268,155.603836 L178.458917,153.337534 C177.31354,153.776175 176.30032,154.580347 175.49268,155.603836 Z M285.625286,158.38188 C285.625286,153.454505 282.027621,149.594482 277.622317,149.740697 L250.397535,150.632595 C253.554671,153.352155 256.124433,156.715054 257.886554,160.516591 L285.625286,197.698548 L285.625286,158.38188 Z M277.622317,234.412619 L250.265377,233.520721 C250.794014,223.987636 251.895341,214.498416 253.569354,205.082302 C254.553207,206.003444 255.566426,206.895342 256.653069,207.728755 L271.66047,225.669086 C274.846977,229.485244 279.678126,231.181314 284.333063,230.581842 C282.908682,232.965114 280.427025,234.500349 277.622317,234.412619" id="Shape" fill="#30526A" fill-rule="nonzero" mask="url(#mask-10)"></path>
                </g>
            </g>
        </g>
    </g>
</svg>