<?xml version="1.0" encoding="UTF-8"?>
<svg width="120px" height="120px" viewBox="0 0 120 120" version="1.1" xmlns="http://www.w3.org/2000/svg" xmlns:xlink="http://www.w3.org/1999/xlink">
    <title>sleepy</title>
    <defs>
        <polygon id="path-1" points="0.127118644 0.429358992 119.872881 0.429358992 119.872881 119.168855 0.127118644 119.168855"></polygon>
    </defs>
    <g id="Page-1" stroke="none" stroke-width="1" fill="none" fill-rule="evenodd">
        <g id="Emotion-Estimation" transform="translate(-247.000000, -299.000000)">
            <g id="sleepy" transform="translate(247.000000, 299.000000)">
                <g id="Clipped">
                    <mask id="mask-2" fill="white">
                        <use xlink:href="#path-1"></use>
                    </mask>
                    <g id="Path"></g>
                    <path d="M119.96822,59.8463758 C119.96822,92.6628151 93.1422142,119.263393 60.0476695,119.263393 C26.9570969,119.263393 0.127118644,92.6628151 0.127118644,59.8463758 C0.127118644,27.0378151 26.9570969,0.429358992 60.0476695,0.429358992 C93.1422142,0.429358992 119.96822,27.0378151 119.96822,59.8463758" id="Path" fill="#FFCC4D" fill-rule="nonzero" mask="url(#mask-2)"></path>
                </g>
                <path d="M70.0344285,86.2539388 C70.0344285,86.9038871 69.9708692,87.5498945 69.8437505,88.1880252 C69.7166319,88.826156 69.5259539,89.4445906 69.2756888,90.0433301 C69.0254237,90.6460084 68.7155715,91.2171741 68.3501064,91.7568282 C67.9886125,92.2964813 67.5754769,92.7967442 67.1106997,93.2576158 C66.6459214,93.7184874 66.141419,94.1281513 65.5971925,94.4905462 C65.0529661,94.8490024 64.47696,95.1562497 63.8691742,95.4044118 C63.2653607,95.6525738 62.6377119,95.8416494 61.9981464,95.9676998 C61.3546078,96.0937503 60.7031247,96.1567755 60.0476695,96.1567755 C59.3922142,96.1567755 58.7447034,96.0937503 58.1011647,95.9676998 C57.4576271,95.8416494 56.8339515,95.6525738 56.2261647,95.4044118 C55.6223512,95.1562497 55.0463451,94.8490024 54.4981464,94.4905462 C53.95392,94.1281513 53.4494176,93.7184874 52.9846393,93.2576158 C52.5238353,92.7967442 52.1106997,92.2964813 51.7452325,91.7568282 C51.3797675,91.2171741 51.0738875,90.6460084 50.8196502,90.0433301 C50.5693851,89.4445906 50.3826803,88.826156 50.2515885,88.1880252 C50.1244698,87.5498945 50.0609105,86.9038871 50.0609105,86.2539388 C50.0609105,85.6039916 50.1244698,84.961922 50.2515885,84.3237923 C50.3826803,83.6856615 50.5693851,83.0672269 50.8196502,82.4645486 C51.0738875,81.8658091 51.3797675,81.2946434 51.7452325,80.7549892 C52.1106997,80.2113973 52.5238353,79.7111345 52.9846393,79.2542017 C53.4494176,78.7933301 53.95392,78.3836662 54.4981464,78.0212713 C55.0463451,77.6588763 55.6223512,77.3555677 56.2261647,77.1074057 C56.8339515,76.8553049 57.4576271,76.6701681 58.1011647,76.5441176 C58.7447034,76.4141284 59.3922142,76.3511032 60.0476695,76.3511032 C60.7031247,76.3511032 61.3546078,76.4141284 61.9981464,76.5441176 C62.6377119,76.6701681 63.2653607,76.8553049 63.8691742,77.1074057 C64.47696,77.3555677 65.0529661,77.6588763 65.5971925,78.0212713 C66.141419,78.3836662 66.6459214,78.7933301 67.1106997,79.2542017 C67.5754769,79.7111345 67.9886125,80.2113973 68.3501064,80.7549892 C68.7155715,81.2946434 69.0254237,81.8658091 69.2756888,82.4645486 C69.5259539,83.0672269 69.7166319,83.6856615 69.8437505,84.3237923 C69.9708692,84.961922 70.0344285,85.6039916 70.0344285,86.2539388 Z" id="Path" fill="#664500" fill-rule="nonzero"></path>
                <path d="M57.7595339,55.2652316 C57.1716102,54.7925425 56.3373946,54.780725 55.7256356,55.2179617 C55.6859105,55.2494743 51.5346925,58.1959039 43.4030725,58.1959039 C35.2793959,58.1959039 31.1202325,55.2494743 31.0884529,55.2258403 C30.4766949,54.7728464 29.6385061,54.7886027 29.0545546,55.2573529 C28.4586864,55.7261032 28.2600631,56.5296746 28.5659431,57.2150733 C28.7645654,57.6601896 33.559322,68.0987395 43.4030725,68.0987395 C53.2507942,68.0987395 58.0415786,57.6601896 58.240201,57.2150733 C58.54608,56.5336134 58.3474576,55.7339808 57.7595339,55.2652316 Z M91.0487288,55.2652316 C90.4608051,54.7925425 89.6305617,54.7767852 89.0148305,55.2179617 C88.9751064,55.2494743 84.8199153,58.1959039 76.6922664,58.1959039 C68.5685908,58.1959039 64.4094285,55.2494743 64.3776488,55.2258403 C63.7658898,54.7728464 62.9316732,54.7886027 62.3437505,55.2573529 C61.7478814,55.7261032 61.549259,56.5296746 61.855138,57.2150733 C62.0537603,57.6601896 66.8485169,68.0987395 76.6922664,68.0987395 C86.5399892,68.0987395 91.3307736,57.6601896 91.5293959,57.2150733 C91.8352759,56.5336134 91.6366525,55.7339808 91.0487288,55.2652316 Z" id="Shape" fill="#664500" fill-rule="nonzero"></path>
                <path d="M53.3818861,17.3673842 L46.7161017,17.3673842 C45.2780725,17.3673842 44.1181139,16.4574575 44.1181139,14.8700108 C44.1181139,13.2865018 45.2780725,12.380515 46.7161017,12.380515 L59.7735702,12.380515 C60.2899892,12.380515 61.6485702,12.6168595 61.6485702,14.1609771 C61.6485702,14.9133398 61.4896719,15.271796 61.0487288,15.8665966 L51.983581,28.4558824 L59.5709746,28.4558824 C61.0090047,28.4558824 62.1649892,29.3658091 62.1649892,30.949317 C62.1649892,32.5328259 61.0050315,33.4427516 59.5709746,33.4427516 L46.1957095,33.4427516 C44.9165786,33.4427516 43.8400424,32.8085607 43.8400424,31.5007876 C43.8400424,30.8665966 44.157839,30.2757358 44.3604346,29.9566699 L53.3818861,17.3673842 Z M78.3646719,8.06722689 L70.5746827,8.06722689 C68.8983051,8.06722689 67.5436973,7.00367597 67.5436973,5.15231092 C67.5436973,3.30094588 68.8983051,2.23739496 70.5746827,2.23739496 L85.8209746,2.23739496 C86.4327336,2.23739496 88.0177434,2.51706958 88.0177434,4.31722689 C88.0177434,5.19564101 87.8270654,5.61318252 87.3146186,6.31039866 L76.7280193,21.0110299 L85.5905715,21.0110299 C87.2669492,21.0110299 88.6215569,22.0745798 88.6215569,23.9259449 C88.6215569,25.7733721 87.2669492,26.836922 85.5905715,26.836922 L69.9668959,26.836922 C68.4772251,26.836922 67.2179553,26.1003146 67.2179553,24.5719543 C67.2179553,23.8314071 67.5873946,23.1381297 67.825741,22.7678571 L78.3646719,8.06722689 Z M104.996028,19.2108716 L94.9814624,19.2108716 C92.8244176,19.2108716 91.0884529,17.8479519 91.0884529,15.4687503 C91.0884529,13.0934874 92.8204454,11.7226891 94.9814624,11.7226891 L114.58554,11.7226891 C115.364142,11.7226891 117.402012,12.0811452 117.402012,14.3973217 C117.402012,15.5238968 117.163666,16.0596111 116.504237,16.9498427 L102.894598,35.8495271 L114.287605,35.8495271 C116.436706,35.8495271 118.180615,37.2163866 118.180615,39.5916494 C118.180615,41.9708511 116.440678,43.3377096 114.287605,43.3377096 L94.2028597,43.3377096 C92.2841634,43.3377096 90.6673729,42.3844538 90.6673729,40.4227946 C90.6673729,39.4734766 91.14804,38.5832461 91.4420024,38.1066171 L104.996028,19.2108716 Z" id="Shape" fill="#2A6797" fill-rule="nonzero"></path>
            </g>
        </g>
    </g>
</svg>