<?xml version="1.0" encoding="UTF-8"?>
<svg width="162px" height="161px" viewBox="0 0 162 161" version="1.1" xmlns="http://www.w3.org/2000/svg" xmlns:xlink="http://www.w3.org/1999/xlink">
    <title>Tomato</title>
    <defs>
        <polygon id="path-1" points="0 0 161.453125 0 161.453125 142 0 142"></polygon>
        <polygon id="path-3" points="0 0 134.453125 0 134.453125 142 0 142"></polygon>
        <polygon id="path-5" points="0 0.835938 10 0.835938 10 27 0 27"></polygon>
    </defs>
    <g id="Page-1" stroke="none" stroke-width="1" fill="none" fill-rule="evenodd">
        <g id="Artboard" transform="translate(-550.000000, -353.000000)">
            <g id="Tomato" transform="translate(550.000000, 353.000000)">
                <g id="Clipped" transform="translate(0.000000, 19.000000)">
                    <mask id="mask-2" fill="white">
                        <use xlink:href="#path-1"></use>
                    </mask>
                    <g id="Path"></g>
                    <path d="M24.597656,13.75 C9.503906,24.722656 -0.53125,44.726562 0.535156,64.917969 C0.941406,72.628906 2.863281,80.152344 5.402344,87.328125 C9.394531,98.609375 15,109.28125 22.609375,117.882812 C30.222656,126.484375 39.925781,132.9375 50.515625,135.210938 C55.71875,136.328125 61.058594,136.4375 66.277344,137.46875 C70.964844,138.390625 75.523438,140.050781 80.214844,140.964844 C94.847656,143.808594 110.132812,139.109375 122.730469,130.257812 C135.328125,121.40625 145.453125,108.652344 153.835938,94.851562 C156.054688,91.199219 158.179688,87.421875 159.496094,83.25 C161.0625,78.269531 161.414062,72.910156 161.5,67.621094 C161.707031,55.050781 160.367188,41.988281 154.578125,31.238281 C150.292969,23.289062 143.816406,17.085938 136.804688,12.179688 C124.945312,3.878906 110.691406,-1.105469 96.9375,1.613281 C90.582031,2.867188 84.402344,4.554688 77.917969,4.882812 C72.449219,5.15625 67.09375,3.5625 61.648438,3.234375 C48.738281,2.457031 35.515625,5.8125 24.597656,13.75 Z" id="Path" fill="#EA5159" fill-rule="nonzero" mask="url(#mask-2)"></path>
                </g>
                <path d="M24.667969,44.679688 C24.503906,44.683594 24.335938,44.699219 24.171875,44.726562 C22.546875,44.984375 21.25,46.183594 20.132812,47.386719 C11.628906,56.558594 6.96875,69.886719 8.308594,82.34375 C9.386719,92.347656 13.921875,101.851562 20.546875,109.441406 C23.527344,112.855469 27.183594,116.042969 31.660156,116.832031 C35.15625,117.449219 38.792969,116.507812 41.929688,114.839844 C46.777344,112.261719 50.527344,108.085938 54.535156,104.332031 C60.078125,99.136719 66.277344,94.621094 72.941406,90.957031 C75.734375,89.421875 77.964844,89.25 80.929688,88.527344 C84.667969,87.617188 88.578125,85.761719 91.925781,83.902344 C96.953125,81.109375 101.511719,76.761719 102.730469,71.15625 C103.078125,69.566406 103.066406,67.699219 101.898438,66.558594 C101.070312,65.746094 99.835938,65.496094 98.671875,65.476562 C91.484375,65.339844 86.222656,72.015625 79.644531,74.90625 C76.238281,76.398438 72.378906,76.863281 68.714844,76.210938 C64.863281,75.53125 60.886719,73.179688 60.042969,69.375 C59.3125,66.070312 61.101562,62.808594 62.082031,59.570312 C63.0625,56.332031 62.71875,51.957031 59.570312,50.691406 C58.152344,50.121094 56.550781,50.375 55.054688,50.6875 C52.164062,51.292969 49.316406,52.097656 46.535156,53.085938 C42.886719,54.382812 38.722656,55.984375 35.335938,54.113281 C33.105469,52.882812 31.878906,50.464844 30.410156,48.390625 C29.039062,46.457031 26.984375,44.59375 24.667969,44.679688 Z" id="Path" fill="#EE736C" fill-rule="nonzero"></path>
                <g id="Clipped" transform="translate(27.000000, 19.000000)">
                    <mask id="mask-4" fill="white">
                        <use xlink:href="#path-3"></use>
                    </mask>
                    <g id="Path"></g>
                    <path d="M127.574219,31.238281 C123.292969,23.289062 116.816406,17.085938 109.804688,12.179688 C97.945312,3.878906 83.6875,-1.105469 69.9375,1.613281 C64.304688,2.726562 58.8125,4.175781 53.121094,4.71875 C55.3125,5.539062 57.511719,6.324219 59.734375,7.050781 C65.554688,8.957031 71.753906,10.492188 77.5,10.933594 C83.058594,11.363281 88.488281,11.90625 93.75,13.871094 C102.792969,17.246094 111.015625,23.332031 115.390625,32.097656 C120.054688,41.433594 120.390625,52.542969 118.214844,62.605469 C116.070312,72.519531 110.859375,81.621094 104.09375,89.125 C100.671875,92.917969 96.761719,96.230469 92.605469,99.195312 C90.441406,100.738281 88.128906,102.046875 85.953125,103.570312 C83.902344,105 83.417969,105.4375 81.46875,106.949219 C77.402344,110.101562 73.3125,113.003906 68.300781,114.476562 C63.222656,115.964844 57.851562,115.503906 52.648438,116.152344 C52.835938,116.144531 51.292969,116.394531 51.117188,116.433594 C50.574219,116.542969 50.03125,116.667969 49.496094,116.8125 C48.554688,117.058594 47.644531,117.371094 46.726562,117.683594 C45.125,118.226562 42.082031,119.949219 39.878906,121.0625 C34.625,123.722656 29.070312,126.175781 23.210938,127.105469 C14.632812,128.464844 7.207031,126.621094 0.605469,122.933594 C7.285156,128.976562 15.121094,133.410156 23.515625,135.210938 C28.71875,136.328125 34.058594,136.4375 39.277344,137.46875 C43.964844,138.390625 48.523438,140.050781 53.214844,140.960938 C67.847656,143.808594 83.132812,139.109375 95.730469,130.257812 C108.328125,121.40625 118.453125,108.652344 126.835938,94.851562 C129.054688,91.199219 131.179688,87.421875 132.496094,83.25 C134.0625,78.269531 134.414062,72.90625 134.5,67.621094 C134.707031,55.050781 133.367188,41.988281 127.574219,31.238281 Z" id="Path" fill="#D03D4C" fill-rule="nonzero" mask="url(#mask-4)"></path>
                </g>
                <path d="M131.382812,42.488281 C133.476562,43.890625 135.589844,46.375 134.503906,48.644531 C134.082031,49.527344 133.238281,50.144531 132.351562,50.570312 C129.320312,52.03125 125.738281,51.59375 122.445312,50.898438 C118.484375,50.0625 95.382812,45.296875 101.5,37.972656 C106.492188,31.988281 126.382812,39.148438 131.382812,42.488281 Z" id="Path" fill="#C4413D" fill-rule="nonzero"></path>
                <path d="M88.71875,52.117188 C90.695312,53.539062 93.285156,54.910156 95.433594,53.769531 C96.53125,53.183594 97.15625,52.109375 97.4375,50.886719 C97.667969,49.875 97.664062,48.765625 97.496094,47.753906 C94.714844,31.113281 79.308594,45.355469 88.71875,52.117188 Z" id="Path" fill="#C4413D" fill-rule="nonzero"></path>
                <path d="M58.472656,16.398438 C55.085938,16.351562 51.707031,17.011719 48.34375,17.464844 C44.960938,17.921875 41.542969,18.167969 38.121094,18.203125 C35.917969,18.226562 33.652344,18.148438 31.613281,17.351562 C29.570312,16.550781 27.78125,14.886719 27.503906,12.835938 C26.203125,17.652344 29.949219,22.738281 34.785156,24.851562 C39.625,26.964844 45.210938,26.75 50.476562,26.097656 C55.742188,25.445312 56.894531,22.78125 62.183594,23.363281 C54.835938,27.445312 53.515625,35.773438 45.800781,39.21875 C40.132812,41.746094 33.472656,42.296875 27.382812,40.738281 C31.078125,44.257812 36.507812,45.863281 41.753906,45.824219 C47,45.785156 52.101562,44.246094 56.859375,42.214844 C62.835938,39.667969 67.226562,33.710938 70.210938,29.167969 C72.460938,31.847656 68.054688,42.304688 69.671875,48.464844 C71.292969,54.625 73.0625,61.523438 69.625,66.941406 C73.929688,64.097656 76.863281,59.773438 79.058594,55.289062 C80.714844,51.910156 82.027344,48.289062 82.027344,44.558594 C82.023438,39.210938 76.730469,36.195312 79,29.320312 C81.371094,33.683594 85.175781,37.359375 89.726562,39.78125 C94.660156,42.40625 100.601562,42.425781 106.144531,43.503906 C112.351562,44.710938 118.25,47.335938 123.1875,51.078125 C122.707031,46.886719 118.296875,44.1875 114.351562,42.117188 C109.117188,39.371094 103.886719,36.625 98.652344,33.875 C95.117188,32.019531 89.835938,33.140625 86.324219,27.519531 C89.214844,28.621094 93.707031,30.785156 96.773438,31.304688 C103.054688,32.367188 109.445312,30.992188 115.730469,30.0625 C122.015625,29.128906 128.785156,28.703125 134.476562,31.4375 C128.804688,25.632812 120.128906,23.160156 111.773438,22.757812 C103.417969,22.355469 96.890625,25.5 89.015625,24.234375 C95.382812,23.636719 98.847656,20.6875 104.503906,17.925781 C110.160156,15.167969 116.414062,12.675781 122.757812,13.542969 C117.492188,12.382812 112.039062,11.214844 106.738281,12.128906 C103.015625,12.773438 99.601562,14.40625 96.117188,15.773438 C91.792969,17.476562 87.363281,18.441406 82.882812,19.664062 C78.925781,20.738281 75.039062,22.199219 70.839844,20.652344 C67.078125,19.265625 64.585938,16.921875 60.292969,16.5 C59.6875,16.4375 59.078125,16.40625 58.472656,16.398438 Z" id="Path" fill="#27AB66" fill-rule="nonzero"></path>
                <path d="M80.128906,27.203125 C84.28125,26.902344 88.527344,24.457031 89.015625,20.945312 C86.269531,20.914062 83.816406,22.320312 81.175781,22.953125 C79.101562,23.453125 64.445312,22.601562 64.445312,22.601562 C66.925781,29.105469 78.210938,27.328125 80.128906,27.203125 Z" id="Path" fill="#45B280" fill-rule="nonzero"></path>
                <g id="Clipped" transform="translate(72.000000, 0.000000)">
                    <mask id="mask-6" fill="white">
                        <use xlink:href="#path-5"></use>
                    </mask>
                    <g id="Path"></g>
                    <path d="M5.148438,1.066406 C4.539062,0.828125 3.863281,1.019531 3.234375,1.214844 C2.199219,1.539062 1.019531,2.011719 0.609375,3.273438 C0.378906,3.988281 0.457031,4.796875 0.566406,5.554688 C0.875,7.636719 1.40625,9.660156 1.640625,11.757812 C1.9375,14.378906 1.769531,17.085938 1.144531,19.613281 C0.929688,20.492188 0.65625,21.375 0.65625,22.296875 C0.664062,27.582031 7.808594,27.519531 9.472656,23.863281 C8.269531,20.742188 7.09375,18.167969 6.636719,14.679688 C6.296875,12.113281 6.175781,9.507812 6.136719,6.910156 C6.117188,5.480469 6.660156,1.875 5.3125,1.144531 C5.257812,1.113281 5.203125,1.089844 5.148438,1.066406 Z" id="Path" fill="#5E2617" fill-rule="nonzero" mask="url(#mask-6)"></path>
                </g>
            </g>
        </g>
    </g>
</svg>