<?xml version="1.0" encoding="UTF-8"?>
<svg width="2796px" height="1144px" viewBox="0 0 2796 1144" version="1.1" xmlns="http://www.w3.org/2000/svg" xmlns:xlink="http://www.w3.org/1999/xlink">
    <title>Group 2</title>
    <defs>
        <filter id="filter-1">
            <feColorMatrix in="SourceGraphic" type="matrix" values="0 0 0 0 1.000000 0 0 0 0 1.000000 0 0 0 0 1.000000 0 0 0 1.000000 0"></feColorMatrix>
        </filter>
        <polygon id="path-2" points="0 0 1264 0 1264 467 0 467"></polygon>
        <filter id="filter-4">
            <feColorMatrix in="SourceGraphic" type="matrix" values="0 0 0 0 1.000000 0 0 0 0 1.000000 0 0 0 0 1.000000 0 0 0 1.000000 0"></feColorMatrix>
        </filter>
        <polygon id="path-5" points="0 0 1264 0 1264 467 0 467"></polygon>
        <filter id="filter-7">
            <feColorMatrix in="SourceGraphic" type="matrix" values="0 0 0 0 1.000000 0 0 0 0 1.000000 0 0 0 0 1.000000 0 0 0 1.000000 0"></feColorMatrix>
        </filter>
        <polygon id="path-8" points="0 0 1264 0 1264 467 0 467"></polygon>
        <filter id="filter-10">
            <feColorMatrix in="SourceGraphic" type="matrix" values="0 0 0 0 1.000000 0 0 0 0 1.000000 0 0 0 0 1.000000 0 0 0 1.000000 0"></feColorMatrix>
        </filter>
        <polygon id="path-11" points="0 0 1264 0 1264 467 0 467"></polygon>
    </defs>
    <g id="Page-1" stroke="none" stroke-width="1" fill="none" fill-rule="evenodd">
        <g id="Artboard" transform="translate(1070.000000, 30.000000)">
            <g id="Group-2" transform="translate(-1070.000000, -30.000000)">
                <g id="Group" transform="translate(1259.000000, 0.000000)">
                    <g filter="url(#filter-1)" id="Clipped">
                        <g transform="translate(273.000000, 0.000000)">
                            <mask id="mask-3" fill="white">
                                <use xlink:href="#path-2"></use>
                            </mask>
                            <g id="Path"></g>
                            <path d="M143.184907,467 C136.040188,467 128.895473,466.273176 121.528552,464.577253 C67.2081959,452.46352 32.6810963,429.225341 2.25622631,384.909266 L3.46980368,383.697897 C33.7066537,427.771693 67.8235304,450.767598 121.733663,462.881331 C188.736747,477.90236 248.783137,418.322981 301.889916,365.769572 L309.649969,358.036971 C337.630593,330.41766 434.460304,244.692805 505.531435,304.272184 C513.496596,310.8136 520.641314,319.293213 527.598013,327.268089 C538.417643,339.624097 549.442384,352.464654 563.543797,358.763795 C599.489586,374.73373 639.110285,342.773667 665.467113,321.71596 C721.223253,276.673061 833.761087,198.216452 959.59698,178.349929 C1016.37867,169.385767 1068.87012,173.74671 1115.63554,191.190486 C1168.3321,210.794541 1214.49927,247.357827 1252.70129,299.668966 L1251.47062,300.880339 C1213.47372,248.811475 1167.71676,212.490468 1115.22532,192.886409 C1068.4599,175.442633 1016.17357,171.081689 959.785,180.045852 C834.17131,199.912374 722.043699,278.126709 666.287559,322.927333 C639.725624,344.227315 599.694697,376.429657 562.928463,360.217443 C548.621938,353.676027 537.392086,340.83547 526.367344,328.237188 C519.427737,320.262312 512.265927,312.024973 504.505878,305.483558 C434.255193,246.631003 338.245927,331.629033 310.470415,359.00607 L302.710362,366.738671 C255.329609,414.204312 202.222826,467 143.184907,467 Z M298.625223,352.222379 C302.095027,348.830534 305.359719,345.438689 308.624411,342.046844 C333.750566,316.870467 372.567915,284.405662 414.837972,272.312117 C447.72418,262.863405 477.140588,268.435722 502.061631,288.282056 C509.821685,294.581198 516.966399,302.333987 523.923098,309.844501 C535.152951,321.958235 546.793026,334.778604 561.287571,341.32002 C594.789113,356.341049 629.521324,335.020878 665.05689,309.844501 C750.229434,249.780573 842.751805,191.432761 941.820651,170.59714 C1070.69903,143.72484 1175.08369,179.076753 1252.29107,276.188512 L1253.29953,274.977138 C1175.68192,177.38083 1070.90414,141.786643 941.410428,168.658943 C842.13647,189.494564 749.6141,248.084651 664.236444,308.148579 C629.111102,333.082681 594.584002,354.160577 561.902906,339.624097 C547.613472,333.324956 536.178508,320.746861 524.93156,308.633128 C517.991957,301.122614 510.847238,293.12755 502.882077,286.828408 C477.550811,266.497525 447.72418,260.925208 414.427749,270.37392 C371.952581,282.487653 332.93012,315.174544 307.615946,340.593196 C304.334162,343.985041 300.864358,347.376886 297.59967,350.768731 C245.928668,402.837591 187.506079,461.912232 122.348997,450.525323 C69.2422192,441.096799 34.5270996,419.534354 3.05958072,375.945108 L2.05111483,377.398756 C33.9117652,421.230277 68.6268804,443.034997 122.348997,452.46352 C127.869916,453.432619 133.373743,453.917168 138.894657,453.917168 C197.932581,453.917168 251.244475,400.172575 298.625223,352.222379 Z M294.334978,337.6859 C298.625223,333.324956 302.915473,328.964012 307.000611,324.603068 C332.126766,299.184416 370.721912,266.25525 412.598842,254.141517 C444.459492,244.93508 473.875896,250.749672 499.617385,270.858469 C507.377439,276.915336 514.522153,284.163387 521.46176,291.431627 C532.896724,303.303086 544.741911,315.416819 559.663771,321.958235 C595.609559,337.928174 635.025151,313.720896 663.826221,296.034846 C676.081631,288.524331 688.131934,280.79173 701.002678,272.796666 C772.484028,227.753767 853.383414,176.896281 940.179759,157.776771 C1069.07523,129.67291 1174.05813,161.148428 1252.70129,251.476496 L1253.70975,250.265122 C1174.87857,159.714968 1069.28034,127.976987 939.974648,156.080848 C852.973192,175.200358 771.885785,226.300119 700.387344,271.343018 C687.516595,279.338082 675.466297,287.070683 663.210887,294.581198 C634.614928,312.267248 595.609559,336.232252 560.27911,320.504587 C545.767469,313.963171 533.922282,301.849438 522.692429,290.220254 C515.752822,282.972202 508.3859,275.703962 500.625851,269.647096 C474.491231,249.296024 444.664599,243.481432 412.393726,252.687869 C370.311689,264.801602 331.30632,297.730768 306.180165,323.411883 C301.889916,327.752638 297.804777,332.113582 293.514532,336.474526 C243.074199,388.058841 186.08739,446.426842 123.169443,438.431778 C71.4984412,432.132637 35.5526571,411.054741 2.87156076,368.676868 L1.64089186,369.888236 C34.5270996,412.750664 70.8831111,433.828559 122.75922,440.369975 C126.639247,440.854525 130.519274,441.096799 134.399296,441.096799 C193.642332,441.096799 246.954226,386.362914 294.334978,337.6859 Z M289.634506,323.654157 C294.950313,318.08184 300.061008,312.751797 305.359719,307.421755 C342.125954,269.647096 377.473499,245.661904 410.342611,236.475655 C439.964131,227.511498 471.61967,233.810639 497.361159,253.656968 C504.916101,259.47156 512.265927,266.25525 519.222626,273.038941 C531.067813,284.405662 543.323227,296.27712 558.227995,302.818536 C591.319314,317.597291 626.649764,301.607163 663.005775,282.487653 C688.131934,269.162546 712.642754,254.383792 738.794466,238.656132 C801.490214,200.881473 866.237067,161.875252 938.966182,144.936214 C1067.84456,115.641168 1173.64791,142.998016 1253.29953,226.542399 L1254.32509,225.088751 C1174.05813,141.544368 1067.84456,113.945245 938.555959,143.482566 C865.638829,160.421604 800.686859,199.427825 737.97402,237.202484 C711.822308,252.930144 687.311488,267.708898 662.202421,281.034005 C626.239541,299.91124 591.114198,315.901368 558.638218,301.364888 C543.938557,294.823472 531.888259,283.214477 520.02598,271.827568 C513.086373,265.043877 505.736547,258.017912 497.976493,252.20332 C472.029893,232.114711 439.75902,225.81557 409.744373,234.779737 C376.447942,244.208256 340.895285,268.193448 304.146142,306.210382 C299.035446,311.540424 293.719644,316.870467 288.403837,322.442784 C237.348169,375.702828 184.651614,430.678989 123.784778,426.560319 C73.1222415,422.926199 36.7662301,403.56442 2.66644928,361.428817 L1.64089186,362.64019 C36.1509,405.018068 72.7120185,424.622122 123.784778,428.256242 C126.023913,428.498517 128.48525,428.498517 130.724385,428.498517 C189.14697,428.498517 240.202638,375.218279 289.634506,323.654157 Z M284.934033,309.602227 C291.070286,303.060811 297.189447,296.519395 303.325696,290.220254 C339.886819,251.961045 375.012161,227.996047 407.693258,218.54733 C437.314773,210.067722 466.526066,216.124583 494.711801,236.233385 C502.266743,241.563428 509.616569,248.326925 516.556176,254.626066 C528.606475,265.528426 541.272112,276.915336 556.399083,283.678838 C589.883529,298.699867 625.231079,285.37476 661.587086,268.920272 C695.276649,253.899242 727.359502,234.779737 761.254176,214.428666 C816.206961,181.741774 872.988655,147.84351 937.530401,132.337931 C1066.40878,101.589237 1172.82746,125.069691 1253.91487,201.830383 L1254.94042,200.396923 C1173.23768,123.373769 1066.40878,99.8933146 937.120179,130.642009 C872.578432,146.147587 815.591627,180.045852 760.43373,212.975018 C726.539056,233.326089 694.473294,252.20332 660.971752,267.466624 C625.025963,283.678838 589.883529,296.76167 556.997326,282.245378 C542.092558,275.703962 529.632032,264.317053 517.581734,253.414693 C510.437015,247.115552 503.2923,240.35205 495.532247,235.022007 C466.936289,214.670935 437.314773,208.614074 407.488146,217.093682 C374.396827,226.542399 339.066373,250.749672 302.300139,289.00888 C296.163886,295.308022 290.044729,301.849438 283.908476,308.390854 C234.4937,360.944267 183.215829,415.415685 124.605224,414.446586 C74.7631334,413.719762 38.2020148,395.569351 2.4613378,353.918302 L1.43578038,355.129675 C37.3815689,397.022999 74.3529104,415.415685 124.605224,416.142509 C125.203467,416.142509 125.61369,416.142509 126.229024,416.142509 C184.856721,416.142509 235.707277,361.913366 284.934033,309.602227 Z M125.408578,403.806689 C182.600499,401.383943 232.442585,347.619161 280.438672,295.308022 C287.395371,287.797507 294.54009,280.064906 301.479693,272.796666 C338.040816,234.052908 372.978138,209.825442 405.249011,200.639198 C433.84497,192.644134 463.039171,198.701001 492.045356,218.78961 C499.412274,223.877372 506.351881,229.934244 513.701707,235.991106 C526.162229,246.631003 539.032977,257.533362 554.347968,264.317053 C588.464845,279.580357 625.231079,268.193448 659.946194,255.35289 C699.977121,240.35205 736.743351,218.30506 775.5607,195.066881 C825.197679,165.267097 876.458459,134.276129 935.479287,119.739649 C995.542768,104.981083 1050.88868,101.104688 1100.52566,108.130653 C1158.1278,116.367992 1209.79881,139.606171 1253.91487,177.38083 L1254.73531,175.927182 C1210.61925,137.910249 1158.94825,114.429794 1100.93588,106.192456 C1051.2989,99.1664906 995.542768,103.042885 935.479287,118.063914 C876.253347,132.822481 824.787456,163.813449 775.150477,193.613233 C736.333128,216.851412 699.77201,238.898402 659.741083,253.899242 C625.231079,266.7398 588.875068,277.884434 555.168414,262.863405 C540.058535,256.079714 527.18779,245.177355 514.932376,234.779737 C507.77057,228.722866 500.625851,222.666004 493.070909,217.335962 C463.654505,197.005078 434.050081,190.705937 405.0439,198.943275 C372.567915,208.129524 337.425481,232.59926 300.454135,271.585293 C293.514532,278.853533 286.369813,286.586134 279.43021,294.096648 C231.417032,345.923238 182.002256,399.688025 125.203467,402.110772 C76.7971567,404.048969 38.8173449,386.847463 2.05111483,346.165513 L1.02555742,347.376886 C36.1509,386.120644 72.5069071,403.806689 117.853636,403.806689 C120.314974,404.048969 122.75922,404.048969 125.408578,403.806689 Z M126.023913,391.692956 C181.18181,386.120644 229.177897,333.082681 275.738204,281.760829 C283.720456,273.038941 291.68562,264.074778 299.650785,255.595165 C336.810147,215.640034 370.5168,191.91731 402.992785,182.710873 C430.37517,174.958084 459.36426,181.257225 489.806221,201.366022 C497.156047,206.191327 504.095655,211.763639 511.462577,217.578231 C524.31623,227.753767 537.597197,238.413852 553.117299,245.177355 C586.823953,260.198384 624.00041,252.445594 659.125749,241.805698 C704.677594,227.996047 744.503404,203.768581 786.585446,177.86538 C832.137287,150.023982 879.312928,121.193297 934.470821,106.91928 C1065.79345,73.263295 1170.79344,88.2641307 1254.73531,152.446728 L1255.55576,150.99308 C1171.20366,86.3259334 1065.99856,71.5673672 934.060598,105.223357 C878.902705,119.497374 831.521952,148.328059 785.970107,176.411732 C743.905162,202.072653 704.062255,226.542399 658.715526,240.10978 C623.795294,250.507397 587.029064,258.260186 553.527522,243.481432 C538.212531,236.717935 524.93156,226.05785 512.265927,216.124583 C504.916101,210.309991 497.976493,204.737679 490.626667,199.912374 C459.97959,179.561302 430.37517,173.019886 402.787674,181.01495 C370.106577,190.221388 336.211904,214.186386 298.830339,254.383792 C290.865174,262.863405 282.694903,271.827568 274.934849,280.549455 C228.562563,331.629033 180.771587,384.666996 126.229024,389.997039 C78.8482715,394.842532 40.6462567,379.094674 2.25622631,338.897273 L1.2306689,340.350921 C35.5526571,376.187378 69.6524422,392.904335 110.093587,392.904335 C114.999171,392.662055 120.52009,392.419785 126.023913,391.692956 Z M126.844359,379.579223 C179.951141,370.857335 226.323428,318.566389 271.054823,267.951173 C279.823342,258.017912 288.81406,247.842376 297.804777,238.171583 C334.981235,197.731902 368.687889,173.74671 400.548539,164.782548 C426.888271,157.292222 455.279122,163.571175 487.156864,184.164521 C494.301578,188.76774 501.241186,193.855508 508.591016,199.18555 C521.871983,209.098623 535.563174,219.031879 551.288387,226.05785 C586.41373,241.805698 624.820856,235.991106 657.912176,228.238316 C707.942281,216.609133 749.819211,190.221388 794.140383,162.359801 C836.632648,135.729777 880.748708,108.130653 933.035045,94.0787227 C1064.9901,58.9690847 1170.38321,70.1137192 1255.35065,127.492438 L1256.17109,125.796515 C1170.79344,68.4178017 1064.9901,57.5154367 932.624822,92.6250747 C880.133374,106.677005 836.017309,134.276129 793.525049,161.148428 C749.203877,189.010014 707.532059,215.155485 657.70706,226.784668 C625.025963,234.537458 586.823953,240.10978 552.108833,224.604202 C536.366528,217.578231 522.897541,207.644975 509.616569,197.731902 C502.266743,192.40186 495.32714,187.071817 488.16533,182.468598 C455.894456,161.875252 427.093387,155.354024 400.343427,163.086625 C368.072554,172.293062 334.160789,196.278254 296.779224,236.960204 C287.805594,246.631003 278.814876,256.806538 270.029265,266.7398 C225.29787,317.112741 179.130695,369.161418 126.639247,377.883305 C80.0789404,385.393815 41.4667026,371.099615 1.64089186,331.386758 L0.615334449,332.840406 C33.9117652,366.254122 66.38775,381.7597 103.359092,381.7597 C110.914033,381.51742 118.879198,381.032871 126.844359,379.579223 Z M127.664804,367.46549 C178.720472,355.856499 223.246756,304.272184 266.559466,254.383792 C276.148427,243.239157 286.369813,231.630162 296.163886,220.727807 C333.955677,179.319028 366.431662,155.596299 398.497424,146.632136 C423.828694,139.606171 451.399095,145.905312 485.105749,166.478471 C492.045356,170.839415 498.796939,175.442633 505.941658,180.288126 C519.632849,189.736838 533.71717,199.427825 549.852607,206.675876 C579.0639,219.758708 612.975665,222.181455 656.886614,214.670935 C711.018954,205.464498 754.109457,177.623105 800.071525,148.085784 C840.102447,122.162395 881.774266,95.5323706 931.804376,81.4804401 C1064.16965,44.9171542 1170.38321,51.9431246 1255.96598,103.042885 L1256.58132,101.346963 C1170.58833,50.2471968 1064.16965,43.2212367 931.394153,79.7845175 C881.158931,93.836448 839.487113,120.466473 799.251079,146.389862 C753.494127,175.927182 710.403619,203.768581 656.681507,212.975018 C612.975665,220.485527 579.269011,218.06278 550.467941,205.222228 C534.537616,198.216452 520.436203,188.28319 506.762104,179.076753 C499.617385,174.23126 492.865802,169.385767 485.721083,165.267097 C451.604207,144.451664 423.828694,138.152523 398.087201,145.420763 C365.816328,154.6272 333.135231,178.107654 295.155424,220.000978 C285.344256,230.903343 275.139961,242.512333 265.533904,253.656968 C222.443401,303.303086 178.105138,354.645126 127.459693,366.254122 C82.3180752,376.429657 42.2871486,363.367014 1.43578038,324.380981 L0.410222966,325.087617 C32.6810963,355.856499 64.5417467,370.857335 98.6586233,370.857335 C108.264676,370.857335 117.853636,369.645967 127.664804,367.46549 Z M128.48525,355.37195 C177.301783,340.83547 220.187175,290.220254 261.858993,241.321148 C272.473511,228.722866 283.515349,215.882314 294.334978,203.768581 C332.126766,161.632977 364.397639,137.910249 396.053182,129.188361 C420.564002,122.40467 446.305491,128.461537 482.456391,149.539432 C489.190887,153.415827 495.720267,157.776771 502.676966,162.117527 C516.966399,171.323964 531.683147,180.772676 548.228807,188.040916 C578.858788,201.588103 614.189242,206.191327 655.655945,201.588103 C713.258089,195.309156 757.57926,165.751647 804.361774,134.760678 C842.546693,109.342026 881.979377,83.1763628 930.385687,69.3869004 C1065.58834,30.8854171 1169.15254,33.7927131 1256.78643,78.8154188 L1257.38467,77.1396896 C1169.56277,32.0967904 1065.58834,28.9472198 930.180576,67.6909726 C881.569154,81.7227148 842.13647,107.888378 803.746436,133.30703 C757.169037,164.297999 713.052977,193.613233 655.655945,199.912374 C614.394354,204.495399 579.269011,200.154649 548.82705,186.587268 C532.486501,179.319028 517.786845,169.870316 503.497412,160.663879 C496.540713,156.323123 490.011333,151.962179 483.276837,148.085784 C446.715714,126.765614 420.564002,120.708747 395.642959,127.734713 C363.782309,136.698875 331.101213,160.663879 293.104309,202.799482 C282.28468,214.913215 271.259934,227.996047 260.628324,240.35205 C219.366729,289.251155 176.481337,339.624097 128.075027,353.918302 C83.9589671,366.98094 43.5178175,355.129675 1.2306689,316.628192 L0.205111483,317.839565 C31.8606504,346.650062 62.5077234,360.701993 94.3683737,360.701993 C105.393115,360.459718 116.845175,358.763795 128.48525,355.37195 Z M129.288605,343.258217 C176.071114,326.056716 217.127594,276.430786 256.953409,228.238316 C268.593485,214.186386 280.643788,199.670099 292.488975,186.344993 C330.896097,143.240291 361.936301,119.981923 393.608936,111.037949 C420.564002,103.527435 447.72418,113.945245 479.995053,131.853382 C486.131306,135.245227 492.045356,138.879347 498.591828,142.755742 C513.701707,151.719904 529.221809,160.906153 546.587915,168.658943 C579.884346,183.437697 616.240357,189.979113 654.425276,187.798641 C715.497223,184.64907 760.228618,153.900376 807.626462,121.193297 C843.982474,96.01692 881.774266,70.1137192 928.744795,56.3040685 C1014.53267,31.1276918 1141.78726,3.26610547 1256.97445,53.6390421 L1257.58978,51.9431246 C1208.56814,30.6431425 1155.25624,21.4367052 1094.38941,24.1017265 C1045.16266,26.2821985 991.047407,36.2154597 928.539684,54.6081407 C881.158931,68.4178017 843.367139,94.3209973 806.806016,119.497374 C759.630375,151.962179 715.104092,182.710873 654.23726,185.860444 C616.240357,188.040916 580.089457,181.4995 546.998138,166.720745 C529.632032,158.988144 514.11193,149.781707 499.207162,140.817544 C492.865802,136.94115 486.746641,133.30703 480.610388,129.915185 C447.929291,111.764773 420.564002,101.104688 393.198713,108.857477 C352.34734,120.224198 317.410018,155.354024 291.275397,184.64907 C279.43021,198.216452 267.379912,212.490468 255.72274,226.542399 C216.102041,274.492589 175.045557,323.896432 128.690362,341.077745 C85.582763,357.310147 44.9365063,346.892337 0.820445932,308.875403 L0,310.329051 C31.057296,337.20135 60.4566085,350.526457 90.2832356,350.526457 C103.153984,350.526457 116.024729,348.10371 129.288605,343.258217 Z M139.920214,326.056716 C180.361364,304.02991 216.922487,258.98701 252.047825,215.397764 C294.950313,162.359801 339.066373,107.646104 391.147598,93.109624 C422.392914,84.3877361 455.07401,102.073787 492.865802,122.889219 C536.776751,146.874411 586.618841,174.23126 653.211703,174.23126 C717.548338,174.23126 762.279733,142.271192 809.865597,108.372928 C845.008031,83.4186374 881.158931,57.5154367 927.309015,43.4635062 C1021.06205,14.8952893 1143.41105,-12.4615594 1257.58978,28.9472198 L1258,27.2512972 C1143.41105,-14.3997567 1020.85694,13.1993667 926.915883,41.7675887 C880.543597,55.8195192 844.187585,81.7227148 809.045151,106.91928 C761.664399,140.57527 717.138115,172.535337 653.211703,172.535337 C586.823953,172.535337 537.186974,145.420763 493.481132,121.435571 C455.484233,100.620139 422.803137,82.6918135 390.942487,91.655976 C338.451039,106.43473 294.129867,161.390703 251.244475,214.428666 C216.102041,258.017912 179.74603,303.060811 139.509992,324.845342 C94.5734852,349.315083 49.2267559,341.804569 0.820445932,301.607163 L0,303.060811 C30.23685,327.994913 59.2430312,340.593196 87.8389937,340.593196 C105.188003,340.350921 122.554109,335.505428 139.920214,326.056716 Z" id="Shape" fill="#FFFFFF" fill-rule="nonzero" mask="url(#mask-3)"></path>
                        </g>
                    </g>
                    <g filter="url(#filter-4)" id="Clipped">
                        <g transform="translate(0.000000, 456.000000)">
                            <mask id="mask-6" fill="white">
                                <use xlink:href="#path-5"></use>
                            </mask>
                            <g id="Path"></g>
                            <path d="M143.184907,467 C136.040188,467 128.895473,466.273176 121.528552,464.577253 C67.2081959,452.46352 32.6810963,429.225341 2.25622631,384.909266 L3.46980368,383.697897 C33.7066537,427.771693 67.8235304,450.767598 121.733663,462.881331 C188.736747,477.90236 248.783137,418.322981 301.889916,365.769572 L309.649969,358.036971 C337.630593,330.41766 434.460304,244.692805 505.531435,304.272184 C513.496596,310.8136 520.641314,319.293213 527.598013,327.268089 C538.417643,339.624097 549.442384,352.464654 563.543797,358.763795 C599.489586,374.73373 639.110285,342.773667 665.467113,321.71596 C721.223253,276.673061 833.761087,198.216452 959.59698,178.349929 C1016.37867,169.385767 1068.87012,173.74671 1115.63554,191.190486 C1168.3321,210.794541 1214.49927,247.357827 1252.70129,299.668966 L1251.47062,300.880339 C1213.47372,248.811475 1167.71676,212.490468 1115.22532,192.886409 C1068.4599,175.442633 1016.17357,171.081689 959.785,180.045852 C834.17131,199.912374 722.043699,278.126709 666.287559,322.927333 C639.725624,344.227315 599.694697,376.429657 562.928463,360.217443 C548.621938,353.676027 537.392086,340.83547 526.367344,328.237188 C519.427737,320.262312 512.265927,312.024973 504.505878,305.483558 C434.255193,246.631003 338.245927,331.629033 310.470415,359.00607 L302.710362,366.738671 C255.329609,414.204312 202.222826,467 143.184907,467 Z M298.625223,352.222379 C302.095027,348.830534 305.359719,345.438689 308.624411,342.046844 C333.750566,316.870467 372.567915,284.405662 414.837972,272.312117 C447.72418,262.863405 477.140588,268.435722 502.061631,288.282056 C509.821685,294.581198 516.966399,302.333987 523.923098,309.844501 C535.152951,321.958235 546.793026,334.778604 561.287571,341.32002 C594.789113,356.341049 629.521324,335.020878 665.05689,309.844501 C750.229434,249.780573 842.751805,191.432761 941.820651,170.59714 C1070.69903,143.72484 1175.08369,179.076753 1252.29107,276.188512 L1253.29953,274.977138 C1175.68192,177.38083 1070.90414,141.786643 941.410428,168.658943 C842.13647,189.494564 749.6141,248.084651 664.236444,308.148579 C629.111102,333.082681 594.584002,354.160577 561.902906,339.624097 C547.613472,333.324956 536.178508,320.746861 524.93156,308.633128 C517.991957,301.122614 510.847238,293.12755 502.882077,286.828408 C477.550811,266.497525 447.72418,260.925208 414.427749,270.37392 C371.952581,282.487653 332.93012,315.174544 307.615946,340.593196 C304.334162,343.985041 300.864358,347.376886 297.59967,350.768731 C245.928668,402.837591 187.506079,461.912232 122.348997,450.525323 C69.2422192,441.096799 34.5270996,419.534354 3.05958072,375.945108 L2.05111483,377.398756 C33.9117652,421.230277 68.6268804,443.034997 122.348997,452.46352 C127.869916,453.432619 133.373743,453.917168 138.894657,453.917168 C197.932581,453.917168 251.244475,400.172575 298.625223,352.222379 Z M294.334978,337.6859 C298.625223,333.324956 302.915473,328.964012 307.000611,324.603068 C332.126766,299.184416 370.721912,266.25525 412.598842,254.141517 C444.459492,244.93508 473.875896,250.749672 499.617385,270.858469 C507.377439,276.915336 514.522153,284.163387 521.46176,291.431627 C532.896724,303.303086 544.741911,315.416819 559.663771,321.958235 C595.609559,337.928174 635.025151,313.720896 663.826221,296.034846 C676.081631,288.524331 688.131934,280.79173 701.002678,272.796666 C772.484028,227.753767 853.383414,176.896281 940.179759,157.776771 C1069.07523,129.67291 1174.05813,161.148428 1252.70129,251.476496 L1253.70975,250.265122 C1174.87857,159.714968 1069.28034,127.976987 939.974648,156.080848 C852.973192,175.200358 771.885785,226.300119 700.387344,271.343018 C687.516595,279.338082 675.466297,287.070683 663.210887,294.581198 C634.614928,312.267248 595.609559,336.232252 560.27911,320.504587 C545.767469,313.963171 533.922282,301.849438 522.692429,290.220254 C515.752822,282.972202 508.3859,275.703962 500.625851,269.647096 C474.491231,249.296024 444.664599,243.481432 412.393726,252.687869 C370.311689,264.801602 331.30632,297.730768 306.180165,323.411883 C301.889916,327.752638 297.804777,332.113582 293.514532,336.474526 C243.074199,388.058841 186.08739,446.426842 123.169443,438.431778 C71.4984412,432.132637 35.5526571,411.054741 2.87156076,368.676868 L1.64089186,369.888236 C34.5270996,412.750664 70.8831111,433.828559 122.75922,440.369975 C126.639247,440.854525 130.519274,441.096799 134.399296,441.096799 C193.642332,441.096799 246.954226,386.362914 294.334978,337.6859 Z M289.634506,323.654157 C294.950313,318.08184 300.061008,312.751797 305.359719,307.421755 C342.125954,269.647096 377.473499,245.661904 410.342611,236.475655 C439.964131,227.511498 471.61967,233.810639 497.361159,253.656968 C504.916101,259.47156 512.265927,266.25525 519.222626,273.038941 C531.067813,284.405662 543.323227,296.27712 558.227995,302.818536 C591.319314,317.597291 626.649764,301.607163 663.005775,282.487653 C688.131934,269.162546 712.642754,254.383792 738.794466,238.656132 C801.490214,200.881473 866.237067,161.875252 938.966182,144.936214 C1067.84456,115.641168 1173.64791,142.998016 1253.29953,226.542399 L1254.32509,225.088751 C1174.05813,141.544368 1067.84456,113.945245 938.555959,143.482566 C865.638829,160.421604 800.686859,199.427825 737.97402,237.202484 C711.822308,252.930144 687.311488,267.708898 662.202421,281.034005 C626.239541,299.91124 591.114198,315.901368 558.638218,301.364888 C543.938557,294.823472 531.888259,283.214477 520.02598,271.827568 C513.086373,265.043877 505.736547,258.017912 497.976493,252.20332 C472.029893,232.114711 439.75902,225.81557 409.744373,234.779737 C376.447942,244.208256 340.895285,268.193448 304.146142,306.210382 C299.035446,311.540424 293.719644,316.870467 288.403837,322.442784 C237.348169,375.702828 184.651614,430.678989 123.784778,426.560319 C73.1222415,422.926199 36.7662301,403.56442 2.66644928,361.428817 L1.64089186,362.64019 C36.1509,405.018068 72.7120185,424.622122 123.784778,428.256242 C126.023913,428.498517 128.48525,428.498517 130.724385,428.498517 C189.14697,428.498517 240.202638,375.218279 289.634506,323.654157 Z M284.934033,309.602227 C291.070286,303.060811 297.189447,296.519395 303.325696,290.220254 C339.886819,251.961045 375.012161,227.996047 407.693258,218.54733 C437.314773,210.067722 466.526066,216.124583 494.711801,236.233385 C502.266743,241.563428 509.616569,248.326925 516.556176,254.626066 C528.606475,265.528426 541.272112,276.915336 556.399083,283.678838 C589.883529,298.699867 625.231079,285.37476 661.587086,268.920272 C695.276649,253.899242 727.359502,234.779737 761.254176,214.428666 C816.206961,181.741774 872.988655,147.84351 937.530401,132.337931 C1066.40878,101.589237 1172.82746,125.069691 1253.91487,201.830383 L1254.94042,200.396923 C1173.23768,123.373769 1066.40878,99.8933146 937.120179,130.642009 C872.578432,146.147587 815.591627,180.045852 760.43373,212.975018 C726.539056,233.326089 694.473294,252.20332 660.971752,267.466624 C625.025963,283.678838 589.883529,296.76167 556.997326,282.245378 C542.092558,275.703962 529.632032,264.317053 517.581734,253.414693 C510.437015,247.115552 503.2923,240.35205 495.532247,235.022007 C466.936289,214.670935 437.314773,208.614074 407.488146,217.093682 C374.396827,226.542399 339.066373,250.749672 302.300139,289.00888 C296.163886,295.308022 290.044729,301.849438 283.908476,308.390854 C234.4937,360.944267 183.215829,415.415685 124.605224,414.446586 C74.7631334,413.719762 38.2020148,395.569351 2.4613378,353.918302 L1.43578038,355.129675 C37.3815689,397.022999 74.3529104,415.415685 124.605224,416.142509 C125.203467,416.142509 125.61369,416.142509 126.229024,416.142509 C184.856721,416.142509 235.707277,361.913366 284.934033,309.602227 Z M125.408578,403.806689 C182.600499,401.383943 232.442585,347.619161 280.438672,295.308022 C287.395371,287.797507 294.54009,280.064906 301.479693,272.796666 C338.040816,234.052908 372.978138,209.825442 405.249011,200.639198 C433.84497,192.644134 463.039171,198.701001 492.045356,218.78961 C499.412274,223.877372 506.351881,229.934244 513.701707,235.991106 C526.162229,246.631003 539.032977,257.533362 554.347968,264.317053 C588.464845,279.580357 625.231079,268.193448 659.946194,255.35289 C699.977121,240.35205 736.743351,218.30506 775.5607,195.066881 C825.197679,165.267097 876.458459,134.276129 935.479287,119.739649 C995.542768,104.981083 1050.88868,101.104688 1100.52566,108.130653 C1158.1278,116.367992 1209.79881,139.606171 1253.91487,177.38083 L1254.73531,175.927182 C1210.61925,137.910249 1158.94825,114.429794 1100.93588,106.192456 C1051.2989,99.1664906 995.542768,103.042885 935.479287,118.063914 C876.253347,132.822481 824.787456,163.813449 775.150477,193.613233 C736.333128,216.851412 699.77201,238.898402 659.741083,253.899242 C625.231079,266.7398 588.875068,277.884434 555.168414,262.863405 C540.058535,256.079714 527.18779,245.177355 514.932376,234.779737 C507.77057,228.722866 500.625851,222.666004 493.070909,217.335962 C463.654505,197.005078 434.050081,190.705937 405.0439,198.943275 C372.567915,208.129524 337.425481,232.59926 300.454135,271.585293 C293.514532,278.853533 286.369813,286.586134 279.43021,294.096648 C231.417032,345.923238 182.002256,399.688025 125.203467,402.110772 C76.7971567,404.048969 38.8173449,386.847463 2.05111483,346.165513 L1.02555742,347.376886 C36.1509,386.120644 72.5069071,403.806689 117.853636,403.806689 C120.314974,404.048969 122.75922,404.048969 125.408578,403.806689 Z M126.023913,391.692956 C181.18181,386.120644 229.177897,333.082681 275.738204,281.760829 C283.720456,273.038941 291.68562,264.074778 299.650785,255.595165 C336.810147,215.640034 370.5168,191.91731 402.992785,182.710873 C430.37517,174.958084 459.36426,181.257225 489.806221,201.366022 C497.156047,206.191327 504.095655,211.763639 511.462577,217.578231 C524.31623,227.753767 537.597197,238.413852 553.117299,245.177355 C586.823953,260.198384 624.00041,252.445594 659.125749,241.805698 C704.677594,227.996047 744.503404,203.768581 786.585446,177.86538 C832.137287,150.023982 879.312928,121.193297 934.470821,106.91928 C1065.79345,73.263295 1170.79344,88.2641307 1254.73531,152.446728 L1255.55576,150.99308 C1171.20366,86.3259334 1065.99856,71.5673672 934.060598,105.223357 C878.902705,119.497374 831.521952,148.328059 785.970107,176.411732 C743.905162,202.072653 704.062255,226.542399 658.715526,240.10978 C623.795294,250.507397 587.029064,258.260186 553.527522,243.481432 C538.212531,236.717935 524.93156,226.05785 512.265927,216.124583 C504.916101,210.309991 497.976493,204.737679 490.626667,199.912374 C459.97959,179.561302 430.37517,173.019886 402.787674,181.01495 C370.106577,190.221388 336.211904,214.186386 298.830339,254.383792 C290.865174,262.863405 282.694903,271.827568 274.934849,280.549455 C228.562563,331.629033 180.771587,384.666996 126.229024,389.997039 C78.8482715,394.842532 40.6462567,379.094674 2.25622631,338.897273 L1.2306689,340.350921 C35.5526571,376.187378 69.6524422,392.904335 110.093587,392.904335 C114.999171,392.662055 120.52009,392.419785 126.023913,391.692956 Z M126.844359,379.579223 C179.951141,370.857335 226.323428,318.566389 271.054823,267.951173 C279.823342,258.017912 288.81406,247.842376 297.804777,238.171583 C334.981235,197.731902 368.687889,173.74671 400.548539,164.782548 C426.888271,157.292222 455.279122,163.571175 487.156864,184.164521 C494.301578,188.76774 501.241186,193.855508 508.591016,199.18555 C521.871983,209.098623 535.563174,219.031879 551.288387,226.05785 C586.41373,241.805698 624.820856,235.991106 657.912176,228.238316 C707.942281,216.609133 749.819211,190.221388 794.140383,162.359801 C836.632648,135.729777 880.748708,108.130653 933.035045,94.0787227 C1064.9901,58.9690847 1170.38321,70.1137192 1255.35065,127.492438 L1256.17109,125.796515 C1170.79344,68.4178017 1064.9901,57.5154367 932.624822,92.6250747 C880.133374,106.677005 836.017309,134.276129 793.525049,161.148428 C749.203877,189.010014 707.532059,215.155485 657.70706,226.784668 C625.025963,234.537458 586.823953,240.10978 552.108833,224.604202 C536.366528,217.578231 522.897541,207.644975 509.616569,197.731902 C502.266743,192.40186 495.32714,187.071817 488.16533,182.468598 C455.894456,161.875252 427.093387,155.354024 400.343427,163.086625 C368.072554,172.293062 334.160789,196.278254 296.779224,236.960204 C287.805594,246.631003 278.814876,256.806538 270.029265,266.7398 C225.29787,317.112741 179.130695,369.161418 126.639247,377.883305 C80.0789404,385.393815 41.4667026,371.099615 1.64089186,331.386758 L0.615334449,332.840406 C33.9117652,366.254122 66.38775,381.7597 103.359092,381.7597 C110.914033,381.51742 118.879198,381.032871 126.844359,379.579223 Z M127.664804,367.46549 C178.720472,355.856499 223.246756,304.272184 266.559466,254.383792 C276.148427,243.239157 286.369813,231.630162 296.163886,220.727807 C333.955677,179.319028 366.431662,155.596299 398.497424,146.632136 C423.828694,139.606171 451.399095,145.905312 485.105749,166.478471 C492.045356,170.839415 498.796939,175.442633 505.941658,180.288126 C519.632849,189.736838 533.71717,199.427825 549.852607,206.675876 C579.0639,219.758708 612.975665,222.181455 656.886614,214.670935 C711.018954,205.464498 754.109457,177.623105 800.071525,148.085784 C840.102447,122.162395 881.774266,95.5323706 931.804376,81.4804401 C1064.16965,44.9171542 1170.38321,51.9431246 1255.96598,103.042885 L1256.58132,101.346963 C1170.58833,50.2471968 1064.16965,43.2212367 931.394153,79.7845175 C881.158931,93.836448 839.487113,120.466473 799.251079,146.389862 C753.494127,175.927182 710.403619,203.768581 656.681507,212.975018 C612.975665,220.485527 579.269011,218.06278 550.467941,205.222228 C534.537616,198.216452 520.436203,188.28319 506.762104,179.076753 C499.617385,174.23126 492.865802,169.385767 485.721083,165.267097 C451.604207,144.451664 423.828694,138.152523 398.087201,145.420763 C365.816328,154.6272 333.135231,178.107654 295.155424,220.000978 C285.344256,230.903343 275.139961,242.512333 265.533904,253.656968 C222.443401,303.303086 178.105138,354.645126 127.459693,366.254122 C82.3180752,376.429657 42.2871486,363.367014 1.43578038,324.380981 L0.410222966,325.087617 C32.6810963,355.856499 64.5417467,370.857335 98.6586233,370.857335 C108.264676,370.857335 117.853636,369.645967 127.664804,367.46549 Z M128.48525,355.37195 C177.301783,340.83547 220.187175,290.220254 261.858993,241.321148 C272.473511,228.722866 283.515349,215.882314 294.334978,203.768581 C332.126766,161.632977 364.397639,137.910249 396.053182,129.188361 C420.564002,122.40467 446.305491,128.461537 482.456391,149.539432 C489.190887,153.415827 495.720267,157.776771 502.676966,162.117527 C516.966399,171.323964 531.683147,180.772676 548.228807,188.040916 C578.858788,201.588103 614.189242,206.191327 655.655945,201.588103 C713.258089,195.309156 757.57926,165.751647 804.361774,134.760678 C842.546693,109.342026 881.979377,83.1763628 930.385687,69.3869004 C1065.58834,30.8854171 1169.15254,33.7927131 1256.78643,78.8154188 L1257.38467,77.1396896 C1169.56277,32.0967904 1065.58834,28.9472198 930.180576,67.6909726 C881.569154,81.7227148 842.13647,107.888378 803.746436,133.30703 C757.169037,164.297999 713.052977,193.613233 655.655945,199.912374 C614.394354,204.495399 579.269011,200.154649 548.82705,186.587268 C532.486501,179.319028 517.786845,169.870316 503.497412,160.663879 C496.540713,156.323123 490.011333,151.962179 483.276837,148.085784 C446.715714,126.765614 420.564002,120.708747 395.642959,127.734713 C363.782309,136.698875 331.101213,160.663879 293.104309,202.799482 C282.28468,214.913215 271.259934,227.996047 260.628324,240.35205 C219.366729,289.251155 176.481337,339.624097 128.075027,353.918302 C83.9589671,366.98094 43.5178175,355.129675 1.2306689,316.628192 L0.205111483,317.839565 C31.8606504,346.650062 62.5077234,360.701993 94.3683737,360.701993 C105.393115,360.459718 116.845175,358.763795 128.48525,355.37195 Z M129.288605,343.258217 C176.071114,326.056716 217.127594,276.430786 256.953409,228.238316 C268.593485,214.186386 280.643788,199.670099 292.488975,186.344993 C330.896097,143.240291 361.936301,119.981923 393.608936,111.037949 C420.564002,103.527435 447.72418,113.945245 479.995053,131.853382 C486.131306,135.245227 492.045356,138.879347 498.591828,142.755742 C513.701707,151.719904 529.221809,160.906153 546.587915,168.658943 C579.884346,183.437697 616.240357,189.979113 654.425276,187.798641 C715.497223,184.64907 760.228618,153.900376 807.626462,121.193297 C843.982474,96.01692 881.774266,70.1137192 928.744795,56.3040685 C1014.53267,31.1276918 1141.78726,3.26610547 1256.97445,53.6390421 L1257.58978,51.9431246 C1208.56814,30.6431425 1155.25624,21.4367052 1094.38941,24.1017265 C1045.16266,26.2821985 991.047407,36.2154597 928.539684,54.6081407 C881.158931,68.4178017 843.367139,94.3209973 806.806016,119.497374 C759.630375,151.962179 715.104092,182.710873 654.23726,185.860444 C616.240357,188.040916 580.089457,181.4995 546.998138,166.720745 C529.632032,158.988144 514.11193,149.781707 499.207162,140.817544 C492.865802,136.94115 486.746641,133.30703 480.610388,129.915185 C447.929291,111.764773 420.564002,101.104688 393.198713,108.857477 C352.34734,120.224198 317.410018,155.354024 291.275397,184.64907 C279.43021,198.216452 267.379912,212.490468 255.72274,226.542399 C216.102041,274.492589 175.045557,323.896432 128.690362,341.077745 C85.582763,357.310147 44.9365063,346.892337 0.820445932,308.875403 L0,310.329051 C31.057296,337.20135 60.4566085,350.526457 90.2832356,350.526457 C103.153984,350.526457 116.024729,348.10371 129.288605,343.258217 Z M139.920214,326.056716 C180.361364,304.02991 216.922487,258.98701 252.047825,215.397764 C294.950313,162.359801 339.066373,107.646104 391.147598,93.109624 C422.392914,84.3877361 455.07401,102.073787 492.865802,122.889219 C536.776751,146.874411 586.618841,174.23126 653.211703,174.23126 C717.548338,174.23126 762.279733,142.271192 809.865597,108.372928 C845.008031,83.4186374 881.158931,57.5154367 927.309015,43.4635062 C1021.06205,14.8952893 1143.41105,-12.4615594 1257.58978,28.9472198 L1258,27.2512972 C1143.41105,-14.3997567 1020.85694,13.1993667 926.915883,41.7675887 C880.543597,55.8195192 844.187585,81.7227148 809.045151,106.91928 C761.664399,140.57527 717.138115,172.535337 653.211703,172.535337 C586.823953,172.535337 537.186974,145.420763 493.481132,121.435571 C455.484233,100.620139 422.803137,82.6918135 390.942487,91.655976 C338.451039,106.43473 294.129867,161.390703 251.244475,214.428666 C216.102041,258.017912 179.74603,303.060811 139.509992,324.845342 C94.5734852,349.315083 49.2267559,341.804569 0.820445932,301.607163 L0,303.060811 C30.23685,327.994913 59.2430312,340.593196 87.8389937,340.593196 C105.188003,340.350921 122.554109,335.505428 139.920214,326.056716 Z" id="Shape" fill="#FFFFFF" fill-rule="nonzero" mask="url(#mask-6)"></path>
                        </g>
                    </g>
                </g>
                <g filter="url(#filter-7)" id="Clipped">
                    <g transform="translate(905.000000, 454.500000) scale(-1, -1) translate(-905.000000, -454.500000) translate(273.000000, 221.000000)">
                        <mask id="mask-9" fill="white">
                            <use xlink:href="#path-8"></use>
                        </mask>
                        <g id="Path"></g>
                        <path d="M143.184907,467 C136.040188,467 128.895473,466.273176 121.528552,464.577253 C67.2081959,452.46352 32.6810963,429.225341 2.25622631,384.909266 L3.46980368,383.697897 C33.7066537,427.771693 67.8235304,450.767598 121.733663,462.881331 C188.736747,477.90236 248.783137,418.322981 301.889916,365.769572 L309.649969,358.036971 C337.630593,330.41766 434.460304,244.692805 505.531435,304.272184 C513.496596,310.8136 520.641314,319.293213 527.598013,327.268089 C538.417643,339.624097 549.442384,352.464654 563.543797,358.763795 C599.489586,374.73373 639.110285,342.773667 665.467113,321.71596 C721.223253,276.673061 833.761087,198.216452 959.59698,178.349929 C1016.37867,169.385767 1068.87012,173.74671 1115.63554,191.190486 C1168.3321,210.794541 1214.49927,247.357827 1252.70129,299.668966 L1251.47062,300.880339 C1213.47372,248.811475 1167.71676,212.490468 1115.22532,192.886409 C1068.4599,175.442633 1016.17357,171.081689 959.785,180.045852 C834.17131,199.912374 722.043699,278.126709 666.287559,322.927333 C639.725624,344.227315 599.694697,376.429657 562.928463,360.217443 C548.621938,353.676027 537.392086,340.83547 526.367344,328.237188 C519.427737,320.262312 512.265927,312.024973 504.505878,305.483558 C434.255193,246.631003 338.245927,331.629033 310.470415,359.00607 L302.710362,366.738671 C255.329609,414.204312 202.222826,467 143.184907,467 Z M298.625223,352.222379 C302.095027,348.830534 305.359719,345.438689 308.624411,342.046844 C333.750566,316.870467 372.567915,284.405662 414.837972,272.312117 C447.72418,262.863405 477.140588,268.435722 502.061631,288.282056 C509.821685,294.581198 516.966399,302.333987 523.923098,309.844501 C535.152951,321.958235 546.793026,334.778604 561.287571,341.32002 C594.789113,356.341049 629.521324,335.020878 665.05689,309.844501 C750.229434,249.780573 842.751805,191.432761 941.820651,170.59714 C1070.69903,143.72484 1175.08369,179.076753 1252.29107,276.188512 L1253.29953,274.977138 C1175.68192,177.38083 1070.90414,141.786643 941.410428,168.658943 C842.13647,189.494564 749.6141,248.084651 664.236444,308.148579 C629.111102,333.082681 594.584002,354.160577 561.902906,339.624097 C547.613472,333.324956 536.178508,320.746861 524.93156,308.633128 C517.991957,301.122614 510.847238,293.12755 502.882077,286.828408 C477.550811,266.497525 447.72418,260.925208 414.427749,270.37392 C371.952581,282.487653 332.93012,315.174544 307.615946,340.593196 C304.334162,343.985041 300.864358,347.376886 297.59967,350.768731 C245.928668,402.837591 187.506079,461.912232 122.348997,450.525323 C69.2422192,441.096799 34.5270996,419.534354 3.05958072,375.945108 L2.05111483,377.398756 C33.9117652,421.230277 68.6268804,443.034997 122.348997,452.46352 C127.869916,453.432619 133.373743,453.917168 138.894657,453.917168 C197.932581,453.917168 251.244475,400.172575 298.625223,352.222379 Z M294.334978,337.6859 C298.625223,333.324956 302.915473,328.964012 307.000611,324.603068 C332.126766,299.184416 370.721912,266.25525 412.598842,254.141517 C444.459492,244.93508 473.875896,250.749672 499.617385,270.858469 C507.377439,276.915336 514.522153,284.163387 521.46176,291.431627 C532.896724,303.303086 544.741911,315.416819 559.663771,321.958235 C595.609559,337.928174 635.025151,313.720896 663.826221,296.034846 C676.081631,288.524331 688.131934,280.79173 701.002678,272.796666 C772.484028,227.753767 853.383414,176.896281 940.179759,157.776771 C1069.07523,129.67291 1174.05813,161.148428 1252.70129,251.476496 L1253.70975,250.265122 C1174.87857,159.714968 1069.28034,127.976987 939.974648,156.080848 C852.973192,175.200358 771.885785,226.300119 700.387344,271.343018 C687.516595,279.338082 675.466297,287.070683 663.210887,294.581198 C634.614928,312.267248 595.609559,336.232252 560.27911,320.504587 C545.767469,313.963171 533.922282,301.849438 522.692429,290.220254 C515.752822,282.972202 508.3859,275.703962 500.625851,269.647096 C474.491231,249.296024 444.664599,243.481432 412.393726,252.687869 C370.311689,264.801602 331.30632,297.730768 306.180165,323.411883 C301.889916,327.752638 297.804777,332.113582 293.514532,336.474526 C243.074199,388.058841 186.08739,446.426842 123.169443,438.431778 C71.4984412,432.132637 35.5526571,411.054741 2.87156076,368.676868 L1.64089186,369.888236 C34.5270996,412.750664 70.8831111,433.828559 122.75922,440.369975 C126.639247,440.854525 130.519274,441.096799 134.399296,441.096799 C193.642332,441.096799 246.954226,386.362914 294.334978,337.6859 Z M289.634506,323.654157 C294.950313,318.08184 300.061008,312.751797 305.359719,307.421755 C342.125954,269.647096 377.473499,245.661904 410.342611,236.475655 C439.964131,227.511498 471.61967,233.810639 497.361159,253.656968 C504.916101,259.47156 512.265927,266.25525 519.222626,273.038941 C531.067813,284.405662 543.323227,296.27712 558.227995,302.818536 C591.319314,317.597291 626.649764,301.607163 663.005775,282.487653 C688.131934,269.162546 712.642754,254.383792 738.794466,238.656132 C801.490214,200.881473 866.237067,161.875252 938.966182,144.936214 C1067.84456,115.641168 1173.64791,142.998016 1253.29953,226.542399 L1254.32509,225.088751 C1174.05813,141.544368 1067.84456,113.945245 938.555959,143.482566 C865.638829,160.421604 800.686859,199.427825 737.97402,237.202484 C711.822308,252.930144 687.311488,267.708898 662.202421,281.034005 C626.239541,299.91124 591.114198,315.901368 558.638218,301.364888 C543.938557,294.823472 531.888259,283.214477 520.02598,271.827568 C513.086373,265.043877 505.736547,258.017912 497.976493,252.20332 C472.029893,232.114711 439.75902,225.81557 409.744373,234.779737 C376.447942,244.208256 340.895285,268.193448 304.146142,306.210382 C299.035446,311.540424 293.719644,316.870467 288.403837,322.442784 C237.348169,375.702828 184.651614,430.678989 123.784778,426.560319 C73.1222415,422.926199 36.7662301,403.56442 2.66644928,361.428817 L1.64089186,362.64019 C36.1509,405.018068 72.7120185,424.622122 123.784778,428.256242 C126.023913,428.498517 128.48525,428.498517 130.724385,428.498517 C189.14697,428.498517 240.202638,375.218279 289.634506,323.654157 Z M284.934033,309.602227 C291.070286,303.060811 297.189447,296.519395 303.325696,290.220254 C339.886819,251.961045 375.012161,227.996047 407.693258,218.54733 C437.314773,210.067722 466.526066,216.124583 494.711801,236.233385 C502.266743,241.563428 509.616569,248.326925 516.556176,254.626066 C528.606475,265.528426 541.272112,276.915336 556.399083,283.678838 C589.883529,298.699867 625.231079,285.37476 661.587086,268.920272 C695.276649,253.899242 727.359502,234.779737 761.254176,214.428666 C816.206961,181.741774 872.988655,147.84351 937.530401,132.337931 C1066.40878,101.589237 1172.82746,125.069691 1253.91487,201.830383 L1254.94042,200.396923 C1173.23768,123.373769 1066.40878,99.8933146 937.120179,130.642009 C872.578432,146.147587 815.591627,180.045852 760.43373,212.975018 C726.539056,233.326089 694.473294,252.20332 660.971752,267.466624 C625.025963,283.678838 589.883529,296.76167 556.997326,282.245378 C542.092558,275.703962 529.632032,264.317053 517.581734,253.414693 C510.437015,247.115552 503.2923,240.35205 495.532247,235.022007 C466.936289,214.670935 437.314773,208.614074 407.488146,217.093682 C374.396827,226.542399 339.066373,250.749672 302.300139,289.00888 C296.163886,295.308022 290.044729,301.849438 283.908476,308.390854 C234.4937,360.944267 183.215829,415.415685 124.605224,414.446586 C74.7631334,413.719762 38.2020148,395.569351 2.4613378,353.918302 L1.43578038,355.129675 C37.3815689,397.022999 74.3529104,415.415685 124.605224,416.142509 C125.203467,416.142509 125.61369,416.142509 126.229024,416.142509 C184.856721,416.142509 235.707277,361.913366 284.934033,309.602227 Z M125.408578,403.806689 C182.600499,401.383943 232.442585,347.619161 280.438672,295.308022 C287.395371,287.797507 294.54009,280.064906 301.479693,272.796666 C338.040816,234.052908 372.978138,209.825442 405.249011,200.639198 C433.84497,192.644134 463.039171,198.701001 492.045356,218.78961 C499.412274,223.877372 506.351881,229.934244 513.701707,235.991106 C526.162229,246.631003 539.032977,257.533362 554.347968,264.317053 C588.464845,279.580357 625.231079,268.193448 659.946194,255.35289 C699.977121,240.35205 736.743351,218.30506 775.5607,195.066881 C825.197679,165.267097 876.458459,134.276129 935.479287,119.739649 C995.542768,104.981083 1050.88868,101.104688 1100.52566,108.130653 C1158.1278,116.367992 1209.79881,139.606171 1253.91487,177.38083 L1254.73531,175.927182 C1210.61925,137.910249 1158.94825,114.429794 1100.93588,106.192456 C1051.2989,99.1664906 995.542768,103.042885 935.479287,118.063914 C876.253347,132.822481 824.787456,163.813449 775.150477,193.613233 C736.333128,216.851412 699.77201,238.898402 659.741083,253.899242 C625.231079,266.7398 588.875068,277.884434 555.168414,262.863405 C540.058535,256.079714 527.18779,245.177355 514.932376,234.779737 C507.77057,228.722866 500.625851,222.666004 493.070909,217.335962 C463.654505,197.005078 434.050081,190.705937 405.0439,198.943275 C372.567915,208.129524 337.425481,232.59926 300.454135,271.585293 C293.514532,278.853533 286.369813,286.586134 279.43021,294.096648 C231.417032,345.923238 182.002256,399.688025 125.203467,402.110772 C76.7971567,404.048969 38.8173449,386.847463 2.05111483,346.165513 L1.02555742,347.376886 C36.1509,386.120644 72.5069071,403.806689 117.853636,403.806689 C120.314974,404.048969 122.75922,404.048969 125.408578,403.806689 Z M126.023913,391.692956 C181.18181,386.120644 229.177897,333.082681 275.738204,281.760829 C283.720456,273.038941 291.68562,264.074778 299.650785,255.595165 C336.810147,215.640034 370.5168,191.91731 402.992785,182.710873 C430.37517,174.958084 459.36426,181.257225 489.806221,201.366022 C497.156047,206.191327 504.095655,211.763639 511.462577,217.578231 C524.31623,227.753767 537.597197,238.413852 553.117299,245.177355 C586.823953,260.198384 624.00041,252.445594 659.125749,241.805698 C704.677594,227.996047 744.503404,203.768581 786.585446,177.86538 C832.137287,150.023982 879.312928,121.193297 934.470821,106.91928 C1065.79345,73.263295 1170.79344,88.2641307 1254.73531,152.446728 L1255.55576,150.99308 C1171.20366,86.3259334 1065.99856,71.5673672 934.060598,105.223357 C878.902705,119.497374 831.521952,148.328059 785.970107,176.411732 C743.905162,202.072653 704.062255,226.542399 658.715526,240.10978 C623.795294,250.507397 587.029064,258.260186 553.527522,243.481432 C538.212531,236.717935 524.93156,226.05785 512.265927,216.124583 C504.916101,210.309991 497.976493,204.737679 490.626667,199.912374 C459.97959,179.561302 430.37517,173.019886 402.787674,181.01495 C370.106577,190.221388 336.211904,214.186386 298.830339,254.383792 C290.865174,262.863405 282.694903,271.827568 274.934849,280.549455 C228.562563,331.629033 180.771587,384.666996 126.229024,389.997039 C78.8482715,394.842532 40.6462567,379.094674 2.25622631,338.897273 L1.2306689,340.350921 C35.5526571,376.187378 69.6524422,392.904335 110.093587,392.904335 C114.999171,392.662055 120.52009,392.419785 126.023913,391.692956 Z M126.844359,379.579223 C179.951141,370.857335 226.323428,318.566389 271.054823,267.951173 C279.823342,258.017912 288.81406,247.842376 297.804777,238.171583 C334.981235,197.731902 368.687889,173.74671 400.548539,164.782548 C426.888271,157.292222 455.279122,163.571175 487.156864,184.164521 C494.301578,188.76774 501.241186,193.855508 508.591016,199.18555 C521.871983,209.098623 535.563174,219.031879 551.288387,226.05785 C586.41373,241.805698 624.820856,235.991106 657.912176,228.238316 C707.942281,216.609133 749.819211,190.221388 794.140383,162.359801 C836.632648,135.729777 880.748708,108.130653 933.035045,94.0787227 C1064.9901,58.9690847 1170.38321,70.1137192 1255.35065,127.492438 L1256.17109,125.796515 C1170.79344,68.4178017 1064.9901,57.5154367 932.624822,92.6250747 C880.133374,106.677005 836.017309,134.276129 793.525049,161.148428 C749.203877,189.010014 707.532059,215.155485 657.70706,226.784668 C625.025963,234.537458 586.823953,240.10978 552.108833,224.604202 C536.366528,217.578231 522.897541,207.644975 509.616569,197.731902 C502.266743,192.40186 495.32714,187.071817 488.16533,182.468598 C455.894456,161.875252 427.093387,155.354024 400.343427,163.086625 C368.072554,172.293062 334.160789,196.278254 296.779224,236.960204 C287.805594,246.631003 278.814876,256.806538 270.029265,266.7398 C225.29787,317.112741 179.130695,369.161418 126.639247,377.883305 C80.0789404,385.393815 41.4667026,371.099615 1.64089186,331.386758 L0.615334449,332.840406 C33.9117652,366.254122 66.38775,381.7597 103.359092,381.7597 C110.914033,381.51742 118.879198,381.032871 126.844359,379.579223 Z M127.664804,367.46549 C178.720472,355.856499 223.246756,304.272184 266.559466,254.383792 C276.148427,243.239157 286.369813,231.630162 296.163886,220.727807 C333.955677,179.319028 366.431662,155.596299 398.497424,146.632136 C423.828694,139.606171 451.399095,145.905312 485.105749,166.478471 C492.045356,170.839415 498.796939,175.442633 505.941658,180.288126 C519.632849,189.736838 533.71717,199.427825 549.852607,206.675876 C579.0639,219.758708 612.975665,222.181455 656.886614,214.670935 C711.018954,205.464498 754.109457,177.623105 800.071525,148.085784 C840.102447,122.162395 881.774266,95.5323706 931.804376,81.4804401 C1064.16965,44.9171542 1170.38321,51.9431246 1255.96598,103.042885 L1256.58132,101.346963 C1170.58833,50.2471968 1064.16965,43.2212367 931.394153,79.7845175 C881.158931,93.836448 839.487113,120.466473 799.251079,146.389862 C753.494127,175.927182 710.403619,203.768581 656.681507,212.975018 C612.975665,220.485527 579.269011,218.06278 550.467941,205.222228 C534.537616,198.216452 520.436203,188.28319 506.762104,179.076753 C499.617385,174.23126 492.865802,169.385767 485.721083,165.267097 C451.604207,144.451664 423.828694,138.152523 398.087201,145.420763 C365.816328,154.6272 333.135231,178.107654 295.155424,220.000978 C285.344256,230.903343 275.139961,242.512333 265.533904,253.656968 C222.443401,303.303086 178.105138,354.645126 127.459693,366.254122 C82.3180752,376.429657 42.2871486,363.367014 1.43578038,324.380981 L0.410222966,325.087617 C32.6810963,355.856499 64.5417467,370.857335 98.6586233,370.857335 C108.264676,370.857335 117.853636,369.645967 127.664804,367.46549 Z M128.48525,355.37195 C177.301783,340.83547 220.187175,290.220254 261.858993,241.321148 C272.473511,228.722866 283.515349,215.882314 294.334978,203.768581 C332.126766,161.632977 364.397639,137.910249 396.053182,129.188361 C420.564002,122.40467 446.305491,128.461537 482.456391,149.539432 C489.190887,153.415827 495.720267,157.776771 502.676966,162.117527 C516.966399,171.323964 531.683147,180.772676 548.228807,188.040916 C578.858788,201.588103 614.189242,206.191327 655.655945,201.588103 C713.258089,195.309156 757.57926,165.751647 804.361774,134.760678 C842.546693,109.342026 881.979377,83.1763628 930.385687,69.3869004 C1065.58834,30.8854171 1169.15254,33.7927131 1256.78643,78.8154188 L1257.38467,77.1396896 C1169.56277,32.0967904 1065.58834,28.9472198 930.180576,67.6909726 C881.569154,81.7227148 842.13647,107.888378 803.746436,133.30703 C757.169037,164.297999 713.052977,193.613233 655.655945,199.912374 C614.394354,204.495399 579.269011,200.154649 548.82705,186.587268 C532.486501,179.319028 517.786845,169.870316 503.497412,160.663879 C496.540713,156.323123 490.011333,151.962179 483.276837,148.085784 C446.715714,126.765614 420.564002,120.708747 395.642959,127.734713 C363.782309,136.698875 331.101213,160.663879 293.104309,202.799482 C282.28468,214.913215 271.259934,227.996047 260.628324,240.35205 C219.366729,289.251155 176.481337,339.624097 128.075027,353.918302 C83.9589671,366.98094 43.5178175,355.129675 1.2306689,316.628192 L0.205111483,317.839565 C31.8606504,346.650062 62.5077234,360.701993 94.3683737,360.701993 C105.393115,360.459718 116.845175,358.763795 128.48525,355.37195 Z M129.288605,343.258217 C176.071114,326.056716 217.127594,276.430786 256.953409,228.238316 C268.593485,214.186386 280.643788,199.670099 292.488975,186.344993 C330.896097,143.240291 361.936301,119.981923 393.608936,111.037949 C420.564002,103.527435 447.72418,113.945245 479.995053,131.853382 C486.131306,135.245227 492.045356,138.879347 498.591828,142.755742 C513.701707,151.719904 529.221809,160.906153 546.587915,168.658943 C579.884346,183.437697 616.240357,189.979113 654.425276,187.798641 C715.497223,184.64907 760.228618,153.900376 807.626462,121.193297 C843.982474,96.01692 881.774266,70.1137192 928.744795,56.3040685 C1014.53267,31.1276918 1141.78726,3.26610547 1256.97445,53.6390421 L1257.58978,51.9431246 C1208.56814,30.6431425 1155.25624,21.4367052 1094.38941,24.1017265 C1045.16266,26.2821985 991.047407,36.2154597 928.539684,54.6081407 C881.158931,68.4178017 843.367139,94.3209973 806.806016,119.497374 C759.630375,151.962179 715.104092,182.710873 654.23726,185.860444 C616.240357,188.040916 580.089457,181.4995 546.998138,166.720745 C529.632032,158.988144 514.11193,149.781707 499.207162,140.817544 C492.865802,136.94115 486.746641,133.30703 480.610388,129.915185 C447.929291,111.764773 420.564002,101.104688 393.198713,108.857477 C352.34734,120.224198 317.410018,155.354024 291.275397,184.64907 C279.43021,198.216452 267.379912,212.490468 255.72274,226.542399 C216.102041,274.492589 175.045557,323.896432 128.690362,341.077745 C85.582763,357.310147 44.9365063,346.892337 0.820445932,308.875403 L0,310.329051 C31.057296,337.20135 60.4566085,350.526457 90.2832356,350.526457 C103.153984,350.526457 116.024729,348.10371 129.288605,343.258217 Z M139.920214,326.056716 C180.361364,304.02991 216.922487,258.98701 252.047825,215.397764 C294.950313,162.359801 339.066373,107.646104 391.147598,93.109624 C422.392914,84.3877361 455.07401,102.073787 492.865802,122.889219 C536.776751,146.874411 586.618841,174.23126 653.211703,174.23126 C717.548338,174.23126 762.279733,142.271192 809.865597,108.372928 C845.008031,83.4186374 881.158931,57.5154367 927.309015,43.4635062 C1021.06205,14.8952893 1143.41105,-12.4615594 1257.58978,28.9472198 L1258,27.2512972 C1143.41105,-14.3997567 1020.85694,13.1993667 926.915883,41.7675887 C880.543597,55.8195192 844.187585,81.7227148 809.045151,106.91928 C761.664399,140.57527 717.138115,172.535337 653.211703,172.535337 C586.823953,172.535337 537.186974,145.420763 493.481132,121.435571 C455.484233,100.620139 422.803137,82.6918135 390.942487,91.655976 C338.451039,106.43473 294.129867,161.390703 251.244475,214.428666 C216.102041,258.017912 179.74603,303.060811 139.509992,324.845342 C94.5734852,349.315083 49.2267559,341.804569 0.820445932,301.607163 L0,303.060811 C30.23685,327.994913 59.2430312,340.593196 87.8389937,340.593196 C105.188003,340.350921 122.554109,335.505428 139.920214,326.056716 Z" id="Shape" fill="#FFFFFF" fill-rule="nonzero" mask="url(#mask-9)"></path>
                    </g>
                </g>
                <g filter="url(#filter-10)" id="Clipped">
                    <g transform="translate(632.000000, 910.500000) scale(-1, -1) translate(-632.000000, -910.500000) translate(0.000000, 677.000000)">
                        <mask id="mask-12" fill="white">
                            <use xlink:href="#path-11"></use>
                        </mask>
                        <g id="Path"></g>
                        <path d="M143.184907,467 C136.040188,467 128.895473,466.273176 121.528552,464.577253 C67.2081959,452.46352 32.6810963,429.225341 2.25622631,384.909266 L3.46980368,383.697897 C33.7066537,427.771693 67.8235304,450.767598 121.733663,462.881331 C188.736747,477.90236 248.783137,418.322981 301.889916,365.769572 L309.649969,358.036971 C337.630593,330.41766 434.460304,244.692805 505.531435,304.272184 C513.496596,310.8136 520.641314,319.293213 527.598013,327.268089 C538.417643,339.624097 549.442384,352.464654 563.543797,358.763795 C599.489586,374.73373 639.110285,342.773667 665.467113,321.71596 C721.223253,276.673061 833.761087,198.216452 959.59698,178.349929 C1016.37867,169.385767 1068.87012,173.74671 1115.63554,191.190486 C1168.3321,210.794541 1214.49927,247.357827 1252.70129,299.668966 L1251.47062,300.880339 C1213.47372,248.811475 1167.71676,212.490468 1115.22532,192.886409 C1068.4599,175.442633 1016.17357,171.081689 959.785,180.045852 C834.17131,199.912374 722.043699,278.126709 666.287559,322.927333 C639.725624,344.227315 599.694697,376.429657 562.928463,360.217443 C548.621938,353.676027 537.392086,340.83547 526.367344,328.237188 C519.427737,320.262312 512.265927,312.024973 504.505878,305.483558 C434.255193,246.631003 338.245927,331.629033 310.470415,359.00607 L302.710362,366.738671 C255.329609,414.204312 202.222826,467 143.184907,467 Z M298.625223,352.222379 C302.095027,348.830534 305.359719,345.438689 308.624411,342.046844 C333.750566,316.870467 372.567915,284.405662 414.837972,272.312117 C447.72418,262.863405 477.140588,268.435722 502.061631,288.282056 C509.821685,294.581198 516.966399,302.333987 523.923098,309.844501 C535.152951,321.958235 546.793026,334.778604 561.287571,341.32002 C594.789113,356.341049 629.521324,335.020878 665.05689,309.844501 C750.229434,249.780573 842.751805,191.432761 941.820651,170.59714 C1070.69903,143.72484 1175.08369,179.076753 1252.29107,276.188512 L1253.29953,274.977138 C1175.68192,177.38083 1070.90414,141.786643 941.410428,168.658943 C842.13647,189.494564 749.6141,248.084651 664.236444,308.148579 C629.111102,333.082681 594.584002,354.160577 561.902906,339.624097 C547.613472,333.324956 536.178508,320.746861 524.93156,308.633128 C517.991957,301.122614 510.847238,293.12755 502.882077,286.828408 C477.550811,266.497525 447.72418,260.925208 414.427749,270.37392 C371.952581,282.487653 332.93012,315.174544 307.615946,340.593196 C304.334162,343.985041 300.864358,347.376886 297.59967,350.768731 C245.928668,402.837591 187.506079,461.912232 122.348997,450.525323 C69.2422192,441.096799 34.5270996,419.534354 3.05958072,375.945108 L2.05111483,377.398756 C33.9117652,421.230277 68.6268804,443.034997 122.348997,452.46352 C127.869916,453.432619 133.373743,453.917168 138.894657,453.917168 C197.932581,453.917168 251.244475,400.172575 298.625223,352.222379 Z M294.334978,337.6859 C298.625223,333.324956 302.915473,328.964012 307.000611,324.603068 C332.126766,299.184416 370.721912,266.25525 412.598842,254.141517 C444.459492,244.93508 473.875896,250.749672 499.617385,270.858469 C507.377439,276.915336 514.522153,284.163387 521.46176,291.431627 C532.896724,303.303086 544.741911,315.416819 559.663771,321.958235 C595.609559,337.928174 635.025151,313.720896 663.826221,296.034846 C676.081631,288.524331 688.131934,280.79173 701.002678,272.796666 C772.484028,227.753767 853.383414,176.896281 940.179759,157.776771 C1069.07523,129.67291 1174.05813,161.148428 1252.70129,251.476496 L1253.70975,250.265122 C1174.87857,159.714968 1069.28034,127.976987 939.974648,156.080848 C852.973192,175.200358 771.885785,226.300119 700.387344,271.343018 C687.516595,279.338082 675.466297,287.070683 663.210887,294.581198 C634.614928,312.267248 595.609559,336.232252 560.27911,320.504587 C545.767469,313.963171 533.922282,301.849438 522.692429,290.220254 C515.752822,282.972202 508.3859,275.703962 500.625851,269.647096 C474.491231,249.296024 444.664599,243.481432 412.393726,252.687869 C370.311689,264.801602 331.30632,297.730768 306.180165,323.411883 C301.889916,327.752638 297.804777,332.113582 293.514532,336.474526 C243.074199,388.058841 186.08739,446.426842 123.169443,438.431778 C71.4984412,432.132637 35.5526571,411.054741 2.87156076,368.676868 L1.64089186,369.888236 C34.5270996,412.750664 70.8831111,433.828559 122.75922,440.369975 C126.639247,440.854525 130.519274,441.096799 134.399296,441.096799 C193.642332,441.096799 246.954226,386.362914 294.334978,337.6859 Z M289.634506,323.654157 C294.950313,318.08184 300.061008,312.751797 305.359719,307.421755 C342.125954,269.647096 377.473499,245.661904 410.342611,236.475655 C439.964131,227.511498 471.61967,233.810639 497.361159,253.656968 C504.916101,259.47156 512.265927,266.25525 519.222626,273.038941 C531.067813,284.405662 543.323227,296.27712 558.227995,302.818536 C591.319314,317.597291 626.649764,301.607163 663.005775,282.487653 C688.131934,269.162546 712.642754,254.383792 738.794466,238.656132 C801.490214,200.881473 866.237067,161.875252 938.966182,144.936214 C1067.84456,115.641168 1173.64791,142.998016 1253.29953,226.542399 L1254.32509,225.088751 C1174.05813,141.544368 1067.84456,113.945245 938.555959,143.482566 C865.638829,160.421604 800.686859,199.427825 737.97402,237.202484 C711.822308,252.930144 687.311488,267.708898 662.202421,281.034005 C626.239541,299.91124 591.114198,315.901368 558.638218,301.364888 C543.938557,294.823472 531.888259,283.214477 520.02598,271.827568 C513.086373,265.043877 505.736547,258.017912 497.976493,252.20332 C472.029893,232.114711 439.75902,225.81557 409.744373,234.779737 C376.447942,244.208256 340.895285,268.193448 304.146142,306.210382 C299.035446,311.540424 293.719644,316.870467 288.403837,322.442784 C237.348169,375.702828 184.651614,430.678989 123.784778,426.560319 C73.1222415,422.926199 36.7662301,403.56442 2.66644928,361.428817 L1.64089186,362.64019 C36.1509,405.018068 72.7120185,424.622122 123.784778,428.256242 C126.023913,428.498517 128.48525,428.498517 130.724385,428.498517 C189.14697,428.498517 240.202638,375.218279 289.634506,323.654157 Z M284.934033,309.602227 C291.070286,303.060811 297.189447,296.519395 303.325696,290.220254 C339.886819,251.961045 375.012161,227.996047 407.693258,218.54733 C437.314773,210.067722 466.526066,216.124583 494.711801,236.233385 C502.266743,241.563428 509.616569,248.326925 516.556176,254.626066 C528.606475,265.528426 541.272112,276.915336 556.399083,283.678838 C589.883529,298.699867 625.231079,285.37476 661.587086,268.920272 C695.276649,253.899242 727.359502,234.779737 761.254176,214.428666 C816.206961,181.741774 872.988655,147.84351 937.530401,132.337931 C1066.40878,101.589237 1172.82746,125.069691 1253.91487,201.830383 L1254.94042,200.396923 C1173.23768,123.373769 1066.40878,99.8933146 937.120179,130.642009 C872.578432,146.147587 815.591627,180.045852 760.43373,212.975018 C726.539056,233.326089 694.473294,252.20332 660.971752,267.466624 C625.025963,283.678838 589.883529,296.76167 556.997326,282.245378 C542.092558,275.703962 529.632032,264.317053 517.581734,253.414693 C510.437015,247.115552 503.2923,240.35205 495.532247,235.022007 C466.936289,214.670935 437.314773,208.614074 407.488146,217.093682 C374.396827,226.542399 339.066373,250.749672 302.300139,289.00888 C296.163886,295.308022 290.044729,301.849438 283.908476,308.390854 C234.4937,360.944267 183.215829,415.415685 124.605224,414.446586 C74.7631334,413.719762 38.2020148,395.569351 2.4613378,353.918302 L1.43578038,355.129675 C37.3815689,397.022999 74.3529104,415.415685 124.605224,416.142509 C125.203467,416.142509 125.61369,416.142509 126.229024,416.142509 C184.856721,416.142509 235.707277,361.913366 284.934033,309.602227 Z M125.408578,403.806689 C182.600499,401.383943 232.442585,347.619161 280.438672,295.308022 C287.395371,287.797507 294.54009,280.064906 301.479693,272.796666 C338.040816,234.052908 372.978138,209.825442 405.249011,200.639198 C433.84497,192.644134 463.039171,198.701001 492.045356,218.78961 C499.412274,223.877372 506.351881,229.934244 513.701707,235.991106 C526.162229,246.631003 539.032977,257.533362 554.347968,264.317053 C588.464845,279.580357 625.231079,268.193448 659.946194,255.35289 C699.977121,240.35205 736.743351,218.30506 775.5607,195.066881 C825.197679,165.267097 876.458459,134.276129 935.479287,119.739649 C995.542768,104.981083 1050.88868,101.104688 1100.52566,108.130653 C1158.1278,116.367992 1209.79881,139.606171 1253.91487,177.38083 L1254.73531,175.927182 C1210.61925,137.910249 1158.94825,114.429794 1100.93588,106.192456 C1051.2989,99.1664906 995.542768,103.042885 935.479287,118.063914 C876.253347,132.822481 824.787456,163.813449 775.150477,193.613233 C736.333128,216.851412 699.77201,238.898402 659.741083,253.899242 C625.231079,266.7398 588.875068,277.884434 555.168414,262.863405 C540.058535,256.079714 527.18779,245.177355 514.932376,234.779737 C507.77057,228.722866 500.625851,222.666004 493.070909,217.335962 C463.654505,197.005078 434.050081,190.705937 405.0439,198.943275 C372.567915,208.129524 337.425481,232.59926 300.454135,271.585293 C293.514532,278.853533 286.369813,286.586134 279.43021,294.096648 C231.417032,345.923238 182.002256,399.688025 125.203467,402.110772 C76.7971567,404.048969 38.8173449,386.847463 2.05111483,346.165513 L1.02555742,347.376886 C36.1509,386.120644 72.5069071,403.806689 117.853636,403.806689 C120.314974,404.048969 122.75922,404.048969 125.408578,403.806689 Z M126.023913,391.692956 C181.18181,386.120644 229.177897,333.082681 275.738204,281.760829 C283.720456,273.038941 291.68562,264.074778 299.650785,255.595165 C336.810147,215.640034 370.5168,191.91731 402.992785,182.710873 C430.37517,174.958084 459.36426,181.257225 489.806221,201.366022 C497.156047,206.191327 504.095655,211.763639 511.462577,217.578231 C524.31623,227.753767 537.597197,238.413852 553.117299,245.177355 C586.823953,260.198384 624.00041,252.445594 659.125749,241.805698 C704.677594,227.996047 744.503404,203.768581 786.585446,177.86538 C832.137287,150.023982 879.312928,121.193297 934.470821,106.91928 C1065.79345,73.263295 1170.79344,88.2641307 1254.73531,152.446728 L1255.55576,150.99308 C1171.20366,86.3259334 1065.99856,71.5673672 934.060598,105.223357 C878.902705,119.497374 831.521952,148.328059 785.970107,176.411732 C743.905162,202.072653 704.062255,226.542399 658.715526,240.10978 C623.795294,250.507397 587.029064,258.260186 553.527522,243.481432 C538.212531,236.717935 524.93156,226.05785 512.265927,216.124583 C504.916101,210.309991 497.976493,204.737679 490.626667,199.912374 C459.97959,179.561302 430.37517,173.019886 402.787674,181.01495 C370.106577,190.221388 336.211904,214.186386 298.830339,254.383792 C290.865174,262.863405 282.694903,271.827568 274.934849,280.549455 C228.562563,331.629033 180.771587,384.666996 126.229024,389.997039 C78.8482715,394.842532 40.6462567,379.094674 2.25622631,338.897273 L1.2306689,340.350921 C35.5526571,376.187378 69.6524422,392.904335 110.093587,392.904335 C114.999171,392.662055 120.52009,392.419785 126.023913,391.692956 Z M126.844359,379.579223 C179.951141,370.857335 226.323428,318.566389 271.054823,267.951173 C279.823342,258.017912 288.81406,247.842376 297.804777,238.171583 C334.981235,197.731902 368.687889,173.74671 400.548539,164.782548 C426.888271,157.292222 455.279122,163.571175 487.156864,184.164521 C494.301578,188.76774 501.241186,193.855508 508.591016,199.18555 C521.871983,209.098623 535.563174,219.031879 551.288387,226.05785 C586.41373,241.805698 624.820856,235.991106 657.912176,228.238316 C707.942281,216.609133 749.819211,190.221388 794.140383,162.359801 C836.632648,135.729777 880.748708,108.130653 933.035045,94.0787227 C1064.9901,58.9690847 1170.38321,70.1137192 1255.35065,127.492438 L1256.17109,125.796515 C1170.79344,68.4178017 1064.9901,57.5154367 932.624822,92.6250747 C880.133374,106.677005 836.017309,134.276129 793.525049,161.148428 C749.203877,189.010014 707.532059,215.155485 657.70706,226.784668 C625.025963,234.537458 586.823953,240.10978 552.108833,224.604202 C536.366528,217.578231 522.897541,207.644975 509.616569,197.731902 C502.266743,192.40186 495.32714,187.071817 488.16533,182.468598 C455.894456,161.875252 427.093387,155.354024 400.343427,163.086625 C368.072554,172.293062 334.160789,196.278254 296.779224,236.960204 C287.805594,246.631003 278.814876,256.806538 270.029265,266.7398 C225.29787,317.112741 179.130695,369.161418 126.639247,377.883305 C80.0789404,385.393815 41.4667026,371.099615 1.64089186,331.386758 L0.615334449,332.840406 C33.9117652,366.254122 66.38775,381.7597 103.359092,381.7597 C110.914033,381.51742 118.879198,381.032871 126.844359,379.579223 Z M127.664804,367.46549 C178.720472,355.856499 223.246756,304.272184 266.559466,254.383792 C276.148427,243.239157 286.369813,231.630162 296.163886,220.727807 C333.955677,179.319028 366.431662,155.596299 398.497424,146.632136 C423.828694,139.606171 451.399095,145.905312 485.105749,166.478471 C492.045356,170.839415 498.796939,175.442633 505.941658,180.288126 C519.632849,189.736838 533.71717,199.427825 549.852607,206.675876 C579.0639,219.758708 612.975665,222.181455 656.886614,214.670935 C711.018954,205.464498 754.109457,177.623105 800.071525,148.085784 C840.102447,122.162395 881.774266,95.5323706 931.804376,81.4804401 C1064.16965,44.9171542 1170.38321,51.9431246 1255.96598,103.042885 L1256.58132,101.346963 C1170.58833,50.2471968 1064.16965,43.2212367 931.394153,79.7845175 C881.158931,93.836448 839.487113,120.466473 799.251079,146.389862 C753.494127,175.927182 710.403619,203.768581 656.681507,212.975018 C612.975665,220.485527 579.269011,218.06278 550.467941,205.222228 C534.537616,198.216452 520.436203,188.28319 506.762104,179.076753 C499.617385,174.23126 492.865802,169.385767 485.721083,165.267097 C451.604207,144.451664 423.828694,138.152523 398.087201,145.420763 C365.816328,154.6272 333.135231,178.107654 295.155424,220.000978 C285.344256,230.903343 275.139961,242.512333 265.533904,253.656968 C222.443401,303.303086 178.105138,354.645126 127.459693,366.254122 C82.3180752,376.429657 42.2871486,363.367014 1.43578038,324.380981 L0.410222966,325.087617 C32.6810963,355.856499 64.5417467,370.857335 98.6586233,370.857335 C108.264676,370.857335 117.853636,369.645967 127.664804,367.46549 Z M128.48525,355.37195 C177.301783,340.83547 220.187175,290.220254 261.858993,241.321148 C272.473511,228.722866 283.515349,215.882314 294.334978,203.768581 C332.126766,161.632977 364.397639,137.910249 396.053182,129.188361 C420.564002,122.40467 446.305491,128.461537 482.456391,149.539432 C489.190887,153.415827 495.720267,157.776771 502.676966,162.117527 C516.966399,171.323964 531.683147,180.772676 548.228807,188.040916 C578.858788,201.588103 614.189242,206.191327 655.655945,201.588103 C713.258089,195.309156 757.57926,165.751647 804.361774,134.760678 C842.546693,109.342026 881.979377,83.1763628 930.385687,69.3869004 C1065.58834,30.8854171 1169.15254,33.7927131 1256.78643,78.8154188 L1257.38467,77.1396896 C1169.56277,32.0967904 1065.58834,28.9472198 930.180576,67.6909726 C881.569154,81.7227148 842.13647,107.888378 803.746436,133.30703 C757.169037,164.297999 713.052977,193.613233 655.655945,199.912374 C614.394354,204.495399 579.269011,200.154649 548.82705,186.587268 C532.486501,179.319028 517.786845,169.870316 503.497412,160.663879 C496.540713,156.323123 490.011333,151.962179 483.276837,148.085784 C446.715714,126.765614 420.564002,120.708747 395.642959,127.734713 C363.782309,136.698875 331.101213,160.663879 293.104309,202.799482 C282.28468,214.913215 271.259934,227.996047 260.628324,240.35205 C219.366729,289.251155 176.481337,339.624097 128.075027,353.918302 C83.9589671,366.98094 43.5178175,355.129675 1.2306689,316.628192 L0.205111483,317.839565 C31.8606504,346.650062 62.5077234,360.701993 94.3683737,360.701993 C105.393115,360.459718 116.845175,358.763795 128.48525,355.37195 Z M129.288605,343.258217 C176.071114,326.056716 217.127594,276.430786 256.953409,228.238316 C268.593485,214.186386 280.643788,199.670099 292.488975,186.344993 C330.896097,143.240291 361.936301,119.981923 393.608936,111.037949 C420.564002,103.527435 447.72418,113.945245 479.995053,131.853382 C486.131306,135.245227 492.045356,138.879347 498.591828,142.755742 C513.701707,151.719904 529.221809,160.906153 546.587915,168.658943 C579.884346,183.437697 616.240357,189.979113 654.425276,187.798641 C715.497223,184.64907 760.228618,153.900376 807.626462,121.193297 C843.982474,96.01692 881.774266,70.1137192 928.744795,56.3040685 C1014.53267,31.1276918 1141.78726,3.26610547 1256.97445,53.6390421 L1257.58978,51.9431246 C1208.56814,30.6431425 1155.25624,21.4367052 1094.38941,24.1017265 C1045.16266,26.2821985 991.047407,36.2154597 928.539684,54.6081407 C881.158931,68.4178017 843.367139,94.3209973 806.806016,119.497374 C759.630375,151.962179 715.104092,182.710873 654.23726,185.860444 C616.240357,188.040916 580.089457,181.4995 546.998138,166.720745 C529.632032,158.988144 514.11193,149.781707 499.207162,140.817544 C492.865802,136.94115 486.746641,133.30703 480.610388,129.915185 C447.929291,111.764773 420.564002,101.104688 393.198713,108.857477 C352.34734,120.224198 317.410018,155.354024 291.275397,184.64907 C279.43021,198.216452 267.379912,212.490468 255.72274,226.542399 C216.102041,274.492589 175.045557,323.896432 128.690362,341.077745 C85.582763,357.310147 44.9365063,346.892337 0.820445932,308.875403 L0,310.329051 C31.057296,337.20135 60.4566085,350.526457 90.2832356,350.526457 C103.153984,350.526457 116.024729,348.10371 129.288605,343.258217 Z M139.920214,326.056716 C180.361364,304.02991 216.922487,258.98701 252.047825,215.397764 C294.950313,162.359801 339.066373,107.646104 391.147598,93.109624 C422.392914,84.3877361 455.07401,102.073787 492.865802,122.889219 C536.776751,146.874411 586.618841,174.23126 653.211703,174.23126 C717.548338,174.23126 762.279733,142.271192 809.865597,108.372928 C845.008031,83.4186374 881.158931,57.5154367 927.309015,43.4635062 C1021.06205,14.8952893 1143.41105,-12.4615594 1257.58978,28.9472198 L1258,27.2512972 C1143.41105,-14.3997567 1020.85694,13.1993667 926.915883,41.7675887 C880.543597,55.8195192 844.187585,81.7227148 809.045151,106.91928 C761.664399,140.57527 717.138115,172.535337 653.211703,172.535337 C586.823953,172.535337 537.186974,145.420763 493.481132,121.435571 C455.484233,100.620139 422.803137,82.6918135 390.942487,91.655976 C338.451039,106.43473 294.129867,161.390703 251.244475,214.428666 C216.102041,258.017912 179.74603,303.060811 139.509992,324.845342 C94.5734852,349.315083 49.2267559,341.804569 0.820445932,301.607163 L0,303.060811 C30.23685,327.994913 59.2430312,340.593196 87.8389937,340.593196 C105.188003,340.350921 122.554109,335.505428 139.920214,326.056716 Z" id="Shape" fill="#FFFFFF" fill-rule="nonzero" mask="url(#mask-12)"></path>
                    </g>
                </g>
            </g>
        </g>
    </g>
</svg>