<svg width="4041" height="1283" viewBox="0 0 4041 1283" fill="none" xmlns="http://www.w3.org/2000/svg">
<mask id="mask0" mask-type="alpha" maskUnits="userSpaceOnUse" x="1532" y="139" width="1264" height="467">
<path d="M1532 139H2796V606H1532V139Z" fill="white"/>
</mask>
<g mask="url(#mask0)">
<path d="M1675.18 606C1668.04 606 1660.9 605.273 1653.53 603.577C1599.21 591.464 1564.68 568.225 1534.26 523.909L1535.47 522.698C1565.71 566.772 1599.82 589.768 1653.73 601.881C1720.74 616.902 1780.78 557.323 1833.89 504.77L1841.65 497.037C1869.63 469.418 1966.46 383.693 2037.53 443.272C2045.5 449.814 2052.64 458.293 2059.6 466.268C2070.42 478.624 2081.44 491.465 2095.54 497.764C2131.49 513.734 2171.11 481.774 2197.47 460.716C2253.22 415.673 2365.76 337.216 2491.6 317.35C2548.38 308.386 2600.87 312.747 2647.64 330.19C2700.33 349.795 2746.5 386.358 2784.7 438.669L2783.47 439.88C2745.47 387.811 2699.72 351.49 2647.23 331.886C2600.46 314.443 2548.17 310.082 2491.78 319.046C2366.17 338.912 2254.04 417.127 2198.29 461.927C2171.73 483.227 2131.69 515.43 2094.93 499.217C2080.62 492.676 2069.39 479.835 2058.37 467.237C2051.43 459.262 2044.27 451.025 2036.51 444.484C1966.26 385.631 1870.25 470.629 1842.47 498.006L1834.71 505.739C1787.33 553.204 1734.22 606 1675.18 606ZM1830.63 491.222C1834.1 487.831 1837.36 484.439 1840.62 481.047C1865.75 455.87 1904.57 423.406 1946.84 411.312C1979.72 401.863 2009.14 407.436 2034.06 427.282C2041.82 433.581 2048.97 441.334 2055.92 448.845C2067.15 460.958 2078.79 473.779 2093.29 480.32C2126.79 495.341 2161.52 474.021 2197.06 448.845C2282.23 388.781 2374.75 330.433 2473.82 309.597C2602.7 282.725 2707.08 318.077 2784.29 415.189L2785.3 413.977C2707.68 316.381 2602.9 280.787 2473.41 307.659C2374.14 328.495 2281.61 387.085 2196.24 447.149C2161.11 472.083 2126.58 493.161 2093.9 478.624C2079.61 472.325 2068.18 459.747 2056.93 447.633C2049.99 440.123 2042.85 432.128 2034.88 425.828C2009.55 405.498 1979.72 399.925 1946.43 409.374C1903.95 421.488 1864.93 454.175 1839.62 479.593C1836.33 482.985 1832.86 486.377 1829.6 489.769C1777.93 541.838 1719.51 600.912 1654.35 589.525C1601.24 580.097 1566.53 558.534 1535.06 514.945L1534.05 516.399C1565.91 560.23 1600.63 582.035 1654.35 591.464C1659.87 592.433 1665.37 592.917 1670.89 592.917C1729.93 592.917 1783.24 539.173 1830.63 491.222ZM1826.33 476.686C1830.63 472.325 1834.92 467.964 1839 463.603C1864.13 438.184 1902.72 405.255 1944.6 393.142C1976.46 383.935 2005.88 389.75 2031.62 409.858C2039.38 415.915 2046.52 423.163 2053.46 430.432C2064.9 442.303 2076.74 454.417 2091.66 460.958C2127.61 476.928 2167.03 452.721 2195.83 435.035C2208.08 427.524 2220.13 419.792 2233 411.797C2304.48 366.754 2385.38 315.896 2472.18 296.777C2601.08 268.673 2706.06 300.148 2784.7 390.477L2785.71 389.265C2706.88 298.715 2601.28 266.977 2471.97 295.081C2384.97 314.2 2303.89 365.3 2232.39 410.343C2219.52 418.338 2207.47 426.071 2195.21 433.581C2166.61 451.267 2127.61 475.232 2092.28 459.505C2077.77 452.963 2065.92 440.849 2054.69 429.22C2047.75 421.972 2040.39 414.704 2032.63 408.647C2006.49 388.296 1976.66 382.481 1944.39 391.688C1902.31 403.802 1863.31 436.731 1838.18 462.412C1833.89 466.753 1829.8 471.114 1825.51 475.475C1775.07 527.059 1718.09 585.427 1655.17 577.432C1603.5 571.133 1567.55 550.055 1534.87 507.677L1533.64 508.888C1566.53 551.751 1602.88 572.829 1654.76 579.37C1658.64 579.855 1662.52 580.097 1666.4 580.097C1725.64 580.097 1778.95 525.363 1826.33 476.686ZM1821.63 462.654C1826.95 457.082 1832.06 451.752 1837.36 446.422C1874.13 408.647 1909.47 384.662 1942.34 375.476C1971.96 366.512 2003.62 372.811 2029.36 392.657C2036.92 398.472 2044.27 405.255 2051.22 412.039C2063.07 423.406 2075.32 435.277 2090.23 441.819C2123.32 456.597 2158.65 440.607 2195.01 421.488C2220.13 408.163 2244.64 393.384 2270.79 377.656C2333.49 339.881 2398.24 300.875 2470.97 283.936C2599.84 254.641 2705.65 281.998 2785.3 365.542L2786.33 364.089C2706.06 280.544 2599.84 252.945 2470.56 282.483C2397.64 299.422 2332.69 338.428 2269.97 376.202C2243.82 391.93 2219.31 406.709 2194.2 420.034C2158.24 438.911 2123.11 454.901 2090.64 440.365C2075.94 433.823 2063.89 422.214 2052.03 410.828C2045.09 404.044 2037.74 397.018 2029.98 391.203C2004.03 371.115 1971.76 364.816 1941.74 373.78C1908.45 383.208 1872.9 407.193 1836.15 445.21C1831.04 450.54 1825.72 455.87 1820.4 461.443C1769.35 514.703 1716.65 569.679 1655.78 565.56C1605.12 561.926 1568.77 542.564 1534.67 500.429L1533.64 501.64C1568.15 544.018 1604.71 563.622 1655.78 567.256C1658.02 567.499 1660.49 567.499 1662.72 567.499C1721.15 567.499 1772.2 514.218 1821.63 462.654ZM1816.93 448.602C1823.07 442.061 1829.19 435.519 1835.33 429.22C1871.89 390.961 1907.01 366.996 1939.69 357.547C1969.31 349.068 1998.53 355.125 2026.71 375.233C2034.27 380.563 2041.62 387.327 2048.56 393.626C2060.61 404.528 2073.27 415.915 2088.4 422.679C2121.88 437.7 2157.23 424.375 2193.59 407.92C2227.28 392.899 2259.36 373.78 2293.25 353.429C2348.21 320.742 2404.99 286.844 2469.53 271.338C2598.41 240.589 2704.83 264.07 2785.91 340.83L2786.94 339.397C2705.24 262.374 2598.41 238.893 2469.12 269.642C2404.58 285.148 2347.59 319.046 2292.43 351.975C2258.54 372.326 2226.47 391.203 2192.97 406.467C2157.03 422.679 2121.88 435.762 2089 421.245C2074.09 414.704 2061.63 403.317 2049.58 392.415C2042.44 386.116 2035.29 379.352 2027.53 374.022C1998.94 353.671 1969.31 347.614 1939.49 356.094C1906.4 365.542 1871.07 389.75 1834.3 428.009C1828.16 434.308 1822.04 440.849 1815.91 447.391C1766.49 499.944 1715.22 554.416 1656.61 553.447C1606.76 552.72 1570.2 534.569 1534.46 492.918L1533.44 494.13C1569.38 536.023 1606.35 554.416 1656.61 555.143C1657.2 555.143 1657.61 555.143 1658.23 555.143C1716.86 555.143 1767.71 500.913 1816.93 448.602ZM1657.41 542.807C1714.6 540.384 1764.44 486.619 1812.44 434.308C1819.4 426.797 1826.54 419.065 1833.48 411.797C1870.04 373.053 1904.98 348.825 1937.25 339.639C1965.84 331.644 1995.04 337.701 2024.05 357.79C2031.41 362.877 2038.35 368.934 2045.7 374.991C2058.16 385.631 2071.03 396.533 2086.35 403.317C2120.46 418.58 2157.23 407.193 2191.95 394.353C2231.98 379.352 2268.74 357.305 2307.56 334.067C2357.2 304.267 2408.46 273.276 2467.48 258.74C2527.54 243.981 2582.89 240.105 2632.53 247.131C2690.13 255.368 2741.8 278.606 2785.91 316.381L2786.74 314.927C2742.62 276.91 2690.95 253.43 2632.94 245.192C2583.3 238.166 2527.54 242.043 2467.48 257.064C2408.25 271.822 2356.79 302.813 2307.15 332.613C2268.33 355.851 2231.77 377.898 2191.74 392.899C2157.23 405.74 2120.88 416.884 2087.17 401.863C2072.06 395.08 2059.19 384.177 2046.93 373.78C2039.77 367.723 2032.63 361.666 2025.07 356.336C1995.65 336.005 1966.05 329.706 1937.04 337.943C1904.57 347.13 1869.43 371.599 1832.45 410.585C1825.51 417.854 1818.37 425.586 1811.43 433.097C1763.42 484.923 1714 538.688 1657.2 541.111C1608.8 543.049 1570.82 525.847 1534.05 485.166L1533.03 486.377C1568.15 525.121 1604.51 542.807 1649.85 542.807C1652.31 543.049 1654.76 543.049 1657.41 542.807ZM1658.02 530.693C1713.18 525.121 1761.18 472.083 1807.74 420.761C1815.72 412.039 1823.69 403.075 1831.65 394.595C1868.81 354.64 1902.52 330.917 1934.99 321.711C1962.38 313.958 1991.36 320.257 2021.81 340.366C2029.16 345.191 2036.1 350.764 2043.46 356.578C2056.32 366.754 2069.6 377.414 2085.12 384.177C2118.82 399.198 2156 391.446 2191.13 380.806C2236.68 366.996 2276.5 342.769 2318.59 316.865C2364.14 289.024 2411.31 260.193 2466.47 245.919C2597.79 212.263 2702.79 227.264 2786.74 291.447L2787.56 289.993C2703.2 225.326 2598 210.567 2466.06 244.223C2410.9 258.497 2363.52 287.328 2317.97 315.412C2275.91 341.073 2236.06 365.542 2190.72 379.11C2155.8 389.507 2119.03 397.26 2085.53 382.481C2070.21 375.718 2056.93 365.058 2044.27 355.125C2036.92 349.31 2029.98 343.738 2022.63 338.912C1991.98 318.561 1962.38 312.02 1934.79 320.015C1902.11 329.221 1868.21 353.186 1830.83 393.384C1822.87 401.863 1814.69 410.828 1806.93 419.549C1760.56 470.629 1712.77 523.667 1658.23 528.997C1610.85 533.843 1572.65 518.095 1534.26 477.897L1533.23 479.351C1567.55 515.187 1601.65 531.904 1642.09 531.904C1647 531.662 1652.52 531.42 1658.02 530.693ZM1658.84 518.579C1711.95 509.857 1758.32 457.566 1803.05 406.951C1811.82 397.018 1820.81 386.842 1829.8 377.172C1866.98 336.732 1900.69 312.747 1932.55 303.783C1958.89 296.292 1987.28 302.571 2019.16 323.165C2026.3 327.768 2033.24 332.856 2040.59 338.186C2053.87 348.099 2067.56 358.032 2083.29 365.058C2118.41 380.806 2156.82 374.991 2189.91 367.238C2239.94 355.609 2281.82 329.221 2326.14 301.36C2368.63 274.73 2412.75 247.131 2465.04 233.079C2596.99 197.969 2702.38 209.114 2787.35 266.492L2788.17 264.797C2702.79 207.418 2596.99 196.515 2464.62 231.625C2412.13 245.677 2368.02 273.276 2325.53 300.148C2281.2 328.01 2239.53 354.155 2189.71 365.785C2157.03 373.537 2118.82 379.11 2084.11 363.604C2068.37 356.578 2054.9 346.645 2041.62 336.732C2034.27 331.402 2027.33 326.072 2020.17 321.469C1987.89 300.875 1959.09 294.354 1932.34 302.087C1900.07 311.293 1866.16 335.278 1828.78 375.96C1819.81 385.631 1810.81 395.807 1802.03 405.74C1757.3 456.113 1711.13 508.161 1658.64 516.883C1612.08 524.394 1573.47 510.1 1533.64 470.387L1532.62 471.84C1565.91 505.254 1598.39 520.76 1635.36 520.76C1642.91 520.517 1650.88 520.033 1658.84 518.579ZM1659.66 506.465C1710.72 494.856 1755.25 443.272 1798.56 393.384C1808.15 382.239 1818.37 370.63 1828.16 359.728C1865.96 318.319 1898.43 294.596 1930.5 285.632C1955.83 278.606 1983.4 284.905 2017.11 305.478C2024.05 309.839 2030.8 314.443 2037.94 319.288C2051.63 328.737 2065.72 338.428 2081.85 345.676C2111.06 358.759 2144.98 361.181 2188.89 353.671C2243.02 344.464 2286.11 316.623 2332.07 287.086C2372.1 261.162 2413.77 234.532 2463.8 220.48C2596.17 183.917 2702.38 190.943 2787.97 242.043L2788.58 240.347C2702.59 189.247 2596.17 182.221 2463.39 218.785C2413.16 232.836 2371.49 259.466 2331.25 285.39C2285.49 314.927 2242.4 342.769 2188.68 351.975C2144.98 359.486 2111.27 357.063 2082.47 344.222C2066.54 337.216 2052.44 327.283 2038.76 318.077C2031.62 313.231 2024.87 308.386 2017.72 304.267C1983.6 283.452 1955.83 277.153 1930.09 284.421C1897.82 293.627 1865.14 317.108 1827.16 359.001C1817.34 369.903 1807.14 381.512 1797.53 392.657C1754.44 442.303 1710.11 493.645 1659.46 505.254C1614.32 515.43 1574.29 502.367 1533.44 463.381L1532.41 464.088C1564.68 494.856 1596.54 509.857 1630.66 509.857C1640.26 509.857 1649.85 508.646 1659.66 506.465ZM1660.49 494.372C1709.3 479.835 1752.19 429.22 1793.86 380.321C1804.47 367.723 1815.52 354.882 1826.33 342.769C1864.13 300.633 1896.4 276.91 1928.05 268.188C1952.56 261.405 1978.31 267.462 2014.46 288.539C2021.19 292.416 2027.72 296.777 2034.68 301.118C2048.97 310.324 2063.68 319.773 2080.23 327.041C2110.86 340.588 2146.19 345.191 2187.66 340.588C2245.26 334.309 2289.58 304.752 2336.36 273.761C2374.55 248.342 2413.98 222.176 2462.39 208.387C2597.59 169.885 2701.15 172.793 2788.79 217.815L2789.38 216.14C2701.56 171.097 2597.59 167.947 2462.18 206.691C2413.57 220.723 2374.14 246.888 2335.75 272.307C2289.17 303.298 2245.05 332.613 2187.66 338.912C2146.39 343.495 2111.27 339.155 2080.83 325.587C2064.49 318.319 2049.79 308.87 2035.5 299.664C2028.54 295.323 2022.01 290.962 2015.28 287.086C1978.72 265.766 1952.56 259.709 1927.64 266.735C1895.78 275.699 1863.1 299.664 1825.1 341.799C1814.28 353.913 1803.26 366.996 1792.63 379.352C1751.37 428.251 1708.48 478.624 1660.08 492.918C1615.96 505.981 1575.52 494.13 1533.23 455.628L1532.21 456.84C1563.86 485.65 1594.51 499.702 1626.37 499.702C1637.39 499.46 1648.85 497.764 1660.49 494.372ZM1661.29 482.258C1708.07 465.057 1749.13 415.431 1788.95 367.238C1800.59 353.186 1812.64 338.67 1824.49 325.345C1862.9 282.24 1893.94 258.982 1925.61 250.038C1952.56 242.527 1979.72 252.945 2012 270.853C2018.13 274.245 2024.05 277.879 2030.59 281.756C2045.7 290.72 2061.22 299.906 2078.59 307.659C2111.88 322.438 2148.24 328.979 2186.43 326.799C2247.5 323.649 2292.23 292.9 2339.63 260.193C2375.98 235.017 2413.77 209.114 2460.74 195.304C2546.53 170.128 2673.79 142.266 2788.97 192.639L2789.59 190.943C2740.57 169.643 2687.26 160.437 2626.39 163.102C2577.16 165.282 2523.05 175.215 2460.54 193.608C2413.16 207.418 2375.37 233.321 2338.81 258.497C2291.63 290.962 2247.1 321.711 2186.24 324.86C2148.24 327.041 2112.09 320.5 2079 305.721C2061.63 297.988 2046.11 288.782 2031.21 279.818C2024.87 275.941 2018.75 272.307 2012.61 268.915C1979.93 250.765 1952.56 240.105 1925.2 247.857C1884.35 259.224 1849.41 294.354 1823.28 323.649C1811.43 337.216 1799.38 351.49 1787.72 365.542C1748.1 413.493 1707.05 462.896 1660.69 480.078C1617.58 496.31 1576.94 485.892 1532.82 447.875L1532 449.329C1563.06 476.201 1592.46 489.526 1622.28 489.526C1635.15 489.526 1648.02 487.104 1661.29 482.258ZM1671.92 465.057C1712.36 443.03 1748.92 397.987 1784.05 354.398C1826.95 301.36 1871.07 246.646 1923.15 232.11C1954.39 223.388 1987.07 241.074 2024.87 261.889C2068.78 285.874 2118.62 313.231 2185.21 313.231C2249.55 313.231 2294.28 281.271 2341.87 247.373C2377.01 222.419 2413.16 196.515 2459.31 182.464C2553.06 153.895 2675.41 126.538 2789.59 167.947L2790 166.251C2675.41 124.6 2552.86 152.199 2458.92 180.768C2412.54 194.82 2376.19 220.723 2341.05 245.919C2293.66 279.575 2249.14 311.535 2185.21 311.535C2118.82 311.535 2069.19 284.421 2025.48 260.436C1987.48 239.62 1954.8 221.692 1922.94 230.656C1870.45 245.435 1826.13 300.391 1783.24 353.429C1748.1 397.018 1711.75 442.061 1671.51 463.845C1626.57 488.315 1581.23 480.805 1532.82 440.607L1532 442.061C1562.24 466.995 1591.24 479.593 1619.84 479.593C1637.19 479.351 1654.55 474.505 1671.92 465.057Z" fill="white"/>
</g>
<mask id="mask1" mask-type="alpha" maskUnits="userSpaceOnUse" x="2777" y="0" width="1264" height="467">
<path d="M4041 467H2777V0H4041V467Z" fill="white"/>
</mask>
<g mask="url(#mask1)">
<path d="M3897.82 0C3904.96 0 3912.1 0.726837 3919.47 2.42276C3973.79 14.5365 4008.32 37.7747 4038.74 82.0907L4037.53 83.3021C4007.29 39.2283 3973.18 16.2324 3919.27 4.11868C3852.26 -10.9023 3792.22 48.677 3739.11 101.23L3731.35 108.963C3703.37 136.582 3606.54 222.307 3535.47 162.728C3527.5 156.186 3520.36 147.707 3513.4 139.732C3502.58 127.376 3491.56 114.535 3477.46 108.236C3441.51 92.2663 3401.89 124.226 3375.53 145.284C3319.78 190.327 3207.24 268.784 3081.4 288.65C3024.62 297.614 2972.13 293.253 2925.36 275.81C2872.67 256.205 2826.5 219.642 2788.3 167.331L2789.53 166.12C2827.53 218.189 2873.28 254.51 2925.77 274.114C2972.54 291.557 3024.83 295.918 3081.22 286.954C3206.83 267.088 3318.96 188.873 3374.71 144.073C3401.27 122.773 3441.31 90.5703 3478.07 106.783C3492.38 113.324 3503.61 126.165 3514.63 138.763C3521.57 146.738 3528.73 154.975 3536.49 161.516C3606.74 220.369 3702.75 135.371 3730.53 107.994L3738.29 100.261C3785.67 52.7957 3838.78 0 3897.82 0ZM3742.37 114.778C3738.9 118.169 3735.64 121.561 3732.38 124.953C3707.25 150.13 3668.43 182.594 3626.16 194.688C3593.28 204.137 3563.86 198.564 3538.94 178.718C3531.18 172.419 3524.03 164.666 3517.08 157.155C3505.85 145.042 3494.21 132.221 3479.71 125.68C3446.21 110.659 3411.48 131.979 3375.94 157.155C3290.77 217.219 3198.25 275.567 3099.18 296.403C2970.3 323.275 2865.92 287.923 2788.71 190.811L2787.7 192.023C2865.32 289.619 2970.1 325.213 3099.59 298.341C3198.86 277.505 3291.39 218.915 3376.76 158.851C3411.89 133.917 3446.42 112.839 3479.1 127.376C3493.39 133.675 3504.82 146.253 3516.07 158.367C3523.01 165.877 3530.15 173.872 3538.12 180.172C3563.45 200.502 3593.28 206.075 3626.57 196.626C3669.05 184.512 3708.07 151.825 3733.38 126.407C3736.67 123.015 3740.14 119.623 3743.4 116.231C3795.07 64.1624 3853.49 5.08776 3918.65 16.4747C3971.76 25.9032 4006.47 47.4657 4037.94 91.0549L4038.95 89.6013C4007.09 45.7697 3972.37 23.965 3918.65 14.5365C3913.13 13.5674 3907.63 13.0828 3902.11 13.0828C3843.07 13.0828 3789.76 66.8274 3742.37 114.778ZM3746.67 129.314C3742.37 133.675 3738.08 138.036 3734 142.397C3708.87 167.816 3670.28 200.745 3628.4 212.858C3596.54 222.065 3567.12 216.25 3541.38 196.142C3533.62 190.085 3526.48 182.837 3519.54 175.568C3508.1 163.697 3496.26 151.583 3481.34 145.042C3445.39 129.072 3405.97 153.279 3377.17 170.965C3364.92 178.476 3352.87 186.208 3340 194.203C3268.52 239.246 3187.62 290.104 3100.82 309.223C2971.92 337.327 2866.94 305.852 2788.3 215.523L2787.29 216.735C2866.12 307.285 2971.72 339.023 3101.03 310.919C3188.03 291.8 3269.11 240.7 3340.61 195.657C3353.48 187.662 3365.53 179.929 3377.79 172.419C3406.39 154.733 3445.39 130.768 3480.72 146.495C3495.23 153.037 3507.08 165.151 3518.31 176.78C3525.25 184.028 3532.61 191.296 3540.37 197.353C3566.51 217.704 3596.34 223.519 3628.61 214.312C3670.69 202.198 3709.69 169.269 3734.82 143.588C3739.11 139.247 3743.2 134.886 3747.49 130.525C3797.93 78.9412 3854.91 20.5731 3917.83 28.5682C3969.5 34.8673 4005.45 55.9452 4038.13 98.3231L4039.36 97.1118C4006.47 54.2493 3970.12 33.1715 3918.24 26.63C3914.36 26.1455 3910.48 25.9032 3906.6 25.9032C3847.36 25.9032 3794.05 80.6371 3746.67 129.314ZM3751.37 143.346C3746.05 148.918 3740.94 154.248 3735.64 159.578C3698.87 197.353 3663.53 221.338 3630.66 230.524C3601.04 239.488 3569.38 233.189 3543.64 213.343C3536.08 207.528 3528.73 200.745 3521.78 193.961C3509.93 182.594 3497.68 170.723 3482.77 164.181C3449.68 149.403 3414.35 165.393 3377.99 184.512C3352.87 197.837 3328.36 212.616 3302.21 228.344C3239.51 266.119 3174.76 305.125 3102.03 322.064C2973.16 351.359 2867.35 324.002 2787.7 240.458L2786.67 241.911C2866.94 325.456 2973.16 353.055 3102.44 323.517C3175.36 306.578 3240.31 267.572 3303.03 229.798C3329.18 214.07 3353.69 199.291 3378.8 185.966C3414.76 167.089 3449.89 151.099 3482.36 165.635C3497.06 172.177 3509.11 183.786 3520.97 195.172C3527.91 201.956 3535.26 208.982 3543.02 214.797C3568.97 234.885 3601.24 241.184 3631.26 232.22C3664.55 222.792 3700.1 198.807 3736.85 160.79C3741.96 155.46 3747.28 150.13 3752.6 144.557C3803.65 91.2972 3856.35 36.321 3917.22 40.4397C3967.88 44.0738 4004.23 63.4356 4038.33 105.571L4039.36 104.36C4004.85 61.9819 3968.29 42.3779 3917.22 38.7437C3914.98 38.5015 3912.51 38.5015 3910.28 38.5015C3851.85 38.5015 3800.8 91.7817 3751.37 143.346ZM3756.07 157.398C3749.93 163.939 3743.81 170.481 3737.67 176.78C3701.11 215.039 3665.99 239.004 3633.31 248.453C3603.69 256.932 3574.47 250.875 3546.29 230.767C3538.73 225.437 3531.38 218.673 3524.44 212.374C3512.39 201.472 3499.73 190.085 3484.6 183.321C3451.12 168.3 3415.77 181.625 3379.41 198.08C3345.72 213.101 3313.64 232.22 3279.75 252.571C3224.79 285.258 3168.01 319.156 3103.47 334.662C2974.59 365.411 2868.17 341.93 2787.09 265.17L2786.06 266.603C2867.76 343.626 2974.59 367.107 3103.88 336.358C3168.42 320.852 3225.41 286.954 3280.57 254.025C3314.46 233.674 3346.53 214.797 3380.03 199.533C3415.97 183.321 3451.12 170.238 3484 184.755C3498.91 191.296 3511.37 202.683 3523.42 213.585C3530.56 219.884 3537.71 226.648 3545.47 231.978C3574.06 252.329 3603.69 258.386 3633.51 249.906C3666.6 240.458 3701.93 216.25 3738.7 177.991C3744.84 171.692 3750.96 165.151 3757.09 158.609C3806.51 106.056 3857.78 51.5843 3916.39 52.5534C3966.24 53.2802 4002.8 71.4306 4038.54 113.082L4039.56 111.87C4003.62 69.977 3966.65 51.5843 3916.39 50.8575C3915.8 50.8575 3915.39 50.8575 3914.77 50.8575C3856.14 50.8575 3805.29 105.087 3756.07 157.398ZM3915.59 63.1933C3858.4 65.616 3808.56 119.381 3760.56 171.692C3753.6 179.203 3746.46 186.935 3739.52 194.203C3702.96 232.947 3668.02 257.175 3635.75 266.361C3607.16 274.356 3577.96 268.299 3548.95 248.21C3541.59 243.123 3534.65 237.066 3527.3 231.009C3514.84 220.369 3501.97 209.467 3486.65 202.683C3452.54 187.42 3415.77 198.807 3381.05 211.647C3341.02 226.648 3304.26 248.695 3265.44 271.933C3215.8 301.733 3164.54 332.724 3105.52 347.26C3045.46 362.019 2990.11 365.895 2940.47 358.869C2882.87 350.632 2831.2 327.394 2787.09 289.619L2786.26 291.073C2830.38 329.09 2882.05 352.57 2940.06 360.808C2989.7 367.834 3045.46 363.957 3105.52 348.936C3164.75 334.178 3216.21 303.187 3265.85 273.387C3304.67 250.149 3341.23 228.102 3381.26 213.101C3415.77 200.26 3452.12 189.116 3485.83 204.137C3500.94 210.92 3513.81 221.823 3526.07 232.22C3533.23 238.277 3540.37 244.334 3547.93 249.664C3577.35 269.995 3606.95 276.294 3635.96 268.057C3668.43 258.87 3703.57 234.401 3740.55 195.415C3747.49 188.146 3754.63 180.414 3761.57 172.903C3809.58 121.077 3859 67.312 3915.8 64.8892C3964.2 62.951 4002.18 80.1525 4038.95 120.834L4039.97 119.623C4004.85 80.8793 3968.49 63.1933 3923.15 63.1933C3920.69 62.951 3918.24 62.951 3915.59 63.1933ZM3914.98 75.307C3859.82 80.8793 3811.82 133.917 3765.26 185.239C3757.28 193.961 3749.31 202.925 3741.35 211.405C3704.19 251.36 3670.48 275.083 3638.01 284.289C3610.62 292.042 3581.64 285.743 3551.19 265.634C3543.84 260.809 3536.9 255.236 3529.54 249.422C3516.68 239.246 3503.4 228.586 3487.88 221.823C3454.18 206.802 3417 214.554 3381.87 225.194C3336.32 239.004 3296.5 263.231 3254.41 289.135C3208.86 316.976 3161.69 345.807 3106.53 360.081C2975.21 393.737 2870.21 378.736 2786.26 314.553L2785.44 316.007C2869.8 380.674 2975 395.433 3106.94 361.777C3162.1 347.503 3209.48 318.672 3255.03 290.588C3297.09 264.927 3336.94 240.458 3382.28 226.89C3417.2 216.493 3453.97 208.74 3487.47 223.519C3502.79 230.282 3516.07 240.942 3528.73 250.875C3536.08 256.69 3543.02 262.262 3550.37 267.088C3581.02 287.439 3610.62 293.98 3638.21 285.985C3670.89 276.779 3704.79 252.814 3742.17 212.616C3750.13 204.137 3758.31 195.172 3766.07 186.451C3812.44 135.371 3860.23 82.333 3914.77 77.003C3962.15 72.1575 4000.35 87.9053 4038.74 128.103L4039.77 126.649C4005.45 90.8126 3971.35 74.0957 3930.91 74.0957C3926 74.338 3920.48 74.5802 3914.98 75.307ZM3914.16 87.4208C3861.05 96.1427 3814.68 148.434 3769.95 199.049C3761.18 208.982 3752.19 219.158 3743.2 228.828C3706.02 269.268 3672.31 293.253 3640.45 302.217C3614.11 309.708 3585.72 303.429 3553.84 282.835C3546.7 278.232 3539.76 273.144 3532.41 267.814C3519.13 257.901 3505.44 247.968 3489.71 240.942C3454.59 225.194 3416.18 231.009 3383.09 238.762C3333.06 250.391 3291.18 276.779 3246.86 304.64C3204.37 331.27 3160.25 358.869 3107.96 372.921C2976.01 408.031 2870.62 396.886 2785.65 339.508L2784.83 341.203C2870.21 398.582 2976.01 409.485 3108.38 374.375C3160.87 360.323 3204.98 332.724 3247.47 305.852C3291.8 277.99 3333.47 251.845 3383.29 240.215C3415.97 232.463 3454.18 226.89 3488.89 242.396C3504.63 249.422 3518.1 259.355 3531.38 269.268C3538.73 274.598 3545.67 279.928 3552.83 284.531C3585.11 305.125 3613.91 311.646 3640.66 303.913C3672.93 294.707 3706.84 270.722 3744.22 230.04C3753.19 220.369 3762.19 210.193 3770.97 200.26C3815.7 149.887 3861.87 97.8386 3914.36 89.1167C3960.92 81.6062 3999.53 95.9004 4039.36 135.613L4040.38 134.16C4007.09 100.746 3974.61 85.2403 3937.64 85.2403C3930.09 85.4826 3922.12 85.9671 3914.16 87.4208ZM3913.34 99.5345C3862.28 111.144 3817.75 162.728 3774.44 212.616C3764.85 223.761 3754.63 235.37 3744.84 246.272C3707.04 287.681 3674.57 311.404 3642.5 320.368C3617.17 327.394 3589.6 321.095 3555.89 300.522C3548.95 296.161 3542.2 291.557 3535.06 286.712C3521.37 277.263 3507.28 267.572 3491.15 260.324C3461.94 247.241 3428.02 244.819 3384.11 252.329C3329.98 261.536 3286.89 289.377 3240.93 318.914C3200.9 344.838 3159.23 371.468 3109.2 385.52C2976.83 422.083 2870.62 415.057 2785.03 363.957L2784.42 365.653C2870.41 416.753 2976.83 423.779 3109.61 387.215C3159.84 373.164 3201.51 346.534 3241.75 320.61C3287.51 291.073 3330.6 263.231 3384.32 254.025C3428.02 246.514 3461.73 248.937 3490.53 261.778C3506.46 268.784 3520.56 278.717 3534.24 287.923C3541.38 292.769 3548.13 297.614 3555.28 301.733C3589.4 322.548 3617.17 328.847 3642.91 321.579C3675.18 312.373 3707.86 288.892 3745.84 246.999C3755.66 236.097 3765.86 224.488 3775.47 213.343C3818.56 163.697 3862.89 112.355 3913.54 100.746C3958.68 90.5703 3998.71 103.633 4039.56 142.619L4040.59 141.912C4008.32 111.144 3976.46 96.1427 3942.34 96.1427C3932.74 96.1427 3923.15 97.354 3913.34 99.5345ZM3912.51 111.628C3863.7 126.165 3820.81 176.78 3779.14 225.679C3768.53 238.277 3757.48 251.118 3746.67 263.231C3708.87 305.367 3676.6 329.09 3644.95 337.812C3620.44 344.595 3594.69 338.538 3558.54 317.461C3551.81 313.584 3545.28 309.223 3538.32 304.882C3524.03 295.676 3509.32 286.227 3492.77 278.959C3462.14 265.412 3426.81 260.809 3385.34 265.412C3327.74 271.691 3283.42 301.248 3236.64 332.239C3198.45 357.658 3159.02 383.824 3110.61 397.613C2975.41 436.115 2871.85 433.207 2784.21 388.185L2783.62 389.86C2871.44 434.903 2975.41 438.053 3110.82 399.309C3159.43 385.277 3198.86 359.112 3237.25 333.693C3283.83 302.702 3327.95 273.387 3385.34 267.088C3426.61 262.505 3461.73 266.845 3492.17 280.413C3508.51 287.681 3523.21 297.13 3537.5 306.336C3544.46 310.677 3550.99 315.038 3557.72 318.914C3594.28 340.234 3620.44 346.291 3645.36 339.265C3677.22 330.301 3709.9 306.336 3747.9 264.201C3758.72 252.087 3769.74 239.004 3780.37 226.648C3821.63 177.749 3864.52 127.376 3912.92 113.082C3957.04 100.019 3997.48 111.87 4039.77 150.372L4040.79 149.16C4009.14 120.35 3978.49 106.298 3946.63 106.298C3935.61 106.54 3924.15 108.236 3912.51 111.628ZM3911.71 123.742C3864.93 140.943 3823.87 190.569 3784.05 238.762C3772.41 252.814 3760.36 267.33 3748.51 280.655C3710.1 323.76 3679.06 347.018 3647.39 355.962C3620.44 363.473 3593.28 353.055 3561 335.147C3554.87 331.755 3548.95 328.121 3542.41 324.244C3527.3 315.28 3511.78 306.094 3494.41 298.341C3461.12 283.562 3424.76 277.021 3386.57 279.201C3325.5 282.351 3280.77 313.1 3233.37 345.807C3197.02 370.983 3159.23 396.886 3112.26 410.696C3026.47 435.872 2899.21 463.734 2784.03 413.361L2783.41 415.057C2832.43 436.357 2885.74 445.563 2946.61 442.898C2995.84 440.718 3049.95 430.785 3112.46 412.392C3159.84 398.582 3197.63 372.679 3234.19 347.503C3281.37 315.038 3325.9 284.289 3386.76 281.14C3424.76 278.959 3460.91 285.5 3494 300.279C3511.37 308.012 3526.89 317.218 3541.79 326.182C3548.13 330.059 3554.25 333.693 3560.39 337.085C3593.07 355.235 3620.44 365.895 3647.8 358.143C3688.65 346.776 3723.59 311.646 3749.72 282.351C3761.57 268.784 3773.62 254.51 3785.28 240.458C3824.9 192.507 3865.95 143.104 3912.31 125.922C3955.42 109.69 3996.06 120.108 4040.18 158.125L4041 156.671C4009.94 129.799 3980.54 116.474 3950.72 116.474C3937.85 116.474 3924.98 118.896 3911.71 123.742ZM3901.08 140.943C3860.64 162.97 3824.08 208.013 3788.95 251.602C3746.05 304.64 3701.93 359.354 3649.85 373.89C3618.61 382.612 3585.93 364.926 3548.13 344.111C3504.22 320.126 3454.38 292.769 3387.79 292.769C3323.45 292.769 3278.72 324.729 3231.13 358.627C3195.99 383.581 3159.84 409.485 3113.69 423.536C3019.94 452.105 2897.59 479.462 2783.41 438.053L2783 439.749C2897.59 481.4 3020.14 453.801 3114.08 425.232C3160.46 411.18 3196.81 385.277 3231.95 360.081C3279.34 326.425 3323.86 294.465 3387.79 294.465C3454.18 294.465 3503.81 321.579 3547.52 345.564C3585.52 366.38 3618.2 384.308 3650.06 375.344C3702.55 360.565 3746.87 305.609 3789.76 252.571C3824.9 208.982 3861.25 163.939 3901.49 142.155C3946.43 117.685 3991.77 125.195 4040.18 165.393L4041 163.939C4010.76 139.005 3981.76 126.407 3953.16 126.407C3935.81 126.649 3918.45 131.495 3901.08 140.943Z" fill="white"/>
</g>
<mask id="mask2" mask-type="alpha" maskUnits="userSpaceOnUse" x="2604" y="587" width="1264" height="467">
<path d="M3868 1054H2604V587H3868V1054Z" fill="white"/>
</mask>
<g mask="url(#mask2)">
<path d="M3724.82 587C3731.96 587 3739.1 587.727 3746.47 589.423C3800.79 601.536 3835.32 624.775 3865.74 669.091L3864.53 670.302C3834.29 626.228 3800.18 603.232 3746.27 591.119C3679.26 576.098 3619.22 635.677 3566.11 688.23L3558.35 695.963C3530.37 723.582 3433.54 809.307 3362.47 749.728C3354.5 743.186 3347.36 734.707 3340.4 726.732C3329.58 714.376 3318.56 701.535 3304.46 695.236C3268.51 679.266 3228.89 711.226 3202.53 732.284C3146.78 777.327 3034.24 855.784 2908.4 875.65C2851.62 884.614 2799.13 880.253 2752.36 862.81C2699.67 843.205 2653.5 806.642 2615.3 754.331L2616.53 753.12C2654.53 805.189 2700.28 841.51 2752.77 861.114C2799.54 878.557 2851.83 882.918 2908.22 873.954C3033.83 854.088 3145.96 775.873 3201.71 731.073C3228.27 709.773 3268.31 677.57 3305.07 693.783C3319.38 700.324 3330.61 713.165 3341.63 725.763C3348.57 733.738 3355.73 741.975 3363.49 748.516C3433.74 807.369 3529.75 722.371 3557.53 694.994L3565.29 687.261C3612.67 639.796 3665.78 587 3724.82 587ZM3569.37 701.778C3565.9 705.169 3562.64 708.561 3559.38 711.953C3534.25 737.13 3495.43 769.594 3453.16 781.688C3420.28 791.137 3390.86 785.564 3365.94 765.718C3358.18 759.419 3351.03 751.666 3344.08 744.155C3332.85 732.042 3321.21 719.221 3306.71 712.68C3273.21 697.659 3238.48 718.979 3202.94 744.155C3117.77 804.219 3025.25 862.567 2926.18 883.403C2797.3 910.275 2692.92 874.923 2615.71 777.811L2614.7 779.023C2692.32 876.619 2797.1 912.213 2926.59 885.341C3025.86 864.505 3118.39 805.915 3203.76 745.851C3238.89 720.917 3273.42 699.839 3306.1 714.376C3320.39 720.675 3331.82 733.253 3343.07 745.367C3350.01 752.877 3357.15 760.872 3365.12 767.172C3390.45 787.502 3420.28 793.075 3453.57 783.626C3496.05 771.512 3535.07 738.825 3560.38 713.407C3563.67 710.015 3567.14 706.623 3570.4 703.231C3622.07 651.162 3680.49 592.088 3745.65 603.475C3798.76 612.903 3833.47 634.466 3864.94 678.055L3865.95 676.601C3834.09 632.77 3799.37 610.965 3745.65 601.536C3740.13 600.567 3734.63 600.083 3729.11 600.083C3670.07 600.083 3616.76 653.827 3569.37 701.778ZM3573.67 716.314C3569.37 720.675 3565.08 725.036 3561 729.397C3535.87 754.816 3497.28 787.745 3455.4 799.858C3423.54 809.065 3394.12 803.25 3368.38 783.142C3360.62 777.085 3353.48 769.837 3346.54 762.568C3335.1 750.697 3323.26 738.583 3308.34 732.042C3272.39 716.072 3232.97 740.279 3204.17 757.965C3191.92 765.476 3179.87 773.208 3167 781.203C3095.52 826.246 3014.62 877.104 2927.82 896.223C2798.92 924.327 2693.94 892.852 2615.3 802.523L2614.29 803.735C2693.12 894.285 2798.72 926.023 2928.03 897.919C3015.03 878.8 3096.11 827.7 3167.61 782.657C3180.48 774.662 3192.53 766.929 3204.79 759.419C3233.39 741.733 3272.39 717.768 3307.72 733.495C3322.23 740.037 3334.08 752.151 3345.31 763.78C3352.25 771.028 3359.61 778.296 3367.37 784.353C3393.51 804.704 3423.34 810.519 3455.61 801.312C3497.69 789.198 3536.69 756.269 3561.82 730.588C3566.11 726.247 3570.2 721.886 3574.49 717.525C3624.93 665.941 3681.91 607.573 3744.83 615.568C3796.5 621.867 3832.45 642.945 3865.13 685.323L3866.36 684.112C3833.47 641.249 3797.12 620.171 3745.24 613.63C3741.36 613.145 3737.48 612.903 3733.6 612.903C3674.36 612.903 3621.05 667.637 3573.67 716.314ZM3578.37 730.346C3573.05 735.918 3567.94 741.248 3562.64 746.578C3525.87 784.353 3490.53 808.338 3457.66 817.524C3428.04 826.488 3396.38 820.189 3370.64 800.343C3363.08 794.528 3355.73 787.745 3348.78 780.961C3336.93 769.594 3324.68 757.723 3309.77 751.181C3276.68 736.403 3241.35 752.393 3204.99 771.512C3179.87 784.837 3155.36 799.616 3129.21 815.344C3066.51 853.119 3001.76 892.125 2929.03 909.064C2800.16 938.359 2694.35 911.002 2614.7 827.458L2613.67 828.911C2693.94 912.456 2800.16 940.055 2929.44 910.517C3002.36 893.578 3067.31 854.572 3130.03 816.798C3156.18 801.07 3180.69 786.291 3205.8 772.966C3241.76 754.089 3276.89 738.099 3309.36 752.635C3324.06 759.177 3336.11 770.786 3347.97 782.172C3354.91 788.956 3362.26 795.982 3370.02 801.797C3395.97 821.885 3428.24 828.184 3458.26 819.22C3491.55 809.792 3527.1 785.807 3563.85 747.79C3568.96 742.46 3574.28 737.13 3579.6 731.557C3630.65 678.297 3683.35 623.321 3744.22 627.44C3794.88 631.074 3831.23 650.436 3865.33 692.571L3866.36 691.36C3831.85 648.982 3795.29 629.378 3744.22 625.744C3741.98 625.501 3739.51 625.501 3737.28 625.501C3678.85 625.501 3627.8 678.782 3578.37 730.346ZM3583.07 744.398C3576.93 750.939 3570.81 757.481 3564.67 763.78C3528.11 802.039 3492.99 826.004 3460.31 835.453C3430.69 843.932 3401.47 837.875 3373.29 817.767C3365.73 812.437 3358.38 805.673 3351.44 799.374C3339.39 788.472 3326.73 777.085 3311.6 770.321C3278.12 755.3 3242.77 768.625 3206.41 785.08C3172.72 800.101 3140.64 819.22 3106.75 839.571C3051.79 872.258 2995.01 906.156 2930.47 921.662C2801.59 952.411 2695.17 928.93 2614.09 852.17L2613.06 853.603C2694.76 930.626 2801.59 954.107 2930.88 923.358C2995.42 907.852 3052.41 873.954 3107.57 841.025C3141.46 820.674 3173.53 801.797 3207.03 786.533C3242.97 770.321 3278.12 757.238 3311 771.755C3325.91 778.296 3338.37 789.683 3350.42 800.585C3357.56 806.884 3364.71 813.648 3372.47 818.978C3401.06 839.329 3430.69 845.386 3460.51 836.906C3493.6 827.458 3528.93 803.25 3565.7 764.991C3571.84 758.692 3577.96 752.151 3584.09 745.609C3633.51 693.056 3684.78 638.584 3743.39 639.553C3793.24 640.28 3829.8 658.431 3865.54 700.082L3866.56 698.87C3830.62 656.977 3793.65 638.584 3743.39 637.857C3742.8 637.857 3742.39 637.857 3741.77 637.857C3683.14 637.857 3632.29 692.087 3583.07 744.398ZM3742.59 650.193C3685.4 652.616 3635.56 706.381 3587.56 758.692C3580.6 766.203 3573.46 773.935 3566.52 781.203C3529.96 819.947 3495.02 844.175 3462.75 853.361C3434.16 861.356 3404.96 855.299 3375.95 835.21C3368.59 830.123 3361.65 824.066 3354.3 818.009C3341.84 807.369 3328.97 796.467 3313.65 789.683C3279.54 774.42 3242.77 785.807 3208.05 798.647C3168.02 813.648 3131.26 835.695 3092.44 858.933C3042.8 888.733 2991.54 919.724 2932.52 934.26C2872.46 949.019 2817.11 952.895 2767.47 945.869C2709.87 937.632 2658.2 914.394 2614.09 876.619L2613.26 878.073C2657.38 916.09 2709.05 939.57 2767.06 947.808C2816.7 954.834 2872.46 950.957 2932.52 935.936C2991.75 921.178 3043.21 890.187 3092.85 860.387C3131.67 837.149 3168.23 815.102 3208.26 800.101C3242.77 787.26 3279.12 776.116 3312.83 791.137C3327.94 797.92 3340.81 808.823 3353.07 819.22C3360.23 825.277 3367.37 831.334 3374.93 836.664C3404.35 856.995 3433.95 863.294 3462.96 855.057C3495.43 845.87 3530.57 821.401 3567.55 782.415C3574.49 775.146 3581.63 767.414 3588.57 759.903C3636.58 708.077 3686 654.312 3742.8 651.889C3791.2 649.951 3829.18 667.153 3865.95 707.834L3866.97 706.623C3831.85 667.879 3795.49 650.193 3750.15 650.193C3747.69 649.951 3745.24 649.951 3742.59 650.193ZM3741.98 662.307C3686.82 667.879 3638.82 720.917 3592.26 772.239C3584.28 780.961 3576.31 789.925 3568.35 798.405C3531.19 838.36 3497.48 862.083 3465.01 871.289C3437.62 879.042 3408.64 872.743 3378.19 852.634C3370.84 847.809 3363.9 842.236 3356.54 836.422C3343.68 826.246 3330.4 815.586 3314.88 808.823C3281.18 793.802 3244 801.554 3208.87 812.194C3163.32 826.004 3123.5 850.231 3081.41 876.135C3035.86 903.976 2988.69 932.807 2933.53 947.081C2802.21 980.737 2697.21 965.736 2613.26 901.553L2612.44 903.007C2696.8 967.674 2802 982.433 2933.94 948.777C2989.1 934.503 3036.48 905.672 3082.03 877.588C3124.09 851.927 3163.94 827.458 3209.28 813.89C3244.2 803.493 3280.97 795.74 3314.47 810.519C3329.79 817.282 3343.07 827.942 3355.73 837.875C3363.08 843.69 3370.02 849.262 3377.37 854.088C3408.02 874.439 3437.62 880.98 3465.21 872.985C3497.89 863.779 3531.79 839.814 3569.17 799.616C3577.13 791.137 3585.31 782.172 3593.07 773.451C3639.44 722.371 3687.23 669.333 3741.77 664.003C3789.15 659.157 3827.35 674.905 3865.74 715.103L3866.77 713.649C3832.45 677.813 3798.35 661.096 3757.91 661.096C3753 661.338 3747.48 661.58 3741.98 662.307ZM3741.16 674.421C3688.05 683.143 3641.68 735.434 3596.95 786.049C3588.18 795.982 3579.19 806.158 3570.2 815.828C3533.02 856.268 3499.31 880.253 3467.45 889.217C3441.11 896.708 3412.72 890.429 3380.84 869.835C3373.7 865.232 3366.76 860.144 3359.41 854.814C3346.13 844.901 3332.44 834.968 3316.71 827.942C3281.59 812.194 3243.18 818.009 3210.09 825.762C3160.06 837.391 3118.18 863.779 3073.86 891.64C3031.37 918.27 2987.25 945.869 2934.96 959.921C2803.01 995.031 2697.62 983.886 2612.65 926.508L2611.83 928.203C2697.21 985.582 2803.01 996.485 2935.38 961.375C2987.87 947.323 3031.98 919.724 3074.47 892.852C3118.8 864.99 3160.47 838.845 3210.29 827.215C3242.97 819.463 3281.18 813.89 3315.89 829.396C3331.63 836.422 3345.1 846.355 3358.38 856.268C3365.73 861.598 3372.67 866.928 3379.83 871.531C3412.11 892.125 3440.91 898.646 3467.66 890.913C3499.93 881.707 3533.84 857.722 3571.22 817.04C3580.19 807.369 3589.19 797.193 3597.97 787.26C3642.7 736.887 3688.87 684.839 3741.36 676.117C3787.92 668.606 3826.53 682.9 3866.36 722.613L3867.38 721.16C3834.09 687.746 3801.61 672.24 3764.64 672.24C3757.09 672.483 3749.12 672.967 3741.16 674.421ZM3740.34 686.535C3689.28 698.144 3644.75 749.728 3601.44 799.616C3591.85 810.761 3581.63 822.37 3571.84 833.272C3534.04 874.681 3501.57 898.404 3469.5 907.368C3444.17 914.394 3416.6 908.095 3382.89 887.522C3375.95 883.161 3369.2 878.557 3362.06 873.712C3348.37 864.263 3334.28 854.572 3318.15 847.324C3288.94 834.241 3255.02 831.819 3211.11 839.329C3156.98 848.536 3113.89 876.377 3067.93 905.914C3027.9 931.838 2986.23 958.468 2936.2 972.52C2803.83 1009.08 2697.62 1002.06 2612.03 950.957L2611.42 952.653C2697.41 1003.75 2803.83 1010.78 2936.61 974.215C2986.84 960.164 3028.51 933.534 3068.75 907.61C3114.51 878.073 3157.6 850.231 3211.32 841.025C3255.02 833.514 3288.73 835.937 3317.53 848.778C3333.46 855.784 3347.56 865.717 3361.24 874.923C3368.38 879.769 3375.13 884.614 3382.28 888.733C3416.4 909.548 3444.17 915.847 3469.91 908.579C3502.18 899.373 3534.86 875.892 3572.84 833.999C3582.66 823.097 3592.86 811.488 3602.47 800.343C3645.56 750.697 3689.89 699.355 3740.54 687.746C3785.68 677.57 3825.71 690.633 3866.56 729.619L3867.59 728.912C3835.32 698.144 3803.46 683.143 3769.34 683.143C3759.74 683.143 3750.15 684.354 3740.34 686.535ZM3739.51 698.628C3690.7 713.165 3647.81 763.78 3606.14 812.679C3595.53 825.277 3584.48 838.118 3573.67 850.231C3535.87 892.367 3503.6 916.09 3471.95 924.812C3447.44 931.595 3421.69 925.538 3385.54 904.461C3378.81 900.584 3372.28 896.223 3365.32 891.882C3351.03 882.676 3336.32 873.227 3319.77 865.959C3289.14 852.412 3253.81 847.809 3212.34 852.412C3154.74 858.691 3110.42 888.248 3063.64 919.239C3025.45 944.658 2986.02 970.824 2937.61 984.613C2802.41 1023.11 2698.85 1020.21 2611.21 975.185L2610.62 976.86C2698.44 1021.9 2802.41 1025.05 2937.82 986.309C2986.43 972.277 3025.86 946.112 3064.25 920.693C3110.83 889.702 3154.95 860.387 3212.34 854.088C3253.61 849.505 3288.73 853.845 3319.17 867.413C3335.51 874.681 3350.21 884.13 3364.5 893.336C3371.46 897.677 3377.99 902.038 3384.72 905.914C3421.28 927.234 3447.44 933.291 3472.36 926.265C3504.22 917.301 3536.9 893.336 3574.9 851.201C3585.72 839.087 3596.74 826.004 3607.37 813.648C3648.63 764.749 3691.52 714.376 3739.92 700.082C3784.04 687.019 3824.48 698.87 3866.77 737.372L3867.79 736.16C3836.14 707.35 3805.49 693.298 3773.63 693.298C3762.61 693.54 3751.15 695.236 3739.51 698.628ZM3738.71 710.742C3691.93 727.943 3650.87 777.569 3611.05 825.762C3599.41 839.814 3587.36 854.33 3575.51 867.655C3537.1 910.76 3506.06 934.018 3474.39 942.962C3447.44 950.473 3420.28 940.055 3388 922.147C3381.87 918.755 3375.95 915.121 3369.41 911.244C3354.3 902.28 3338.78 893.094 3321.41 885.341C3288.12 870.562 3251.76 864.021 3213.57 866.201C3152.5 869.351 3107.77 900.1 3060.37 932.807C3024.02 957.983 2986.23 983.886 2939.26 997.696C2853.47 1022.87 2726.21 1050.73 2611.03 1000.36L2610.41 1002.06C2659.43 1023.36 2712.74 1032.56 2773.61 1029.9C2822.84 1027.72 2876.95 1017.78 2939.46 999.392C2986.84 985.582 3024.63 959.679 3061.19 934.503C3108.37 902.038 3152.9 871.289 3213.76 868.14C3251.76 865.959 3287.91 872.5 3321 887.279C3338.37 895.012 3353.89 904.218 3368.79 913.182C3375.13 917.059 3381.25 920.693 3387.39 924.085C3420.07 942.235 3447.44 952.895 3474.8 945.143C3515.65 933.776 3550.59 898.646 3576.72 869.351C3588.57 855.784 3600.62 841.51 3612.28 827.458C3651.9 779.507 3692.95 730.104 3739.31 712.922C3782.42 696.69 3823.06 707.108 3867.18 745.125L3868 743.671C3836.94 716.799 3807.54 703.474 3777.72 703.474C3764.85 703.474 3751.98 705.896 3738.71 710.742ZM3728.08 727.943C3687.64 749.97 3651.08 795.013 3615.95 838.602C3573.05 891.64 3528.93 946.354 3476.85 960.89C3445.61 969.612 3412.93 951.926 3375.13 931.111C3331.22 907.126 3281.38 879.769 3214.79 879.769C3150.45 879.769 3105.72 911.729 3058.13 945.627C3022.99 970.581 2986.84 996.485 2940.69 1010.54C2846.94 1039.1 2724.59 1066.46 2610.41 1025.05L2610 1026.75C2724.59 1068.4 2847.14 1040.8 2941.08 1012.23C2987.46 998.18 3023.81 972.277 3058.95 947.081C3106.34 913.425 3150.86 881.465 3214.79 881.465C3281.18 881.465 3330.81 908.579 3374.52 932.564C3412.52 953.38 3445.2 971.308 3477.06 962.344C3529.55 947.565 3573.87 892.609 3616.76 839.571C3651.9 795.982 3688.25 750.939 3728.49 729.155C3773.43 704.685 3818.77 712.195 3867.18 752.393L3868 750.939C3837.76 726.005 3808.76 713.407 3780.16 713.407C3762.81 713.649 3745.45 718.495 3728.08 727.943Z" fill="white"/>
</g>
<mask id="mask3" mask-type="alpha" maskUnits="userSpaceOnUse" x="1371" y="748" width="1264" height="467">
<path d="M1371 748H2635V1215H1371V748Z" fill="white"/>
</mask>
<g mask="url(#mask3)">
<path d="M1514.18 1215C1507.04 1215 1499.9 1214.27 1492.53 1212.58C1438.21 1200.46 1403.68 1177.23 1373.26 1132.91L1374.47 1131.7C1404.71 1175.77 1438.82 1198.77 1492.73 1210.88C1559.74 1225.9 1619.78 1166.32 1672.89 1113.77L1680.65 1106.04C1708.63 1078.42 1805.46 992.693 1876.53 1052.27C1884.5 1058.81 1891.64 1067.29 1898.6 1075.27C1909.42 1087.62 1920.44 1100.46 1934.54 1106.76C1970.49 1122.73 2010.11 1090.77 2036.47 1069.72C2092.22 1024.67 2204.76 946.216 2330.6 926.35C2387.38 917.386 2439.87 921.747 2486.64 939.19C2539.33 958.795 2585.5 995.358 2623.7 1047.67L2622.47 1048.88C2584.47 996.811 2538.72 960.49 2486.23 940.886C2439.46 923.443 2387.17 919.082 2330.78 928.046C2205.17 947.912 2093.04 1026.13 2037.29 1070.93C2010.73 1092.23 1970.69 1124.43 1933.93 1108.22C1919.62 1101.68 1908.39 1088.84 1897.37 1076.24C1890.43 1068.26 1883.27 1060.02 1875.51 1053.48C1805.26 994.631 1709.25 1079.63 1681.47 1107.01L1673.71 1114.74C1626.33 1162.2 1573.22 1215 1514.18 1215ZM1669.63 1100.22C1673.1 1096.83 1676.36 1093.44 1679.62 1090.05C1704.75 1064.87 1743.57 1032.41 1785.84 1020.31C1818.72 1010.86 1848.14 1016.44 1873.06 1036.28C1880.82 1042.58 1887.97 1050.33 1894.92 1057.84C1906.15 1069.96 1917.79 1082.78 1932.29 1089.32C1965.79 1104.34 2000.52 1083.02 2036.06 1057.84C2121.23 997.781 2213.75 939.433 2312.82 918.597C2441.7 891.725 2546.08 927.077 2623.29 1024.19L2624.3 1022.98C2546.68 925.381 2441.9 889.787 2312.41 916.659C2213.14 937.495 2120.61 996.085 2035.24 1056.15C2000.11 1081.08 1965.58 1102.16 1932.9 1087.62C1918.61 1081.32 1907.18 1068.75 1895.93 1056.63C1888.99 1049.12 1881.85 1041.13 1873.88 1034.83C1848.55 1014.5 1818.72 1008.93 1785.43 1018.37C1742.95 1030.49 1703.93 1063.17 1678.62 1088.59C1675.33 1091.99 1671.86 1095.38 1668.6 1098.77C1616.93 1150.84 1558.51 1209.91 1493.35 1198.53C1440.24 1189.1 1405.53 1167.53 1374.06 1123.95L1373.05 1125.4C1404.91 1169.23 1439.63 1191.04 1493.35 1200.46C1498.87 1201.43 1504.37 1201.92 1509.89 1201.92C1568.93 1201.92 1622.24 1148.17 1669.63 1100.22ZM1665.33 1085.69C1669.63 1081.32 1673.92 1076.96 1678 1072.6C1703.13 1047.18 1741.72 1014.26 1783.6 1002.14C1815.46 992.935 1844.88 998.75 1870.62 1018.86C1878.38 1024.92 1885.52 1032.16 1892.46 1039.43C1903.9 1051.3 1915.74 1063.42 1930.66 1069.96C1966.61 1085.93 2006.03 1061.72 2034.83 1044.03C2047.08 1036.52 2059.13 1028.79 2072 1020.8C2143.48 975.754 2224.38 924.896 2311.18 905.777C2440.08 877.673 2545.06 909.148 2623.7 999.477L2624.71 998.265C2545.88 907.715 2440.28 875.977 2310.97 904.081C2223.97 923.2 2142.89 974.3 2071.39 1019.34C2058.52 1027.34 2046.47 1035.07 2034.21 1042.58C2005.61 1060.27 1966.61 1084.23 1931.28 1068.5C1916.77 1061.96 1904.92 1049.85 1893.69 1038.22C1886.75 1030.97 1879.39 1023.7 1871.63 1017.65C1845.49 997.296 1815.66 991.481 1783.39 1000.69C1741.31 1012.8 1702.31 1045.73 1677.18 1071.41C1672.89 1075.75 1668.8 1080.11 1664.51 1084.47C1614.07 1136.06 1557.09 1194.43 1494.17 1186.43C1442.5 1180.13 1406.55 1159.05 1373.87 1116.68L1372.64 1117.89C1405.53 1160.75 1441.88 1181.83 1493.76 1188.37C1497.64 1188.85 1501.52 1189.1 1505.4 1189.1C1564.64 1189.1 1617.95 1134.36 1665.33 1085.69ZM1660.63 1071.65C1665.95 1066.08 1671.06 1060.75 1676.36 1055.42C1713.13 1017.65 1748.47 993.662 1781.34 984.476C1810.96 975.512 1842.62 981.811 1868.36 1001.66C1875.92 1007.47 1883.27 1014.26 1890.22 1021.04C1902.07 1032.41 1914.32 1044.28 1929.23 1050.82C1962.32 1065.6 1997.65 1049.61 2034.01 1030.49C2059.13 1017.16 2083.64 1002.38 2109.79 986.656C2172.49 948.881 2237.24 909.875 2309.97 892.936C2438.84 863.641 2544.65 890.998 2624.3 974.542L2625.33 973.089C2545.06 889.544 2438.84 861.945 2309.56 891.483C2236.64 908.422 2171.69 947.428 2108.97 985.202C2082.82 1000.93 2058.31 1015.71 2033.2 1029.03C1997.24 1047.91 1962.11 1063.9 1929.64 1049.36C1914.94 1042.82 1902.89 1031.21 1891.03 1019.83C1884.09 1013.04 1876.74 1006.02 1868.98 1000.2C1843.03 980.115 1810.76 973.816 1780.74 982.78C1747.45 992.208 1711.9 1016.19 1675.15 1054.21C1670.04 1059.54 1664.72 1064.87 1659.4 1070.44C1608.35 1123.7 1555.65 1178.68 1494.78 1174.56C1444.12 1170.93 1407.77 1151.56 1373.67 1109.43L1372.64 1110.64C1407.15 1153.02 1443.71 1172.62 1494.78 1176.26C1497.02 1176.5 1499.49 1176.5 1501.72 1176.5C1560.15 1176.5 1611.2 1123.22 1660.63 1071.65ZM1655.93 1057.6C1662.07 1051.06 1668.19 1044.52 1674.33 1038.22C1710.89 999.961 1746.01 975.996 1778.69 966.547C1808.31 958.068 1837.53 964.125 1865.71 984.233C1873.27 989.563 1880.62 996.327 1887.56 1002.63C1899.61 1013.53 1912.27 1024.92 1927.4 1031.68C1960.88 1046.7 1996.23 1033.37 2032.59 1016.92C2066.28 1001.9 2098.36 982.78 2132.25 962.429C2187.21 929.742 2243.99 895.844 2308.53 880.338C2437.41 849.589 2543.83 873.07 2624.91 949.83L2625.94 948.397C2544.24 871.374 2437.41 847.893 2308.12 878.642C2243.58 894.148 2186.59 928.046 2131.43 960.975C2097.54 981.326 2065.47 1000.2 2031.97 1015.47C1996.03 1031.68 1960.88 1044.76 1928 1030.25C1913.09 1023.7 1900.63 1012.32 1888.58 1001.41C1881.44 995.116 1874.29 988.352 1866.53 983.022C1837.94 962.671 1808.31 956.614 1778.49 965.094C1745.4 974.542 1710.07 998.75 1673.3 1037.01C1667.16 1043.31 1661.04 1049.85 1654.91 1056.39C1605.49 1108.94 1554.22 1163.42 1495.61 1162.45C1445.76 1161.72 1409.2 1143.57 1373.46 1101.92L1372.44 1103.13C1408.38 1145.02 1445.35 1163.42 1495.61 1164.14C1496.2 1164.14 1496.61 1164.14 1497.23 1164.14C1555.86 1164.14 1606.71 1109.91 1655.93 1057.6ZM1496.41 1151.81C1553.6 1149.38 1603.44 1095.62 1651.44 1043.31C1658.4 1035.8 1665.54 1028.06 1672.48 1020.8C1709.04 982.053 1743.98 957.825 1776.25 948.639C1804.84 940.644 1834.04 946.701 1863.05 966.79C1870.41 971.877 1877.35 977.934 1884.7 983.991C1897.16 994.631 1910.03 1005.53 1925.35 1012.32C1959.46 1027.58 1996.23 1016.19 2030.95 1003.35C2070.98 988.352 2107.74 966.305 2146.56 943.067C2196.2 913.267 2247.46 882.276 2306.48 867.74C2366.54 852.981 2421.89 849.105 2471.53 856.131C2529.13 864.368 2580.8 887.606 2624.91 925.381L2625.74 923.927C2581.62 885.91 2529.95 862.43 2471.94 854.192C2422.3 847.166 2366.54 851.043 2306.48 866.064C2247.25 880.822 2195.79 911.813 2146.15 941.613C2107.33 964.851 2070.77 986.898 2030.74 1001.9C1996.23 1014.74 1959.88 1025.88 1926.17 1010.86C1911.06 1004.08 1898.19 993.177 1885.93 982.78C1878.77 976.723 1871.63 970.666 1864.07 965.336C1834.65 945.005 1805.05 938.706 1776.04 946.943C1743.57 956.13 1708.43 980.599 1671.45 1019.59C1664.51 1026.85 1657.37 1034.59 1650.43 1042.1C1602.42 1093.92 1553 1147.69 1496.2 1150.11C1447.8 1152.05 1409.82 1134.85 1373.05 1094.17L1372.03 1095.38C1407.15 1134.12 1443.51 1151.81 1488.85 1151.81C1491.31 1152.05 1493.76 1152.05 1496.41 1151.81ZM1497.02 1139.69C1552.18 1134.12 1600.18 1081.08 1646.74 1029.76C1654.72 1021.04 1662.69 1012.07 1670.65 1003.6C1707.81 963.64 1741.52 939.917 1773.99 930.711C1801.38 922.958 1830.36 929.257 1860.81 949.366C1868.16 954.191 1875.1 959.764 1882.46 965.578C1895.32 975.754 1908.6 986.414 1924.12 993.177C1957.82 1008.2 1995 1000.45 2030.13 989.806C2075.68 975.996 2115.5 951.769 2157.59 925.865C2203.14 898.024 2250.31 869.193 2305.47 854.919C2436.79 821.263 2541.79 836.264 2625.74 900.447L2626.56 898.993C2542.2 834.326 2437 819.567 2305.06 853.223C2249.9 867.497 2202.52 896.328 2156.97 924.412C2114.91 950.073 2075.06 974.542 2029.72 988.11C1994.8 998.507 1958.03 1006.26 1924.53 991.481C1909.21 984.718 1895.93 974.058 1883.27 964.125C1875.92 958.31 1868.98 952.738 1861.63 947.912C1830.98 927.561 1801.38 921.02 1773.79 929.015C1741.11 938.221 1707.21 962.186 1669.83 1002.38C1661.87 1010.86 1653.69 1019.83 1645.93 1028.55C1599.56 1079.63 1551.77 1132.67 1497.23 1138C1449.85 1142.84 1411.65 1127.09 1373.26 1086.9L1372.23 1088.35C1406.55 1124.19 1440.65 1140.9 1481.09 1140.9C1486 1140.66 1491.52 1140.42 1497.02 1139.69ZM1497.84 1127.58C1550.95 1118.86 1597.32 1066.57 1642.05 1015.95C1650.82 1006.02 1659.81 995.842 1668.8 986.172C1705.98 945.732 1739.69 921.747 1771.55 912.783C1797.89 905.292 1826.28 911.571 1858.16 932.165C1865.3 936.768 1872.24 941.856 1879.59 947.186C1892.87 957.099 1906.56 967.032 1922.29 974.058C1957.41 989.806 1995.82 983.991 2028.91 976.238C2078.94 964.609 2120.82 938.221 2165.14 910.36C2207.63 883.73 2251.75 856.131 2304.04 842.079C2435.99 806.969 2541.38 818.114 2626.35 875.492L2627.17 873.797C2541.79 816.418 2435.99 805.515 2303.62 840.625C2251.13 854.677 2207.02 882.276 2164.53 909.148C2120.2 937.01 2078.53 963.155 2028.71 974.785C1996.03 982.537 1957.82 988.11 1923.11 972.604C1907.37 965.578 1893.9 955.645 1880.62 945.732C1873.27 940.402 1866.33 935.072 1859.17 930.469C1826.89 909.875 1798.09 903.354 1771.34 911.087C1739.07 920.293 1705.16 944.278 1667.78 984.96C1658.81 994.631 1649.81 1004.81 1641.03 1014.74C1596.3 1065.11 1550.13 1117.16 1497.64 1125.88C1451.08 1133.39 1412.47 1119.1 1372.64 1079.39L1371.62 1080.84C1404.91 1114.25 1437.39 1129.76 1474.36 1129.76C1481.91 1129.52 1489.88 1129.03 1497.84 1127.58ZM1498.66 1115.47C1549.72 1103.86 1594.25 1052.27 1637.56 1002.38C1647.15 991.239 1657.37 979.63 1667.16 968.728C1704.96 927.319 1737.43 903.596 1769.5 894.632C1794.83 887.606 1822.4 893.905 1856.11 914.478C1863.05 918.839 1869.8 923.443 1876.94 928.288C1890.63 937.737 1904.72 947.428 1920.85 954.676C1950.06 967.759 1983.98 970.181 2027.89 962.671C2082.02 953.464 2125.11 925.623 2171.07 896.086C2211.1 870.162 2252.77 843.532 2302.8 829.48C2435.17 792.917 2541.38 799.943 2626.97 851.043L2627.58 849.347C2541.59 798.247 2435.17 791.221 2302.39 827.785C2252.16 841.836 2210.49 868.466 2170.25 894.39C2124.49 923.927 2081.4 951.769 2027.68 960.975C1983.98 968.486 1950.27 966.063 1921.47 953.222C1905.54 946.216 1891.44 936.283 1877.76 927.077C1870.62 922.231 1863.87 917.386 1856.72 913.267C1822.6 892.452 1794.83 886.153 1769.09 893.421C1736.82 902.627 1704.14 926.108 1666.16 968.001C1656.34 978.903 1646.14 990.512 1636.53 1001.66C1593.44 1051.3 1549.11 1102.65 1498.46 1114.25C1453.32 1124.43 1413.29 1111.37 1372.44 1072.38L1371.41 1073.09C1403.68 1103.86 1435.54 1118.86 1469.66 1118.86C1479.26 1118.86 1488.85 1117.65 1498.66 1115.47ZM1499.49 1103.37C1548.3 1088.84 1591.19 1038.22 1632.86 989.321C1643.47 976.723 1654.52 963.882 1665.33 951.769C1703.13 909.633 1735.4 885.91 1767.05 877.188C1791.56 870.405 1817.31 876.462 1853.46 897.539C1860.19 901.416 1866.72 905.777 1873.68 910.118C1887.97 919.324 1902.68 928.773 1919.23 936.041C1949.86 949.588 1985.19 954.191 2026.66 949.588C2084.26 943.309 2128.58 913.752 2175.36 882.761C2213.55 857.342 2252.98 831.176 2301.39 817.387C2436.59 778.885 2540.15 781.793 2627.79 826.815L2628.38 825.14C2540.56 780.097 2436.59 776.947 2301.18 815.691C2252.57 829.723 2213.14 855.888 2174.75 881.307C2128.17 912.298 2084.05 941.613 2026.66 947.912C1985.39 952.495 1950.27 948.155 1919.83 934.587C1903.49 927.319 1888.79 917.87 1874.5 908.664C1867.54 904.323 1861.01 899.962 1854.28 896.086C1817.72 874.766 1791.56 868.709 1766.64 875.735C1734.78 884.699 1702.1 908.664 1664.1 950.799C1653.28 962.913 1642.26 975.996 1631.63 988.352C1590.37 1037.25 1547.48 1087.62 1499.08 1101.92C1454.96 1114.98 1414.52 1103.13 1372.23 1064.63L1371.21 1065.84C1402.86 1094.65 1433.51 1108.7 1465.37 1108.7C1476.39 1108.46 1487.85 1106.76 1499.49 1103.37ZM1500.29 1091.26C1547.07 1074.06 1588.13 1024.43 1627.95 976.238C1639.59 962.186 1651.64 947.67 1663.49 934.345C1701.9 891.24 1732.94 867.982 1764.61 859.038C1791.56 851.527 1818.72 861.945 1851 879.853C1857.13 883.245 1863.05 886.879 1869.59 890.756C1884.7 899.72 1900.22 908.906 1917.59 916.659C1950.88 931.438 1987.24 937.979 2025.43 935.799C2086.5 932.649 2131.23 901.9 2178.63 869.193C2214.98 844.017 2252.77 818.114 2299.74 804.304C2385.53 779.128 2512.79 751.266 2627.97 801.639L2628.59 799.943C2579.57 778.643 2526.26 769.437 2465.39 772.102C2416.16 774.282 2362.05 784.215 2299.54 802.608C2252.16 816.418 2214.37 842.321 2177.81 867.497C2130.63 899.962 2086.1 930.711 2025.24 933.86C1987.24 936.041 1951.09 929.5 1918 914.721C1900.63 906.988 1885.11 897.782 1870.21 888.818C1863.87 884.941 1857.75 881.307 1851.61 877.915C1818.93 859.765 1791.56 849.105 1764.2 856.857C1723.35 868.224 1688.41 903.354 1662.28 932.649C1650.43 946.216 1638.38 960.49 1626.72 974.542C1587.1 1022.49 1546.05 1071.9 1499.69 1089.08C1456.58 1105.31 1415.94 1094.89 1371.82 1056.88L1371 1058.33C1402.06 1085.2 1431.46 1098.53 1461.28 1098.53C1474.15 1098.53 1487.02 1096.1 1500.29 1091.26ZM1510.92 1074.06C1551.36 1052.03 1587.92 1006.99 1623.05 963.398C1665.95 910.36 1710.07 855.646 1762.15 841.11C1793.39 832.388 1826.07 850.074 1863.87 870.889C1907.78 894.874 1957.62 922.231 2024.21 922.231C2088.55 922.231 2133.28 890.271 2180.87 856.373C2216.01 831.419 2252.16 805.515 2298.31 791.464C2392.06 762.895 2514.41 735.538 2628.59 776.947L2629 775.251C2514.41 733.6 2391.86 761.199 2297.92 789.768C2251.54 803.82 2215.19 829.723 2180.05 854.919C2132.66 888.575 2088.14 920.535 2024.21 920.535C1957.82 920.535 1908.19 893.421 1864.48 869.436C1826.48 848.62 1793.8 830.692 1761.94 839.656C1709.45 854.435 1665.13 909.391 1622.24 962.429C1587.1 1006.02 1550.75 1051.06 1510.51 1072.85C1465.57 1097.32 1420.23 1089.8 1371.82 1049.61L1371 1051.06C1401.24 1075.99 1430.24 1088.59 1458.84 1088.59C1476.19 1088.35 1493.55 1083.51 1510.92 1074.06Z" fill="white"/>
</g>
<mask id="mask4" mask-type="alpha" maskUnits="userSpaceOnUse" x="273" y="360" width="1264" height="467">
<path d="M1537 827H273V360H1537V827Z" fill="white"/>
</mask>
<g mask="url(#mask4)">
<path d="M1393.82 360C1400.96 360 1408.1 360.727 1415.47 362.423C1469.79 374.536 1504.32 397.775 1534.74 442.091L1533.53 443.302C1503.29 399.228 1469.18 376.232 1415.27 364.119C1348.26 349.098 1288.22 408.677 1235.11 461.23L1227.35 468.963C1199.37 496.582 1102.54 582.307 1031.47 522.728C1023.5 516.186 1016.36 507.707 1009.4 499.732C998.582 487.376 987.558 474.535 973.456 468.236C937.51 452.266 897.89 484.226 871.533 505.284C815.777 550.327 703.239 628.784 577.403 648.65C520.621 657.614 468.13 653.253 421.365 635.81C368.668 616.205 322.501 579.642 284.299 527.331L285.529 526.12C323.526 578.189 369.283 614.51 421.775 634.114C468.54 651.557 520.826 655.918 577.215 646.954C702.829 627.088 814.956 548.873 870.712 504.073C897.274 482.773 937.305 450.57 974.072 466.783C988.378 473.324 999.608 486.165 1010.63 498.763C1017.57 506.738 1024.73 514.975 1032.49 521.516C1102.74 580.369 1198.75 495.371 1226.53 467.994L1234.29 460.261C1281.67 412.796 1334.78 360 1393.82 360ZM1238.37 474.778C1234.9 478.169 1231.64 481.561 1228.38 484.953C1203.25 510.13 1164.43 542.594 1122.16 554.688C1089.28 564.137 1059.86 558.564 1034.94 538.718C1027.18 532.419 1020.03 524.666 1013.08 517.155C1001.85 505.042 990.207 492.221 975.712 485.68C942.211 470.659 907.479 491.979 871.943 517.155C786.771 577.219 694.248 635.567 595.179 656.403C466.301 683.275 361.916 647.923 284.709 550.811L283.7 552.023C361.318 649.619 466.096 685.213 595.59 658.341C694.864 637.505 787.386 578.915 872.764 518.851C907.889 493.917 942.416 472.839 975.097 487.376C989.387 493.675 1000.82 506.253 1012.07 518.367C1019.01 525.877 1026.15 533.872 1034.12 540.172C1059.45 560.502 1089.28 566.075 1122.57 556.626C1165.05 544.512 1204.07 511.825 1229.38 486.407C1232.67 483.015 1236.14 479.623 1239.4 476.231C1291.07 424.162 1349.49 365.088 1414.65 376.475C1467.76 385.903 1502.47 407.466 1533.94 451.055L1534.95 449.601C1503.09 405.77 1468.37 383.965 1414.65 374.536C1409.13 373.567 1403.63 373.083 1398.11 373.083C1339.07 373.083 1285.76 426.827 1238.37 474.778ZM1242.67 489.314C1238.37 493.675 1234.08 498.036 1230 502.397C1204.87 527.816 1166.28 560.745 1124.4 572.858C1092.54 582.065 1063.12 576.25 1037.38 556.142C1029.62 550.085 1022.48 542.837 1015.54 535.568C1004.1 523.697 992.258 511.583 977.336 505.042C941.39 489.072 901.975 513.279 873.174 530.965C860.918 538.476 848.868 546.208 835.997 554.203C764.516 599.246 683.617 650.104 596.82 669.223C467.925 697.327 362.942 665.852 284.299 575.523L283.29 576.735C362.121 667.285 467.72 699.023 597.025 670.919C684.027 651.8 765.114 600.7 836.613 555.657C849.483 547.662 861.534 539.929 873.789 532.419C902.385 514.733 941.39 490.768 976.721 506.495C991.233 513.037 1003.08 525.151 1014.31 536.78C1021.25 544.028 1028.61 551.296 1036.37 557.353C1062.51 577.704 1092.34 583.519 1124.61 574.312C1166.69 562.198 1205.69 529.269 1230.82 503.588C1235.11 499.247 1239.2 494.886 1243.49 490.525C1293.93 438.941 1350.91 380.573 1413.83 388.568C1465.5 394.867 1501.45 415.945 1534.13 458.323L1535.36 457.112C1502.47 414.249 1466.12 393.171 1414.24 386.63C1410.36 386.145 1406.48 385.903 1402.6 385.903C1343.36 385.903 1290.05 440.637 1242.67 489.314ZM1247.37 503.346C1242.05 508.918 1236.94 514.248 1231.64 519.578C1194.87 557.353 1159.53 581.338 1126.66 590.524C1097.04 599.488 1065.38 593.189 1039.64 573.343C1032.08 567.528 1024.73 560.745 1017.78 553.961C1005.93 542.594 993.677 530.723 978.772 524.181C945.681 509.403 910.35 525.393 873.994 544.512C848.868 557.837 824.357 572.616 798.206 588.344C735.51 626.119 670.763 665.125 598.034 682.064C469.155 711.359 363.352 684.002 283.7 600.458L282.675 601.911C362.942 685.456 469.155 713.055 598.444 683.517C671.361 666.578 736.313 627.572 799.026 589.798C825.178 574.07 849.689 559.291 874.798 545.966C910.76 527.089 945.886 511.099 978.362 525.635C993.061 532.177 1005.11 543.786 1016.97 555.172C1023.91 561.956 1031.26 568.982 1039.02 574.797C1064.97 594.885 1097.24 601.184 1127.26 592.22C1160.55 582.792 1196.1 558.807 1232.85 520.79C1237.96 515.46 1243.28 510.13 1248.6 504.557C1299.65 451.297 1352.35 396.321 1413.22 400.44C1463.88 404.074 1500.23 423.436 1534.33 465.571L1535.36 464.36C1500.85 421.982 1464.29 402.378 1413.22 398.744C1410.98 398.501 1408.51 398.501 1406.28 398.501C1347.85 398.501 1296.8 451.782 1247.37 503.346ZM1252.07 517.398C1245.93 523.939 1239.81 530.481 1233.67 536.78C1197.11 575.039 1161.99 599.004 1129.31 608.453C1099.69 616.932 1070.47 610.875 1042.29 590.767C1034.73 585.437 1027.38 578.673 1020.44 572.374C1008.39 561.472 995.728 550.085 980.601 543.321C947.116 528.3 911.769 541.625 875.413 558.08C841.723 573.101 809.641 592.22 775.746 612.571C720.793 645.258 664.011 679.156 599.47 694.662C470.591 725.411 364.172 701.93 283.085 625.17L282.06 626.603C363.762 703.626 470.591 727.107 599.88 696.358C664.422 680.852 721.408 646.954 776.566 614.025C810.461 593.674 842.527 574.797 876.028 559.533C911.974 543.321 947.116 530.238 980.003 544.755C994.907 551.296 1007.37 562.683 1019.42 573.585C1026.56 579.884 1033.71 586.648 1041.47 591.978C1070.06 612.329 1099.69 618.386 1129.51 609.906C1162.6 600.458 1197.93 576.25 1234.7 537.991C1240.84 531.692 1246.96 525.151 1253.09 518.609C1302.51 466.056 1353.78 411.584 1412.39 412.553C1462.24 413.28 1498.8 431.431 1534.54 473.082L1535.56 471.87C1499.62 429.977 1462.65 411.584 1412.39 410.857C1411.8 410.857 1411.39 410.857 1410.77 410.857C1352.14 410.857 1301.29 465.087 1252.07 517.398ZM1411.59 423.193C1354.4 425.616 1304.56 479.381 1256.56 531.692C1249.6 539.203 1242.46 546.935 1235.52 554.203C1198.96 592.947 1164.02 617.175 1131.75 626.361C1103.16 634.356 1073.96 628.299 1044.95 608.21C1037.59 603.123 1030.65 597.066 1023.3 591.009C1010.84 580.369 997.967 569.467 982.652 562.683C948.535 547.42 911.769 558.807 877.054 571.647C837.023 586.648 800.257 608.695 761.439 631.933C711.802 661.733 660.542 692.724 601.521 707.26C541.457 722.019 486.111 725.895 436.474 718.869C378.872 710.632 327.201 687.394 283.085 649.619L282.265 651.073C326.381 689.09 378.052 712.57 436.064 720.808C485.701 727.834 541.457 723.957 601.521 708.936C660.747 694.178 712.213 663.187 761.85 633.387C800.667 610.149 837.228 588.102 877.259 573.101C911.769 560.26 948.125 549.116 981.832 564.137C996.941 570.92 1009.81 581.823 1022.07 592.22C1029.23 598.277 1036.37 604.334 1043.93 609.664C1073.35 629.995 1102.95 636.294 1131.96 628.057C1164.43 618.87 1199.57 594.401 1236.55 555.415C1243.49 548.146 1250.63 540.414 1257.57 532.903C1305.58 481.077 1355 427.312 1411.8 424.889C1460.2 422.951 1498.18 440.153 1534.95 480.834L1535.97 479.623C1500.85 440.879 1464.49 423.193 1419.15 423.193C1416.69 422.951 1414.24 422.951 1411.59 423.193ZM1410.98 435.307C1355.82 440.879 1307.82 493.917 1261.26 545.239C1253.28 553.961 1245.31 562.925 1237.35 571.405C1200.19 611.36 1166.48 635.083 1134.01 644.289C1106.62 652.042 1077.64 645.743 1047.19 625.634C1039.84 620.809 1032.9 615.236 1025.54 609.422C1012.68 599.246 999.403 588.586 983.883 581.823C950.176 566.802 913 574.554 877.874 585.194C832.322 599.004 792.497 623.231 750.415 649.135C704.863 676.976 657.687 705.807 602.529 720.081C471.207 753.737 366.207 738.736 282.265 674.553L281.444 676.007C365.796 740.674 471.001 755.433 602.939 721.777C658.097 707.503 705.478 678.672 751.03 650.588C793.095 624.927 832.938 600.458 878.284 586.89C913.205 576.493 949.971 568.74 983.472 583.519C998.787 590.282 1012.07 600.942 1024.73 610.875C1032.08 616.69 1039.02 622.262 1046.37 627.088C1077.02 647.439 1106.62 653.98 1134.21 645.985C1166.89 636.779 1200.79 612.814 1238.17 572.616C1246.13 564.137 1254.31 555.172 1262.07 546.451C1308.44 495.371 1356.23 442.333 1410.77 437.003C1458.15 432.157 1496.35 447.905 1534.74 488.103L1535.77 486.649C1501.45 450.813 1467.35 434.096 1426.91 434.096C1422 434.338 1416.48 434.58 1410.98 435.307ZM1410.16 447.421C1357.05 456.143 1310.68 508.434 1265.95 559.049C1257.18 568.982 1248.19 579.158 1239.2 588.828C1202.02 629.268 1168.31 653.253 1136.45 662.217C1110.11 669.708 1081.72 663.429 1049.84 642.835C1042.7 638.232 1035.76 633.144 1028.41 627.814C1015.13 617.901 1001.44 607.968 985.712 600.942C950.586 585.194 912.179 591.009 879.088 598.762C829.058 610.391 787.181 636.779 742.86 664.64C700.367 691.27 656.251 718.869 603.965 732.921C472.01 768.031 366.617 756.886 281.649 699.508L280.829 701.203C366.207 758.582 472.01 769.485 604.375 734.375C656.867 720.323 700.983 692.724 743.475 665.852C787.796 637.99 829.468 611.845 879.293 600.215C911.974 592.463 950.176 586.89 984.891 602.396C1000.63 609.422 1014.1 619.355 1027.38 629.268C1034.73 634.598 1041.67 639.928 1048.83 644.531C1081.11 665.125 1109.91 671.646 1136.66 663.913C1168.93 654.707 1202.84 630.722 1240.22 590.04C1249.19 580.369 1258.19 570.193 1266.97 560.26C1311.7 509.887 1357.87 457.839 1410.36 449.117C1456.92 441.606 1495.53 455.9 1535.36 495.613L1536.38 494.16C1503.09 460.746 1470.61 445.24 1433.64 445.24C1426.09 445.483 1418.12 445.967 1410.16 447.421ZM1409.34 459.535C1358.28 471.144 1313.75 522.728 1270.44 572.616C1260.85 583.761 1250.63 595.37 1240.84 606.272C1203.04 647.681 1170.57 671.404 1138.5 680.368C1113.17 687.394 1085.6 681.095 1051.89 660.522C1044.95 656.161 1038.2 651.557 1031.06 646.712C1017.37 637.263 1003.28 627.572 987.147 620.324C957.936 607.241 924.024 604.819 880.113 612.329C825.981 621.536 782.891 649.377 736.928 678.914C696.898 704.838 655.226 731.468 605.196 745.52C472.83 782.083 366.617 775.057 281.034 723.957L280.419 725.653C366.412 776.753 472.83 783.779 605.606 747.215C655.841 733.164 697.513 706.534 737.749 680.61C783.506 651.073 826.596 623.231 880.318 614.025C924.024 606.514 957.731 608.937 986.532 621.778C1002.46 628.784 1016.56 638.717 1030.24 647.923C1037.38 652.769 1044.13 657.614 1051.28 661.733C1085.4 682.548 1113.17 688.847 1138.91 681.579C1171.18 672.373 1203.86 648.892 1241.84 606.999C1251.66 596.097 1261.86 584.488 1271.47 573.343C1314.56 523.697 1358.89 472.355 1409.54 460.746C1454.68 450.57 1494.71 463.633 1535.56 502.619L1536.59 501.912C1504.32 471.144 1472.46 456.143 1438.34 456.143C1428.74 456.143 1419.15 457.354 1409.34 459.535ZM1408.51 471.628C1359.7 486.165 1316.81 536.78 1275.14 585.679C1264.53 598.277 1253.48 611.118 1242.67 623.231C1204.87 665.367 1172.6 689.09 1140.95 697.812C1116.44 704.595 1090.69 698.538 1054.54 677.461C1047.81 673.584 1041.28 669.223 1034.32 664.882C1020.03 655.676 1005.32 646.227 988.771 638.959C958.141 625.412 922.811 620.809 881.344 625.412C823.742 631.691 779.421 661.248 732.638 692.239C694.453 717.658 655.021 743.824 606.614 757.613C471.412 796.115 367.848 793.207 280.214 748.185L279.615 749.86C367.437 794.903 471.412 798.053 606.819 759.309C655.431 745.277 694.864 719.112 733.254 693.693C779.831 662.702 823.947 633.387 881.344 627.088C922.606 622.505 957.731 626.845 988.173 640.413C1004.51 647.681 1019.21 657.13 1033.5 666.336C1040.46 670.677 1046.99 675.038 1053.72 678.914C1090.28 700.234 1116.44 706.291 1141.36 699.265C1173.22 690.301 1205.9 666.336 1243.9 624.201C1254.72 612.087 1265.74 599.004 1276.37 586.648C1317.63 537.749 1360.52 487.376 1408.92 473.082C1453.04 460.019 1493.48 471.87 1535.77 510.372L1536.79 509.16C1505.14 480.35 1474.49 466.298 1442.63 466.298C1431.61 466.54 1420.15 468.236 1408.51 471.628ZM1407.71 483.742C1360.93 500.943 1319.87 550.569 1280.05 598.762C1268.41 612.814 1256.36 627.33 1244.51 640.655C1206.1 683.76 1175.06 707.018 1143.39 715.962C1116.44 723.473 1089.28 713.055 1057 695.147C1050.87 691.755 1044.95 688.121 1038.41 684.244C1023.3 675.28 1007.78 666.094 990.412 658.341C957.116 643.562 920.76 637.021 882.575 639.201C821.503 642.351 776.771 673.1 729.374 705.807C693.018 730.983 655.226 756.886 608.255 770.696C522.467 795.872 395.213 823.734 280.026 773.361L279.41 775.057C328.432 796.357 381.744 805.563 442.611 802.898C491.837 800.718 545.953 790.785 608.46 772.392C655.841 758.582 693.633 732.679 730.194 707.503C777.37 675.038 821.896 644.289 882.763 641.14C920.76 638.959 956.911 645.5 990.002 660.279C1007.37 668.012 1022.89 677.218 1037.79 686.182C1044.13 690.059 1050.25 693.693 1056.39 697.085C1089.07 715.235 1116.44 725.895 1143.8 718.143C1184.65 706.776 1219.59 671.646 1245.72 642.351C1257.57 628.784 1269.62 614.51 1281.28 600.458C1320.9 552.507 1361.95 503.104 1408.31 485.922C1451.42 469.69 1492.06 480.108 1536.18 518.125L1537 516.671C1505.94 489.799 1476.54 476.474 1446.72 476.474C1433.85 476.474 1420.98 478.896 1407.71 483.742ZM1397.08 500.943C1356.64 522.97 1320.08 568.013 1284.95 611.602C1242.05 664.64 1197.93 719.354 1145.85 733.89C1114.61 742.612 1081.93 724.926 1044.13 704.111C1000.22 680.126 950.381 652.769 883.788 652.769C819.452 652.769 774.72 684.729 727.134 718.627C691.992 743.581 655.841 769.485 609.691 783.536C515.938 812.105 393.589 839.462 279.41 798.053L279 799.749C393.589 841.4 516.143 813.801 610.084 785.232C656.456 771.18 692.812 745.277 727.955 720.081C775.336 686.425 819.862 654.465 883.788 654.465C950.176 654.465 999.813 681.579 1043.52 705.564C1081.52 726.38 1114.2 744.308 1146.06 735.344C1198.55 720.565 1242.87 665.609 1285.76 612.571C1320.9 568.982 1357.25 523.939 1397.49 502.155C1442.43 477.685 1487.77 485.195 1536.18 525.393L1537 523.939C1506.76 499.005 1477.76 486.407 1449.16 486.407C1431.81 486.649 1414.45 491.495 1397.08 500.943Z" fill="white"/>
</g>
<mask id="mask5" mask-type="alpha" maskUnits="userSpaceOnUse" x="0" y="816" width="1264" height="467">
<path d="M1264 1283H0V816H1264V1283Z" fill="white"/>
</mask>
<g mask="url(#mask5)">
<path d="M1120.82 816C1127.96 816 1135.1 816.727 1142.47 818.423C1196.79 830.536 1231.32 853.775 1261.74 898.091L1260.53 899.302C1230.29 855.228 1196.18 832.232 1142.27 820.119C1075.26 805.098 1015.22 864.677 962.11 917.23L954.35 924.963C926.369 952.582 829.54 1038.31 758.469 978.728C750.503 972.186 743.359 963.707 736.402 955.732C725.582 943.376 714.558 930.535 700.456 924.236C664.51 908.266 624.89 940.226 598.533 961.284C542.777 1006.33 430.239 1084.78 304.403 1104.65C247.621 1113.61 195.13 1109.25 148.365 1091.81C95.6679 1072.21 49.5007 1035.64 11.2987 983.331L12.5294 982.12C50.5263 1034.19 96.2832 1070.51 148.775 1090.11C195.54 1107.56 247.826 1111.92 304.215 1102.95C429.829 1083.09 541.956 1004.87 597.712 960.073C624.274 938.773 664.305 906.57 701.072 922.783C715.378 929.324 726.608 942.165 737.633 954.763C744.572 962.738 751.734 970.975 759.494 977.516C829.745 1036.37 925.754 951.371 953.53 923.994L961.29 916.261C1008.67 868.796 1061.78 816 1120.82 816ZM965.375 930.778C961.905 934.169 958.64 937.561 955.376 940.953C930.249 966.13 891.432 998.594 849.162 1010.69C816.276 1020.14 786.859 1014.56 761.938 994.718C754.178 988.419 747.034 980.666 740.077 973.155C728.847 961.042 717.207 948.221 702.712 941.68C669.211 926.659 634.479 947.979 598.943 973.155C513.771 1033.22 421.248 1091.57 322.179 1112.4C193.301 1139.28 88.9164 1103.92 11.709 1006.81L10.7004 1008.02C88.318 1105.62 193.096 1141.21 322.59 1114.34C421.864 1093.51 514.386 1034.92 599.764 974.851C634.889 949.917 669.416 928.839 702.097 943.376C716.387 949.675 727.821 962.253 739.068 974.367C746.008 981.877 753.153 989.872 761.118 996.172C786.449 1016.5 816.276 1022.07 849.572 1012.63C892.047 1000.51 931.07 967.825 956.384 942.407C959.666 939.015 963.136 935.623 966.4 932.231C1018.07 880.162 1076.49 821.088 1141.65 832.475C1194.76 841.903 1229.47 863.466 1260.94 907.055L1261.95 905.601C1230.09 861.77 1195.37 839.965 1141.65 830.536C1136.13 829.567 1130.63 829.083 1125.11 829.083C1066.07 829.083 1012.76 882.827 965.375 930.778ZM969.665 945.314C965.375 949.675 961.085 954.036 956.999 958.397C931.873 983.816 893.278 1016.74 851.401 1028.86C819.541 1038.06 790.124 1032.25 764.383 1012.14C756.623 1006.08 749.478 998.837 742.538 991.568C731.103 979.697 719.258 967.583 704.336 961.042C668.39 945.072 628.975 969.279 600.174 986.965C587.918 994.476 575.868 1002.21 562.997 1010.2C491.516 1055.25 410.617 1106.1 323.82 1125.22C194.925 1153.33 89.9419 1121.85 11.2987 1031.52L10.2903 1032.73C89.1215 1123.29 194.72 1155.02 324.025 1126.92C411.027 1107.8 492.114 1056.7 563.613 1011.66C576.483 1003.66 588.534 995.929 600.789 988.419C629.385 970.733 668.39 946.768 703.721 962.495C718.233 969.037 730.078 981.151 741.308 992.78C748.247 1000.03 755.614 1007.3 763.374 1013.35C789.509 1033.7 819.335 1039.52 851.606 1030.31C893.688 1018.2 932.694 985.269 957.82 959.588C962.11 955.247 966.195 950.886 970.485 946.525C1020.93 894.941 1077.91 836.573 1140.83 844.568C1192.5 850.867 1228.45 871.945 1261.13 914.323L1262.36 913.112C1229.47 870.249 1193.12 849.171 1141.24 842.63C1137.36 842.145 1133.48 841.903 1129.6 841.903C1070.36 841.903 1017.05 896.637 969.665 945.314ZM974.366 959.346C969.05 964.918 963.939 970.248 958.64 975.578C921.874 1013.35 886.526 1037.34 853.657 1046.52C824.036 1055.49 792.38 1049.19 766.639 1029.34C759.084 1023.53 751.734 1016.74 744.777 1009.96C732.932 998.594 720.677 986.723 705.772 980.181C672.681 965.403 637.35 981.393 600.994 1000.51C575.868 1013.84 551.357 1028.62 525.206 1044.34C462.51 1082.12 397.763 1121.12 325.034 1138.06C196.155 1167.36 90.3521 1140 10.7004 1056.46L9.67493 1057.91C89.9419 1141.46 196.155 1169.05 325.444 1139.52C398.361 1122.58 463.313 1083.57 526.026 1045.8C552.178 1030.07 576.689 1015.29 601.798 1001.97C637.76 983.089 672.886 967.099 705.362 981.635C720.061 988.177 732.112 999.786 743.974 1011.17C750.914 1017.96 758.263 1024.98 766.023 1030.8C791.97 1050.89 824.241 1057.18 854.256 1048.22C887.552 1038.79 923.105 1014.81 959.854 976.79C964.965 971.46 970.28 966.13 975.596 960.557C1026.65 907.297 1079.35 852.321 1140.22 856.44C1190.88 860.074 1227.23 879.436 1261.33 921.571L1262.36 920.36C1227.85 877.982 1191.29 858.378 1140.22 854.744C1137.98 854.501 1135.51 854.501 1133.28 854.501C1074.85 854.501 1023.8 907.782 974.366 959.346ZM979.066 973.398C972.93 979.939 966.811 986.481 960.674 992.78C924.113 1031.04 888.988 1055 856.307 1064.45C826.685 1072.93 797.474 1066.88 769.288 1046.77C761.733 1041.44 754.383 1034.67 747.444 1028.37C735.394 1017.47 722.728 1006.08 707.601 999.321C674.116 984.3 638.769 997.625 602.413 1014.08C568.723 1029.1 536.641 1048.22 502.746 1068.57C447.793 1101.26 391.011 1135.16 326.47 1150.66C197.591 1181.41 91.1725 1157.93 10.0851 1081.17L9.05957 1082.6C90.7623 1159.63 197.591 1183.11 326.88 1152.36C391.422 1136.85 448.408 1102.95 503.566 1070.02C537.461 1049.67 569.527 1030.8 603.028 1015.53C638.974 999.321 674.116 986.238 707.003 1000.75C721.907 1007.3 734.368 1018.68 746.418 1029.59C753.563 1035.88 760.708 1042.65 768.468 1047.98C797.064 1068.33 826.685 1074.39 856.512 1065.91C889.603 1056.46 924.934 1032.25 961.7 993.991C967.836 987.692 973.955 981.151 980.092 974.609C1029.51 922.056 1080.78 867.584 1139.39 868.553C1189.24 869.28 1225.8 887.431 1261.54 929.082L1262.56 927.87C1226.62 885.977 1189.65 867.584 1139.39 866.857C1138.8 866.857 1138.39 866.857 1137.77 866.857C1079.14 866.857 1028.29 921.087 979.066 973.398ZM1138.59 879.193C1081.4 881.616 1031.56 935.381 983.561 987.692C976.605 995.203 969.46 1002.94 962.52 1010.2C925.959 1048.95 891.022 1073.17 858.751 1082.36C830.155 1090.36 800.961 1084.3 771.955 1064.21C764.588 1059.12 757.648 1053.07 750.298 1047.01C737.838 1036.37 724.967 1025.47 709.652 1018.68C675.535 1003.42 638.769 1014.81 604.054 1027.65C564.023 1042.65 527.257 1064.69 488.439 1087.93C438.802 1117.73 387.542 1148.72 328.521 1163.26C268.457 1178.02 213.111 1181.9 163.474 1174.87C105.872 1166.63 54.2011 1143.39 10.0851 1105.62L9.26465 1107.07C53.3807 1145.09 105.052 1168.57 163.064 1176.81C212.701 1183.83 268.457 1179.96 328.521 1164.94C387.747 1150.18 439.213 1119.19 488.85 1089.39C527.667 1066.15 564.228 1044.1 604.259 1029.1C638.769 1016.26 675.125 1005.12 708.832 1020.14C723.941 1026.92 736.812 1037.82 749.068 1048.22C756.229 1054.28 763.374 1060.33 770.929 1065.66C800.345 1085.99 829.95 1092.29 858.956 1084.06C891.432 1074.87 926.575 1050.4 963.546 1011.41C970.485 1004.15 977.63 996.414 984.57 988.903C1032.58 937.077 1082 883.312 1138.8 880.889C1187.2 878.951 1225.18 896.153 1261.95 936.834L1262.97 935.623C1227.85 896.879 1191.49 879.193 1146.15 879.193C1143.69 878.951 1141.24 878.951 1138.59 879.193ZM1137.98 891.307C1082.82 896.879 1034.82 949.917 988.262 1001.24C980.28 1009.96 972.314 1018.93 964.349 1027.4C927.19 1067.36 893.483 1091.08 861.007 1100.29C833.625 1108.04 804.636 1101.74 774.194 1081.63C766.844 1076.81 759.904 1071.24 752.537 1065.42C739.684 1055.25 726.403 1044.59 710.883 1037.82C677.176 1022.8 640 1030.55 604.874 1041.19C559.322 1055 519.497 1079.23 477.415 1105.13C431.863 1132.98 384.687 1161.81 329.529 1176.08C198.207 1209.74 93.2065 1194.74 9.26465 1130.55L8.44421 1132.01C92.7963 1196.67 198.001 1211.43 329.939 1177.78C385.097 1163.5 432.478 1134.67 478.03 1106.59C520.095 1080.93 559.938 1056.46 605.284 1042.89C640.205 1032.49 676.971 1024.74 710.472 1039.52C725.787 1046.28 739.068 1056.94 751.734 1066.88C759.084 1072.69 766.023 1078.26 773.373 1083.09C804.02 1103.44 833.625 1109.98 861.212 1101.99C893.893 1092.78 927.788 1068.81 965.17 1028.62C973.135 1020.14 981.305 1011.17 989.065 1002.45C1035.44 951.371 1083.23 898.333 1137.77 893.003C1185.15 888.157 1223.35 903.905 1261.74 944.103L1262.77 942.649C1228.45 906.813 1194.35 890.096 1153.91 890.096C1149 890.338 1143.48 890.58 1137.98 891.307ZM1137.16 903.421C1084.05 912.143 1037.68 964.434 992.945 1015.05C984.177 1024.98 975.186 1035.16 966.195 1044.83C929.019 1085.27 895.312 1109.25 863.451 1118.22C837.112 1125.71 808.721 1119.43 776.843 1098.84C769.698 1094.23 762.759 1089.14 755.409 1083.81C742.128 1073.9 728.437 1063.97 712.712 1056.94C677.586 1041.19 639.179 1047.01 606.088 1054.76C556.058 1066.39 514.181 1092.78 469.86 1120.64C427.367 1147.27 383.251 1174.87 330.965 1188.92C199.01 1224.03 93.6167 1212.89 8.64929 1155.51L7.82886 1157.2C93.2065 1214.58 199.01 1225.48 331.375 1190.37C383.867 1176.32 427.983 1148.72 470.475 1121.85C514.796 1093.99 556.468 1067.84 606.293 1056.22C638.974 1048.46 677.176 1042.89 711.891 1058.4C727.633 1065.42 741.102 1075.36 754.383 1085.27C761.733 1090.6 768.673 1095.93 775.835 1100.53C808.106 1121.12 836.907 1127.65 863.657 1119.91C895.927 1110.71 929.839 1086.72 967.221 1046.04C976.194 1036.37 985.185 1026.19 993.971 1016.26C1038.7 965.887 1084.87 913.839 1137.36 905.117C1183.92 897.606 1222.53 911.9 1262.36 951.613L1263.38 950.16C1230.09 916.746 1197.61 901.24 1160.64 901.24C1153.09 901.483 1145.12 901.967 1137.16 903.421ZM1136.34 915.535C1085.28 927.144 1040.75 978.728 997.441 1028.62C987.852 1039.76 977.63 1051.37 967.836 1062.27C930.044 1103.68 897.568 1127.4 865.503 1136.37C840.171 1143.39 812.601 1137.09 778.894 1116.52C771.955 1112.16 765.203 1107.56 758.058 1102.71C744.367 1093.26 730.283 1083.57 714.147 1076.32C684.936 1063.24 651.024 1060.82 607.113 1068.33C552.981 1077.54 509.891 1105.38 463.928 1134.91C423.898 1160.84 382.226 1187.47 332.196 1201.52C199.83 1238.08 93.6168 1231.06 8.03406 1179.96L7.4187 1181.65C93.4117 1232.75 199.83 1239.78 332.606 1203.22C382.841 1189.16 424.513 1162.53 464.749 1136.61C510.506 1107.07 553.596 1079.23 607.318 1070.02C651.024 1062.51 684.731 1064.94 713.532 1077.78C729.462 1084.78 743.564 1094.72 757.238 1103.92C764.383 1108.77 771.134 1113.61 778.279 1117.73C812.396 1138.55 840.171 1144.85 865.913 1137.58C898.184 1128.37 930.865 1104.89 968.845 1063C978.656 1052.1 988.86 1040.49 998.466 1029.34C1041.56 979.697 1085.89 928.355 1136.54 916.746C1181.68 906.57 1221.71 919.633 1262.56 958.619L1263.59 957.912C1231.32 927.144 1199.46 912.143 1165.34 912.143C1155.74 912.143 1146.15 913.354 1136.34 915.535ZM1135.51 927.628C1086.7 942.165 1043.81 992.78 1002.14 1041.68C991.527 1054.28 980.485 1067.12 969.665 1079.23C931.873 1121.37 899.602 1145.09 867.947 1153.81C843.436 1160.6 817.695 1154.54 781.544 1133.46C774.809 1129.58 768.28 1125.22 761.323 1120.88C747.034 1111.68 732.317 1102.23 715.771 1094.96C685.141 1081.41 649.811 1076.81 608.344 1081.41C550.742 1087.69 506.421 1117.25 459.638 1148.24C421.453 1173.66 382.021 1199.82 333.614 1213.61C198.412 1252.11 94.8475 1249.21 7.21362 1204.18L6.61536 1205.86C94.4373 1250.9 198.412 1254.05 333.819 1215.31C382.431 1201.28 421.864 1175.11 460.254 1149.69C506.831 1118.7 550.947 1089.39 608.344 1083.09C649.606 1078.5 684.731 1082.85 715.173 1096.41C731.514 1103.68 746.213 1113.13 760.503 1122.34C767.459 1126.68 773.989 1131.04 780.723 1134.91C817.284 1156.23 843.436 1162.29 868.357 1155.27C900.218 1146.3 932.899 1122.34 970.896 1080.2C981.715 1068.09 992.74 1055 1003.37 1042.65C1044.63 993.749 1087.52 943.376 1135.92 929.082C1180.04 916.019 1220.48 927.87 1262.77 966.372L1263.79 965.16C1232.14 936.35 1201.49 922.298 1169.63 922.298C1158.61 922.54 1147.15 924.236 1135.51 927.628ZM1134.71 939.742C1087.93 956.943 1046.87 1006.57 1007.05 1054.76C995.407 1068.81 983.356 1083.33 971.511 1096.66C933.104 1139.76 902.064 1163.02 870.391 1171.96C843.436 1179.47 816.276 1169.05 784.005 1151.15C777.869 1147.75 771.955 1144.12 765.408 1140.24C750.298 1131.28 734.778 1122.09 717.412 1114.34C684.116 1099.56 647.76 1093.02 609.575 1095.2C548.503 1098.35 503.771 1129.1 456.374 1161.81C420.018 1186.98 382.226 1212.89 335.255 1226.7C249.467 1251.87 122.213 1279.73 7.02551 1229.36L6.41028 1231.06C55.4319 1252.36 108.744 1261.56 169.611 1258.9C218.837 1256.72 272.953 1246.78 335.46 1228.39C382.841 1214.58 420.633 1188.68 457.194 1163.5C504.37 1131.04 548.896 1100.29 609.763 1097.14C647.76 1094.96 683.911 1101.5 717.002 1116.28C734.368 1124.01 749.888 1133.22 764.793 1142.18C771.134 1146.06 777.253 1149.69 783.39 1153.08C816.071 1171.24 843.436 1181.9 870.801 1174.14C911.653 1162.78 946.59 1127.65 972.725 1098.35C984.57 1084.78 996.62 1070.51 1008.28 1056.46C1047.9 1008.51 1088.95 959.104 1135.31 941.922C1178.42 925.69 1219.06 936.108 1263.18 974.125L1264 972.671C1232.94 945.799 1203.54 932.474 1173.72 932.474C1160.85 932.474 1147.98 934.896 1134.71 939.742ZM1124.08 956.943C1083.64 978.97 1047.08 1024.01 1011.95 1067.6C969.05 1120.64 924.934 1175.35 872.852 1189.89C841.607 1198.61 808.926 1180.93 771.134 1160.11C727.223 1136.13 677.381 1108.77 610.788 1108.77C546.452 1108.77 501.72 1140.73 454.134 1174.63C418.992 1199.58 382.841 1225.48 336.691 1239.54C242.938 1268.1 120.589 1295.46 6.41028 1254.05L6 1255.75C120.589 1297.4 243.143 1269.8 337.084 1241.23C383.456 1227.18 419.812 1201.28 454.955 1176.08C502.336 1142.42 546.862 1110.46 610.788 1110.46C677.176 1110.46 726.813 1137.58 770.519 1161.56C808.516 1182.38 841.197 1200.31 873.058 1191.34C925.549 1176.57 969.87 1121.61 1012.76 1068.57C1047.9 1024.98 1084.25 979.939 1124.49 958.155C1169.43 933.685 1214.77 941.195 1263.18 981.393L1264 979.939C1233.76 955.005 1204.76 942.407 1176.16 942.407C1158.81 942.649 1141.45 947.495 1124.08 956.943Z" fill="white"/>
</g>
</svg>
